<?xml version="1.0" encoding="UTF-8"?>
<svg version="1.1" xmlns="http://www.w3.org/2000/svg" width="512" height="512">
<path d="M0 0 C168.96 0 337.92 0 512 0 C512 168.96 512 337.92 512 512 C343.04 512 174.08 512 0 512 C0 343.04 0 174.08 0 0 Z " fill="#026BC0" transform="translate(0,0)"/>
<path d="M0 0 C168.96 0 337.92 0 512 0 C512.0928125 67.010625 512.0928125 67.010625 512.1875 135.375 C512.21481201 149.44302246 512.24212402 163.51104492 512.27026367 178.00537109 C512.28381348 195.28051758 512.28381348 195.28051758 512.28633118 203.38638306 C512.28910846 209.00694617 512.30002562 214.62741797 512.31672668 220.24795532 C512.33602861 226.75357354 512.34446062 233.2591054 512.34033485 239.76475237 C512.33855268 243.08195548 512.34282295 246.39881439 512.35764539 249.71600604 C512.45451577 272.4773327 511.00941187 294.83177999 505.0625 316.875 C504.72313142 318.19623584 504.38524897 319.51785427 504.04882812 320.83984375 C494.69231293 357.16067779 477.07208883 392.91571675 452 421 C450.68902344 422.47339844 450.68902344 422.47339844 449.3515625 423.9765625 C426.327498 449.5021329 426.327498 449.5021329 414 458 C413.67 458 413.34 458 413 458 C413.58763919 441.3392622 414.86750981 424.7879269 416.375 408.1875 C416.60247361 405.64155793 416.82952028 403.09557767 417.05615234 400.54956055 C417.98604045 390.12803411 418.93169907 379.707956 419.890625 369.2890625 C419.95440338 368.59598999 420.01818176 367.90291748 420.08389282 367.18884277 C420.3808178 363.96341669 420.67807752 360.73802259 420.97607422 357.51269531 C421.97992479 346.51732779 422.83735007 335.51216001 423.68804932 324.50415039 C424.63472374 312.28092205 425.7086668 300.0771942 426.87719727 287.87304688 C427.78229882 278.39851654 428.63057338 268.92078075 429.4375 259.4375 C429.49776367 258.72970398 429.55802734 258.02190796 429.62011719 257.29266357 C430.0095563 252.71379201 430.39690189 248.13474463 430.78387451 243.55566406 C431.52013914 234.84940241 432.26011765 226.14345482 433 217.4375 C433.08546082 216.43158813 433.17092163 215.42567627 433.25897217 214.38928223 C434.62557855 198.31121794 436.02269642 182.23614276 437.45410156 166.16372681 C437.84442946 161.77354052 438.22851874 157.38284111 438.60917664 152.99180603 C438.88117228 149.85453329 439.15454241 146.71738085 439.427948 143.58023071 C439.55746529 142.08970872 439.68633002 140.59912985 439.81448364 139.10848999 C439.99175473 137.04743037 440.1714173 134.98659137 440.3515625 132.92578125 C440.45291504 131.75442627 440.55426758 130.58307129 440.65869141 129.3762207 C441.00946349 125.90638729 441.50679041 122.45246713 442 119 C319.24 119 196.48 119 70 119 C70.99 128.57 71.98 138.14 73 148 C73.54865283 154.56188783 74.08363933 161.12077625 74.5625 167.6875 C75.22301528 176.68856504 75.92370887 185.66721534 76.96875 194.6328125 C78.38313149 206.82083575 79.23925438 219.05565533 80.17456055 231.2878418 C81.14150194 243.87795534 82.21430217 256.44949954 83.45703125 269.015625 C84.51722517 279.75507317 85.48995343 290.49730077 86.359375 301.25390625 C86.41513577 301.94337215 86.47089653 302.63283806 86.52834702 303.34319687 C86.81740343 306.92386512 87.10474503 310.50466881 87.39126587 314.08554077 C89.13265166 335.83935464 90.93595754 357.58628841 92.91015625 379.3203125 C92.98976215 380.19808538 93.06936806 381.07585827 93.15138626 381.98023033 C93.92693639 390.52754695 94.70807782 399.07430892 95.5032177 407.61982632 C97.06182146 424.40343867 98.49390453 441.14366227 99 458 C97.71552887 457.04148878 96.43172045 456.08208945 95.14819336 455.12231445 C94.07570595 454.32105888 94.07570595 454.32105888 92.98155212 453.50361633 C78.86868215 442.79466674 65.69404248 429.08119936 55 415 C53.93652344 413.64455078 53.93652344 413.64455078 52.8515625 412.26171875 C31.63649775 384.7565734 16.29388593 353.42496792 7.71826172 319.80615234 C7.09736148 317.38037827 6.4479411 314.96533162 5.78515625 312.55078125 C0.01237305 290.79704233 -0.44049487 268.25732353 -0.34057617 245.89599609 C-0.33796968 243.1494556 -0.33993013 240.40292234 -0.34167194 237.65638161 C-0.34324653 231.11776704 -0.32959694 224.57927928 -0.31016796 218.04069702 C-0.28831275 210.45395899 -0.28616995 202.86729387 -0.28381348 195.28051758 C-0.26815111 175.31199205 -0.22626734 155.34349404 -0.1875 135.375 C-0.125625 90.70125 -0.06375 46.0275 0 0 Z " fill="#F0F0F1" transform="translate(0,0)"/>
<path d="M0 0 C76.56 0 153.12 0 232 0 C230.74599125 20.06413994 230.74599125 20.06413994 230.0625 29.0625 C229.98837891 30.12404297 229.91425781 31.18558594 229.83789062 32.27929688 C229.61415003 35.19520077 229.32673113 38.09405279 229 41 C228.855625 42.29035156 228.71125 43.58070313 228.5625 44.91015625 C226.06787444 49.84327829 221.83987601 51.18867273 216.9375 53.375 C214.92231167 54.3249893 212.90799647 55.27683283 210.89453125 56.23046875 C209.3933374 56.92922119 209.3933374 56.92922119 207.86181641 57.64208984 C203.87968305 59.53158188 200.00010903 61.58919988 196.125 63.6875 C177.06242413 74.00298313 157.36468655 83.31765672 138 93 C180.57 93.495 180.57 93.495 224 94 C221.69866458 128.52003125 221.69866458 128.52003125 220.74609375 139.51953125 C220.64031509 140.76530441 220.53453644 142.01107758 220.42555237 143.29460144 C220.20759899 145.85528387 219.98837881 148.41585883 219.76782227 150.97631836 C219.43131366 154.88434474 219.09915554 158.79272428 218.76757812 162.70117188 C218.55232942 165.22397934 218.3368439 167.74676662 218.12109375 170.26953125 C218.02316025 171.41952103 217.92522675 172.5695108 217.82432556 173.75434875 C217.35460408 179.1944277 216.85041804 184.62300178 216.19993591 190.04469299 C215.90409042 192.93796396 215.81056289 195.83179986 215.70874023 198.73730469 C215.28087575 210.93705576 213.74654948 222.9269562 212 235 C210.53125 235.42838542 209.0625 235.85677083 207.59375 236.28515625 C206.6356543 236.56464111 205.67755859 236.84412598 204.69042969 237.13208008 C202.52450113 237.76372637 200.35848239 238.39506348 198.19238281 239.02612305 C192.90222368 240.56775484 187.61300102 242.11221944 182.328125 243.671875 C173.17066252 246.36827923 164.00088694 249.01140715 154.80078125 251.55859375 C153.99867218 251.78070023 153.19656311 252.0028067 152.37014771 252.23164368 C148.37197937 253.33759818 144.37273382 254.43948364 140.37207031 255.53637695 C138.88473421 255.94601227 137.39742867 256.35575855 135.91015625 256.765625 C134.84340164 257.05701607 134.84340164 257.05701607 133.75509644 257.35429382 C130.09460451 258.36666701 126.54308315 259.50594881 122.99609375 260.859375 C115.04701861 263.56878881 106.9344388 260.30209184 99.25 257.9375 C97.10605952 257.29490067 94.96150049 256.65436234 92.81640625 256.015625 C91.6989502 255.68240234 90.58149414 255.34917969 89.43017578 255.00585938 C83.7027702 253.32636393 77.94520446 251.75933388 72.1875 250.1875 C61.50602444 247.26036838 50.84206876 244.27639576 40.19107056 241.24038696 C38.61117218 240.79011967 37.03107487 240.34054978 35.45077515 239.89169312 C33.24391853 239.26454155 31.03785605 238.63467597 28.83203125 238.00390625 C27.8372728 237.72164688 27.8372728 237.72164688 26.82241821 237.4336853 C24.45173571 236.75292043 22.21143778 236.10571889 20 235 C16.98945025 223.92180904 17.025839 211.54179538 16.14013672 200.15136719 C15.87450155 196.74360551 15.59988994 193.33665046 15.32421875 189.9296875 C15.15051009 187.73962543 14.97731516 185.54952254 14.8046875 183.359375 C14.72346649 182.35291931 14.64224548 181.34646362 14.55856323 180.30950928 C14.48493561 179.35111145 14.41130798 178.39271362 14.33544922 177.40527344 C14.27042206 176.57622498 14.2053949 175.74717651 14.13839722 174.89300537 C13.94895294 170.93293062 14 166.96460353 14 163 C30.17 163 46.34 163 63 163 C63.33 175.21 63.66 187.42 64 200 C66.31 200.33 68.62 200.66 71 201 C73.01664046 201.45201968 75.02624091 201.93664849 77.02734375 202.453125 C78.14206055 202.74058594 79.25677734 203.02804687 80.40527344 203.32421875 C81.5709082 203.62972656 82.73654297 203.93523437 83.9375 204.25 C85.13793945 204.56066406 86.33837891 204.87132812 87.57519531 205.19140625 C95.42232199 207.24675713 103.12346307 209.53278687 110.765625 212.25 C118.44522718 214.03077732 126.67255908 210.64499687 134.125 208.6875 C135.27226562 208.39166016 136.41953125 208.09582031 137.6015625 207.79101562 C144.53013253 205.9847499 151.35618248 203.99101043 158.15576172 201.74536133 C160.91148957 201.02319505 163.16803437 200.85284693 166 201 C165.98324219 199.86820313 165.96648437 198.73640625 165.94921875 197.5703125 C165.96133693 179.12644421 169.18382143 160.1617857 171 142 C118.53 142 66.06 142 12 142 C8 101 8 101 8 92 C36.38 77.81 64.76 63.62 94 49 C64.3 48.67 34.6 48.34 4 48 C1.6375 26.7375 1.6375 26.7375 0.875 18.375 C0.78863281 17.47394531 0.70226562 16.57289063 0.61328125 15.64453125 C0.53207031 14.75894531 0.45085937 13.87335938 0.3671875 12.9609375 C0.29612793 12.19571777 0.22506836 11.43049805 0.15185547 10.64208984 C-0.05171585 7.10021079 0 3.54772441 0 0 Z " fill="#FCFEFD" transform="translate(140,196)"/>
<path d="M0 0 C49.83 0 99.66 0 151 0 C149.515 12.375 149.515 12.375 148 25 C147.59125049 31.59406668 147.59125049 31.59406668 147.2421875 38.19140625 C147.00910044 41.85688829 146.58458668 45.42797352 146.0625 49.0625 C144.69829424 58.62204557 144.0086101 68.23159647 143.25 77.85498047 C142.8486021 82.90459742 142.42347357 87.95219505 142 93 C141.83189659 95.01431168 141.6639278 97.02863461 141.49609375 99.04296875 C141.41343262 100.03474121 141.33077148 101.02651367 141.24560547 102.04833984 C141.0080497 104.90325957 140.77145135 107.75825693 140.53515625 110.61328125 C139.58022011 122.13930065 138.60922221 133.66394544 137.625 145.1875 C137.5630545 145.91342346 137.50110901 146.63934692 137.43728638 147.38726807 C136.65495084 156.54148161 135.8513559 165.69354355 135.0234375 174.84375 C134.68192257 178.62496677 134.34081006 182.40621963 134 186.1875 C133.91496216 187.12986511 133.82992432 188.07223022 133.74230957 189.04315186 C132.34565314 204.57058758 131.1146874 220.10593247 130.0390625 235.65893555 C129.53197296 242.85335085 128.92690637 249.99786719 127.9765625 257.1484375 C126.94321395 265.02540272 126.42658688 272.88254594 126 280.8125 C125.47472255 289.97449682 124.91130657 299.12239388 123.9375 308.25 C123.85822266 308.99870361 123.77894531 309.74740723 123.69726562 310.51879883 C123.49070686 312.34897025 123.24792055 314.17497141 123 316 C122.95875 316.76957031 122.9175 317.53914063 122.875 318.33203125 C122 320 122 320 119.03515625 321.30859375 C117.71611886 321.70267359 116.39126834 322.07759271 115.0625 322.4375 C114.34594238 322.64576416 113.62938477 322.85402832 112.89111328 323.06860352 C110.59861068 323.72974001 108.30014303 324.36601426 106 325 C104.56875026 325.40533251 103.13775552 325.8115666 101.70703125 326.21875 C97.98209789 327.27131083 94.25036522 328.29729292 90.515625 329.31445312 C87.75946056 330.06555073 85.00470168 330.82168099 82.25 331.578125 C80.29172604 332.11480002 78.33339354 332.65126149 76.375 333.1875 C75.00674072 333.56249634 75.00674072 333.56249634 73.61083984 333.94506836 C69.6787565 335.01775113 65.74623917 336.07432271 61.7890625 337.05078125 C58.16657711 337.95826986 54.58591365 338.95839707 51 340 C49.94941406 340.29519531 48.89882813 340.59039062 47.81640625 340.89453125 C41.61277506 342.6446553 35.45275113 344.47678616 29.3125 346.4375 C23.12739579 348.40273107 16.89997287 350.15700805 10.625 351.8125 C9.79782471 352.03156006 8.97064941 352.25062012 8.1184082 352.47631836 C2.25889731 354 2.25889731 354 0 354 C0 338.49 0 322.98 0 307 C9.52362465 304.0238673 18.92970059 301.13408983 28.5625 298.625 C36.86569839 296.42739567 45.10971693 294.10936694 53.3125 291.5625 C62.43535806 288.73331056 71.60670726 286.10576329 80.8125 283.5625 C81.45917633 283.38292755 82.10585266 283.2033551 82.77212524 283.01834106 C84.60374631 282.51046268 86.43661281 282.00708235 88.26953125 281.50390625 C89.32760986 281.21330322 90.38568848 280.9227002 91.47583008 280.62329102 C94 280 94 280 96 280 C96.06058594 279.01 96.12117187 278.02 96.18359375 277 C96.26810131 275.66665856 96.352744 274.33332567 96.4375 273 C96.55931641 271.0509375 96.55931641 271.0509375 96.68359375 269.0625 C96.84642933 266.4571308 97.14462689 263.91996602 97.49169922 261.328125 C98.06998294 256.78711393 98.26716841 252.25881665 98.44921875 247.6875 C98.86045024 238.59002236 99.62982773 229.56473662 100.55673218 220.50714111 C102.62145102 200.26792 104.2119826 180.00034966 105.69262695 159.7109375 C105.8130687 158.08483047 105.8130687 158.08483047 105.9359436 156.4258728 C106.08675158 154.38705926 106.23460143 152.348024 106.3789978 150.30874634 C106.47986191 148.9486293 106.47986191 148.9486293 106.58276367 147.56103516 C106.63953781 146.77282379 106.69631195 145.98461243 106.75480652 145.17251587 C107 143 107 143 108 139 C79.29 139 50.58 139 21 139 C23.56490917 136.43509083 24.99443169 135.31959982 28.10986328 133.78271484 C28.93567902 133.37153412 29.76149475 132.96035339 30.61233521 132.53671265 C31.50596771 132.09920685 32.39960022 131.66170105 33.3203125 131.2109375 C34.71840652 130.51685287 34.71840652 130.51685287 36.14474487 129.80874634 C39.13537888 128.32512793 42.12992884 126.84963748 45.125 125.375 C49.02501425 123.44848693 52.92325025 121.51841464 56.8203125 119.5859375 C57.77375046 119.11353638 58.72718842 118.64113525 59.70951843 118.15441895 C66.95870993 114.54967883 74.12831462 110.81231836 81.26147461 106.98388672 C84.63757933 105.17721598 88.04910148 103.44723625 91.47399902 101.73512268 C93.44924802 100.74410581 95.41446472 99.7348919 97.37890625 98.72265625 C99.6736001 97.57621299 101.66493388 96.80142619 104.15234375 96.05859375 C107.21625164 95.07831906 108.84012026 94.40091665 111 92 C112.68741168 85.64244893 112.65713748 79.66677115 113 73 C113.99 63.76 114.98 54.52 116 45 C39.44 45 -37.12 45 -116 45 C-116 44.67 -116 44.34 -116 44 C-77.72 44 -39.44 44 0 44 C0 29.48 0 14.96 0 0 Z " fill="#0195DB" transform="translate(256,151)"/>
<path d="M0 0 C78.54 0 157.08 0 238 0 C238 79.2 238 158.4 238 240 C237.67 240 237.34 240 237 240 C236.91959473 239.27522461 236.83918945 238.55044922 236.75634766 237.80371094 C236.38258282 234.45209073 236.00381469 231.10105306 235.625 227.75 C235.49867188 226.61046875 235.37234375 225.4709375 235.2421875 224.296875 C231.05605488 187.45890794 218.76517078 152.42509499 199 121 C198.5786377 120.32791504 198.15727539 119.65583008 197.72314453 118.96337891 C187.2529361 102.42609148 174.85837816 87.79175134 161 74 C160.24460937 73.22140625 159.48921875 72.4428125 158.7109375 71.640625 C152.82127696 65.61307943 146.69457974 60.11585217 140 55 C139.360625 54.51128418 138.72125 54.02256836 138.0625 53.51904297 C123.32408471 42.35868046 107.71522361 32.90720159 91 25 C90.67 28.3 90.34 31.6 90 35 C74.16 35 58.32 35 42 35 C42 37.64 42 40.28 42 43 C57.84 43 73.68 43 90 43 C90 56.86 90 70.72 90 85 C68.22 85 46.44 85 24 85 C24 79.06 24 73.12 24 67 C39.51 67 55.02 67 71 67 C71 64.36 71 61.72 71 59 C55.82 59 40.64 59 25 59 C25 44.81 25 30.62 25 16 C38.86 15.67 52.72 15.34 67 15 C62.71 13.68 58.42 12.36 54 11 C52.12103027 10.42028442 52.12103027 10.42028442 50.20410156 9.82885742 C41.79929198 7.32978629 33.40520713 5.68026901 24.75 4.3125 C22.82414062 3.99442383 22.82414062 3.99442383 20.859375 3.66992188 C13.92108189 2.54316014 7.0064717 1.57703973 0 1 C0 0.67 0 0.34 0 0 Z " fill="#010101" transform="translate(274,0)"/>
<path d="M0 0 C79.2 0 158.4 0 240 0 C240 0.33 240 0.66 240 1 C239.14059814 1.09498779 238.28119629 1.18997559 237.39575195 1.2878418 C214.31957794 3.88335299 193.29407927 8.03310023 171 15 C185.19 15.33 199.38 15.66 214 16 C214 21.94 214 27.88 214 34 C197.83 34 181.66 34 165 34 C165 44.89 165 55.78 165 67 C181.17 67 197.34 67 214 67 C214 72.94 214 78.88 214 85 C192.22 85 170.44 85 148 85 C147.67 65.2 147.34 45.4 147 25 C133.37486566 31.76806226 133.37486566 31.76806226 120.3125 39.375 C119.42167725 39.93243896 118.53085449 40.48987793 117.61303711 41.06420898 C105.16719926 48.95082582 94.06549688 58.30928691 83 68 C82.05640625 68.81855469 81.1128125 69.63710937 80.140625 70.48046875 C75.77704236 74.32174377 71.69852985 78.22063077 67.95703125 82.671875 C66.43702666 84.48010402 64.89484257 86.25215589 63.32421875 88.015625 C46.65006696 106.8639473 33.58613985 128.20573768 23 151 C22.6690332 151.71027344 22.33806641 152.42054688 21.99707031 153.15234375 C13.08794719 172.55632866 7.63979397 193.00635982 4 214 C3.78601563 215.21171875 3.57203125 216.4234375 3.3515625 217.671875 C2.12753758 225.08698246 1.46635641 232.50147987 1 240 C0.67 240 0.34 240 0 240 C0 160.8 0 81.6 0 0 Z " fill="#010101" transform="translate(0,0)"/>
<path d="M0 0 C0.33 0 0.66 0 1 0 C1 78.54 1 157.08 1 238 C-77.21 238 -155.42 238 -236 238 C-236 237.67 -236 237.34 -236 237 C-235.37883301 236.94054199 -234.75766602 236.88108398 -234.11767578 236.81982422 C-166.05250975 230.06678472 -102.85095698 199.20332367 -58.875 146.0625 C-57.57013568 144.38518425 -56.27801674 142.69786108 -55 141 C-54.29359375 140.09894531 -53.5871875 139.19789063 -52.859375 138.26953125 C-31.63358914 110.77249048 -16.29345298 79.42327065 -7.71826172 45.80615234 C-7.09736148 43.38037827 -6.4479411 40.96533162 -5.78515625 38.55078125 C-2.44115736 25.92752761 -1.29783821 12.96492525 0 0 Z " fill="#010001" transform="translate(511,274)"/>
<path d="M0 0 C0.33 0 0.66 0 1 0 C1.04898438 0.62003906 1.09796875 1.24007813 1.1484375 1.87890625 C2.33004947 15.87489625 4.47765716 29.28469899 7.9375 42.875 C8.10644775 43.54305664 8.27539551 44.21111328 8.44946289 44.89941406 C15.72049192 73.42178967 27.60154151 102.09539527 45 126 C45.65484375 126.92554688 46.3096875 127.85109375 46.984375 128.8046875 C61.56369892 149.20443918 79.04704198 168.7016472 99 184 C99.63550781 184.50273437 100.27101563 185.00546875 100.92578125 185.5234375 C123.42183601 202.96149279 149.11574328 215.89283578 176 225 C176.68465332 225.23315918 177.36930664 225.46631836 178.07470703 225.70654297 C196.71649622 231.92656628 216.47009679 235.17757171 236 237 C236 237.33 236 237.66 236 238 C158.12 238 80.24 238 0 238 C0 159.46 0 80.92 0 0 Z " fill="#000001" transform="translate(0,274)"/>
<path d="M0 0 C0 6.27 0 12.54 0 19 C-15.84 19 -31.68 19 -48 19 C-48 21.64 -48 24.28 -48 27 C-32.16 27 -16.32 27 0 27 C0 40.86 0 54.72 0 69 C-21.78 69 -43.56 69 -66 69 C-66 63.06 -66 57.12 -66 51 C-50.49 51 -34.98 51 -19 51 C-19 48.36 -19 45.72 -19 43 C-34.18 43 -49.36 43 -65 43 C-65 28.81 -65 14.62 -65 0 C-57.9875 -0.185625 -50.975 -0.37125 -43.75 -0.5625 C-41.58276367 -0.62381104 -39.41552734 -0.68512207 -37.18261719 -0.74829102 C-24.71892566 -1.06778185 -12.44638725 -0.77076251 0 0 Z " fill="#232325" transform="translate(364,16)"/>
<path d="M0 0 C21.45 0 42.9 0 65 0 C65 5.94 65 11.88 65 18 C49.49 18 33.98 18 18 18 C18 20.97 18 23.94 18 27 C33.51 27 49.02 27 65 27 C65 40.86 65 54.72 65 69 C43.55 69 22.1 69 0 69 C0 63.06 0 57.12 0 51 C15.51 51 31.02 51 47 51 C47 48.36 47 45.72 47 43 C31.49 43 15.98 43 0 43 C0 28.81 0 14.62 0 0 Z " fill="#232324" transform="translate(224,16)"/>
<path d="M0 0 C18.15 0 36.3 0 55 0 C53.81492411 21.33136594 53.81492411 21.33136594 53.0625 31.1875 C52.95131836 32.73727539 52.95131836 32.73727539 52.83789062 34.31835938 C52.20890905 42.59739331 51.16173975 50.7813469 50 59 C48.75911621 59.32274902 47.51823242 59.64549805 46.23974609 59.97802734 C41.62104478 61.17990999 37.00304727 62.38447778 32.38525391 63.58984375 C30.38935023 64.11042982 28.39325831 64.63029469 26.39697266 65.14941406 C23.52195835 65.89717563 20.64763866 66.64755734 17.7734375 67.3984375 C16.88570648 67.6287265 15.99797546 67.8590155 15.08334351 68.09628296 C11.5181634 69.02988329 8.0263897 69.99096029 4.53759766 71.18603516 C1.8355875 72.05273728 0.61347905 72.00518425 -2 71 C-1.34 71 -0.68 71 0 71 C0 47.57 0 24.14 0 0 Z " fill="#0196DA" transform="translate(256,338)"/>
<path d="M0 0 C1.0399411 0.02361099 2.0798822 0.04722198 3.15133667 0.07154846 C6.39015275 0.14656391 9.62862376 0.2312575 12.8671875 0.31640625 C15.09764079 0.36979044 17.32810964 0.42252883 19.55859375 0.47460938 C24.95333276 0.60195168 30.34778754 0.73795766 35.7421875 0.87890625 C35.7421875 6.81890625 35.7421875 12.75890625 35.7421875 18.87890625 C19.5721875 18.87890625 3.4021875 18.87890625 -13.2578125 18.87890625 C-13.2578125 29.76890625 -13.2578125 40.65890625 -13.2578125 51.87890625 C2.9121875 51.87890625 19.0821875 51.87890625 35.7421875 51.87890625 C35.7421875 57.81890625 35.7421875 63.75890625 35.7421875 69.87890625 C13.9621875 69.87890625 -7.8178125 69.87890625 -30.2578125 69.87890625 C-30.2578125 47.10890625 -30.2578125 24.33890625 -30.2578125 0.87890625 C-9.57091678 -0.27036573 -9.57091678 -0.27036573 0 0 Z " fill="#242426" transform="translate(178.2578125,15.12109375)"/>
<path d="M0 0 C1.45812088 -0.00115356 2.91624147 -0.00274267 4.37436146 -0.00472724 C8.3633459 -0.00888815 12.35230632 -0.00684455 16.34129083 -0.00374103 C20.65012101 -0.00147395 24.95894712 -0.00497304 29.26777649 -0.00772095 C37.70147051 -0.01216351 46.13515562 -0.01120893 54.56884999 -0.00830831 C61.42354496 -0.00604849 68.27823743 -0.00574426 75.13293266 -0.00683212 C76.10910599 -0.00698536 77.08527931 -0.00713859 78.09103365 -0.00729647 C80.07419499 -0.0076162 82.05735634 -0.00794041 84.04051768 -0.00826906 C102.62866038 -0.01111938 121.21679815 -0.00784376 139.80494004 -0.00246869 C155.75106092 0.00199964 171.69717453 0.0012223 187.64329529 -0.00338745 C206.16719445 -0.0087399 224.6910893 -0.01084547 243.21498913 -0.00777519 C245.19048528 -0.00745664 247.16598143 -0.00714227 249.14147758 -0.00683212 C250.11342792 -0.00667785 251.08537826 -0.00652357 252.08678164 -0.00636462 C258.93298328 -0.00550154 265.77918217 -0.00695785 272.62538338 -0.00931168 C280.96887285 -0.01211728 289.31235291 -0.0113553 297.6558413 -0.00603093 C301.91198523 -0.00340432 306.16811347 -0.00237128 310.42425728 -0.00568008 C314.32193522 -0.00866437 318.21958297 -0.00701469 322.11725818 -0.00170253 C323.52560102 -0.00058747 324.93394642 -0.00114931 326.34228761 -0.00357832 C333.17332082 -0.01445433 339.81590249 0.05695608 346.57029724 1.12698364 C346.57029724 1.78698364 346.57029724 2.44698364 346.57029724 3.12698364 C224.47029724 3.12698364 102.37029724 3.12698364 -23.42970276 3.12698364 C-23.42970276 2.46698364 -23.42970276 1.80698364 -23.42970276 1.12698364 C-15.60670267 0.05715058 -7.88541185 -0.01362373 0 0 Z " fill="#E5F6FB" transform="translate(94.42970275878906,115.87301635742188)"/>
<path d="M0 0 C122.76 0 245.52 0 372 0 C370.85072802 18.38835175 370.85072802 18.38835175 370.24609375 25.4375 C370.18092056 26.21391846 370.11574738 26.99033691 370.04859924 27.7902832 C369.84649901 30.19366037 369.64206123 32.5968312 369.4375 35 C369.29736835 36.66144504 369.15739364 38.32290333 369.01757812 39.984375 C368.68018539 43.98973756 368.34070123 47.99491756 368 52 C367.67 52 367.34 52 367 52 C367 35.30336028 368.65064656 18.64202581 370 2 C188.335 2.495 188.335 2.495 3 3 C4.16169113 26.0263 4.16169113 26.0263 6 49 C6.66 49 7.32 49 8 49 C7.99214478 50.05912598 7.99214478 50.05912598 7.98413086 51.13964844 C7.96332587 54.34308988 7.95032859 57.5465171 7.9375 60.75 C7.92912109 61.86117187 7.92074219 62.97234375 7.91210938 64.1171875 C7.90888672 65.18710938 7.90566406 66.25703125 7.90234375 67.359375 C7.89710693 68.34389648 7.89187012 69.32841797 7.88647461 70.34277344 C7.98925641 72.74853071 8.39291678 74.68786666 9 77 C9.07708723 78.36800819 9.10803609 79.73923592 9.09765625 81.109375 C9.09443359 81.86347656 9.09121094 82.61757812 9.08789062 83.39453125 C9.07951172 84.17183594 9.07113281 84.94914062 9.0625 85.75 C9.05798828 86.54277344 9.05347656 87.33554688 9.04882812 88.15234375 C9.03708565 90.10159508 9.01915146 92.05080738 9 94 C8.67 94 8.34 94 8 94 C5.87841399 75.92736425 4.1221004 57.84883354 2.63745117 39.71289062 C2.36224115 36.35661028 2.08254131 33.00077034 1.80032063 29.64507675 C1.52670497 26.38341883 1.2576431 23.12138655 0.98828125 19.859375 C0.88832352 18.66777771 0.78836578 17.47618042 0.68537903 16.24847412 C0.59495834 15.1349054 0.50453766 14.02133667 0.41137695 12.87402344 C0.3316011 11.90511169 0.25182526 10.93619995 0.16963196 9.93792725 C-0.02134534 6.63031109 0 3.31312496 0 0 Z " fill="#4583B6" transform="translate(70,119)"/>
<path d="M0 0 C0.99 0 1.98 0 3 0 C3 1.32 3 2.64 3 4 C2.01 4.33 1.02 4.66 0 5 C-0.33 5.66 -0.66 6.32 -1 7 C0.32 7 1.64 7 3 7 C3 6.34 3 5.68 3 5 C6.3 4.34 9.6 3.68 13 3 C10.27083948 5.04687039 8.13664653 6.55925038 5.1796875 8.04296875 C4.47972656 8.39423828 3.77976563 8.74550781 3.05859375 9.10742188 C1.97771484 9.64206055 1.97771484 9.64206055 0.875 10.1875 C0.14667969 10.55552734 -0.58164063 10.92355469 -1.33203125 11.30273438 C-6.74657931 14 -6.74657931 14 -9 14 C-8.87882813 15.23041016 -8.75765625 16.46082031 -8.6328125 17.72851562 C-8.18164892 22.32026248 -7.73558675 26.91249338 -7.29101562 31.50488281 C-7.09838381 33.48743912 -6.90439317 35.46986391 -6.70898438 37.45214844 C-6.42735896 40.31150849 -6.15072266 43.17131545 -5.875 46.03125 C-5.78750488 46.90865845 -5.70000977 47.78606689 -5.60986328 48.69006348 C-5.52978027 49.53033081 -5.44969727 50.37059814 -5.3671875 51.23632812 C-5.29612793 51.96468872 -5.22506836 52.69304932 -5.15185547 53.44348145 C-4.94318496 56.95649303 -5 60.48079643 -5 64 C29.32 64 63.64 64 99 64 C99 65.32 99 66.64 99 68 C85.87357396 68.04642777 72.7471676 68.08192223 59.62067604 68.10362434 C53.5249198 68.11404249 47.42921991 68.12816574 41.33349609 68.15087891 C35.44610417 68.17267747 29.55876631 68.18458343 23.67133713 68.18975449 C21.42997767 68.19343766 19.18862102 68.20062988 16.9472847 68.21146011 C13.79763746 68.22606819 10.64821105 68.22797405 7.49853516 68.22705078 C6.58071259 68.23424133 5.66289001 68.24143188 4.71725464 68.24884033 C-1.39734484 68.2295614 -7.05143244 67.40508142 -13 66 C-13 65.34 -13 64.68 -13 64 C-11.35 63.34 -9.7 62.68 -8 62 C-8 55.4 -8 48.8 -8 42 C-8.66 42 -9.32 42 -10 42 C-10.33 42.99 -10.66 43.98 -11 45 C-12.00478179 40.97757848 -11.9802836 37.51071228 -11.66015625 33.38671875 C-11.56669922 32.13955078 -11.47324219 30.89238281 -11.37695312 29.60742188 C-11.27318359 28.31384766 -11.16941406 27.02027344 -11.0625 25.6875 C-10.91264648 23.71813477 -10.91264648 23.71813477 -10.75976562 21.70898438 C-10.51258821 18.47213729 -10.25911382 15.23590981 -10 12 C-9.195625 11.71125 -8.39125 11.4225 -7.5625 11.125 C-4.8673532 10.26737432 -4.8673532 10.26737432 -4 8 C-4.99 8 -5.98 8 -7 8 C-6.8125 6.1875 -6.8125 6.1875 -6 4 C-3.5 2.3125 -3.5 2.3125 -1 1 C-0.67 0.67 -0.34 0.34 0 0 Z " fill="#0768BD" transform="translate(157,274)"/>
<path d="M0 0 C18.15 0 36.3 0 55 0 C53.80120359 21.57833537 53.80120359 21.57833537 53.0625 31.1875 C52.97822754 32.28884277 52.89395508 33.39018555 52.80712891 34.52490234 C52.15398672 42.7404893 51.21392919 50.84933258 50 59 C44.06 60.32 38.12 61.64 32 63 C32 62.34 32 61.68 32 61 C34.08108685 60.32635339 36.1649671 59.66133202 38.25 59 C39.41015625 58.62875 40.5703125 58.2575 41.765625 57.875 C45 57 45 57 49 57 C48.98839844 55.92878906 48.97679687 54.85757813 48.96484375 53.75390625 C48.95546701 52.35677257 48.94636669 50.95963701 48.9375 49.5625 C48.92912109 48.85544922 48.92074219 48.14839844 48.91210938 47.41992188 C48.90346412 45.61306441 48.94779989 43.80612397 49 42 C49.33 41.67 49.66 41.34 50 41 C50.2313024 38.41043944 50.40346898 35.84125925 50.53515625 33.24609375 C50.57813339 32.47064713 50.62111053 31.6952005 50.66539001 30.89625549 C50.80215548 28.4102206 50.93239394 25.92389146 51.0625 23.4375 C51.15386841 21.75583604 51.24565971 20.074195 51.33789062 18.39257812 C51.56350852 14.26196909 51.78327185 10.13108463 52 6 C51.443125 6.144375 50.88625 6.28875 50.3125 6.4375 C49.549375 6.623125 48.78625 6.80875 48 7 C47.29657471 7.18361084 46.59314941 7.36722168 45.8684082 7.55639648 C41.61430455 8.21429982 37.40333349 8.12190563 33.10546875 8.09765625 C32.15811356 8.0962413 31.21075836 8.09482635 30.23469543 8.09336853 C27.21893105 8.08778611 24.20324182 8.07523682 21.1875 8.0625 C19.13867295 8.05748273 17.08984473 8.05292022 15.04101562 8.04882812 C10.02731494 8.03782243 5.0136702 8.02056988 0 8 C0 5.36 0 2.72 0 0 Z " fill="#0496DD" transform="translate(256,338)"/>
<path d="M0 0 C0.495 1.485 0.495 1.485 1 3 C1.5847601 2.99392447 2.16952021 2.98784895 2.77200031 2.98158932 C16.99322019 2.83418721 31.21448706 2.69245005 45.4358263 2.5570364 C52.31312423 2.49141475 59.19039324 2.42386805 66.06762695 2.35180664 C72.7005833 2.28231021 79.33357726 2.21815571 85.96661949 2.15730476 C88.50125577 2.13317017 91.03587545 2.10722476 93.57047462 2.07946587 C97.1118167 2.04098598 100.6531623 2.00885941 104.19458008 1.97827148 C105.24977844 1.96532547 106.30497681 1.95237946 107.39215088 1.93904114 C108.83715721 1.9284819 108.83715721 1.9284819 110.31135559 1.91770935 C111.14926541 1.90941321 111.98717524 1.90111708 112.85047626 1.89256954 C115 2 115 2 118 3 C118 3.66 118 4.32 118 5 C118.66 5 119.32 5 120 5 C119.67 6.32 119.34 7.64 119 9 C118.34 9 117.68 9 117 9 C116.96241577 10.40076782 116.96241577 10.40076782 116.92407227 11.82983398 C116.82913072 15.28325189 116.72988742 18.7364896 116.62768555 22.18969727 C116.58428187 23.68639269 116.54261087 25.18313939 116.50268555 26.67993164 C116.44511384 28.82714312 116.38138284 30.97409521 116.31640625 33.12109375 C116.26141968 35.06133423 116.26141968 35.06133423 116.20532227 37.04077148 C116 40 116 40 115 41 C114.75692622 42.93580442 114.53052544 44.87371468 114.3125 46.8125 C113.4188989 52.45629641 113.4188989 52.45629641 111.67578125 54.71875 C110.125 55.8125 110.125 55.8125 107 57 C104.8046875 56.57421875 104.8046875 56.57421875 103 56 C103.56227295 55.8040625 104.1245459 55.608125 104.70385742 55.40625 C107.03055247 54.45391876 108.97568996 53.49611399 111 52 C112.30620348 48.35231202 112.30620348 48.35231202 112.3125 44 C113.12703443 30.96744905 114.60889257 17.98366939 116 5 C39.44 5 -37.12 5 -116 5 C-116 4.67 -116 4.34 -116 4 C-77.72 4 -39.44 4 0 4 C0 2.68 0 1.36 0 0 Z " fill="#3198D1" transform="translate(256,191)"/>
<path d="M0 0 C4.84608187 0.73660444 9.19885563 2.50735999 13.75 4.25 C36.47095187 12.72133802 59.83873361 17.74539715 84 20 C84 20.33 84 20.66 84 21 C66.51 21 49.02 21 31 21 C31 20.34 31 19.68 31 19 C28.69 19 26.38 19 24 19 C24.20625 18.236875 24.4125 17.47375 24.625 16.6875 C25.33391203 13.78114056 25.33391203 13.78114056 23 11 C20.43717258 10.27034634 20.43717258 10.27034634 18 10 C18 9.34 18 8.68 18 8 C16.72125 7.835 15.4425 7.67 14.125 7.5 C13.40570313 7.4071875 12.68640625 7.314375 11.9453125 7.21875 C9.99501656 6.9627515 9.99501656 6.9627515 8 7 C8 6.34 8 5.68 8 5 C6.35 4.67 4.7 4.34 3 4 C3 3.34 3 2.68 3 2 C2.01 1.67 1.02 1.34 0 1 C0 0.67 0 0.34 0 0 Z " fill="#030308" transform="translate(152,491)"/>
<path d="M0 0 C30.36 0 60.72 0 92 0 C88.89986834 2.32509874 86.27920766 3.98887477 82.8671875 5.69921875 C81.89652344 6.18583984 80.92585938 6.67246094 79.92578125 7.17382812 C78.91902344 7.67333984 77.91226563 8.17285156 76.875 8.6875 C75.35326172 9.45416992 75.35326172 9.45416992 73.80078125 10.23632812 C72.83269531 10.71908203 71.86460937 11.20183594 70.8671875 11.69921875 C69.98144043 12.14096436 69.09569336 12.58270996 68.18310547 13.0378418 C66 14 66 14 64 14 C64 13.34 64 12.68 64 12 C64.66 12 65.32 12 66 12 C65.505 9.525 65.505 9.525 65 7 C65.99 6.34 66.98 5.68 68 5 C68.33 4.01 68.66 3.02 69 2 C46.56 2 24.12 2 1 2 C0.67 1.34 0.34 0.68 0 0 Z " fill="#086CC0" transform="translate(144,244)"/>
<path d="M0 0 C1.22951286 3.77431855 1.02640041 7.30745991 0.9375 11.25 C0.84342883 18.83162795 1.30274503 26.32147259 1.9375 33.875 C2.02443115 34.92719727 2.1113623 35.97939453 2.20092773 37.06347656 C2.65937195 42.61737827 2.65937195 42.61737827 4 48 C4.16258028 49.42013392 4.28215026 50.84545574 4.37304688 52.27197266 C4.42980591 53.12941071 4.48656494 53.98684875 4.54504395 54.87026978 C4.60236694 55.79222137 4.65968994 56.71417297 4.71875 57.6640625 C4.84764522 59.60937573 4.97655181 61.55468821 5.10546875 63.5 C5.30415653 66.57251171 5.50128642 69.64511899 5.69775391 72.71777344 C5.88846889 75.67929794 6.08464994 78.6404238 6.28125 81.6015625 C6.338573 82.52756256 6.395896 83.45356262 6.45495605 84.40762329 C6.51171509 85.25875702 6.56847412 86.10989075 6.62695312 86.98681641 C6.69903992 88.11574814 6.69903992 88.11574814 6.77258301 89.26748657 C6.82474594 91.02776734 6.82474594 91.02776734 8 92 C8.21763507 94.14517902 8.37195159 96.29683364 8.5 98.44921875 C8.54060547 99.09945511 8.58121094 99.74969147 8.62304688 100.41963196 C8.75309358 102.5086791 8.87704728 104.59802418 9 106.6875 C9.1234606 108.75908208 9.24833077 110.8305414 9.37695312 112.90180969 C9.49428957 114.79460202 9.60664729 116.68770103 9.71875 118.58081055 C9.98096752 121.76861987 10.42319744 124.85552482 11 128 C11.99 128 12.98 128 14 128 C14.33 128.99 14.66 129.98 15 131 C16.98 131.33 18.96 131.66 21 132 C21 132.66 21 133.32 21 134 C23.97 133.67 26.94 133.34 30 133 C29.01 133.99 28.02 134.98 27 136 C27 137.32 27 138.64 27 140 C27.99 140.33 28.98 140.66 30 141 C29.34 141.33 28.68 141.66 28 142 C25.60220816 140.41956865 23.20675383 138.83577556 20.8125 137.25 C20.13896484 136.8065625 19.46542969 136.363125 18.77148438 135.90625 C18.11083984 135.46796875 17.45019531 135.0296875 16.76953125 134.578125 C16.16729736 134.18012695 15.56506348 133.78212891 14.94458008 133.37207031 C13.98201294 132.69289551 13.98201294 132.69289551 13 132 C12.11795898 131.41943848 11.23591797 130.83887695 10.32714844 130.24072266 C7.30387583 127.32972854 7.26246802 125.71693964 6.99609375 121.5703125 C6.94751724 120.92470367 6.89894073 120.27909485 6.84889221 119.61392212 C6.69067042 117.45187083 6.56473643 115.28907765 6.4375 113.125 C6.32880248 111.57956533 6.21740532 110.03431852 6.10351562 108.48925781 C5.85723316 105.13106862 5.62110743 101.77236088 5.39013672 98.41308594 C4.7867197 89.83615366 4.015849 81.27306172 3.26016235 72.70846558 C2.99999975 69.74999719 2.74399642 66.79119435 2.48901367 63.83227539 C1.7353131 55.11858081 0.96097684 46.40868506 0.078125 37.70703125 C0.00686401 36.99958771 -0.06439697 36.29214417 -0.13781738 35.56326294 C-0.46013084 32.37458157 -0.7907524 29.18718686 -1.13671875 26.00097656 C-1.99995683 17.62805218 -2.13176004 9.40848634 -2 1 C-1.34 0.67 -0.68 0.34 0 0 Z " fill="#1F68A5" transform="translate(91,331)"/>
<path d="M0 0 C76.56 0 153.12 0 232 0 C231.67 5.28 231.34 10.56 231 16 C230.67 16 230.34 16 230 16 C230 11.38 230 6.76 230 2 C201.22595948 1.97720982 172.45192001 1.95950192 143.67787224 1.94893467 C140.28435297 1.9476839 136.8908337 1.94638958 133.49731445 1.94506836 C132.48388951 1.94467489 132.48388951 1.94467489 131.44999134 1.94427348 C120.49636831 1.93991675 109.54275051 1.93202919 98.58913059 1.9228472 C87.357933 1.91351073 76.12673803 1.9080193 64.89553636 1.90591151 C58.58368856 1.90460397 52.27185263 1.90151545 45.96000862 1.89426994 C40.0266126 1.88751365 34.09323341 1.88538224 28.15983391 1.88689232 C25.97523787 1.88661581 23.79064131 1.88460839 21.60604858 1.88079453 C18.63737412 1.87586338 15.66876427 1.87699956 12.7000885 1.87974548 C11.38542629 1.87537622 11.38542629 1.87537622 10.04420525 1.87091869 C6.21310688 1.50406807 6.21310688 1.50406807 3 3 C2.76472227 5.34987262 2.58613583 7.70556039 2.4375 10.0625 C2.35371094 11.35285156 2.26992187 12.64320313 2.18359375 13.97265625 C2.12300781 14.97167969 2.06242188 15.97070312 2 17 C1.67 17 1.34 17 1 17 C0.67 11.39 0.34 5.78 0 0 Z " fill="#DDFDFE" transform="translate(140,196)"/>
<path d="M0 0 C0.33 0 0.66 0 1 0 C2.96593861 17.77141074 4.59179791 35.5430245 5.90942383 53.37353516 C6.53936918 61.79539846 7.31615441 70.18023006 8.28038025 78.57060242 C9.03874895 85.20369297 9.62362801 91.84243749 10.125 98.5 C10.21136719 99.57507813 10.29773438 100.65015625 10.38671875 101.7578125 C10.87944022 108.18665458 11.11345622 114.55280524 11 121 C10.67 121 10.34 121 10 121 C8.54147036 113.01348818 7.54576903 105.10036134 7 97 C6.01 96.67 5.02 96.34 4 96 C4 93.69 4 91.38 4 89 C4.66 89 5.32 89 6 89 C5.86015045 85.62472444 5.71204731 82.24985869 5.5625 78.875 C5.52318359 77.92367187 5.48386719 76.97234375 5.44335938 75.9921875 C5.22946977 71.25371013 4.93438179 66.66405699 4 62 C3.34 62 2.68 62 2 62 C2 60.35 2 58.7 2 57 C2.66 57 3.32 57 4 57 C3.9498877 56.44813522 3.89977539 55.89627045 3.84814453 55.3276825 C3.32320262 49.53594989 2.80518377 43.74362651 2.29101562 37.95092773 C2.0987475 35.79484718 1.90476882 33.6389184 1.70898438 31.4831543 C1.4263846 28.36806855 1.15012915 25.25247216 0.875 22.13671875 C0.78750488 21.18729904 0.70000977 20.23787933 0.60986328 19.25968933 C0.04979713 12.82473918 -0.09860244 6.45792177 0 0 Z " fill="#D1EDF9" transform="translate(69,119)"/>
<path d="M0 0 C0.99 0 1.98 0 3 0 C3 1.32 3 2.64 3 4 C2.01 4.33 1.02 4.66 0 5 C-0.33 5.66 -0.66 6.32 -1 7 C0.32 7 1.64 7 3 7 C3 6.34 3 5.68 3 5 C6.3 4.34 9.6 3.68 13 3 C10.27083948 5.04687039 8.13664653 6.55925038 5.1796875 8.04296875 C4.47972656 8.39423828 3.77976563 8.74550781 3.05859375 9.10742188 C1.97771484 9.64206055 1.97771484 9.64206055 0.875 10.1875 C0.14667969 10.55552734 -0.58164063 10.92355469 -1.33203125 11.30273438 C-6.74657931 14 -6.74657931 14 -9 14 C-8.87882813 15.23041016 -8.75765625 16.46082031 -8.6328125 17.72851562 C-8.18164892 22.32026248 -7.73558675 26.91249338 -7.29101562 31.50488281 C-7.09838381 33.48743912 -6.90439317 35.46986391 -6.70898438 37.45214844 C-6.42735896 40.31150849 -6.15072266 43.17131545 -5.875 46.03125 C-5.78750488 46.90865845 -5.70000977 47.78606689 -5.60986328 48.69006348 C-5.12084534 53.82106207 -4.91652847 58.84563312 -5 64 C-6.65 63.67 -8.3 63.34 -10 63 C-9.01 62.505 -9.01 62.505 -8 62 C-8 55.4 -8 48.8 -8 42 C-8.66 42 -9.32 42 -10 42 C-10.33 42.99 -10.66 43.98 -11 45 C-12.00478179 40.97757848 -11.9802836 37.51071228 -11.66015625 33.38671875 C-11.56669922 32.13955078 -11.47324219 30.89238281 -11.37695312 29.60742188 C-11.27318359 28.31384766 -11.16941406 27.02027344 -11.0625 25.6875 C-10.96259766 24.37458984 -10.86269531 23.06167969 -10.75976562 21.70898438 C-10.51258821 18.47213729 -10.25911382 15.23590981 -10 12 C-8.7934375 11.566875 -8.7934375 11.566875 -7.5625 11.125 C-4.8673532 10.26737432 -4.8673532 10.26737432 -4 8 C-4.99 8 -5.98 8 -7 8 C-6.8125 6.1875 -6.8125 6.1875 -6 4 C-3.5 2.3125 -3.5 2.3125 -1 1 C-0.67 0.67 -0.34 0.34 0 0 Z " fill="#2171B0" transform="translate(157,274)"/>
<path d="M0 0 C49.83 0 99.66 0 151 0 C150.01 8.25 149.02 16.5 148 25 C147.67 25 147.34 25 147 25 C146.97090237 21.75001888 146.95316839 18.50007143 146.9375 15.25 C146.92912109 14.32960937 146.92074219 13.40921875 146.91210938 12.4609375 C146.90888672 11.57148438 146.90566406 10.68203125 146.90234375 9.765625 C146.89710693 8.94868164 146.89187012 8.13173828 146.88647461 7.29003906 C147 5 147 5 148 1 C99.16 1 50.32 1 0 1 C0 0.67 0 0.34 0 0 Z " fill="#0583D1" transform="translate(256,151)"/>
<path d="M0 0 C0.66 0.33 1.32 0.66 2 1 C-0.64 2.65 -3.28 4.3 -6 6 C-4.68 6.33 -3.36 6.66 -2 7 C-1.67 6.34 -1.34 5.68 -1 5 C2.34510352 3.37265234 4.18835834 3 8 3 C7.67 4.32 7.34 5.64 7 7 C5.68 7 4.36 7 3 7 C3 7.66 3 8.32 3 9 C35.175 9.495 35.175 9.495 68 10 C68 10.33 68 10.66 68 11 C39.29 11 10.58 11 -19 11 C-15.56634612 7.56634612 -12.23786517 5.87927011 -7.9375 3.75 C-6.83825195 3.18539063 -6.83825195 3.18539063 -5.71679688 2.609375 C-3.8428798 1.67327685 -1.92372213 0.82893794 0 0 Z " fill="#2DA0D5" transform="translate(296,279)"/>
<path d="M0 0 C0.33 0 0.66 0 1 0 C1 6.27 1 12.54 1 19 C-12.53 19.33 -26.06 19.66 -40 20 C-20.695 20.495 -20.695 20.495 -1 21 C-1 21.33 -1 21.66 -1 22 C-14.2 22 -27.4 22 -41 22 C-41.33 22.66 -41.66 23.32 -42 24 C-42 23.01 -42 22.02 -42 21 C-42.66 21 -43.32 21 -44 21 C-44 21.99 -44 22.98 -44 24 C-41.6699002 25.1650499 -40.32752923 25.1209358 -37.73388672 25.11352539 C-36.85312469 25.11344986 -35.97236267 25.11337433 -35.06491089 25.11329651 C-34.11278717 25.10813522 -33.16066345 25.10297394 -32.1796875 25.09765625 C-31.20589142 25.0962413 -30.23209534 25.09482635 -29.22879028 25.09336853 C-26.11082927 25.08775973 -22.9929394 25.07520573 -19.875 25.0625 C-17.76432395 25.05748613 -15.65364678 25.05292303 -13.54296875 25.04882812 C-8.36195479 25.03778745 -3.18098248 25.02104073 2 25 C0 27 0 27 -2.02481079 27.24050903 C-2.85531952 27.23606781 -3.68582825 27.23162659 -4.54150391 27.22705078 C-5.48232819 27.22689972 -6.42315247 27.22674866 -7.39248657 27.22659302 C-8.41023163 27.21627045 -9.42797668 27.20594788 -10.4765625 27.1953125 C-11.51694672 27.1924826 -12.55733093 27.18965271 -13.62924194 27.18673706 C-16.96127694 27.17551704 -20.29304586 27.15040915 -23.625 27.125 C-25.88020446 27.11497256 -28.13541312 27.1058463 -30.390625 27.09765625 C-35.92718629 27.07557174 -41.46354799 27.04102946 -47 27 C-47 24.03 -47 21.06 -47 18 C-31.49 18 -15.98 18 0 18 C0 12.06 0 6.12 0 0 Z " fill="#C9C9CB" transform="translate(289,16)"/>
<path d="M0 0 C0.65613281 0.17853516 1.31226563 0.35707031 1.98828125 0.54101562 C5.9538062 1.63291464 9.86005448 2.85259634 13.75 4.1875 C13.75 4.5175 13.75 4.8475 13.75 5.1875 C-1.1 5.1875 -15.95 5.1875 -31.25 5.1875 C-31.25 19.3775 -31.25 33.5675 -31.25 48.1875 C-31.58 48.1875 -31.91 48.1875 -32.25 48.1875 C-32.25 33.6675 -32.25 19.1475 -32.25 4.1875 C-19.4375 3.8125 -19.4375 3.8125 -15.40698242 3.70947266 C-14.35873291 3.6738623 -13.3104834 3.63825195 -12.23046875 3.6015625 C-11.15692139 3.5701416 -10.08337402 3.5387207 -8.97729492 3.50634766 C-6.0339235 3.37157693 -6.0339235 3.37157693 -3.25 1.1875 C-3.82073242 1.51347168 -4.39146484 1.83944336 -4.97949219 2.17529297 C-7.41607646 3.26153796 -8.93281107 3.4206027 -11.578125 3.3828125 C-12.37734375 3.37636719 -13.1765625 3.36992187 -14 3.36328125 C-14.825 3.34652344 -15.65 3.32976563 -16.5 3.3125 C-17.34046875 3.30347656 -18.1809375 3.29445313 -19.046875 3.28515625 C-21.11470604 3.26165817 -23.18238995 3.22578908 -25.25 3.1875 C-25.58 2.1975 -25.91 1.2075 -26.25 0.1875 C-24.44402344 0.09662109 -24.44402344 0.09662109 -22.6015625 0.00390625 C-21.02602923 -0.08049732 -19.45050904 -0.16514541 -17.875 -0.25 C-17.0809375 -0.28931641 -16.286875 -0.32863281 -15.46875 -0.36914062 C-3.61104053 -1.02231954 -3.61104053 -1.02231954 0 0 Z " fill="#BFBFBF" transform="translate(330.25,10.8125)"/>
<path d="M0 0 C18.15 0 36.3 0 55 0 C53.80120359 21.57833537 53.80120359 21.57833537 53.0625 31.1875 C52.97822754 32.28884277 52.89395508 33.39018555 52.80712891 34.52490234 C52.15398672 42.7404893 51.21392919 50.84933258 50 59 C44.06 60.32 38.12 61.64 32 63 C32 62.34 32 61.68 32 61 C34.08108685 60.32635339 36.1649671 59.66133202 38.25 59 C39.41015625 58.62875 40.5703125 58.2575 41.765625 57.875 C45 57 45 57 49 57 C48.98839844 55.92878906 48.97679687 54.85757813 48.96484375 53.75390625 C48.95546701 52.35677257 48.94636669 50.95963701 48.9375 49.5625 C48.92912109 48.85544922 48.92074219 48.14839844 48.91210938 47.41992188 C48.90346412 45.61306441 48.94779989 43.80612397 49 42 C49.33 41.67 49.66 41.34 50 41 C50.21919474 38.55327674 50.37922297 36.12791514 50.5 33.67578125 C50.5609082 32.56725044 50.5609082 32.56725044 50.62304688 31.43632507 C50.75313435 29.06193154 50.87709643 26.68727549 51 24.3125 C51.12334949 21.95560917 51.2481206 19.59883106 51.37695312 17.24223328 C51.45708879 15.77432159 51.53407263 14.30623336 51.60742188 12.83796692 C51.82736571 8.78477225 52.32790863 5.03254821 53 1 C35.51 1 18.02 1 0 1 C0 0.67 0 0.34 0 0 Z " fill="#1F8FC2" transform="translate(256,338)"/>
<path d="M0 0 C15.51 0 31.02 0 47 0 C46.67 1.32 46.34 2.64 46 4 C44.73816895 3.99476318 43.47633789 3.98952637 42.17626953 3.98413086 C37.50602932 3.96606542 32.83579221 3.95456231 28.16552734 3.94506836 C26.14208457 3.94003169 24.11864544 3.93320211 22.09521484 3.92456055 C19.19107157 3.91246588 16.28697631 3.90676512 13.3828125 3.90234375 C12.02024826 3.89460182 12.02024826 3.89460182 10.63015747 3.88670349 C9.36907669 3.88659019 9.36907669 3.88659019 8.08251953 3.88647461 C7.34083527 3.884254 6.599151 3.88203339 5.83499146 3.87974548 C3.90225085 3.88730527 3.90225085 3.88730527 2 5 C1.67 3.68 1.34 2.36 1 1 C1 6.61 1 12.22 1 18 C0.67 18 0.34 18 0 18 C0 12.06 0 6.12 0 0 Z " fill="#3E3E40" transform="translate(298,67)"/>
<path d="M0 0 C16.17 0 32.34 0 49 0 C49 8.25 49 16.5 49 25 C48.67 25 48.34 25 48 25 C47.93941406 23.85660156 47.87882812 22.71320313 47.81640625 21.53515625 C47.73201572 20.04425695 47.64736698 18.55337225 47.5625 17.0625 C47.52318359 16.30775391 47.48386719 15.55300781 47.44335938 14.77539062 C47.55961976 11.08055813 47.55961976 11.08055813 46 8 C46 6.02 46 4.04 46 2 C31.48 2 16.96 2 2 2 C2.33 3.65 2.66 5.3 3 7 C3.07905625 9.05733273 3.10779825 11.11695513 3.09765625 13.17578125 C3.09443359 14.33271484 3.09121094 15.48964844 3.08789062 16.68164062 C3.07951172 17.87982422 3.07113281 19.07800781 3.0625 20.3125 C3.05798828 21.53001953 3.05347656 22.74753906 3.04882812 24.00195312 C3.03706578 27.00135226 3.02062826 30.00065089 3 33 C2.67 33 2.34 33 2 33 C1.66031579 29.18803848 1.32942405 25.3753608 1 21.5625 C0.90460938 20.49322266 0.80921875 19.42394531 0.7109375 18.32226562 C0.62070313 17.26845703 0.53046875 16.21464844 0.4375 15.12890625 C0.35371094 14.17056885 0.26992187 13.21223145 0.18359375 12.22485352 C-0.04804788 8.15603128 0 4.07541068 0 0 Z " fill="#DAF6FB" transform="translate(154,359)"/>
<path d="M0 0 C11.7228653 2.84664978 23.33662455 6.00636656 34.9375 9.3125 C38.36695888 10.28726414 41.79674055 11.26088927 45.2265625 12.234375 C46.06453873 12.47249405 46.90251495 12.7106131 47.7658844 12.95594788 C52.84507431 14.39698068 57.93038595 15.81186507 63.0234375 17.203125 C64.1875415 17.52240967 65.35164551 17.84169434 66.55102539 18.1706543 C68.67114817 18.75039893 70.79266831 19.32506574 72.91577148 19.89379883 C73.83688721 20.14669678 74.75800293 20.39959473 75.70703125 20.66015625 C76.4956958 20.87293213 77.28436035 21.08570801 78.09692383 21.30493164 C80 22 80 22 82 24 C77.38 23.34 72.76 22.68 68 22 C68 21.34 68 20.68 68 20 C67.39414063 19.95101563 66.78828125 19.90203125 66.1640625 19.8515625 C50.27567583 18.43382954 50.27567583 18.43382954 45.6875 15.54296875 C42.35820257 13.63152619 39.02881128 12.94439145 35.3125 12.1875 C28.10880393 10.61684642 21.19809818 8.5416063 14.24145508 6.10620117 C9.53642461 4.46634772 4.85070765 3.14583645 0 2 C0 1.34 0 0.68 0 0 Z " fill="#216CAA" transform="translate(174,435)"/>
<path d="M0 0 C0.33 0 0.66 0 1 0 C1.36908756 14.03591058 0.21435198 27.89602114 -0.9375 41.875 C-1.30386653 46.39298448 -1.66631124 50.91127396 -2.02734375 55.4296875 C-2.11511581 56.51611542 -2.20288788 57.60254333 -2.2933197 58.72189331 C-2.80557229 65.16600575 -3.21677352 71.60594493 -3.53125 78.0625 C-3.81948564 83.86598754 -4.37213152 89.43193334 -5.5625 95.125 C-5.77036133 96.14787109 -5.77036133 96.14787109 -5.98242188 97.19140625 C-6.31025002 98.79663373 -6.65314104 100.3987769 -7 102 C-7.33 102 -7.66 102 -8 102 C-7.39402323 90.83207811 -6.60598621 79.6960496 -5.625 68.5546875 C-5.49405642 67.04552312 -5.36336573 65.53633677 -5.23291016 64.02713013 C-4.89330873 60.10381195 -4.55120695 56.18071674 -4.20825195 52.25769043 C-3.65927756 45.97666397 -3.11290007 39.69541473 -2.56903076 33.41394424 C-2.38149806 31.25451241 -2.19206597 29.09525362 -2.00244141 26.93600464 C-1.22029597 17.96315169 -0.56472878 8.98883574 0 0 Z " fill="#2D99C4" transform="translate(363,294)"/>
<path d="M0 0 C3.95820859 0.56545837 6.6659053 1.80902348 10 4 C9.67 4.66 9.34 5.32 9 6 C8.34 6 7.68 6 7 6 C7 16.56 7 27.12 7 38 C7.99 38.33 8.98 38.66 10 39 C8.02 39.495 8.02 39.495 6 40 C4.75940346 32.34151425 4.888594 24.74186336 4.9375 17 C4.958125 12.38 4.97875 7.76 5 3 C-11.17 3 -27.34 3 -44 3 C-44 2.67 -44 2.34 -44 2 C-29.48 1.67 -14.96 1.34 0 1 C0 0.67 0 0.34 0 0 Z " fill="#3277AE" transform="translate(198,356)"/>
<path d="M0 0 C0.33 0 0.66 0 1 0 C1.21324874 8.17335047 0.53844075 16.18223466 -0.25 24.3125 C-0.45211485 26.45256002 -0.65244615 28.59278271 -0.85270691 30.73301697 C-0.99706329 32.27494514 -1.14194345 33.81682436 -1.28730774 35.35865784 C-2.20027273 45.06409368 -3.05595823 54.77463933 -3.91516113 64.48495483 C-4.18613363 67.54705939 -4.45771283 70.60910954 -4.72949219 73.67114258 C-5.15339539 78.44739295 -5.5768394 83.22368378 -6 88 C-6.33 88 -6.66 88 -7 88 C-7.11891645 78.22242506 -6.86414878 68.54262574 -6.20043945 58.78857422 C-6.05977289 56.70969663 -5.92889179 54.63034662 -5.79882812 52.55078125 C-5.71150423 51.21610863 -5.62363521 49.88147154 -5.53515625 48.546875 C-5.456604 47.35932617 -5.37805176 46.17177734 -5.29711914 44.94824219 C-5 42 -5 42 -4 39 C-3.7220449 36.47984947 -3.4844802 33.97151527 -3.28125 31.4453125 C-3.18704773 30.33746902 -3.18704773 30.33746902 -3.09094238 29.20724487 C-2.89047545 26.84677473 -2.69478162 24.48594562 -2.5 22.125 C-2.30493564 19.77122344 -2.10874924 17.4175672 -1.90905762 15.06417847 C-1.78494572 13.60080839 -1.66348119 12.13721064 -1.54504395 10.67337036 C-1.23869489 7.05365733 -0.80200692 3.54449197 0 0 Z " fill="#226EAE" transform="translate(422,336)"/>
<path d="M0 0 C0.33 0 0.66 0 1 0 C2.83768928 13.29392248 3.95786601 26.62315467 5 40 C5.66 40 6.32 40 7 40 C6.99214478 41.05912598 6.99214478 41.05912598 6.98413086 42.13964844 C6.96332587 45.34308988 6.95032859 48.5465171 6.9375 51.75 C6.92912109 52.86117187 6.92074219 53.97234375 6.91210938 55.1171875 C6.90727539 56.72207031 6.90727539 56.72207031 6.90234375 58.359375 C6.89710693 59.34389648 6.89187012 60.32841797 6.88647461 61.34277344 C6.98925641 63.74853071 7.39291678 65.68786666 8 68 C8.07708723 69.36800819 8.10803609 70.73923592 8.09765625 72.109375 C8.09443359 72.86347656 8.09121094 73.61757812 8.08789062 74.39453125 C8.07951172 75.17183594 8.07113281 75.94914062 8.0625 76.75 C8.05798828 77.54277344 8.05347656 78.33554688 8.04882812 79.15234375 C8.03708565 81.10159508 8.01915146 83.05080738 8 85 C7.67 85 7.34 85 7 85 C4.73091124 67.12700482 3.22016756 49.20785674 1.8125 31.25 C1.72214478 30.10792084 1.63178955 28.96584167 1.53869629 27.78915405 C1.27873488 24.48991012 1.02319631 21.19035846 0.76953125 17.890625 C0.691548 16.89672256 0.61356476 15.90282013 0.53321838 14.87879944 C0.15763113 9.90184582 -0.08514323 4.99103559 0 0 Z " fill="#246FAB" transform="translate(71,128)"/>
<path d="M0 0 C1.22951286 3.77431855 1.02640041 7.30745991 0.9375 11.25 C0.84342883 18.83162795 1.30274503 26.32147259 1.9375 33.875 C2.02443115 34.92719727 2.1113623 35.97939453 2.20092773 37.06347656 C2.65937195 42.61737827 2.65937195 42.61737827 4 48 C4.14939774 49.91765594 4.24810283 51.83946522 4.31640625 53.76171875 C4.37924805 55.43911133 4.37924805 55.43911133 4.44335938 57.15039062 C4.48267578 58.31763672 4.52199219 59.48488281 4.5625 60.6875 C4.60568359 61.86634766 4.64886719 63.04519531 4.69335938 64.25976562 C4.79951176 67.17305883 4.90156242 70.08643757 5 73 C4.34 73 3.68 73 3 73 C2.95512451 72.37472412 2.91024902 71.74944824 2.86401367 71.10522461 C2.08459511 60.35934302 1.28964047 49.61780078 0.19921875 38.8984375 C0.13109482 38.22359818 0.06297089 37.54875885 -0.00721741 36.85346985 C-0.33933628 33.57610696 -0.68037585 30.30024864 -1.03442383 27.02514648 C-1.93142468 18.2991453 -2.15342319 9.76139383 -2 1 C-1.34 0.67 -0.68 0.34 0 0 Z " fill="#2772B3" transform="translate(91,331)"/>
<path d="M0 0 C0.33 0 0.66 0 1 0 C1.15926208 9.06782648 0.73789685 18.09216075 0.25537109 27.14355469 C0.12491421 29.62663294 0.00571069 32.11009929 -0.11328125 34.59375 C-0.50419977 42.25379558 -0.93904628 49.57017524 -3 57 C-2.34 57 -1.68 57 -1 57 C-1 58.98 -1 60.96 -1 63 C-1.66 63 -2.32 63 -3 63 C-3.99 63.99 -3.99 63.99 -5 65 C-5.3679456 53.98273286 -4.36381137 43.13635473 -3.34594727 32.17773438 C-3.061218 29.11119278 -2.784778 26.0439894 -2.50976562 22.9765625 C-2.33120549 21.00776924 -2.15218536 19.03901764 -1.97265625 17.0703125 C-1.89032242 16.16290314 -1.80798859 15.25549377 -1.72315979 14.32058716 C-1.2758872 9.52154851 -0.72899281 4.76459005 0 0 Z " fill="#D2EDF8" transform="translate(442,119)"/>
<path d="M0 0 C-16.80041777 8.33589262 -33.48531294 15.32736475 -51.5625 20.375 C-52.45445068 20.62604492 -53.34640137 20.87708984 -54.26538086 21.13574219 C-60.16007606 22.71500289 -65.91390415 23.57722976 -72 24 C-72 23.34 -72 22.68 -72 22 C-71.01902344 21.82984375 -70.03804688 21.6596875 -69.02734375 21.484375 C-51.18019318 18.31735203 -51.18019318 18.31735203 -34.26171875 12.015625 C-28.9213532 9.61753339 -22.89589792 7 -17 7 C-17 6.34 -17 5.68 -17 5 C-14.73392948 3.96724659 -12.46318061 2.94866449 -10.1875 1.9375 C-9.54490234 1.64294922 -8.90230469 1.34839844 -8.24023438 1.04492188 C-3.33984375 -1.11328125 -3.33984375 -1.11328125 0 0 Z " fill="#26649C" transform="translate(376,483)"/>
<path d="M0 0 C0.33 0 0.66 0 1 0 C1.28525503 3.22705968 1.52188975 6.45593814 1.75 9.6875 C1.83121094 10.59951172 1.91242188 11.51152344 1.99609375 12.45117188 C2.26540981 16.56572283 2.39040801 19.22226616 0.515625 22.95703125 C-4.9196408 27.37107475 -11.85627934 28.60775551 -18.5625 30.125 C-19.27857422 30.29386719 -19.99464844 30.46273438 -20.73242188 30.63671875 C-25.13920518 31.65521098 -29.51414951 32.42232149 -34 33 C-34 33.66 -34 34.32 -34 35 C-36.64 35 -39.28 35 -42 35 C-39.16093023 32.16093023 -35.77722811 31.63842673 -32 30.6171875 C-30.81277344 30.28849167 -30.81277344 30.28849167 -29.6015625 29.95315552 C-27.92794921 29.49117539 -26.25344131 29.03242585 -24.578125 28.57666016 C-22.0083893 27.87728323 -19.44153756 27.16804482 -16.875 26.45703125 C-15.25015976 26.00983578 -13.62516478 25.5632021 -12 25.1171875 C-11.22914063 24.90472382 -10.45828125 24.69226013 -9.6640625 24.47335815 C-4.23349057 23 -4.23349057 23 -2 23 C-1.90912109 21.515 -1.90912109 21.515 -1.81640625 20 C-1.39539534 13.30533362 -0.94925871 6.64481097 0 0 Z " fill="#2997C7" transform="translate(354,408)"/>
<path d="M0 0 C30.36 0 60.72 0 92 0 C89.24292706 2.06780471 86.93684461 3.70120548 83.9375 5.25 C82.93009766 5.78367188 82.93009766 5.78367188 81.90234375 6.328125 C80 7 80 7 77 6 C77.61875 5.71125 78.2375 5.4225 78.875 5.125 C81.13325765 4.06279958 81.13325765 4.06279958 83 2 C41.915 1.505 41.915 1.505 0 1 C0 0.67 0 0.34 0 0 Z " fill="#1863A1" transform="translate(144,244)"/>
<path d="M0 0 C0.33 0 0.66 0 1 0 C1 6.6 1 13.2 1 20 C1.66 20 2.32 20 3 20 C3.9092181 25.65735708 4.16635192 30.36263238 3 36 C2.01 36.66 1.02 37.32 0 38 C-0.72965366 40.56282742 -0.72965366 40.56282742 -1 43 C-1.33 43 -1.66 43 -2 43 C-2.28499537 28.54440146 -1.47171803 14.38056391 0 0 Z " fill="#D8EBF6" transform="translate(427,285)"/>
<path d="M0 0 C0.33 0 0.66 0 1 0 C1.77771951 8.87020634 2.36025481 17.07819122 0.546875 25.86328125 C-0.55322201 32.1731234 -0.69185893 38.61012732 -1 45 C-1.66 45 -2.32 45 -3 45 C-3 50.28 -3 55.56 -3 61 C-3.66 61 -4.32 61 -5 61 C-4.43395465 47.0255783 -3.35761821 33.16192185 -1.9375 19.25 C-1.74889811 17.36593049 -1.56074532 15.48181598 -1.37304688 13.59765625 C-0.92050696 9.06457184 -0.46200999 4.53212859 0 0 Z " fill="#C2E2F3" transform="translate(420,371)"/>
<path d="M0 0 C1.17175781 0.03480469 2.34351563 0.06960938 3.55078125 0.10546875 C5.32001953 0.14607422 5.32001953 0.14607422 7.125 0.1875 C8.02863281 0.22230469 8.93226563 0.25710938 9.86328125 0.29296875 C9.86328125 0.95296875 9.86328125 1.61296875 9.86328125 2.29296875 C5.98644038 3.48584286 2.94706202 4.29296875 -1.13671875 4.29296875 C-1.13671875 4.95296875 -1.13671875 5.61296875 -1.13671875 6.29296875 C-0.14929688 6.19757813 0.838125 6.1021875 1.85546875 6.00390625 C3.13679688 5.89304687 4.418125 5.7821875 5.73828125 5.66796875 C7.01445312 5.55195313 8.290625 5.4359375 9.60546875 5.31640625 C10.68054688 5.30867188 11.755625 5.3009375 12.86328125 5.29296875 C13.52328125 5.95296875 14.18328125 6.61296875 14.86328125 7.29296875 C5.93788599 11.75566638 -12.65958765 5.82277976 -22.13671875 4.29296875 C-22.13671875 3.96296875 -22.13671875 3.63296875 -22.13671875 3.29296875 C-21.01652344 3.32777344 -19.89632812 3.36257813 -18.7421875 3.3984375 C-17.26954624 3.42657714 -15.79688877 3.45387712 -14.32421875 3.48046875 C-13.21723633 3.51817383 -13.21723633 3.51817383 -12.08789062 3.55664062 C-7.94936331 3.78030551 -7.94936331 3.78030551 -4.54296875 1.79296875 C-3.13671875 0.29296875 -3.13671875 0.29296875 0 0 Z " fill="#0E68B0" transform="translate(230.13671875,503.70703125)"/>
<path d="M0 0 C0.33 0 0.66 0 1 0 C1.33 9.57 1.66 19.14 2 29 C1.34 29.33 0.68 29.66 0 30 C-0.03738281 31.1859375 -0.07476562 32.371875 -0.11328125 33.59375 C-0.52400951 44.31832132 -1.70120229 54.51806077 -4 65 C-4.33 65 -4.66 65 -5 65 C-5.20852441 57.47416461 -4.39737947 50.105152 -3.625 42.625 C-3.3466723 39.86623639 -3.07266438 37.10706205 -2.80078125 34.34765625 C-2.73237534 33.65355148 -2.66396942 32.95944672 -2.5934906 32.24430847 C-1.5488228 21.51140198 -0.77190788 10.75543453 0 0 Z " fill="#C9E7F6" transform="translate(434,204)"/>
<path d="M0 0 C4.46839215 -0.21278058 7.82262526 0.40861915 12 2 C12 2.33 12 2.66 12 3 C9.69 3.33 7.38 3.66 5 4 C14.05293337 4.13534286 22.97859571 3.75741925 32 3 C28.80857421 4.8297382 26.06242656 5.42159977 22.421875 5.8515625 C21.34292969 5.98046875 20.26398438 6.109375 19.15234375 6.2421875 C18.02957031 6.36851562 16.90679687 6.49484375 15.75 6.625 C14.64269531 6.7590625 13.53539062 6.893125 12.39453125 7.03125 C-3.3886908 8.8704364 -3.3886908 8.8704364 -9 7 C-9 6.34 -9 5.68 -9 5 C-7.329375 4.87625 -7.329375 4.87625 -5.625 4.75 C-1.94246056 4.42126213 -1.94246056 4.42126213 -0.5625 1.9375 C-0.376875 1.298125 -0.19125 0.65875 0 0 Z " fill="#1567AB" transform="translate(272,504)"/>
<path d="M0 0 C2.475 0.495 2.475 0.495 5 1 C5.33 1.99 5.66 2.98 6 4 C7.8459609 4.6108428 7.8459609 4.6108428 10 5 C11.43828115 5.64149645 12.85966903 6.32170213 14.265625 7.03125 C15.07386719 7.42957031 15.88210937 7.82789063 16.71484375 8.23828125 C18.39243639 9.07320024 20.06698594 9.91426446 21.73828125 10.76171875 C25.66704562 12.68563031 29.03677379 14.19255135 33.421875 14.59375 C37.20477089 15.0232491 37.70272519 15.25853912 40 18 C42.2603044 18.99373439 42.2603044 18.99373439 44.6875 19.6875 C45.49574219 19.93886719 46.30398437 20.19023437 47.13671875 20.44921875 C47.75160156 20.63097656 48.36648437 20.81273437 49 21 C49 21.66 49 22.32 49 23 C43.23282546 22.37292666 38.25408462 20.31662991 32.9375 18.125 C31.98536621 17.73513916 31.03323242 17.34527832 30.05224609 16.94360352 C19.70092724 12.60687228 9.83010937 7.39850269 0 2 C0 1.34 0 0.68 0 0 Z " fill="#246197" transform="translate(127,476)"/>
<path d="M0 0 C0.33 0 0.66 0 1 0 C1.4540305 4.74328338 1.90605927 9.48674528 2.35546875 14.23046875 C2.76251824 18.52234145 3.17560479 22.81357369 3.5934906 27.10440063 C3.8711443 29.96260891 4.14556585 32.82112301 4.41952515 35.6796875 C4.55556448 37.0917649 4.69293587 38.50371466 4.83169556 39.91552734 C5.52356574 46.96275057 6.19956438 53.91546437 6 61 C5.34 61 4.68 61 4 61 C3.505 53.575 3.505 53.575 3 46 C2.67 46 2.34 46 2 46 C1.71197502 40.89559993 1.42726815 35.79102902 1.14550781 30.6862793 C1.04939345 28.95315675 0.95240488 27.22008243 0.85449219 25.48706055 C0.71313986 22.98238393 0.575032 20.47754521 0.4375 17.97265625 C0.39375244 17.20977798 0.35000488 16.44689972 0.30493164 15.66090393 C0.02210449 10.43340322 -0.03634009 5.23524475 0 0 Z " fill="#C2E3F4" transform="translate(91,371)"/>
<path d="M0 0 C0 0.66 0 1.32 0 2 C-1.28913487 2.67154933 -2.58140204 3.33708859 -3.875 4 C-4.59429687 4.37125 -5.31359375 4.7425 -6.0546875 5.125 C-8 6 -8 6 -10 6 C-10 6.66 -10 7.32 -10 8 C-12 10 -12 10 -14.9375 10.875 C-18.38179383 12.1402508 -18.96928431 13.08636444 -21 16 C-24.10225027 18.43149346 -25.33363004 19.06286509 -29.3125 18.6875 C-30.199375 18.460625 -31.08625 18.23375 -32 18 C-29.8702019 16.34349037 -27.76918828 14.8648907 -25.4375 13.5 C-23.04451704 12.16859673 -23.04451704 12.16859673 -21.60766602 10.54760742 C-19.80084725 8.80828712 -18.08187527 7.85469197 -15.83984375 6.73828125 C-14.6497168 6.14370117 -14.6497168 6.14370117 -13.43554688 5.53710938 C-12.19901367 4.93092773 -12.19901367 4.93092773 -10.9375 4.3125 C-10.10927734 3.89677734 -9.28105469 3.48105469 -8.42773438 3.05273438 C-2.26712592 0 -2.26712592 0 0 0 Z " fill="#0797DE" transform="translate(320,268)"/>
<path d="M0 0 C4.84542943 0.73650527 9.20000549 2.50552116 13.75 4.25 C22.71522182 7.62955548 31.77222751 10.43607346 41 13 C41 13.33 41 13.66 41 14 C32.94924431 14.65720455 25.64327471 12.22928846 18 10 C18 9.34 18 8.68 18 8 C16.72125 7.835 15.4425 7.67 14.125 7.5 C13.40570313 7.4071875 12.68640625 7.314375 11.9453125 7.21875 C9.99501656 6.9627515 9.99501656 6.9627515 8 7 C8 6.34 8 5.68 8 5 C6.35 4.67 4.7 4.34 3 4 C3 3.34 3 2.68 3 2 C2.01 1.67 1.02 1.34 0 1 C0 0.67 0 0.34 0 0 Z " fill="#010C1E" transform="translate(152,491)"/>
<path d="M0 0 C0 0.66 0 1.32 0 2 C-0.99 2 -1.98 2 -3 2 C-3.23847656 2.62390625 -3.47695313 3.2478125 -3.72265625 3.890625 C-5.3399613 6.56140398 -6.48533777 6.87743973 -9.4375 7.75 C-10.61119141 8.11351562 -10.61119141 8.11351562 -11.80859375 8.484375 C-14 9 -14 9 -17 9 C-17.11794922 9.93779297 -17.11794922 9.93779297 -17.23828125 10.89453125 C-18 13 -18 13 -19.85546875 14.01171875 C-20.62503906 14.23472656 -21.39460938 14.45773437 -22.1875 14.6875 C-22.99445313 14.9246875 -23.80140625 15.161875 -24.6328125 15.40625 C-27.40587527 16.1018037 -30.16403691 16.63641499 -33 17 C-33 17.66 -33 18.32 -33 19 C-34.98 19.33 -36.96 19.66 -39 20 C-34.72798874 16.18447381 -30.15916043 14.02336653 -25 11.6875 C-17.9632399 8.44012894 -11.13010292 5.01194317 -4.37109375 1.21484375 C-2 0 -2 0 0 0 Z " fill="#2797C3" transform="translate(359,248)"/>
<path d="M0 0 C0 0.66 0 1.32 0 2 C0.78375 1.67 1.5675 1.34 2.375 1 C6.99361869 -0.27410171 11.24249356 -0.16923936 16 0 C16 1.65 16 3.3 16 5 C15.01 4.67 14.02 4.34 13 4 C12.731875 4.598125 12.46375 5.19625 12.1875 5.8125 C10.59850549 8.73959515 8.98104381 10.5094781 6 12 C4.68 11.01 3.36 10.02 2 9 C3.28913487 8.32845067 4.58140204 7.66291141 5.875 7 C6.59429687 6.62875 7.31359375 6.2575 8.0546875 5.875 C10 5 10 5 12 5 C12 4.34 12 3.68 12 3 C4.41 3 -3.18 3 -11 3 C-11 2.67 -11 2.34 -11 2 C-7.12315913 0.80712589 -4.08378077 0 0 0 Z " fill="#F3FAF9" transform="translate(224,240)"/>
<path d="M0 0 C0.33 0 0.66 0 1 0 C1.52759838 3.78989361 1.6957017 7.22378996 1 11 C-1.35797374 14.08766608 -4.27979543 15.91363459 -7.5625 17.9375 C-8.36236328 18.47439453 -9.16222656 19.01128906 -9.98632812 19.56445312 C-12.2950653 21.09670074 -14.63393459 22.55825087 -17 24 C-17.68690918 24.42941895 -18.37381836 24.85883789 -19.08154297 25.30126953 C-20.68129383 26.26974717 -22.3364498 27.14574449 -24 28 C-24.66 27.67 -25.32 27.34 -26 27 C-23.47043472 23.9083091 -20.77545388 23.09068668 -17 22 C-17 21.01 -17 20.02 -17 19 C-15.35 18.34 -13.7 17.68 -12 17 C-12 16.34 -12 15.68 -12 15 C-10.35 15 -8.7 15 -7 15 C-7 14.34 -7 13.68 -7 13 C-4 11 -4 11 -1 11 C-0.67 7.37 -0.34 3.74 0 0 Z " fill="#1E649F" transform="translate(412,448)"/>
<path d="M0 0 C0.81726563 0.10183594 1.63453125 0.20367187 2.4765625 0.30859375 C3.10304688 0.39238281 3.72953125 0.47617187 4.375 0.5625 C1.41107968 2.53844688 -0.70666736 3.28284412 -4.10546875 4.21875 C-5.18763672 4.51910156 -6.26980469 4.81945312 -7.38476562 5.12890625 C-8.51591797 5.43699219 -9.64707031 5.74507813 -10.8125 6.0625 C-12.48022461 6.52462891 -12.48022461 6.52462891 -14.18164062 6.99609375 C-19.97839095 8.59543398 -25.78334045 10.13596531 -31.625 11.5625 C-31.625 10.9025 -31.625 10.2425 -31.625 9.5625 C-29.975 9.2325 -28.325 8.9025 -26.625 8.5625 C-26.295 7.5725 -25.965 6.5825 -25.625 5.5625 C-24.449375 5.583125 -23.27375 5.60375 -22.0625 5.625 C-18.15086533 5.63197261 -14.48002056 5.20500343 -10.625 4.5625 C-10.625 3.9025 -10.625 3.2425 -10.625 2.5625 C-9.305 2.5625 -7.985 2.5625 -6.625 2.5625 C-6.625 1.9025 -6.625 1.2425 -6.625 0.5625 C-4.10446405 -0.69776798 -2.7707902 -0.35624445 0 0 Z " fill="#D5F8FC" transform="translate(337.625,432.4375)"/>
<path d="M0 0 C0.99 0 1.98 0 3 0 C3 1.32 3 2.64 3 4 C2.01 4.33 1.02 4.66 0 5 C-0.33 5.66 -0.66 6.32 -1 7 C0.32 7 1.64 7 3 7 C3 6.34 3 5.68 3 5 C6.3 4.34 9.6 3.68 13 3 C7.36097953 7.22926535 3.04683237 9.29531676 -4 10 C-4 9.34 -4 8.68 -4 8 C-4.99 8 -5.98 8 -7 8 C-6.8125 6.1875 -6.8125 6.1875 -6 4 C-3.5 2.3125 -3.5 2.3125 -1 1 C-0.67 0.67 -0.34 0.34 0 0 Z " fill="#0769B7" transform="translate(157,274)"/>
<path d="M0 0 C0 18.81 0 37.62 0 57 C-0.33 57 -0.66 57 -1 57 C-1.00808685 56.38025803 -1.01617371 55.76051605 -1.02450562 55.12199402 C-1.11044519 48.68194772 -1.20994402 42.24221301 -1.31738281 35.80249023 C-1.35570782 33.39792099 -1.39055441 30.99329372 -1.421875 28.58862305 C-1.46744882 25.13569372 -1.5254563 21.6831651 -1.5859375 18.23046875 C-1.60326431 16.61316109 -1.60326431 16.61316109 -1.62094116 14.96318054 C-1.64081085 13.96236954 -1.66068054 12.96155853 -1.68115234 11.93041992 C-1.69447601 11.04883713 -1.70779968 10.16725433 -1.7215271 9.25895691 C-1.863101 6.7192217 -1.863101 6.7192217 -4 4 C-4 3.01 -4 2.02 -4 1 C-1 0 -1 0 0 0 Z " fill="#E5E5E7" transform="translate(148,24)"/>
<path d="M0 0 C0.33 0 0.66 0 1 0 C1 7.26 1 14.52 1 22 C1.66 22 2.32 22 3 22 C3.80967438 24.91482778 4.21845993 26.46113217 3.0625 29.3125 C2.711875 29.869375 2.36125 30.42625 2 31 C1.34 31 0.68 31 0 31 C-0.93119457 28.2064163 -1.12858975 26.50073518 -1.1328125 23.61328125 C-1.13410156 22.75669922 -1.13539063 21.90011719 -1.13671875 21.01757812 C-1.13285156 20.12490234 -1.12898438 19.23222656 -1.125 18.3125 C-1.12886719 17.43916016 -1.13273437 16.56582031 -1.13671875 15.66601562 C-1.12878341 10.35330408 -0.77108092 5.25681357 0 0 Z " fill="#DEF1F7" transform="translate(436,186)"/>
<path d="M0 0 C1.32 0 2.64 0 4 0 C5.89986726 10.73517231 7.20895882 21.08770589 7 32 C6.67 32 6.34 32 6 32 C4.54147036 24.01348818 3.54576903 16.10036134 3 8 C2.01 7.67 1.02 7.34 0 7 C0 4.69 0 2.38 0 0 Z " fill="#E0F0F9" transform="translate(73,208)"/>
<path d="M0 0 C0 0.66 0 1.32 0 2 C-3.35710417 4.23806945 -5.74497732 4.68309296 -9.6875 5.4375 C-13.66584143 6.23968348 -17.39858816 7.00995893 -21.125 8.625 C-26.16959683 10.72875108 -31.60170974 10.73908264 -37 11 C-34.11321457 9.07547638 -32.29723033 8.42077755 -28.9921875 7.59765625 C-28.00476563 7.34693359 -27.01734375 7.09621094 -26 6.83789062 C-24.96875 6.58201172 -23.9375 6.32613281 -22.875 6.0625 C-16.40708925 4.44552231 -10.0318056 2.78468695 -3.74658203 0.54858398 C-2 0 -2 0 0 0 Z " fill="#2B99C4" transform="translate(309,443)"/>
<path d="M0 0 C-8.91 4.62 -17.82 9.24 -27 14 C-27.33 13.01 -27.66 12.02 -28 11 C-26.68 11 -25.36 11 -24 11 C-23.67 9.68 -23.34 8.36 -23 7 C-21.68 6.67 -20.36 6.34 -19 6 C-19 5.34 -19 4.68 -19 4 C-16.69 4.33 -14.38 4.66 -12 5 C-12 4.34 -12 3.68 -12 3 C-10.02 2.67 -8.04 2.34 -6 2 C-6 1.34 -6 0.68 -6 0 C-3 -1 -3 -1 0 0 Z " fill="#D0F4FA" transform="translate(335,260)"/>
<path d="M0 0 C0.66 0 1.32 0 2 0 C2.26939152 8.45839483 1.42501361 16.7248764 0.5 25.125 C0.35498671 26.47651087 0.21045214 27.82807319 0.06640625 29.1796875 C-0.28437653 32.45366014 -0.63995473 35.72703527 -1 39 C-1.33 39 -1.66 39 -2 39 C-1.88175936 33.92781866 -1.75751147 28.8558336 -1.62768555 23.78393555 C-1.58436438 22.05839035 -1.54268727 20.33280307 -1.50268555 18.60717773 C-1.44491474 16.12731236 -1.38123997 13.64765828 -1.31640625 11.16796875 C-1.29969376 10.39599655 -1.28298126 9.62402435 -1.26576233 8.82865906 C-1.17772105 5.64817067 -1.01254805 3.03764416 0 0 Z " fill="#1F6CAD" transform="translate(429,244)"/>
<path d="M0 0 C8.26565816 1.25889784 16.05964735 3.39950295 24 6 C24 6.33 24 6.66 24 7 C22.88625 6.979375 21.7725 6.95875 20.625 6.9375 C17.16784079 6.73619282 17.16784079 6.73619282 15 8 C12.99199544 7.71887936 10.98985949 7.38932033 9 7 C9 6.34 9 5.68 9 5 C5.7 4.34 2.4 3.68 -1 3 C-0.67 2.01 -0.34 1.02 0 0 Z " fill="#E8F8FA" transform="translate(223,401)"/>
<path d="M0 0 C0.66 0 1.32 0 2 0 C3.2647822 3.94287974 3.22444395 7.94777814 3.31640625 12.046875 C3.33718735 12.81807678 3.35796844 13.58927856 3.37937927 14.3838501 C3.44458572 16.83914572 3.50362484 19.29454521 3.5625 21.75 C3.60571274 23.41797935 3.6493279 25.08594832 3.69335938 26.75390625 C3.80023736 30.83583196 3.90158566 34.91786182 4 39 C3.67 39 3.34 39 3 39 C2.56589274 35.05378027 2.13897768 31.10685009 1.71826172 27.15917969 C1.50463776 25.16822355 1.28558198 23.17785262 1.06640625 21.1875 C0.31406338 14.09398156 -0.22722811 7.13454176 0 0 Z " fill="#206CAD" transform="translate(81,244)"/>
<path d="M0 0 C0.33 0 0.66 0 1 0 C1.33 2.97 1.66 5.94 2 9 C2.66 7.68 3.32 6.36 4 5 C5.29676812 9.61073111 4.71109139 13.33840089 4 18 C2.35 18 0.7 18 -1 18 C-1.18451025 5.33029613 -1.18451025 5.33029613 0 0 Z " fill="#0A94CE" transform="translate(356,390)"/>
<path d="M0 0 C1.65 0 3.3 0 5 0 C2.08037313 2.32080544 -0.86213316 4.0481472 -4.203125 5.69921875 C-5.1828125 6.18583984 -6.1625 6.67246094 -7.171875 7.17382812 C-8.69554687 7.9230957 -8.69554687 7.9230957 -10.25 8.6875 C-11.28125 9.19861328 -12.3125 9.70972656 -13.375 10.23632812 C-15.91489782 11.49451825 -18.45658991 12.74892921 -21 14 C-21.33 13.34 -21.66 12.68 -22 12 C-21.67 11.34 -21.34 10.68 -21 10 C-19.68 10 -18.36 10 -17 10 C-17 9.34 -17 8.68 -17 8 C-15.73160474 7.49384702 -14.46016898 6.99530901 -13.1875 6.5 C-12.12595703 6.08234375 -12.12595703 6.08234375 -11.04296875 5.65625 C-9 5 -9 5 -6 5 C-5.67 4.01 -5.34 3.02 -5 2 C-3.35 2 -1.7 2 0 2 C0 1.34 0 0.68 0 0 Z " fill="#2773AF" transform="translate(193,263)"/>
<path d="M0 0 C2.97 0 5.94 0 9 0 C9 0.66 9 1.32 9 2 C12.62885324 2.15149298 12.62885324 2.15149298 16 1 C18.33333333 1 20.66666667 1 23 1 C23.33 0.67 23.66 0.34 24 0 C26.67058851 -0.14115161 29.32432238 -0.04247107 32 0 C21.01376445 5.65359088 13.50494375 5.32196841 1.87109375 1.62109375 C1.25363281 1.41613281 0.63617188 1.21117187 0 1 C0 0.67 0 0.34 0 0 Z " fill="#D5F2FA" transform="translate(240,453)"/>
<path d="M0 0 C0.33 0 0.66 0 1 0 C1.87648324 9.99664672 2.30338938 19.12017284 0 29 C-0.66 29 -1.32 29 -2 29 C-1.8594438 25.66642262 -1.71158198 22.33320611 -1.5625 19 C-1.52318359 18.06542969 -1.48386719 17.13085938 -1.44335938 16.16796875 C-1.19609347 10.72811877 -0.75680832 5.39305423 0 0 Z " fill="#CFECF7" transform="translate(420,371)"/>
<path d="M0 0 C3.46911255 3.60115489 3.35100043 6.51596363 3.29296875 11.390625 C3.28872391 12.09523865 3.28447906 12.79985229 3.28010559 13.52581787 C3.26336538 15.76760712 3.22572404 18.00848431 3.1875 20.25 C3.17244704 21.77342448 3.1587597 23.29686311 3.14648438 24.8203125 C3.11347791 28.54716941 3.06172854 32.27349563 3 36 C2.67 36 2.34 36 2 36 C-0.38776806 11.22373113 -0.38776806 11.22373113 0 0 Z " fill="#C2E6F5" transform="translate(157,392)"/>
<path d="M0 0 C0.33 0 0.66 0 1 0 C2.1922117 9.66543055 2.09622024 19.28175551 2 29 C1.34 29 0.68 29 0 29 C-1.17818227 22.77745217 -0.91929158 16.86581791 -0.5625 10.5625 C-0.51029297 9.54478516 -0.45808594 8.52707031 -0.40429688 7.47851562 C-0.27553907 4.98529631 -0.1406198 2.49257367 0 0 Z " fill="#DEF0F9" transform="translate(89,347)"/>
<path d="M0 0 C5.62311735 0.33416066 10.395784 0.96816974 15.640625 3.16796875 C20.91952794 5.02956863 26.51847429 5.91447314 32 7 C32 7.33 32 7.66 32 8 C23.32374227 7.59170552 15.30582781 5.37950743 7 3 C5.68100424 2.62364654 4.36199436 2.24734257 3.04296875 1.87109375 C1.53669922 1.43990234 1.53669922 1.43990234 0 1 C0 0.67 0 0.34 0 0 Z " fill="#28669B" transform="translate(176,499)"/>
<path d="M0 0 C1.32 0 2.64 0 4 0 C4 0.99 4 1.98 4 3 C3.01 3 2.02 3 1 3 C1.0721875 3.68964844 1.144375 4.37929688 1.21875 5.08984375 C1.67599602 9.71945972 2.09676328 14.34926551 2.25 19 C2.27578125 19.70125 2.3015625 20.4025 2.328125 21.125 C2 23 2 23 -1 26 C-0.67 17.42 -0.34 8.84 0 0 Z " fill="#0698CC" transform="translate(364,290)"/>
<path d="M0 0 C0 0.66 0 1.32 0 2 C-1.28913487 2.67154933 -2.58140204 3.33708859 -3.875 4 C-4.59429687 4.37125 -5.31359375 4.7425 -6.0546875 5.125 C-8 6 -8 6 -10 6 C-10 6.66 -10 7.32 -10 8 C-12.49505962 10.49505962 -13.67328888 10.35948376 -17.125 10.625 C-18.03507812 10.69976562 -18.94515625 10.77453125 -19.8828125 10.8515625 C-20.93082031 10.92503906 -20.93082031 10.92503906 -22 11 C-18.29827831 7.92815242 -14.15955301 5.93178248 -9.875 3.8125 C-9.14667969 3.44447266 -8.41835938 3.07644531 -7.66796875 2.69726562 C-2.25342069 0 -2.25342069 0 0 0 Z " fill="#2693C1" transform="translate(320,268)"/>
<path d="M0 0 C-3.46808063 1.99414636 -6.35856545 3.17779285 -10.3125 3.5625 C-12.1378125 3.7790625 -12.1378125 3.7790625 -14 4 C-14.33 4.66 -14.66 5.32 -15 6 C-18.3 6 -21.6 6 -25 6 C-21.19226307 3.46150871 -17.43944336 2.52697203 -13.0625 1.3125 C-12.25103516 1.07466797 -11.43957031 0.83683594 -10.60351562 0.59179688 C-9.81783203 0.37201172 -9.03214844 0.15222656 -8.22265625 -0.07421875 C-7.50859619 -0.27619873 -6.79453613 -0.47817871 -6.05883789 -0.6862793 C-3.74877514 -1.03828103 -2.20769403 -0.70940527 0 0 Z " fill="#C2F0F7" transform="translate(305,398)"/>
<path d="M0 0 C3.3 0 6.6 0 10 0 C10 0.66 10 1.32 10 2 C14.29 2.66 18.58 3.32 23 4 C23 4.99 23 5.98 23 7 C15.41 5.02 7.82 3.04 0 1 C0 0.67 0 0.34 0 0 Z " fill="#1B6CAC" transform="translate(222,400)"/>
<path d="M0 0 C0 0.66 0 1.32 0 2 C-2.99706695 2.86963087 -5.64956526 3.11763099 -8.765625 3.09765625 C-9.65507812 3.09443359 -10.54453125 3.09121094 -11.4609375 3.08789062 C-12.38132812 3.07951172 -13.30171875 3.07113281 -14.25 3.0625 C-15.18585938 3.05798828 -16.12171875 3.05347656 -17.0859375 3.04882812 C-19.39069041 3.03706918 -21.69531227 3.02063426 -24 3 C-24 2.67 -24 2.34 -24 2 C-21.31306278 1.66148822 -18.62559711 1.329064 -15.9375 1 C-14.80924805 0.85691406 -14.80924805 0.85691406 -13.65820312 0.7109375 C-9.06578683 0.15428098 -4.6257865 -0.09829028 0 0 Z " fill="#010C21" transform="translate(299,509)"/>
<path d="M0 0 C0.33 0 0.66 0 1 0 C1 2.64 1 5.28 1 8 C2.3921875 8.1546875 2.3921875 8.1546875 3.8125 8.3125 C8.99499832 9.03762322 13.98018616 10.55669005 19 12 C19 12.33 19 12.66 19 13 C16.84186484 12.76520289 14.68431096 12.52659224 12.52734375 12.28125 C10.91671367 12.1020145 9.30475208 11.93412202 7.69140625 11.78125 C2.21894172 11.21894172 2.21894172 11.21894172 0 9 C-0.1953125 6.8359375 -0.1953125 6.8359375 -0.125 4.375 C-0.10695312 3.55773437 -0.08890625 2.74046875 -0.0703125 1.8984375 C-0.04710937 1.27195312 -0.02390625 0.64546875 0 0 Z " fill="#CBECF8" transform="translate(203,388)"/>
<path d="M0 0 C0.33 0.66 0.66 1.32 1 2 C0.34 2 -0.32 2 -1 2 C-1.309375 2.928125 -1.309375 2.928125 -1.625 3.875 C-3.57045913 6.88161866 -5.60872838 7.02174857 -9 8 C-10.546875 8.8353125 -10.546875 8.8353125 -12.125 9.6875 C-15 11 -15 11 -19 10 C-12.73 6.7 -6.46 3.4 0 0 Z " fill="#010D23" transform="translate(383,478)"/>
<path d="M0 0 C0 3 0 3 -2.1875 5.5625 C-4.85111126 7.87096309 -6.77080153 8.77814112 -10 10 C-10.99 11.485 -10.99 11.485 -12 13 C-15.125 13.6875 -15.125 13.6875 -18 14 C-14.61328496 10.33961102 -10.81399549 7.59149278 -6.75 4.75 C-5.77546875 4.06164062 -5.77546875 4.06164062 -4.78125 3.359375 C-3.18995001 2.23610442 -1.59530905 1.11756944 0 0 Z " fill="#020F22" transform="translate(413,458)"/>
<path d="M0 0 C7.5 0.625 7.5 0.625 12 4 C6.72 4 1.44 4 -4 4 C-2.68 3.34 -1.36 2.68 0 2 C0 1.34 0 0.68 0 0 Z " fill="#E7E7E7" transform="translate(328,11)"/>
<path d="M0 0 C0.82514784 2.83384108 1.07936233 5.16935251 0.87890625 8.109375 C0.83056641 8.86347656 0.78222656 9.61757813 0.73242188 10.39453125 C0.64831055 11.56048828 0.64831055 11.56048828 0.5625 12.75 C0.51029297 13.54277344 0.45808594 14.33554687 0.40429688 15.15234375 C0.27510676 17.10193997 0.13830035 19.05102886 0 21 C-0.33 21 -0.66 21 -1 21 C-2.05619003 16.71702469 -2.11702092 12.57014354 -2.0625 8.1875 C-2.05798828 7.49462891 -2.05347656 6.80175781 -2.04882812 6.08789062 C-2.03713156 4.39188932 -2.01919924 2.69593297 -2 1 C-1.34 0.67 -0.68 0.34 0 0 Z " fill="#1B6DAF" transform="translate(91,331)"/>
<path d="M0 0 C0.66 0.33 1.32 0.66 2 1 C1.31292969 1.39832031 0.62585938 1.79664063 -0.08203125 2.20703125 C-0.98308594 2.73683594 -1.88414062 3.26664062 -2.8125 3.8125 C-3.70582031 4.33457031 -4.59914063 4.85664063 -5.51953125 5.39453125 C-7.98619969 6.85743425 -7.98619969 6.85743425 -9.625 8.6875 C-11 10 -11 10 -14.1875 10.1875 C-15.115625 10.125625 -16.04375 10.06375 -17 10 C-14.27068207 6.73690403 -10.67833428 5.09948674 -6.9375 3.25 C-6.30005859 2.92128906 -5.66261719 2.59257812 -5.00585938 2.25390625 C-3.36875018 1.43621419 -1.68639678 0.71050174 0 0 Z " fill="#3395C3" transform="translate(296,279)"/>
<path d="M0 0 C1.32 0 2.64 0 4 0 C4 0.66 4 1.32 4 2 C6.97 1.34 9.94 0.68 13 0 C9.33997803 3.05001831 3.92148529 7 -1 7 C-1 6.34 -1 5.68 -1 5 C-0.34 5 0.32 5 1 5 C0.67 3.35 0.34 1.7 0 0 Z " fill="#2071B1" transform="translate(209,251)"/>
<path d="M0 0 C1.32 0 2.64 0 4 0 C4 0.66 4 1.32 4 2 C8.455 1.505 8.455 1.505 13 1 C11.515 2.485 11.515 2.485 10 4 C10 5.32 10 6.64 10 8 C10.99 8.33 11.98 8.66 13 9 C12.01 9.495 12.01 9.495 11 10 C9.72799029 8.89718873 8.45744147 7.79269231 7.1875 6.6875 C6.47980469 6.07261719 5.77210937 5.45773437 5.04296875 4.82421875 C3.29863261 3.26665665 1.63221959 1.67341125 0 0 Z " fill="#1267AF" transform="translate(108,463)"/>
<path d="M0 0 C0.66 0 1.32 0 2 0 C2.10808032 7.09727428 1.93854006 13.96094956 1 21 C0.67 21 0.34 21 0 21 C-0.19461488 18.06281233 -0.38097593 15.12550068 -0.5625 12.1875 C-0.61857422 11.35412109 -0.67464844 10.52074219 -0.73242188 9.66210938 C-0.78076172 8.85966797 -0.82910156 8.05722656 -0.87890625 7.23046875 C-0.9260376 6.49207764 -0.97316895 5.75368652 -1.02172852 4.99291992 C-1 3 -1 3 0 0 Z " fill="#1567AB" transform="translate(413,424)"/>
<path d="M0 0 C0 0.66 0 1.32 0 2 C-1.32 2.33 -2.64 2.66 -4 3 C-4 3.66 -4 4.32 -4 5 C-7.01490557 6.00496852 -9.04181692 6.10335303 -12.1875 6.0625 C-13.53908203 6.04896484 -13.53908203 6.04896484 -14.91796875 6.03515625 C-15.60503906 6.02355469 -16.29210937 6.01195312 -17 6 C-13.9666221 3.97774806 -11.38655511 3.00652476 -7.9375 1.875 C-6.87402344 1.52179688 -5.81054688 1.16859375 -4.71484375 0.8046875 C-2 0 -2 0 0 0 Z " fill="#010E22" transform="translate(346,496)"/>
<path d="M0 0 C3.3776758 1.12589193 4.71363192 2.31943052 7 5 C7 5.99 7 6.98 7 8 C5.51882199 7.71872579 4.04006751 7.42466268 2.5625 7.125 C1.73878906 6.96257812 0.91507813 6.80015625 0.06640625 6.6328125 C-0.61550781 6.42398437 -1.29742187 6.21515625 -2 6 C-2.33 5.34 -2.66 4.68 -3 4 C-2.34 3.34 -1.68 2.68 -1 2 C-0.67 1.34 -0.34 0.68 0 0 Z " fill="#196FB7" transform="translate(213,392)"/>
<path d="M0 0 C15.74487472 0.96355353 15.74487472 0.96355353 23 2 C23 2.33 23 2.66 23 3 C16.73 3 10.46 3 4 3 C4 2.34 4 1.68 4 1 C2.68 0.67 1.36 0.34 0 0 Z " fill="#010D1F" transform="translate(213,509)"/>
<path d="M0 0 C0 0.99 0 1.98 0 3 C-0.66 3 -1.32 3 -2 3 C-2.66 4.65 -3.32 6.3 -4 8 C-6.64 7.67 -9.28 7.34 -12 7 C-8.35140239 3.95950199 -4.2555467 2.03481238 0 0 Z " fill="#E5F7FA" transform="translate(204,260)"/>
<path d="M0 0 C2 2 2 2 2.1953125 4.3828125 C2.17210938 5.28773438 2.14890625 6.19265625 2.125 7.125 C2.10695313 8.03507813 2.08890625 8.94515625 2.0703125 9.8828125 C2.04710938 10.58148438 2.02390625 11.28015625 2 12 C1.01 12 0.02 12 -1 12 C-1.22162329 10.37675914 -1.42689803 8.751279 -1.625 7.125 C-1.74101563 6.22007812 -1.85703125 5.31515625 -1.9765625 4.3828125 C-1.98429687 3.59648437 -1.99203125 2.81015625 -2 2 C-1.34 1.34 -0.68 0.68 0 0 Z " fill="#EBF5F9" transform="translate(68,128)"/>
<path d="M0 0 C-0.66 1.65 -1.32 3.3 -2 5 C-5.63 5 -9.26 5 -13 5 C-8.92577519 1.94433139 -5.19809676 0 0 0 Z " fill="#E1E1E1" transform="translate(185,10)"/>
<path d="M0 0 C3.62493334 -0.05787784 7.24974857 -0.0935542 10.875 -0.125 C11.90753906 -0.14175781 12.94007813 -0.15851563 14.00390625 -0.17578125 C14.99003906 -0.18222656 15.97617188 -0.18867188 16.9921875 -0.1953125 C18.35899658 -0.21102295 18.35899658 -0.21102295 19.75341797 -0.22705078 C22 0 22 0 24 2 C20.93431214 3.53284393 18.20081246 2.8725174 14.8125 2.625 C12.87310547 2.48964844 12.87310547 2.48964844 10.89453125 2.3515625 C7.22825336 2.02060462 3.63673472 1.55659494 0 1 C0 0.67 0 0.34 0 0 Z " fill="#2165A0" transform="translate(221,509)"/>
<path d="M0 0 C2.3125 -0.1875 2.3125 -0.1875 5 0 C5.45375 0.4640625 5.9075 0.928125 6.375 1.40625 C8.36117837 3.35423263 10.04139143 3.88216261 12.6875 4.6875 C13.49574219 4.93886719 14.30398437 5.19023437 15.13671875 5.44921875 C15.75160156 5.63097656 16.36648437 5.81273437 17 6 C17 6.66 17 7.32 17 8 C12.15340923 7.40895235 8.39251833 6.02055843 4 4 C4 3.34 4 2.68 4 2 C2.68 1.34 1.36 0.68 0 0 Z " fill="#2066A4" transform="translate(159,491)"/>
<path d="M0 0 C1.46373047 0.02707031 1.46373047 0.02707031 2.95703125 0.0546875 C3.69308594 0.07789063 4.42914063 0.10109375 5.1875 0.125 C1.87733906 1.97290538 -1.38423491 2.87041487 -5.0625 3.75 C-6.67898438 4.14058594 -6.67898438 4.14058594 -8.328125 4.5390625 C-9.14796875 4.73242188 -9.9678125 4.92578125 -10.8125 5.125 C-10.8125 4.135 -10.8125 3.145 -10.8125 2.125 C-7.04027911 0.37336544 -4.145861 -0.09990027 0 0 Z " fill="#CCF4FB" transform="translate(298.8125,443.875)"/>
<path d="M0 0 C0 3.3 0 6.6 0 10 C-1.32 10 -2.64 10 -4 10 C-4.29296875 3.9453125 -4.29296875 3.9453125 -4 2 C-1 0 -1 0 0 0 Z " fill="#0769B5" transform="translate(424,310)"/>
<path d="M0 0 C1.23556641 0.01740234 1.23556641 0.01740234 2.49609375 0.03515625 C3.32238281 0.04417969 4.14867187 0.05320312 5 0.0625 C5.63808594 0.07410156 6.27617187 0.08570313 6.93359375 0.09765625 C4.00196089 1.65169311 1.09994151 2.79567257 -2.06640625 3.78515625 C-2.91203125 4.05714844 -3.75765625 4.32914062 -4.62890625 4.609375 C-7.18961305 5.1223371 -8.62469623 4.93982012 -11.06640625 4.09765625 C-10.40640625 4.09765625 -9.74640625 4.09765625 -9.06640625 4.09765625 C-8.73640625 3.10765625 -8.40640625 2.11765625 -8.06640625 1.09765625 C-6.85984375 1.12859375 -6.85984375 1.12859375 -5.62890625 1.16015625 C-2.75043439 1.08994962 -2.70010568 0.12760424 0 0 Z " fill="#2496CC" transform="translate(265.06640625,404.90234375)"/>
<path d="M0 0 C0.33 0 0.66 0 1 0 C1.33 4.95 1.66 9.9 2 15 C1.01 15 0.02 15 -1 15 C-1.02685412 12.68756208 -1.04632841 10.3750373 -1.0625 8.0625 C-1.07410156 6.77472656 -1.08570312 5.48695313 -1.09765625 4.16015625 C-1 1 -1 1 0 0 Z " fill="#E9F5FC" transform="translate(89,401)"/>
<path d="M0 0 C0.33 0 0.66 0 1 0 C0.67 6.27 0.34 12.54 0 19 C-0.66 19.33 -1.32 19.66 -2 20 C-2.0544452 17.79194476 -2.09299283 15.58349446 -2.125 13.375 C-2.14820312 12.14523437 -2.17140625 10.91546875 -2.1953125 9.6484375 C-2.0030428 6.05683959 -1.30258556 3.33338825 0 0 Z " fill="#DAE7F0" transform="translate(88,332)"/>
<path d="M0 0 C0 3 0 3 -1.20703125 4.64453125 C-3.43566363 6.32935791 -4.92093516 6.48702429 -7.6875 6.6875 C-8.49574219 6.75324219 -9.30398437 6.81898438 -10.13671875 6.88671875 C-11.05904297 6.94279297 -11.05904297 6.94279297 -12 7 C-8.35140239 3.95950199 -4.2555467 2.03481238 0 0 Z " fill="#E3F7FB" transform="translate(172,276)"/>
<path d="M0 0 C1.98 0 3.96 0 6 0 C5.51917969 0.34675781 5.03835937 0.69351563 4.54296875 1.05078125 C2.24641888 3.95199235 2.47973801 6.54171147 2.3125 10.1875 C2.24675781 11.45980469 2.18101562 12.73210937 2.11328125 14.04296875 C2.05720703 15.50669922 2.05720703 15.50669922 2 17 C1.67 17 1.34 17 1 17 C0.67 11.39 0.34 5.78 0 0 Z " fill="#C7EDF6" transform="translate(140,196)"/>
<path d="M0 0 C-4.90268569 3.26845713 -9.13173703 4.27944109 -15 4 C-14 2 -14 2 -11.85546875 1.11328125 C-10.97503906 0.84902344 -10.09460938 0.58476562 -9.1875 0.3125 C-8.31480469 0.04050781 -7.44210937 -0.23148437 -6.54296875 -0.51171875 C-3.93126166 -1.01319861 -2.48283616 -0.86233704 0 0 Z " fill="#CEF5FC" transform="translate(272,407)"/>
<path d="M0 0 C0.99 1.32 1.98 2.64 3 4 C1.35 6.64 -0.3 9.28 -2 12 C-2.66 11.67 -3.32 11.34 -4 11 C-3.67 9.35 -3.34 7.7 -3 6 C-2.34 6 -1.68 6 -1 6 C-0.67 4.02 -0.34 2.04 0 0 Z " fill="#E3E3E3" transform="translate(477,377)"/>
<path d="M0 0 C0 0.66 0 1.32 0 2 C-0.66 2 -1.32 2 -2 2 C-2.33 2.99 -2.66 3.98 -3 5 C-4.65 5 -6.3 5 -8 5 C-8.33 4.01 -8.66 3.02 -9 2 C-3.375 -1.125 -3.375 -1.125 0 0 Z " fill="#EAF7F6" transform="translate(227,251)"/>
<path d="M0 0 C1.76949095 -0.10815225 3.54087487 -0.18566083 5.3125 -0.25 C6.29863281 -0.29640625 7.28476563 -0.3428125 8.30078125 -0.390625 C11 0 11 0 12.85546875 2.015625 C13.23316406 2.67046875 13.61085937 3.3253125 14 4 C9.03083364 3.48594831 4.70973649 2.76615118 0 1 C0 0.67 0 0.34 0 0 Z " fill="#CAEBF6" transform="translate(208,444)"/>
<path d="M0 0 C0.99 0.66 1.98 1.32 3 2 C3.6875 5.625 3.6875 5.625 4 9 C3.01 9 2.02 9 1 9 C0.01 7.02 -0.98 5.04 -2 3 C-1.34 2.01 -0.68 1.02 0 0 Z " fill="#E6E6E6" transform="translate(34,377)"/>
<path d="M0 0 C0.33 0 0.66 0 1 0 C1.16820551 1.93736701 1.33451095 3.87489906 1.5 5.8125 C1.5928125 6.89144531 1.685625 7.97039062 1.78125 9.08203125 C2.10583881 13.41181415 1.71794669 16.02724827 0 20 C-0.33 20 -0.66 20 -1 20 C-0.67 13.4 -0.34 6.8 0 0 Z " fill="#BCEBF5" transform="translate(309,356)"/>
<path d="M0 0 C-4.75 4.875 -4.75 4.875 -7 6 C-8.32 5.01 -9.64 4.02 -11 3 C-9.73581754 2.30034557 -8.46334598 1.61565237 -7.1875 0.9375 C-6.47980469 0.55464844 -5.77210938 0.17179688 -5.04296875 -0.22265625 C-3 -1 -3 -1 0 0 Z " fill="#E2F8FD" transform="translate(237,246)"/>
<path d="M0 0 C0.33 0 0.66 0 1 0 C1.33 5.94 1.66 11.88 2 18 C1.67 16.68 1.34 15.36 1 14 C0.34 14 -0.32 14 -1 14 C-0.67 9.38 -0.34 4.76 0 0 Z " fill="#BCDFF0" transform="translate(76,194)"/>
<path d="M0 0 C2.31 1.65 4.62 3.3 7 5 C3.25 8 3.25 8 1 8 C0.67 5.36 0.34 2.72 0 0 Z " fill="#090B15" transform="translate(96,456)"/>
<path d="M0 0 C-0.66 0 -1.32 0 -2 0 C-2 0.66 -2 1.32 -2 2 C-3.58086048 2.36504603 -5.16483907 2.71660506 -6.75 3.0625 C-7.63171875 3.25972656 -8.5134375 3.45695312 -9.421875 3.66015625 C-11.98679028 3.99825872 -13.57091639 3.81158635 -16 3 C-14.08802961 2.29954544 -12.17019565 1.615081 -10.25 0.9375 C-9.18265625 0.55464844 -8.1153125 0.17179687 -7.015625 -0.22265625 C-4.07719958 -0.98010011 -2.77651052 -1.07151741 0 0 Z " fill="#2D96C7" transform="translate(272,455)"/>
<path d="M0 0 C0.33 0 0.66 0 1 0 C1 3.96 1 7.92 1 12 C0.01 12 -0.98 12 -2 12 C-1.85962479 10.18706911 -1.71255111 8.3746557 -1.5625 6.5625 C-1.48128906 5.55316406 -1.40007812 4.54382813 -1.31640625 3.50390625 C-1 1 -1 1 0 0 Z " fill="#E8F5FD" transform="translate(423,404)"/>
<path d="M0 0 C1.75128818 0.28382946 3.50100003 0.57739529 5.25 0.875 C6.71179688 1.11863281 6.71179688 1.11863281 8.203125 1.3671875 C11 2 11 2 15 4 C9.72 3.67 4.44 3.34 -1 3 C-0.67 2.01 -0.34 1.02 0 0 Z " fill="#C8ECF8" transform="translate(223,401)"/>
<path d="M0 0 C0.33 0 0.66 0 1 0 C1 1.98 1 3.96 1 6 C1.66 6 2.32 6 3 6 C2.34 7.98 1.68 9.96 1 12 C-1 10 -1 10 -1.23046875 8.125 C-1.21628906 7.42375 -1.20210938 6.7225 -1.1875 6 C-1.18105469 5.29875 -1.17460937 4.5975 -1.16796875 3.875 C-1 2 -1 2 0 0 Z " fill="#CEE7F8" transform="translate(424,330)"/>
<path d="M0 0 C3.3 0.33 6.6 0.66 10 1 C10 1.66 10 2.32 10 3 C2.25 4.125 2.25 4.125 0 3 C0 2.01 0 1.02 0 0 Z " fill="#EBF7F4" transform="translate(234,449)"/>
<path d="M0 0 C2.69082872 0.17635452 5.32851446 0.61835921 8 1 C8 1.99 8 2.98 8 4 C1.25 3.25 1.25 3.25 -1 1 C-0.67 0.67 -0.34 0.34 0 0 Z " fill="#FDF9F1" transform="translate(205,439)"/>
<path d="M0 0 C0.33 0 0.66 0 1 0 C1.07654536 4.51617599 1.10228696 8.59085217 0 13 C-0.33 13 -0.66 13 -1 13 C-1 11.02 -1 9.04 -1 7 C-1.66 6.67 -2.32 6.34 -3 6 C-2.67 4.68 -2.34 3.36 -2 2 C-1.34 2 -0.68 2 0 2 C0 1.34 0 0.68 0 0 Z " fill="#0868B7" transform="translate(422,328)"/>
<path d="M0 0 C-1.62249941 0.83819158 -3.24808497 1.6704116 -4.875 2.5 C-6.23238281 3.19609375 -6.23238281 3.19609375 -7.6171875 3.90625 C-10 5 -10 5 -12 5 C-11 2 -11 2 -8 0 C-4.66657937 -0.91669067 -3.34350146 -1.11450049 0 0 Z " fill="#D4F8FE" transform="translate(292,282)"/>
<path d="M0 0 C0.66 0 1.32 0 2 0 C3.3271261 3.9813783 3.06915913 7.85045227 3 12 C1.09598862 10.09598862 0.06479561 8.66574314 -0.19921875 5.953125 C-0.1886578 3.96766727 -0.09915043 1.9830086 0 0 Z " fill="#1267AB" transform="translate(434,168)"/>
<path d="M0 0 C0.66 0.33 1.32 0.66 2 1 C2.625 4.0625 2.625 4.0625 3 7 C2.38125 7.144375 1.7625 7.28875 1.125 7.4375 C-1.03258322 7.93152225 -1.03258322 7.93152225 -3 9 C-2.01 6.03 -1.02 3.06 0 0 Z " fill="#E1E1E1" transform="translate(26,142)"/>
<path d="M0 0 C4.29 0 8.58 0 13 0 C9.80107719 1.5994614 7.64537424 2.42595236 4.25 3.125 C3.05117188 3.37636719 3.05117188 3.37636719 1.828125 3.6328125 C1.22484375 3.75398438 0.6215625 3.87515625 0 4 C0 2.68 0 1.36 0 0 Z " fill="#0A67B7" transform="translate(322,498)"/>
<path d="M0 0 C1.98 0 3.96 0 6 0 C3.45543849 2.96865509 0.51005335 4.3619751 -3 6 C-3.33 5.34 -3.66 4.68 -4 4 C-3.01 4 -2.02 4 -1 4 C-0.67 2.68 -0.34 1.36 0 0 Z " fill="#21629B" transform="translate(380,476)"/>
<path d="M0 0 C-1.62249941 0.83819158 -3.24808497 1.6704116 -4.875 2.5 C-6.23238281 3.19609375 -6.23238281 3.19609375 -7.6171875 3.90625 C-10 5 -10 5 -12 5 C-12 4.34 -12 3.68 -12 3 C-11.34 3 -10.68 3 -10 3 C-10 2.34 -10 1.68 -10 1 C-3.375 -1.125 -3.375 -1.125 0 0 Z " fill="#2976B5" transform="translate(170,278)"/>
<path d="M0 0 C0.33 0 0.66 0 1 0 C1.33 3.3 1.66 6.6 2 10 C1.01 10 0.02 10 -1 10 C-1.02689216 8.52093108 -1.04634621 7.04172517 -1.0625 5.5625 C-1.07410156 4.73878906 -1.08570313 3.91507813 -1.09765625 3.06640625 C-1 1 -1 1 0 0 Z " fill="#FAEFE8" transform="translate(442,151)"/>
<path d="M0 0 C0.58203125 1.859375 0.58203125 1.859375 1 4 C-0.3125 6.25 -0.3125 6.25 -2 8 C-2.66 8 -3.32 8 -4 8 C-4.33 8.66 -4.66 9.32 -5 10 C-5 6.60406522 -4.47834052 5.93380119 -2.5 3.3125 C-2.0359375 2.68988281 -1.571875 2.06726563 -1.09375 1.42578125 C-0.7328125 0.95527344 -0.371875 0.48476562 0 0 Z " fill="#DDDDDD" transform="translate(54,98)"/>
<path d="M0 0 C0.33 0.66 0.66 1.32 1 2 C-0.66666667 3.66666667 -2.33333333 5.33333333 -4 7 C-5.32 6.34 -6.64 5.68 -8 5 C-4.04 2.525 -4.04 2.525 0 0 Z " fill="#050F20" transform="translate(393,472)"/>
<path d="M0 0 C0.33 0 0.66 0 1 0 C1.21755666 5.4389165 1.10428384 9.87080814 -1 15 C-1.33 15 -1.66 15 -2 15 C-2.19392201 9.47322267 -1.7479503 5.24385089 0 0 Z " fill="#239AD3" transform="translate(307,373)"/>
<path d="M0 0 C0.99 0.33 1.98 0.66 3 1 C3 2.98 3 4.96 3 7 C2.01 7.33 1.02 7.66 0 8 C0 5.36 0 2.72 0 0 Z " fill="#0D67AF" transform="translate(146,304)"/>
<path d="M0 0 C0.33 0 0.66 0 1 0 C2.51708428 9.41002278 2.51708428 9.41002278 0 14 C-0.33 14 -0.66 14 -1 14 C-1.02705729 12.22925083 -1.04642195 10.45838289 -1.0625 8.6875 C-1.07410156 7.70136719 -1.08570313 6.71523438 -1.09765625 5.69921875 C-1 3 -1 3 0 0 Z " fill="#E3F5FD" transform="translate(430,266)"/>
<path d="M0 0 C4 4.75 4 4.75 4 7 C3.34 7 2.68 7 2 7 C2 7.66 2 8.32 2 9 C1.34 9 0.68 9 0 9 C-0.87890625 2.84765625 -0.87890625 2.84765625 -1 1 C-0.67 0.67 -0.34 0.34 0 0 Z " fill="#E2E2E2" transform="translate(476,126)"/>
<path d="M0 0 C1.04449911 3.13349732 0.93423645 3.98968256 0 7 C-1.98 7.33 -3.96 7.66 -6 8 C-5.34 7.67 -4.68 7.34 -4 7 C-3.29848848 5.6846659 -2.63474075 4.34882408 -2 3 C-1.34 2.01 -0.68 1.02 0 0 Z " fill="#098CD3" transform="translate(378,464)"/>
<path d="M0 0 C1.22589844 0.15275391 1.22589844 0.15275391 2.4765625 0.30859375 C3.41628906 0.43427734 3.41628906 0.43427734 4.375 0.5625 C1.28611478 2.62175681 0.66564073 2.8015374 -2.8125 2.6875 C-4.6996875 2.625625 -4.6996875 2.625625 -6.625 2.5625 C-6.625 1.9025 -6.625 1.2425 -6.625 0.5625 C-4.10446405 -0.69776798 -2.7707902 -0.35624445 0 0 Z " fill="#E4FCFC" transform="translate(337.625,432.4375)"/>
<path d="M0 0 C0.80050781 0.12761719 1.60101563 0.25523437 2.42578125 0.38671875 C3.23402344 0.50660156 4.04226563 0.62648438 4.875 0.75 C5.48988281 0.85699219 6.10476563 0.96398437 6.73828125 1.07421875 C3.53448108 3.21008553 2.71888158 3.3055405 -0.94921875 3.19921875 C-2.16158203 3.17214844 -2.16158203 3.17214844 -3.3984375 3.14453125 C-4.32076172 3.10972656 -4.32076172 3.10972656 -5.26171875 3.07421875 C-3.53640014 0.90221572 -2.83921072 0.09316926 0 0 Z " fill="#FAF9ED" transform="translate(254.26171875,410.92578125)"/>
<path d="M0 0 C0.66 0 1.32 0 2 0 C1.45773019 3.79588866 -0.20127563 5.47211993 -3 8 C-3 3.77471908 -2.74375671 2.95481492 0 0 Z " fill="#E4E4E4" transform="translate(462,403)"/>
<path d="M0 0 C1.32 0 2.64 0 4 0 C4 0.99 4 1.98 4 3 C3.01 3 2.02 3 1 3 C1 5.97 1 8.94 1 12 C0.67 12 0.34 12 0 12 C0 8.04 0 4.08 0 0 Z " fill="#1093C2" transform="translate(364,290)"/>
<path d="M0 0 C2.75 0.25 2.75 0.25 5 1 C2.75 3.0625 2.75 3.0625 0 5 C-2.3125 4.75 -2.3125 4.75 -4 4 C-2.3125 1.9375 -2.3125 1.9375 0 0 Z " fill="#F9FBF3" transform="translate(192,267)"/>
<path d="M0 0 C-5.445 2.475 -5.445 2.475 -11 5 C-9 1 -9 1 -6.0625 -0.3125 C-3 -1 -3 -1 0 0 Z " fill="#CCF7FE" transform="translate(363,246)"/>
<path d="M0 0 C1.23556641 0.01740234 1.23556641 0.01740234 2.49609375 0.03515625 C3.32238281 0.04417969 4.14867187 0.05320313 5 0.0625 C5.63808594 0.07410156 6.27617187 0.08570313 6.93359375 0.09765625 C6.93359375 0.42765625 6.93359375 0.75765625 6.93359375 1.09765625 C6.00546875 1.18015625 5.07734375 1.26265625 4.12109375 1.34765625 C0.84849496 1.80023177 0.84849496 1.80023177 -0.94140625 4.16015625 C-1.31265625 4.79953125 -1.68390625 5.43890625 -2.06640625 6.09765625 C-2.44859392 4.44150968 -2.78035727 2.77308601 -3.06640625 1.09765625 C-2.06640625 0.09765625 -2.06640625 0.09765625 0 0 Z " fill="#0769B4" transform="translate(138.06640625,193.90234375)"/>
<path d="M0 0 C1.15941038 3.47823115 0.70820884 5.45895578 0 9 C-0.99 9.33 -1.98 9.66 -3 10 C-2.25 3.375 -2.25 3.375 0 0 Z " fill="#E4E4E4" transform="translate(45,110)"/>
<path d="M0 0 C0.33 0.99 0.66 1.98 1 3 C-1.31 4.98 -3.62 6.96 -6 9 C-6.66 8.67 -7.32 8.34 -8 8 C-5.36 5.36 -2.72 2.72 0 0 Z " fill="#DEDEDE" transform="translate(70,80)"/>
<path d="M0 0 C-1.28524261 0.86380259 -2.57842419 1.71580369 -3.875 2.5625 C-4.59429687 3.03816406 -5.31359375 3.51382812 -6.0546875 4.00390625 C-6.69664062 4.33261719 -7.33859375 4.66132813 -8 5 C-8.66 4.67 -9.32 4.34 -10 4 C-6.87839899 0.56623888 -4.64008112 -1.54669371 0 0 Z " fill="#236399" transform="translate(396,471)"/>
<path d="M0 0 C0.33 0 0.66 0 1 0 C0.67 2.64 0.34 5.28 0 8 C-1.32 7.67 -2.64 7.34 -4 7 C-4 6.34 -4 5.68 -4 5 C-3.34 4.67 -2.68 4.34 -2 4 C-0.86649466 1.98330173 -0.86649466 1.98330173 0 0 Z " fill="#0C090C" transform="translate(415,456)"/>
<path d="M0 0 C1.134375 0.020625 2.26875 0.04125 3.4375 0.0625 C3.4375 1.0525 3.4375 2.0425 3.4375 3.0625 C0.5625 3.1875 0.5625 3.1875 -2.5625 3.0625 C-3.2225 2.4025 -3.8825 1.7425 -4.5625 1.0625 C-3.5625 0.0625 -3.5625 0.0625 0 0 Z " fill="#F8FCF1" transform="translate(268.5625,449.9375)"/>
<path d="M0 0 C-0.33 0.66 -0.66 1.32 -1 2 C-4.3 2 -7.6 2 -11 2 C-7.06425135 -0.62383243 -4.54354105 -1.51451368 0 0 Z " fill="#D6F7FC" transform="translate(291,402)"/>
<path d="M0 0 C1.65 0 3.3 0 5 0 C5 1.32 5 2.64 5 4 C3.68 4 2.36 4 1 4 C0.67 2.68 0.34 1.36 0 0 Z " fill="#F7FBEE" transform="translate(355,242)"/>
<path d="M0 0 C0.33 1.32 0.66 2.64 1 4 C-2 5 -2 5 -4.1875 4.0625 C-4.785625 3.711875 -5.38375 3.36125 -6 3 C-6 2.34 -6 1.68 -6 1 C-3 0 -3 0 0 0 Z " fill="#E4E4E4" transform="translate(495,163)"/>
<path d="M0 0 C0 2.64 0 5.28 0 8 C-0.66 6.68 -1.32 5.36 -2 4 C-2.33 4.33 -2.66 4.66 -3 5 C-3.99 4.01 -4.98 3.02 -6 2 C-2.25 0 -2.25 0 0 0 Z " fill="#DDDDDF" transform="translate(271,59)"/>
<path d="M0 0 C-1 3 -1 3 -3.3125 4.25 C-6.16597407 5.04631835 -7.24802325 4.8214856 -10 4 C-8.71086513 3.32845067 -7.41859796 2.66291141 -6.125 2 C-5.40570313 1.62875 -4.68640625 1.2575 -3.9453125 0.875 C-2 0 -2 0 0 0 Z " fill="#D9F7FE" transform="translate(160,283)"/>
<path d="M0 0 C0 0.99 0 1.98 0 3 C-0.99 3 -1.98 3 -3 3 C-3 3.66 -3 4.32 -3 5 C-4.65 4.67 -6.3 4.34 -8 4 C-2.7826087 0 -2.7826087 0 0 0 Z " fill="#DEF6FC" transform="translate(182,272)"/>
<path d="M0 0 C1.98 0 3.96 0 6 0 C5.67 0.99 5.34 1.98 5 3 C3.02 3 1.04 3 -1 3 C-0.67 2.01 -0.34 1.02 0 0 Z " fill="#0691E7" transform="translate(359,249)"/>
<path d="M0 0 C1.2065625 0.0309375 1.2065625 0.0309375 2.4375 0.0625 C-0.6879959 2.70715038 -3.65038267 3.90664715 -7.5625 5.0625 C-7.8925 4.4025 -8.2225 3.7425 -8.5625 3.0625 C-7.758125 2.753125 -6.95375 2.44375 -6.125 2.125 C-1.0625 0.02591463 -1.0625 0.02591463 0 0 Z " fill="#2A75AE" transform="translate(229.5625,245.9375)"/>
<path d="M0 0 C1.65 0 3.3 0 5 0 C1.67692308 3.93846154 1.67692308 3.93846154 -1.75 4.25 C-2.4925 4.1675 -3.235 4.085 -4 4 C-4 3.34 -4 2.68 -4 2 C-2.68 2 -1.36 2 0 2 C0 1.34 0 0.68 0 0 Z " fill="#046FC9" transform="translate(224,245)"/>
<path d="M0 0 C2.375 0.3125 2.375 0.3125 5 1 C5.66 1.99 6.32 2.98 7 4 C6.01 4.66 5.02 5.32 4 6 C2.68 4.02 1.36 2.04 0 0 Z " fill="#0F0F0F" transform="translate(456,96)"/>
<path d="M0 0 C3.3 0 6.6 0 10 0 C9.67 0.99 9.34 1.98 9 3 C4.545 2.01 4.545 2.01 0 1 C0 0.67 0 0.34 0 0 Z " fill="#2877B3" transform="translate(222,400)"/>
<path d="M0 0 C1.33597652 0.80814651 2.668725 1.62163181 4 2.4375 C5.11375 3.11619141 5.11375 3.11619141 6.25 3.80859375 C6.8275 4.20175781 7.405 4.59492188 8 5 C8 5.33 8 5.66 8 6 C5.6875 6.25 5.6875 6.25 3 6 C1.02389614 3.95575462 0 2.8823175 0 0 Z " fill="#021027" transform="translate(108,465)"/>
<path d="M0 0 C2.97 0 5.94 0 9 0 C9 0.99 9 1.98 9 3 C4.545 2.01 4.545 2.01 0 1 C0 0.67 0 0.34 0 0 Z " fill="#D1EFFA" transform="translate(222,448)"/>
<path d="M0 0 C0.66 0.33 1.32 0.66 2 1 C2.625 3.5625 2.625 3.5625 3 6 C2.01 6.495 2.01 6.495 1 7 C-0.32 5.02 -1.64 3.04 -3 1 C-2.01 0.67 -1.02 0.34 0 0 Z " fill="#E2E2E2" transform="translate(53,407)"/>
<path d="M0 0 C0.66 0 1.32 0 2 0 C2 2.31 2 4.62 2 7 C1.34 7 0.68 7 0 7 C-0.38133299 5.0085944 -0.71325582 3.00720923 -1 1 C-0.67 0.67 -0.34 0.34 0 0 Z " fill="#F5F2E5" transform="translate(68,176)"/>
<path d="M0 0 C1.32 1.32 2.64 2.64 4 4 C3.67 4.66 3.34 5.32 3 6 C0 5 0 5 -1.1875 2.9375 C-1.5896875 1.9784375 -1.5896875 1.9784375 -2 1 C-1.34 0.67 -0.68 0.34 0 0 Z " fill="#E1E1E1" transform="translate(460,102)"/>
</svg>
