<?xml version="1.0" encoding="UTF-8"?>
<svg version="1.1" xmlns="http://www.w3.org/2000/svg" width="512" height="512">
<path d="M0 0 C168.96 0 337.92 0 512 0 C512 168.96 512 337.92 512 512 C343.04 512 174.08 512 0 512 C0 343.04 0 174.08 0 0 Z " fill="#E54C18" transform="translate(0,0)"/>
<path d="M0 0 C168.96 0 337.92 0 512 0 C512.0928125 67.010625 512.0928125 67.010625 512.1875 135.375 C512.21481201 149.44302246 512.24212402 163.51104492 512.27026367 178.00537109 C512.28381348 195.28051758 512.28381348 195.28051758 512.28633118 203.38638306 C512.28910846 209.00694617 512.30002562 214.62741797 512.31672668 220.24795532 C512.33602861 226.75357354 512.34446062 233.2591054 512.34033485 239.76475237 C512.33855268 243.08195548 512.34282295 246.39881439 512.35764539 249.71600604 C512.45451577 272.4773327 511.00941187 294.83177999 505.0625 316.875 C504.72313142 318.19623584 504.38524897 319.51785427 504.04882812 320.83984375 C494.37868657 358.37813652 476.01241725 394.17095158 450 423 C449.31421875 423.7940625 448.6284375 424.588125 447.921875 425.40625 C442.99941589 431.04265356 437.76158921 436.36997288 432.5 441.6875 C431.79987793 442.40067383 431.09975586 443.11384766 430.37841797 443.84863281 C425.60111908 448.63371775 420.64833846 453.24799507 415 457 C414.34 457 413.68 457 413 457 C413.35436405 445.70922823 414.08047192 434.53613251 415.375 423.3125 C416.75559339 411.26599639 417.6800376 399.22032236 418.5 387.125 C419.3227728 375.01777606 420.21998882 362.94391481 421.5 350.875 C422.69910513 339.55296395 423.61904465 328.22930493 424.4375 316.875 C425.46617211 302.65275759 426.63011252 288.44939226 427.9375 274.25 C428.06327423 272.88201263 428.06327423 272.88201263 428.19158936 271.48638916 C428.87549884 264.05989443 429.56774926 256.63418187 430.26037598 249.20849609 C430.86498043 242.72268767 431.46624243 236.23658135 432.0625 229.75 C432.14652069 228.83674957 432.23054138 227.92349915 432.31710815 226.98257446 C433.58306944 213.16665893 434.67639134 199.34428657 435.67550659 185.5067749 C436.67051094 171.78120715 437.84997443 158.07732691 439.125 144.375 C439.21144775 143.43904999 439.29789551 142.50309998 439.38696289 141.53878784 C439.63270195 138.88755796 439.8819527 136.23668728 440.1328125 133.5859375 C440.24201523 132.41217812 440.24201523 132.41217812 440.35342407 131.21470642 C440.42386932 130.48175858 440.49431458 129.74881073 440.56689453 128.99365234 C440.62668488 128.36373383 440.68647522 127.73381531 440.74807739 127.08480835 C441.07522748 124.37744818 441.551675 121.68994999 442 119 C319.57 119 197.14 119 71 119 C71.99 127.25 72.98 135.5 74 144 C75.11878286 156.64181097 75.11878286 156.64181097 75.47705078 161.3203125 C76.03170859 168.45251949 76.62233647 175.58161255 77.21476364 182.71075439 C77.4671257 185.74856279 77.71870268 188.78643601 77.97027016 191.8243103 C78.09861497 193.37397769 78.22702193 194.92363993 78.35548973 196.47329712 C78.67792638 200.3629829 78.99970429 204.25272106 79.32006836 208.14257812 C80.88673585 227.15860329 82.55053255 246.16128398 84.35473633 265.15625 C85.0843495 272.84995027 85.75077648 280.54698992 86.375 288.25 C86.49189337 289.67352009 86.60901176 291.09702172 86.72631836 292.52050781 C86.92257223 294.90246047 87.11867038 297.28442511 87.31413269 299.66644287 C88.2746937 311.368716 89.25428798 323.06941264 90.23052979 334.77038574 C90.65712031 339.88429554 91.08331375 344.99823836 91.50930786 350.11219788 C91.71371287 352.56472286 91.91836297 355.01722742 92.1232605 357.4697113 C92.58919563 363.0494507 93.05236524 368.6293603 93.50488281 374.21020508 C94.3543571 384.64192864 95.27510847 395.06335813 96.2890625 405.48046875 C96.39848679 406.60770355 96.50791107 407.73493835 96.62065125 408.89633179 C97.06803097 413.49578714 97.51637794 418.09511805 97.97363281 422.69360352 C100.44698477 447.63439698 100.44698477 447.63439698 100 458 C90.02160054 453.54230573 81.94895523 444.26637916 74.375 436.625 C73.4984375 435.75617188 72.621875 434.88734375 71.71875 433.9921875 C65.71977449 427.97541087 60.25933688 421.669887 55 415 C54.18789063 413.97648437 53.37578125 412.95296875 52.5390625 411.8984375 C15.67878884 363.3030563 -0.6102643 306.65775346 -0.34057617 246.12304688 C-0.33797156 243.37674987 -0.33992955 240.63046013 -0.34167194 237.8841629 C-0.34324847 231.33854763 -0.32957929 224.79305871 -0.31016796 218.24747565 C-0.28833781 210.65488102 -0.28617128 203.06235936 -0.28381348 195.46972656 C-0.26814252 175.47979807 -0.22625872 155.48989706 -0.1875 135.5 C-0.125625 90.785 -0.06375 46.07 0 0 Z " fill="#F1F1F1" transform="translate(0,0)"/>
<path d="M0 0 C168.96 0 337.92 0 512 0 C512 79.2 512 158.4 512 240 C511.67 240 511.34 240 511 240 C510.91959473 239.27522461 510.83918945 238.55044922 510.75634766 237.80371094 C510.38258282 234.45209073 510.00381469 231.10105306 509.625 227.75 C509.43550781 226.04070312 509.43550781 226.04070312 509.2421875 224.296875 C505.05605488 187.45890794 492.76517078 152.42509499 473 121 C472.5786377 120.32791504 472.15727539 119.65583008 471.72314453 118.96337891 C461.2529361 102.42609148 448.85837816 87.79175134 435 74 C434.24460937 73.22140625 433.48921875 72.4428125 432.7109375 71.640625 C426.82127696 65.61307943 420.69457974 60.11585217 414 55 C413.360625 54.51128418 412.72125 54.02256836 412.0625 53.51904297 C399.73181084 44.18188166 386.84513388 35.92256694 373 29 C373 40.88 373 52.76 373 65 C384.22 65 395.44 65 407 65 C407 72.26 407 79.52 407 87 C388.19 87 369.38 87 350 87 C350 63.9 350 40.8 350 17 C347.69 16.67 345.38 16.34 343 16 C342.34 17.32 341.68 18.64 341 20 C340.34 20 339.68 20 339 20 C339 42.11 339 64.22 339 87 C331.08 87 323.16 87 315 87 C314.67 76.11 314.34 65.22 314 54 C310.59694387 59.69376039 310.59694387 59.69376039 307.21020508 65.3972168 C306.77603271 66.11562744 306.34186035 66.83403809 305.89453125 67.57421875 C305.45987549 68.30213623 305.02521973 69.03005371 304.57739258 69.7800293 C303 72 303 72 298 77 C291.07 66.605 291.07 66.605 284 56 C283.67 66.23 283.34 76.46 283 87 C275.08 87 267.16 87 259 87 C258.67 65.88 258.34 44.76 258 23 C256.02 22.67 254.04 22.34 252 22 C252 22.66 252 23.32 252 24 C251.34 24 250.68 24 250 24 C250 29.61 250 35.22 250 41 C242.74 41 235.48 41 228 41 C228 56.18 228 71.36 228 87 C220.41 87 212.82 87 205 87 C205 71.82 205 56.64 205 41 C197.74 41 190.48 41 183 41 C183 33.41 183 25.82 183 18 C181.35 18.99 179.7 19.98 178 21 C177.67 20.01 177.34 19.02 177 18 C176.01 17.67 175.02 17.34 174 17 C173.67 40.1 173.34 63.2 173 87 C165.74 87 158.48 87 151 87 C151 79.41 151 71.82 151 64 C143.41 64 135.82 64 128 64 C128 71.59 128 79.18 128 87 C120.74 87 113.48 87 106 87 C105.67 74.79 105.34 62.58 105 50 C94.6762276 57.82343815 94.6762276 57.82343815 85.0625 66.3125 C84.03391701 67.28919986 83.00397763 68.26447336 81.97265625 69.23828125 C81.48410156 69.69984619 80.99554688 70.16141113 80.4921875 70.63696289 C78.97249141 72.0251277 77.40888137 73.33690887 75.81640625 74.640625 C73.59486317 76.50166803 71.73338115 78.2389234 69.875 80.4375 C67.70822157 82.99001261 65.53520163 85.5308725 63.30859375 88.03125 C46.6440778 106.87878157 33.58336058 128.21172206 23 151 C22.6690332 151.71027344 22.33806641 152.42054688 21.99707031 153.15234375 C13.08794719 172.55632866 7.63979397 193.00635982 4 214 C3.78601563 215.21171875 3.57203125 216.4234375 3.3515625 217.671875 C2.12753758 225.08698246 1.46635641 232.50147987 1 240 C0.67 240 0.34 240 0 240 C0 160.8 0 81.6 0 0 Z " fill="#010101" transform="translate(0,0)"/>
<path d="M0 0 C76.23 0 152.46 0 231 0 C229.8358209 24.44776119 229.8358209 24.44776119 229 34.125 C228.9175 35.14980469 228.835 36.17460937 228.75 37.23046875 C228.12698413 44.61904762 228.12698413 44.61904762 227 48 C169.25 48 111.5 48 52 48 C53.32 61.53 54.64 75.06 56 89 C56 90.65 56 92.3 56 94 C111.11 94 166.22 94 223 94 C223 101.26118966 222.96219055 107.94340255 222.08984375 115.05078125 C221.35442574 121.52152751 220.7228417 127.98479466 220.25390625 134.48046875 C220.19717743 135.26568909 220.14044861 136.05090942 220.08200073 136.85992432 C219.96679324 138.47176533 219.85239168 140.08366413 219.73876953 141.69561768 C218.71833 156.1213395 217.53158562 170.51704359 216.13183594 184.91088867 C214.52730207 201.58809192 213.27667977 218.29506258 212 235 C210.84387207 235.33845947 209.68774414 235.67691895 208.49658203 236.02563477 C206.95864893 236.47669142 205.42072631 236.92778381 203.8828125 237.37890625 C203.12331299 237.60114868 202.36381348 237.82339111 201.58129883 238.05236816 C197.3298467 239.30030115 193.09495408 240.58586445 188.875 241.9375 C182.94392 243.78124397 176.95175896 245.33145209 170.9375 246.875 C163.53665917 248.77623807 156.18591385 250.77725459 148.875 253 C148.07271973 253.24226318 147.27043945 253.48452637 146.44384766 253.73413086 C143.03799234 254.76502063 139.63441948 255.80183503 136.23779297 256.86279297 C133.43379883 257.73629485 130.62386689 258.58807233 127.8125 259.4375 C126.53898682 259.84452148 126.53898682 259.84452148 125.23974609 260.25976562 C115.2922304 263.22494721 107.25794311 260.71926852 97.5625 257.75 C95.4182529 257.10842454 93.27371925 256.46780607 91.12890625 255.828125 C90.08234863 255.51423828 89.03579102 255.20035156 87.95751953 254.87695312 C83.98550051 253.69918424 79.99636002 252.5917201 76 251.5 C66.28127933 248.82820958 56.61219959 245.98949726 46.94042969 243.15332031 C37.62976317 240.42595335 28.31414057 237.71547347 19 235 C18.34326519 227.08930187 17.69099221 219.17825332 17.04424286 211.26673317 C16.74371974 207.59219168 16.44172355 203.91778425 16.13623047 200.24365234 C15.84087328 196.69074135 15.5495559 193.13751915 15.26091003 189.58405685 C15.09745816 187.58442721 14.92994069 185.58513121 14.7623291 183.58584595 C14.61217346 181.72504898 14.61217346 181.72504898 14.45898438 179.82666016 C14.37015991 178.74744293 14.28133545 177.66822571 14.18981934 176.55630493 C13.94894732 172.04351741 14 167.51921127 14 163 C29.84 163 45.68 163 62 163 C62.61868859 168.56819731 63.12325822 173.49948365 63.09765625 179.00390625 C63.09443359 180.23818359 63.09121094 181.47246094 63.08789062 182.74414062 C63.07532227 184.63422852 63.07532227 184.63422852 63.0625 186.5625 C63.05798828 187.85736328 63.05347656 189.15222656 63.04882812 190.48632812 C63.03712601 193.657601 63.02073113 196.82877546 63 200 C64.62808594 200.14695312 64.62808594 200.14695312 66.2890625 200.296875 C71.82963834 200.99279274 77.04468351 202.63247758 82.375 204.25 C84.50768308 204.88064616 86.64049691 205.51085032 88.7734375 206.140625 C91.76442735 207.03085518 94.75389187 207.92507082 97.73925781 208.83398438 C100.1558783 209.56887394 102.57718571 210.28585281 105 211 C105.69786621 211.21946289 106.39573242 211.43892578 107.11474609 211.66503906 C115.12284759 213.99530518 122.4225871 211.81206735 130.25 209.8125 C131.5330603 209.49019409 131.5330603 209.49019409 132.84204102 209.16137695 C140.12062351 207.29975355 147.30796471 205.1670007 154.46386719 202.88012695 C155.24793945 202.63480225 156.03201172 202.38947754 156.83984375 202.13671875 C157.52425537 201.91717529 158.20866699 201.69763184 158.91381836 201.47143555 C161 201 161 201 166 201 C166 197.04 166 193.08 166 189 C167.32 173.49 168.64 157.98 170 142 C117.53 142 65.06 142 11 142 C10.01 128.47 9.02 114.94 8 101 C7.35760647 93.37157688 6.70431604 85.74740069 6 78.125 C5.74448162 75.3128356 5.49027861 72.50055417 5.23616028 69.68826294 C5.06758653 67.82321782 4.89863968 65.95820637 4.72929382 64.0932312 C3.76326449 53.43943707 2.85663156 42.78066097 1.95117188 32.12158203 C1.83966797 30.81044434 1.72816406 29.49930664 1.61328125 28.1484375 C1.50967285 26.91963867 1.40606445 25.69083984 1.29931641 24.42480469 C0.96154217 20.5599621 0.5803224 16.70036419 0.17260742 12.84228516 C-0.08690177 8.56900934 0 4.28114836 0 0 Z " fill="#FDFDFC" transform="translate(141,195)"/>
<path d="M0 0 C49.5 0 99 0 150 0 C147.724163 28.44796254 147.724163 28.44796254 146.52734375 41.61328125 C146.39785872 43.05419493 146.26859791 44.49512878 146.13954163 45.93608093 C145.60573737 51.89491802 145.070322 57.85360348 144.52905273 63.81176758 C143.1617748 78.87653014 141.82100107 93.91869227 141.18188477 109.03588867 C140.95204859 114.04508321 140.53526088 119.01538304 140 124 C139.9175 124.83015625 139.835 125.6603125 139.75 126.515625 C139.13071174 132.51498004 139.13071174 132.51498004 138.51048279 134.81640625 C137.95336637 137.19947567 137.73040606 139.46944012 137.55102539 141.91015625 C137.4774733 142.88637939 137.4039212 143.86260254 137.32814026 144.8684082 C137.21405067 146.44948364 137.21405067 146.44948364 137.09765625 148.0625 C137.01503036 149.16360107 136.93240448 150.26470215 136.84727478 151.39916992 C136.58240567 154.93254474 136.32203835 158.4662299 136.0625 162 C135.72308973 166.60439795 135.38107611 171.20858636 135.03515625 175.8125 C134.95060684 176.93816879 134.86605743 178.06383759 134.77894592 179.22361755 C134.18319001 186.99714188 133.45656073 194.74984077 132.64920044 202.50392151 C132.06698955 208.1445923 131.64666659 213.76959565 131.4375 219.4375 C131.12718987 227.36691406 131.12718987 227.36691406 130.51268005 230.42562866 C129.99772509 233.01142324 129.74011341 235.50267095 129.55102539 238.13134766 C129.4774733 239.13074371 129.4039212 240.13013977 129.32814026 241.15982056 C129.21405067 242.77067032 129.21405067 242.77067032 129.09765625 244.4140625 C129.01503036 245.53831635 128.93240448 246.66257019 128.84727478 247.82089233 C128.58271205 251.42205196 128.32212754 255.02348142 128.0625 258.625 C126.04376998 286.62315897 126.04376998 286.62315897 124.65565491 298.92373657 C123.99501213 304.77805192 123.57896097 310.6248939 123.24609375 316.5078125 C123 319 123 319 122 320 C119.52488197 320.53650099 117.03718816 320.96392114 114.54296875 321.40234375 C112.0384743 321.88362521 112.0384743 321.88362521 110.08496094 322.98046875 C108.03877695 323.98103834 106.32318079 324.47139999 104.09765625 324.91015625 C97.82776852 326.2252033 91.63963164 327.83684027 85.4375 329.4375 C84.25736328 329.73720703 83.07722656 330.03691406 81.86132812 330.34570312 C74.7106151 332.1794166 74.7106151 332.1794166 67.734375 334.5703125 C63.48264732 336.19806599 59.22195208 337.33142153 54.8125 338.4375 C48.27581101 340.11593272 41.81957576 341.93174845 35.3828125 343.96484375 C30.4398612 345.47740968 25.45703854 346.83785175 20.47192383 348.20385742 C15.59611156 349.54314757 10.75588324 350.95911314 5.9453125 352.51953125 C4 353 4 353 0 353 C0 337.49 0 321.98 0 306 C16.21989283 301.25271429 32.45634353 296.569329 48.70996094 291.93896484 C51.77901273 291.06306894 54.84682751 290.18301517 57.9140625 289.30078125 C84.84338455 281.55928746 84.84338455 281.55928746 97 279 C96.98549805 278.1764502 96.97099609 277.35290039 96.95605469 276.50439453 C96.86542211 267.23268226 97.42498755 258.10478672 98.25 248.875 C98.38380421 247.32783592 98.51717402 245.78063422 98.65014648 244.23339844 C99.91014791 229.66896379 101.24977361 215.11121326 102.58447266 200.5534668 C103.79208682 187.3740023 104.92006105 174.19068294 106 161 C106.66 153.41 107.32 145.82 108 138 C52.89 138 -2.22 138 -59 138 C-61.40566038 117.55188679 -61.40566038 117.55188679 -62.125 110.5 C-62.21136719 109.69820313 -62.29773438 108.89640625 -62.38671875 108.0703125 C-62.46792969 107.27367187 -62.54914063 106.47703125 -62.6328125 105.65625 C-62.70387207 104.97369141 -62.77493164 104.29113281 -62.84814453 103.58789062 C-63.07443097 99.73156222 -63 95.86296186 -63 92 C-5.25 92 52.5 92 112 92 C113.485 71.705 113.485 71.705 115 51 C115.33 48.69 115.66 46.38 116 44 C77.72 44 39.44 44 0 44 C0 29.48 0 14.96 0 0 Z " fill="#F26519" transform="translate(256,151)"/>
<path d="M0 0 C78.54 0 157.08 0 238 0 C238 79.2 238 158.4 238 240 C237.67 240 237.34 240 237 240 C236.91959473 239.27522461 236.83918945 238.55044922 236.75634766 237.80371094 C236.38258282 234.45209073 236.00381469 231.10105306 235.625 227.75 C235.49867188 226.61046875 235.37234375 225.4709375 235.2421875 224.296875 C231.05605488 187.45890794 218.76517078 152.42509499 199 121 C198.5786377 120.32791504 198.15727539 119.65583008 197.72314453 118.96337891 C187.2529361 102.42609148 174.85837816 87.79175134 161 74 C160.24460937 73.22140625 159.48921875 72.4428125 158.7109375 71.640625 C152.82127696 65.61307943 146.69457974 60.11585217 140 55 C139.360625 54.51128418 138.72125 54.02256836 138.0625 53.51904297 C125.73181084 44.18188166 112.84513388 35.92256694 99 29 C99 40.88 99 52.76 99 65 C110.22 65 121.44 65 133 65 C133 72.26 133 79.52 133 87 C114.19 87 95.38 87 76 87 C76 63.9 76 40.8 76 17 C74.02 16.67 72.04 16.34 70 16 C67.48189262 15.2637273 64.99312303 14.49873981 62.5 13.6875 C61.06276819 13.23352507 59.62526346 12.78041335 58.1875 12.328125 C55.68373399 11.5366265 53.18453964 10.73459073 50.6875 9.921875 C34.32593722 4.86903943 16.97567902 2.89728177 0 1 C0 0.67 0 0.34 0 0 Z " fill="#010101" transform="translate(274,0)"/>
<path d="M0 0 C0.33 0 0.66 0 1 0 C1.08451416 0.7621582 1.16902832 1.52431641 1.25610352 2.30957031 C6.79156632 50.84184015 21.94692043 98.45330707 53 137 C53.71542969 137.90621094 54.43085937 138.81242188 55.16796875 139.74609375 C68.07287967 155.84868172 82.59490605 171.42186924 99 184 C99.63550781 184.50273437 100.27101563 185.00546875 100.92578125 185.5234375 C102.91745108 187.06730148 104.94601749 188.53985597 107 190 C107.98484375 190.70382812 108.9696875 191.40765625 109.984375 192.1328125 C125.4438272 202.92224497 142.40581391 212.21185849 160 219 C161.19625 219.48597656 162.3925 219.97195313 163.625 220.47265625 C186.7344586 229.69340995 211.31316291 234.54102278 236 237 C236 237.33 236 237.66 236 238 C158.12 238 80.24 238 0 238 C0 159.46 0 80.92 0 0 Z " fill="#000000" transform="translate(0,274)"/>
<path d="M0 0 C0.33 0 0.66 0 1 0 C1 78.54 1 157.08 1 238 C-77.21 238 -155.42 238 -236 238 C-236 237.67 -236 237.34 -236 237 C-235.37883301 236.94054199 -234.75766602 236.88108398 -234.11767578 236.81982422 C-209.87684392 234.41478645 -186.90087209 229.29134253 -164 221 C-162.205625 220.36964844 -162.205625 220.36964844 -160.375 219.7265625 C-137.54407288 211.38879745 -115.84095034 198.24902589 -97 183 C-96.42942871 182.54367187 -95.85885742 182.08734375 -95.27099609 181.6171875 C-80.52734801 169.7374135 -66.39809488 156.14251035 -55 141 C-54.29359375 140.09894531 -53.5871875 139.19789063 -52.859375 138.26953125 C-31.63358914 110.77249048 -16.29345298 79.42327065 -7.71826172 45.80615234 C-7.09736148 43.38037827 -6.4479411 40.96533162 -5.78515625 38.55078125 C-2.44115736 25.92752761 -1.29783821 12.96492525 0 0 Z " fill="#010001" transform="translate(511,274)"/>
<path d="M0 0 C0.82951172 0.14453613 1.65902344 0.28907227 2.51367188 0.43798828 C17.26214246 3.10369463 31.82606729 7.14432974 46 12 C44.625 14.5 44.625 14.5 43 17 C42.34 17 41.68 17 41 17 C41 39.11 41 61.22 41 84 C33.08 84 25.16 84 17 84 C16.67 73.11 16.34 62.22 16 51 C12.59694387 56.69376039 12.59694387 56.69376039 9.21020508 62.3972168 C8.55894653 63.47483276 8.55894653 63.47483276 7.89453125 64.57421875 C7.45987549 65.30213623 7.02521973 66.03005371 6.57739258 66.7800293 C5 69 5 69 0 74 C-4.62 67.07 -9.24 60.14 -14 53 C-14.33 63.23 -14.66 73.46 -15 84 C-22.92 84 -30.84 84 -39 84 C-39.33 62.88 -39.66 41.76 -40 20 C-41.98 19.67 -43.96 19.34 -46 19 C-46 19.66 -46 20.32 -46 21 C-46.66 21 -47.32 21 -48 21 C-48 26.61 -48 32.22 -48 38 C-55.26 38 -62.52 38 -70 38 C-70 53.18 -70 68.36 -70 84 C-77.59 84 -85.18 84 -93 84 C-93 68.82 -93 53.64 -93 38 C-100.26 38 -107.52 38 -115 38 C-115 30.41 -115 22.82 -115 15 C-117.475 16.485 -117.475 16.485 -120 18 C-120.33 17.01 -120.66 16.02 -121 15 C-121.99 14.67 -122.98 14.34 -124 14 C-124.33 14.66 -124.66 15.32 -125 16 C-125 15.34 -125 14.68 -125 14 C-127.64 14 -130.28 14 -133 14 C-99.49763169 -8.33491221 -38.05339445 -6.65721258 0 0 Z " fill="#ECECEC" transform="translate(298,3)"/>
<path d="M0 0 C7.92 0 15.84 0 24 0 C28.91151432 6.22407419 31.86769315 10.00174863 34.93164062 16.80615234 C36.26206583 19.53814523 37.96881207 21.74985373 40 24 C40.56714722 23.12263184 40.56714722 23.12263184 41.14575195 22.22753906 C42.86651139 19.56739217 44.58948202 16.9086845 46.3125 14.25 C46.90740234 13.32960938 47.50230469 12.40921875 48.11523438 11.4609375 C48.69208984 10.57148438 49.26894531 9.68203125 49.86328125 8.765625 C50.39219971 7.94868164 50.92111816 7.13173828 51.46606445 6.29003906 C52.90443805 4.1426661 54.44924324 2.06767568 56 0 C63.59 0 71.18 0 79 0 C79 23.1 79 46.2 79 70 C71.41 70 63.82 70 56 70 C55.67 59.11 55.34 48.22 55 37 C51.59694387 42.69376039 51.59694387 42.69376039 48.21020508 48.3972168 C47.77603271 49.11562744 47.34186035 49.83403809 46.89453125 50.57421875 C46.45987549 51.30213623 46.02521973 52.03005371 45.57739258 52.7800293 C44 55 44 55 39 60 C34.38 53.07 29.76 46.14 25 39 C24.67 49.23 24.34 59.46 24 70 C16.08 70 8.16 70 0 70 C0 46.9 0 23.8 0 0 Z " fill="#040404" transform="translate(259,17)"/>
<path d="M0 0 C0.66 0 1.32 0 2 0 C4.44314967 24.02103189 6.64372063 48.05191085 8.56054688 72.12084961 C8.72391981 74.17171531 8.88733087 76.22257797 9.05078125 78.2734375 C9.1302298 79.2713179 9.20967834 80.2691983 9.29153442 81.2973175 C9.79942207 87.63121054 10.34314986 93.96091153 10.91796875 100.2890625 C10.98947647 101.08448456 11.06098419 101.87990662 11.13465881 102.69943237 C11.46013167 106.31857743 11.79163595 109.93689531 12.13696289 113.55419922 C13.00300552 123.15674353 13 132.2516637 13 142 C65.47 142 117.94 142 172 142 C172 154.375 172 154.375 171.6328125 158.6550293 C171.51268799 160.09527718 171.51268799 160.09527718 171.39013672 161.56462097 C171.3026416 162.55778824 171.21514648 163.55095551 171.125 164.57421875 C171.03621582 165.62406448 170.94743164 166.67391022 170.85595703 167.75556946 C170.57495931 171.06659859 170.28759353 174.37703794 170 177.6875 C169.80686803 179.94983367 169.61415582 182.21220321 169.421875 184.47460938 C168.95276384 189.98349658 168.4784413 195.49191568 168 201 C167.35530258 201.16735657 166.71060516 201.33471313 166.04637146 201.50714111 C163.07106777 202.27999222 160.09607984 203.05405228 157.12109375 203.828125 C156.10736694 204.09125488 155.09364014 204.35438477 154.04919434 204.62548828 C146.31168952 206.64005993 138.60473569 208.74984516 130.91015625 210.921875 C129.60724822 211.28297692 128.30385685 211.64233919 127 212 C126.2889209 212.19706543 125.5778418 212.39413086 124.84521484 212.59716797 C120.48791772 213.75665043 117.40823572 214.10205893 113 213 C114.32 212.34 115.64 211.68 117 211 C117 188.89 117 166.78 117 144 C82.02 144 47.04 144 11 144 C11 138.72 11 133.44 11 128 C10.34 128.33 9.68 128.66 9 129 C9.00523682 128.28344238 9.01047363 127.56688477 9.01586914 126.82861328 C9.03660667 123.59408438 9.04964984 120.35956944 9.0625 117.125 C9.07087891 115.99707031 9.07925781 114.86914062 9.08789062 113.70703125 C9.09111328 112.63066406 9.09433594 111.55429687 9.09765625 110.4453125 C9.10289307 109.45031738 9.10812988 108.45532227 9.11352539 107.43017578 C9.1639415 104.99039227 9.1639415 104.99039227 8 103 C7.86157341 101.67317399 7.7749704 100.34065474 7.71875 99.0078125 C7.66267578 97.82638672 7.66267578 97.82638672 7.60546875 96.62109375 C7.57066406 95.79738281 7.53585938 94.97367187 7.5 94.125 C7.43079135 92.50244176 7.35799447 90.88003177 7.28125 89.2578125 C7.25095703 88.5373877 7.22066406 87.81696289 7.18945312 87.07470703 C7.05410396 84.99781927 7.05410396 84.99781927 6.5 83.02075195 C5.94536022 80.77917311 5.80774235 78.71662024 5.71875 76.41015625 C5.66267578 75.10981445 5.66267578 75.10981445 5.60546875 73.78320312 C5.57066406 72.88537109 5.53585938 71.98753906 5.5 71.0625 C5.43069576 69.28240777 5.35788543 67.50244793 5.28125 65.72265625 C5.25095703 64.93640869 5.22066406 64.15016113 5.18945312 63.34008789 C5.04609257 60.97452111 5.04609257 60.97452111 4.50219727 58.59082031 C3.93081306 55.64306671 3.78706164 52.82478755 3.68359375 49.82421875 C3.64169922 48.66728516 3.59980469 47.51035156 3.55664062 46.31835938 C3.51732422 45.12017578 3.47800781 43.92199219 3.4375 42.6875 C3.39431641 41.46998047 3.35113281 40.25246094 3.30664062 38.99804688 C3.20078504 35.9988053 3.09870274 32.99948409 3 30 C2.34 29.67 1.68 29.34 1 29 C1.01160156 28.33097656 1.02320313 27.66195312 1.03515625 26.97265625 C1.11995022 17.94815531 0.59711025 8.99930454 0 0 Z " fill="#F26519" transform="translate(139,195)"/>
<path d="M0 0 C21.78 0 43.56 0 66 0 C66 7.92 66 15.84 66 24 C59.07 24 52.14 24 45 24 C45 39.18 45 54.36 45 70 C37.41 70 29.82 70 22 70 C22 54.82 22 39.64 22 24 C14.74 24 7.48 24 0 24 C0 16.08 0 8.16 0 0 Z " fill="#000000" transform="translate(183,17)"/>
<path d="M0 0 C1.68117668 0.0001133 1.68117668 0.0001133 3.39631653 0.00022888 C4.59544174 0.00539017 5.79456696 0.01055145 7.0300293 0.01586914 C8.26593307 0.01728409 9.50183685 0.01869904 10.77519226 0.02015686 C14.0483315 0.02479921 17.32142092 0.03377228 20.59454346 0.04486084 C23.93957053 0.05512135 27.28459978 0.05957908 30.62963867 0.06469727 C37.18371471 0.07486493 43.73766764 0.09444201 50.29174805 0.11352539 C50.29174805 14.30352539 50.29174805 28.49352539 50.29174805 43.11352539 C30.82174805 43.11352539 11.35174805 43.11352539 -8.70825195 43.11352539 C-9.03825195 34.53352539 -9.36825195 25.95352539 -9.70825195 17.11352539 C-10.03825195 16.45352539 -10.36825195 15.79352539 -10.70825195 15.11352539 C-10.77941577 12.73950038 -10.7923428 10.36351862 -10.77075195 7.98852539 C-10.76172852 6.70719727 -10.75270508 5.42586914 -10.7434082 4.10571289 C-10.73180664 3.11829102 -10.72020508 2.13086914 -10.70825195 1.11352539 C-7.07348895 0.27759641 -3.72634415 -0.00841161 0 0 Z " fill="#E54C18" transform="translate(205.708251953125,244.886474609375)"/>
<path d="M0 0 C122.43 0 244.86 0 371 0 C369.875 19.125 369.875 19.125 369.24609375 25.66015625 C369.18092056 26.34637558 369.11574738 27.03259491 369.04859924 27.73960876 C368.84776252 29.84752589 368.64275763 31.95500934 368.4375 34.0625 C368.29724304 35.52666563 368.15726825 36.99085831 368.01757812 38.45507812 C367.68161214 41.9703676 367.34191848 45.48528388 367 49 C366.67 49 366.34 49 366 49 C365.97112764 45.18751574 365.95324508 41.3750593 365.9375 37.5625 C365.92912109 36.47388672 365.92074219 35.38527344 365.91210938 34.26367188 C365.90727539 32.71196289 365.90727539 32.71196289 365.90234375 31.12890625 C365.89448853 29.69140015 365.89448853 29.69140015 365.88647461 28.22485352 C366 26 366 26 367 25 C367.33 17.74 367.66 10.48 368 3 C247.22 2.67 126.44 2.34 2 2 C2 5.96 2 9.92 2 14 C1.67 14 1.34 14 1 14 C0.67 9.38 0.34 4.76 0 0 Z " fill="#DB7458" transform="translate(71,119)"/>
<path d="M0 0 C0.66 0 1.32 0 2 0 C4.44314967 24.02103189 6.64372063 48.05191085 8.56054688 72.12084961 C8.72391981 74.17171531 8.88733087 76.22257797 9.05078125 78.2734375 C9.1302298 79.2713179 9.20967834 80.2691983 9.29153442 81.2973175 C9.79942207 87.63121054 10.34314986 93.96091153 10.91796875 100.2890625 C10.98947647 101.08448456 11.06098419 101.87990662 11.13465881 102.69943237 C11.46013167 106.31857743 11.79163595 109.93689531 12.13696289 113.55419922 C13.00300552 123.15674353 13 132.2516637 13 142 C65.47 142 117.94 142 172 142 C172 148.76653751 171.9450077 155.25432133 171.34375 161.94921875 C171.27716187 162.73271194 171.21057373 163.51620514 171.14196777 164.32344055 C170.93232547 166.77852442 170.7162965 169.23299441 170.5 171.6875 C170.35504168 173.37170809 170.21050717 175.05595271 170.06640625 176.74023438 C169.71581908 180.82726025 169.35951097 184.91374983 169 189 C168.67 189 168.34 189 168 189 C167.33465962 173.57396007 169.31393877 158.30608777 171 143 C169.91928223 143.03029297 168.83856445 143.06058594 167.72509766 143.09179688 C132.02643811 144.05350645 96.33415669 144.08770498 60.625 144.0625 C59.40369637 144.06164398 58.18239273 144.06078796 56.9240799 144.05990601 C41.61603906 144.0483909 26.30801896 144.02813857 11 144 C11 138.72 11 133.44 11 128 C10.34 128.33 9.68 128.66 9 129 C9.00523682 128.28344238 9.01047363 127.56688477 9.01586914 126.82861328 C9.03660667 123.59408438 9.04964984 120.35956944 9.0625 117.125 C9.07087891 115.99707031 9.07925781 114.86914062 9.08789062 113.70703125 C9.09111328 112.63066406 9.09433594 111.55429687 9.09765625 110.4453125 C9.10289307 109.45031738 9.10812988 108.45532227 9.11352539 107.43017578 C9.1639415 104.99039227 9.1639415 104.99039227 8 103 C7.86157341 101.67317399 7.7749704 100.34065474 7.71875 99.0078125 C7.66267578 97.82638672 7.66267578 97.82638672 7.60546875 96.62109375 C7.57066406 95.79738281 7.53585938 94.97367187 7.5 94.125 C7.43079135 92.50244176 7.35799447 90.88003177 7.28125 89.2578125 C7.25095703 88.5373877 7.22066406 87.81696289 7.18945312 87.07470703 C7.05410396 84.99781927 7.05410396 84.99781927 6.5 83.02075195 C5.94536022 80.77917311 5.80774235 78.71662024 5.71875 76.41015625 C5.66267578 75.10981445 5.66267578 75.10981445 5.60546875 73.78320312 C5.57066406 72.88537109 5.53585938 71.98753906 5.5 71.0625 C5.43069576 69.28240777 5.35788543 67.50244793 5.28125 65.72265625 C5.25095703 64.93640869 5.22066406 64.15016113 5.18945312 63.34008789 C5.04609257 60.97452111 5.04609257 60.97452111 4.50219727 58.59082031 C3.93081306 55.64306671 3.78706164 52.82478755 3.68359375 49.82421875 C3.64169922 48.66728516 3.59980469 47.51035156 3.55664062 46.31835938 C3.51732422 45.12017578 3.47800781 43.92199219 3.4375 42.6875 C3.39431641 41.46998047 3.35113281 40.25246094 3.30664062 38.99804688 C3.20078504 35.9988053 3.09870274 32.99948409 3 30 C2.34 29.67 1.68 29.34 1 29 C1.01160156 28.33097656 1.02320313 27.66195312 1.03515625 26.97265625 C1.11995022 17.94815531 0.59711025 8.99930454 0 0 Z " fill="#CB6943" transform="translate(139,195)"/>
<path d="M0 0 C76.23 0 152.46 0 231 0 C229.83928571 24.375 229.83928571 24.375 229 34 C228.67 34 228.34 34 228 34 C227.97526132 30.06731133 227.95712165 26.13465287 227.94506836 22.2019043 C227.93757271 20.20685232 227.92486655 18.21182214 227.91210938 16.21679688 C227.90888672 14.96318359 227.90566406 13.70957031 227.90234375 12.41796875 C227.89710693 11.26063232 227.89187012 10.1032959 227.88647461 8.91088867 C228 6 228 6 229 3 C154.09 2.67 79.18 2.34 2 2 C2 8.27 2 14.54 2 21 C1.67 21 1.34 21 1 21 C0.82706593 19.37565503 0.66209596 17.7504623 0.5 16.125 C0.4071875 15.22007812 0.314375 14.31515625 0.21875 13.3828125 C-0.0691543 8.93057808 0 4.46153339 0 0 Z " fill="#FDCFB6" transform="translate(141,195)"/>
<path d="M0 0 C55.11 0 110.22 0 167 0 C167 7.3282639 166.94570107 14.07457544 166.0625 21.25 C165.07948196 29.82583553 164.45180716 38.37999503 164 47 C163.67 47 163.34 47 163 47 C162.72739711 36.39877662 163.20941614 25.93420641 164.0078125 15.359375 C164.10263916 14.07015137 164.19746582 12.78092773 164.29516602 11.45263672 C164.52733661 8.30154143 164.76234278 5.15068542 165 2 C163.74267783 2.00911329 163.74267783 2.00911329 162.45995522 2.01841068 C142.08865536 2.16571816 121.71732346 2.30745968 101.34594154 2.4429636 C91.49460378 2.50862656 81.64328583 2.57619131 71.79199219 2.64819336 C63.20820082 2.71092659 54.62439371 2.77013215 46.04054868 2.82505554 C41.49314088 2.85427637 36.94576101 2.88529486 32.39839554 2.92053413 C28.12216766 2.95361662 23.84593487 2.98199817 19.56965065 3.00670624 C17.99662257 3.01663622 16.42360445 3.02831352 14.8506031 3.04183006 C12.70994057 3.05996828 10.56933158 3.07193197 8.42861938 3.08229065 C7.22844492 3.09058679 6.02827045 3.09888292 4.79172707 3.10743046 C2 3 2 3 0 2 C0 1.34 0 0.68 0 0 Z " fill="#FEE0C7" transform="translate(197,289)"/>
<path d="M0 0 C1.32 0 2.64 0 4 0 C4 1.65 4 3.3 4 5 C-118.43 5 -240.86 5 -367 5 C-367 4.67 -367 4.34 -367 4 C-246.22 3.67 -125.44 3.34 -1 3 C-0.67 2.01 -0.34 1.02 0 0 Z " fill="#FEECE4" transform="translate(438,114)"/>
<path d="M0 0 C0.65145996 0.21615967 1.30291992 0.43231934 1.97412109 0.6550293 C23.94255793 7.86863166 45.96341369 12.8503464 69 15 C69 15.33 69 15.66 69 16 C47.55 16 26.1 16 4 16 C5.65 14.35 7.3 12.7 9 11 C7.32458028 10.44152676 5.64131869 9.90217782 3.9375 9.4375 C1.5516291 7.66733772 1.51652645 6.74685765 0.87890625 3.91015625 C0.71076416 3.18062744 0.54262207 2.45109863 0.36938477 1.69946289 C0.18653931 0.85822876 0.18653931 0.85822876 0 0 Z " fill="#070304" transform="translate(167,496)"/>
<path d="M0 0 C0.33 0 0.66 0 1 0 C1.5645451 14.82453625 -0.1677125 29.30433951 -2 44 C-1.34 44.33 -0.68 44.66 0 45 C-1.58882252 46.89824452 -2.49333932 47.90143798 -4.96351433 48.38196754 C-6.09047565 48.38693276 -6.09047565 48.38693276 -7.24020386 48.39199829 C-8.10685449 48.40308908 -8.97350512 48.41417986 -9.86641788 48.42560673 C-10.81654979 48.4226028 -11.76668169 48.41959887 -12.74560547 48.41650391 C-13.75127532 48.42510909 -14.75694517 48.43371428 -15.79308987 48.44258022 C-19.15119368 48.46787886 -22.50899642 48.47210391 -25.8671875 48.4765625 C-28.2330967 48.49061067 -30.59899798 48.50605289 -32.96488953 48.52281189 C-37.99368968 48.5558164 -43.02241992 48.57987673 -48.05130005 48.59671021 C-55.84802721 48.62294356 -63.64455615 48.66836493 -71.44116211 48.71850586 C-74.02488699 48.73498456 -76.60861197 48.75144883 -79.19233704 48.76789856 C-80.46461969 48.77602884 -81.73690235 48.78415913 -83.04773903 48.79253578 C-86.89076164 48.81638286 -90.73379093 48.83828579 -94.576828 48.85966492 C-114.24139365 48.97127442 -133.9009877 49.20353593 -153.5625 49.5625 C-154.82149109 49.5849176 -156.08048218 49.60733521 -157.37762451 49.63043213 C-163.91855208 49.74716239 -170.4593323 49.86953065 -177 50 C-176.85936865 52.29199177 -176.71234057 54.58359186 -176.5625 56.875 C-176.48128906 58.15117187 -176.40007812 59.42734375 -176.31640625 60.7421875 C-176.20793973 63.88300152 -176.20793973 63.88300152 -175 66 C-174.91573906 67.6674606 -174.89274857 69.33825187 -174.90234375 71.0078125 C-174.90556641 71.99394531 -174.90878906 72.98007812 -174.91210938 73.99609375 C-174.92048828 75.02863281 -174.92886719 76.06117188 -174.9375 77.125 C-174.94201172 78.16527344 -174.94652344 79.20554687 -174.95117188 80.27734375 C-174.96298048 82.85161962 -174.97944925 85.42578146 -175 88 C-175.33 88 -175.66 88 -176 88 C-176.43279 83.60802563 -176.85980102 79.21553688 -177.28173828 74.82250977 C-177.4257044 73.33180018 -177.571179 71.84123539 -177.71826172 70.35083008 C-177.93084582 68.19389682 -178.13778466 66.03648044 -178.34375 63.87890625 C-178.46943359 62.5854126 -178.59511719 61.29191895 -178.72460938 59.95922852 C-179.02441962 55.64892474 -179 51.3207181 -179 47 C-121.25 47 -63.5 47 -4 47 C-2.515 26.705 -2.515 26.705 -1 6 C-0.67 4.02 -0.34 2.04 0 0 Z " fill="#D27B4B" transform="translate(372,196)"/>
<path d="M0 0 C0.33 0 0.66 0 1 0 C1.13277344 0.84304688 1.26554687 1.68609375 1.40234375 2.5546875 C1.57894531 3.65039062 1.75554687 4.74609375 1.9375 5.875 C2.19853516 7.51082031 2.19853516 7.51082031 2.46484375 9.1796875 C2.85551159 11.93821546 2.85551159 11.93821546 4 14 C4.15123831 15.5195764 4.24881693 17.04472502 4.31640625 18.5703125 C4.35830078 19.46621094 4.40019531 20.36210937 4.44335938 21.28515625 C4.48267578 22.22230469 4.52199219 23.15945313 4.5625 24.125 C4.60568359 25.06988281 4.64886719 26.01476562 4.69335938 26.98828125 C4.79959072 29.32537092 4.90163176 31.6625683 5 34 C5.66 33.34 6.32 32.68 7 32 C6.99476318 32.6798999 6.98952637 33.3597998 6.98413086 34.06030273 C6.96314929 37.18602549 6.95027313 40.31173335 6.9375 43.4375 C6.92912109 44.50677734 6.92074219 45.57605469 6.91210938 46.67773438 C6.89315369 52.87624228 7.17936741 58.8549481 8 65 C8.99 64.505 8.99 64.505 10 64 C9.505 62.515 9.505 62.515 9 61 C8.91856145 59.37280518 8.8924698 57.74248281 8.90234375 56.11328125 C8.90556641 55.17548828 8.90878906 54.23769531 8.91210938 53.27148438 C8.92048828 52.29501953 8.92886719 51.31855469 8.9375 50.3125 C8.94201172 49.32443359 8.94652344 48.33636719 8.95117188 47.31835938 C8.96295697 44.87884526 8.97940989 42.43945311 9 40 C9.66 40 10.32 40 11 40 C11 45.28 11 50.56 11 56 C11.66 56 12.32 56 13 56 C13.91397824 61.68697571 13.91397824 66.31302429 13 72 C12.01 72 11.02 72 10 72 C9.505 69.525 9.505 69.525 9 67 C9.08760589 69.06326977 9.19579273 71.1256716 9.3125 73.1875 C9.37050781 74.33605469 9.42851563 75.48460937 9.48828125 76.66796875 C10.02550649 80.16608423 11.06897589 82.0853443 13 85 C13 85.66 13 86.32 13 87 C14.98 87 16.96 87 19 87 C19 87.99 19 88.98 19 90 C19.7425 90.04125 20.485 90.0825 21.25 90.125 C25.09551776 91.34857383 26.04305483 93.59346582 28 97 C23.94149751 95.54520591 20.58247767 93.57734161 17 91.1875 C15.4840625 90.18783203 15.4840625 90.18783203 13.9375 89.16796875 C12.968125 88.45253906 11.99875 87.73710937 11 87 C10.05125 86.35675781 9.1025 85.71351563 8.125 85.05078125 C5.18238474 80.82618103 5.71233114 77.61470842 5.90917969 72.57666016 C6.0577352 66.72628855 5.28983186 60.99229835 4.625 55.1875 C4.34709028 52.63561941 4.07107773 50.08353157 3.796875 47.53125 C3.66087891 46.26796875 3.52488281 45.0046875 3.38476562 43.703125 C1.87472057 29.16989951 0.81519565 14.58771157 0 0 Z " fill="#E14C1F" transform="translate(93,376)"/>
<path d="M0 0 C0 5.94 0 11.88 0 18 C-7.59 18 -15.18 18 -23 18 C-23 15.69 -23 13.38 -23 11 C-20.43964079 9.53779721 -17.8768644 8.08014847 -15.3125 6.625 C-14.59126953 6.2125 -13.87003906 5.8 -13.12695312 5.375 C-3.63400958 0 -3.63400958 0 0 0 Z " fill="#EFEFEF" transform="translate(151,23)"/>
<path d="M0 0 C0.33 0 0.66 0 1 0 C1.02888514 3.14581423 1.04675923 6.29159469 1.0625 9.4375 C1.07087891 10.33533203 1.07925781 11.23316406 1.08789062 12.15820312 C1.09111328 13.01220703 1.09433594 13.86621094 1.09765625 14.74609375 C1.10289307 15.53685303 1.10812988 16.3276123 1.11352539 17.14233398 C1 19 1 19 0 20 C-0.14481287 21.54815405 -0.22702845 23.10228354 -0.28125 24.65625 C-0.31863281 25.59597656 -0.35601562 26.53570312 -0.39453125 27.50390625 C-0.42933594 28.49261719 -0.46414063 29.48132813 -0.5 30.5 C-0.56857628 32.4480743 -0.64126787 34.39600959 -0.71875 36.34375 C-0.74904297 37.21193359 -0.77933594 38.08011719 -0.81054688 38.97460938 C-1 41 -1 41 -2 42 C-2.23653523 44.52596259 -2.42173692 47.03107207 -2.5625 49.5625 C-2.60568359 50.27341797 -2.64886719 50.98433594 -2.69335938 51.71679688 C-2.79971777 53.47761912 -2.90038846 55.2387832 -3 57 C-2.34 57 -1.68 57 -1 57 C-0.21434831 60.51674556 0.16333039 63.84984802 0.28125 67.44921875 C0.31863281 68.46177734 0.35601562 69.47433594 0.39453125 70.51757812 C0.46523322 72.6425652 0.53554146 74.76756541 0.60546875 76.89257812 C0.64285156 77.90126953 0.68023437 78.90996094 0.71875 79.94921875 C0.74904297 80.87049561 0.77933594 81.79177246 0.81054688 82.7409668 C0.86217571 85.03343533 0.86217571 85.03343533 2 87 C1.505 87.99 1.505 87.99 1 89 C-1.66666667 89 -4.33333333 89 -7 89 C-7.16421639 78.25903141 -6.72901162 67.6903563 -5.72265625 56.9921875 C-5.58996969 55.52732322 -5.45785619 54.06240694 -5.32627869 52.59744263 C-5.05235014 49.56356923 -4.77385182 46.53016702 -4.49145508 43.49707031 C-4.1307487 39.62227314 -3.77841583 35.74677285 -3.42903996 31.87093925 C-3.09234525 28.14025339 -2.75134045 24.40996497 -2.41015625 20.6796875 C-2.34638353 19.97803341 -2.28261082 19.27637932 -2.21690559 18.55346298 C-2.03509258 16.56130164 -1.84976978 14.56946156 -1.66430664 12.57763672 C-1.5599379 11.44897186 -1.45556915 10.32030701 -1.34803772 9.15744019 C-1.00869937 6.07892172 -0.53998669 3.04913577 0 0 Z " fill="#F8EAE5" transform="translate(442,119)"/>
<path d="M0 0 C0.33 0 0.66 0 1 0 C1.02469321 4.2358357 1.04285671 8.47163342 1.05493164 12.70751953 C1.05996474 14.1489332 1.06679173 15.59034176 1.07543945 17.03173828 C1.08754983 19.10190085 1.09323847 21.17199601 1.09765625 23.2421875 C1.10289307 24.4885498 1.10812988 25.73491211 1.11352539 27.01904297 C1 30 1 30 0 32 C-0.39227838 34.70872518 -0.74569498 37.40751693 -1.0625 40.125 C-1.15337891 40.87910156 -1.24425781 41.63320313 -1.33789062 42.41015625 C-1.56190852 44.27304188 -1.78138573 46.13647252 -2 48 C-0.02 47.505 -0.02 47.505 2 47 C2.22114415 49.79119779 2.42743301 52.5821212 2.625 55.375 C2.68945312 56.1690625 2.75390625 56.963125 2.8203125 57.78125 C2.96058587 59.85028224 2.98758237 61.92625536 3 64 C2.01 64.99 2.01 64.99 1 66 C0.69940057 68.36509361 0.50484988 70.74441881 0.375 73.125 C0.26285156 75.04699219 0.26285156 75.04699219 0.1484375 77.0078125 C0.09945313 77.99523437 0.05046875 78.98265625 0 80 C-0.66 80 -1.32 80 -2 80 C-2.33 77.36 -2.66 74.72 -3 72 C-5.00418406 74.00418406 -4.36798025 77.92730936 -4.5 80.6875 C-4.73812298 85.53374371 -5.09656428 90.21931932 -6 95 C-6.33 95 -6.66 95 -7 95 C-6.19003147 72.09040219 -4.39005806 49.33736589 -2.04223633 26.53637695 C-1.14077496 17.69693423 -0.41119903 8.87622741 0 0 Z " fill="#F5E6DE" transform="translate(424,320)"/>
<path d="M0 0 C1.32 0.33 2.64 0.66 4 1 C-2.72871221 5.91100323 -9.59919311 10.18989103 -16.9375 14.125 C-17.84951172 14.62386719 -18.76152344 15.12273437 -19.70117188 15.63671875 C-38.00303018 25.54429717 -63.76875354 39 -85 39 C-85 38.01 -85 37.02 -85 36 C-84.11957031 35.87882812 -83.23914063 35.75765625 -82.33203125 35.6328125 C-81.17058594 35.46523438 -80.00914062 35.29765625 -78.8125 35.125 C-77.66394531 34.96257812 -76.51539063 34.80015625 -75.33203125 34.6328125 C-72.2948926 34.05600539 -69.83416573 33.1895913 -67 32 C-65.61049368 31.69838174 -64.21408458 31.42679493 -62.8125 31.1875 C-59.15021719 30.43314274 -56.23145473 29.20103269 -52.9375 27.4375 C-48.50149619 25.07718498 -44.99845586 24.27769199 -40 24 C-40 23.34 -40 22.68 -40 22 C-43.3 22 -46.6 22 -50 22 C-50 21.01 -50 20.02 -50 19 C-49.09507812 18.90912109 -49.09507812 18.90912109 -48.171875 18.81640625 C-46.97304688 18.69072266 -46.97304688 18.69072266 -45.75 18.5625 C-44.96109375 18.48128906 -44.1721875 18.40007812 -43.359375 18.31640625 C-41.17635361 18.02365007 -39.1226818 17.57935581 -37 17 C-37 16.34 -37 15.68 -37 15 C-35.68 15.33 -34.36 15.66 -33 16 C-33 16.66 -33 17.32 -33 18 C-31.35 18 -29.7 18 -28 18 C-28 17.34 -28 16.68 -28 16 C-23.35855331 14.23945126 -18.72224516 12.53472968 -14 11 C-14 10.34 -14 9.68 -14 9 C-8.25 6 -8.25 6 -6 6 C-6 5.34 -6 4.68 -6 4 C-5.195625 3.71125 -4.39125 3.4225 -3.5625 3.125 C-0.8673532 2.26737432 -0.8673532 2.26737432 0 0 Z " fill="#E04E15" transform="translate(396,467)"/>
<path d="M0 0 C0.33 0 0.66 0 1 0 C3.74586914 16.31177028 4 31.19725661 4 48 C56.14 48 108.28 48 162 48 C162 48.33 162 48.66 162 49 C109.53 49 57.06 49 3 49 C0 8 0 8 0 0 Z " fill="#FDE7D6" transform="translate(149,288)"/>
<path d="M0 0 C0.99 0.33 1.98 0.66 3 1 C2.67 11.56 2.34 22.12 2 33 C6.455 32.505 6.455 32.505 11 32 C14.06640625 32.55859375 14.06640625 32.55859375 16.5625 33.4375 C17.83287109 33.86869141 17.83287109 33.86869141 19.12890625 34.30859375 C20.05509766 34.65083984 20.05509766 34.65083984 21 35 C21 36.98 21 38.96 21 41 C22.3303125 41.185625 22.3303125 41.185625 23.6875 41.375 C24.63109375 41.51228516 24.63109375 41.51228516 25.59375 41.65234375 C27.46765065 41.92308589 29.34294814 42.18416643 31.21875 42.44140625 C32.93578125 42.68697266 32.93578125 42.68697266 34.6875 42.9375 C36.33298828 43.16759766 36.33298828 43.16759766 38.01171875 43.40234375 C40.70764117 43.94152823 42.64116306 44.62831623 45 46 C45 46.66 45 47.32 45 48 C38.56070908 47.37416728 32.59339075 45.9448713 26.375 44.1875 C25.47910156 43.93935547 24.58320313 43.69121094 23.66015625 43.43554688 C16.09472013 41.33284787 8.55007086 39.1571631 1 37 C0.67 24.79 0.34 12.58 0 0 Z " fill="#DE4F1B" transform="translate(203,358)"/>
<path d="M0 0 C0.99 0.495 0.99 0.495 2 1 C2.6328125 3.50390625 2.6328125 3.50390625 3.125 6.5625 C3.29257813 7.57441406 3.46015625 8.58632812 3.6328125 9.62890625 C3.75398438 10.41136719 3.87515625 11.19382813 4 12 C4.33 12 4.66 12 5 12 C5 15.96 5 19.92 5 24 C6.32 24 7.64 24 9 24 C10.90608098 27.21182149 11.22266247 29.53882603 11.125 33.25 C11.10695313 34.14203125 11.08890625 35.0340625 11.0703125 35.953125 C11.03550781 36.96632813 11.03550781 36.96632813 11 38 C10.67 37.34 10.34 36.68 10 36 C9.01 36.495 9.01 36.495 8 37 C7.67 37.99 7.34 38.98 7 40 C6.34 40 5.68 40 5 40 C5.16371094 40.62261719 5.32742187 41.24523437 5.49609375 41.88671875 C6.19534902 46.20692382 6.10484393 50.44456045 6.0625 54.8125 C6.05798828 55.69615234 6.05347656 56.57980469 6.04882812 57.49023438 C6.03709866 59.66018559 6.01916495 61.83010172 6 64 C5.67 64 5.34 64 5 64 C4.91959473 63.01418945 4.83918945 62.02837891 4.75634766 61.01269531 C4.38147923 56.42494451 4.00367109 51.83743836 3.625 47.25 C3.5571933 46.42721558 3.4893866 45.60443115 3.41952515 44.75671387 C2.57123913 34.48977505 1.70680172 24.22806735 0.55908203 13.98925781 C0.05056749 9.28905242 -0.06877897 4.71929528 0 0 Z " fill="#E15120" transform="translate(81,232)"/>
<path d="M0 0 C7.22245615 1.55238768 14.16047845 3.18372642 21 6 C19.625 8.5 19.625 8.5 18 11 C17.34 11 16.68 11 16 11 C16 33.11 16 55.22 16 78 C15.67 78 15.34 78 15 78 C15 54.9 15 31.8 15 8 C9.06 8 3.12 8 -3 8 C-3 7.01 -3 6.02 -3 5 C0 3 0 3 2.1875 3.375 C2.785625 3.58125 3.38375 3.7875 4 4 C4 3.67 4 3.34 4 3 C2.35 2.67 0.7 2.34 -1 2 C-0.67 1.34 -0.34 0.68 0 0 Z " fill="#DFDFDF" transform="translate(323,9)"/>
<path d="M0 0 C0.33 0 0.66 0 1 0 C1.06469482 0.84328857 1.12938965 1.68657715 1.19604492 2.55541992 C1.52195268 6.76648389 1.85324289 10.97709143 2.1875 15.1875 C2.25047272 15.98244873 2.31344543 16.77739746 2.37832642 17.59643555 C3.26166484 28.67406563 4.24359425 39.73948622 5.3125 50.80078125 C5.42564041 51.97553513 5.53878082 53.150289 5.65534973 54.36064148 C6.21932235 60.20252105 6.79133583 66.04347873 7.3737793 71.88354492 C9.42349546 92.76489056 9.42349546 92.76489056 9 103 C8.01 102.67 7.02 102.34 6 102 C5.97494385 101.26885986 5.9498877 100.53771973 5.92407227 99.78442383 C5.80777359 96.46028583 5.68520072 93.13640759 5.5625 89.8125 C5.50352539 88.08676758 5.50352539 88.08676758 5.44335938 86.32617188 C5.40146484 85.21435547 5.35957031 84.10253906 5.31640625 82.95703125 C5.27974854 81.93585205 5.24309082 80.91467285 5.20532227 79.86254883 C5.01119796 77.15611905 4.53566381 74.65499474 4 72 C3.89154551 70.30669969 3.82347714 68.61048342 3.7890625 66.9140625 C3.76255615 65.91608643 3.7360498 64.91811035 3.70874023 63.88989258 C3.68110596 62.81247803 3.65347168 61.73506348 3.625 60.625 C3.26828044 49.0204408 2.29872537 37.55554479 1.01611328 26.02392578 C0.08172355 17.29102001 -0.16058189 8.77149506 0 0 Z " fill="#F7D7C6" transform="translate(91,355)"/>
<path d="M0 0 C0.33 0 0.66 0 1 0 C1 3.63 1 7.26 1 11 C1.99 11 2.98 11 4 11 C4.33 16.61 4.66 22.22 5 28 C38.99 28.33 72.98 28.66 108 29 C108 29.33 108 29.66 108 30 C73.02 30 38.04 30 2 30 C2 24.72 2 19.44 2 14 C1.01 14.495 1.01 14.495 0 15 C0 10.05 0 5.1 0 0 Z " fill="#D75327" transform="translate(148,309)"/>
<path d="M0 0 C0.33 0 0.66 0 1 0 C1 3.96 1 7.92 1 12 C-2.68626878 12.98400808 -6.37388756 13.96234959 -10.0625 14.9375 C-11.10083984 15.21529297 -12.13917969 15.49308594 -13.20898438 15.77929688 C-18.46688399 17.16471169 -23.59375621 18.39419396 -29 19 C-23.41455609 15.27637072 -18.63671886 13.17118568 -12 12 C-12 11.34 -12 10.68 -12 10 C-12.99 10 -13.98 10 -15 10 C-15 9.34 -15 8.68 -15 8 C-15.99 8 -16.98 8 -18 8 C-18 7.34 -18 6.68 -18 6 C-15.69 6 -13.38 6 -11 6 C-11 6.66 -11 7.32 -11 8 C-8.36 8 -5.72 8 -3 8 C-3 7.01 -3 6.02 -3 5 C-2.34 5 -1.68 5 -1 5 C-0.67 3.35 -0.34 1.7 0 0 Z " fill="#EE671D" transform="translate(306,384)"/>
<path d="M0 0 C15.84 0 31.68 0 48 0 C48.61868859 5.56819731 49.12325822 10.49948365 49.09765625 16.00390625 C49.09443359 17.23818359 49.09121094 18.47246094 49.08789062 19.74414062 C49.07532227 21.63422852 49.07532227 21.63422852 49.0625 23.5625 C49.05798828 24.85736328 49.05347656 26.15222656 49.04882812 27.48632812 C49.03712601 30.657601 49.02073113 33.82877546 49 37 C50.2478125 37.14308594 51.495625 37.28617187 52.78125 37.43359375 C56.38609022 37.84695869 59.59139611 38.72177354 63 40 C59.97031651 40.91787677 57.57728581 41.04344865 54.4375 40.6875 C53.67308594 40.60886719 52.90867188 40.53023438 52.12109375 40.44921875 C50 40 50 40 47 38 C46.73351162 35.16471648 46.65189026 32.54440306 46.70703125 29.7109375 C46.71005249 28.98559814 46.71307373 28.26025879 46.71618652 27.51293945 C46.73189767 24.80014849 46.77378177 22.08756015 46.8125 19.375 C46.874375 13.31125 46.93625 7.2475 47 1 C31.82 1 16.64 1 1 1 C1 3.97 1 6.94 1 10 C0.67 10 0.34 10 0 10 C0 6.7 0 3.4 0 0 Z " fill="#FDE0CD" transform="translate(155,358)"/>
<path d="M0 0 C0.33 0 0.66 0 1 0 C0.34551571 15.44976269 -0.79426696 30.83968804 -2.0625 46.25 C-2.25093366 48.56768537 -2.43908631 50.88539361 -2.62695312 53.203125 C-3.0814078 58.80235012 -3.53928567 64.40128664 -4 70 C-6.475 70.495 -6.475 70.495 -9 71 C-9 70.34 -9 69.68 -9 69 C-8.01 69 -7.02 69 -6 69 C-6.020625 67.741875 -6.04125 66.48375 -6.0625 65.1875 C-6.07132275 59.03804541 -5.7139205 52.91488164 -5.35571289 46.77807617 C-5.1580786 43.33303922 -5.00055841 39.9371787 -5.03125 36.484375 C-5 34 -5 34 -4 33 C-3.71277092 31.16045567 -3.48436739 29.31165823 -3.28125 27.4609375 C-3.08982422 25.75357422 -3.08982422 25.75357422 -2.89453125 24.01171875 C-2.76433594 22.81160156 -2.63414062 21.61148437 -2.5 20.375 C-2.24042585 18.02855248 -1.98003182 15.68219548 -1.71875 13.3359375 C-1.59628906 12.23475586 -1.47382813 11.13357422 -1.34765625 9.99902344 C-0.95992503 6.65429712 -0.50755506 3.32838993 0 0 Z " fill="#FDEAD7" transform="translate(357,360)"/>
<path d="M0 0 C0.495 0.99 0.495 0.99 1 2 C-1.23407889 5.35111834 -2.26215824 6.81553956 -6.25 7.8125 C-7.1575 7.874375 -8.065 7.93625 -9 8 C-9.0825 8.556875 -9.165 9.11375 -9.25 9.6875 C-10.32425164 12.9997759 -11.41871435 14.60758891 -14 17 C-17.29403855 18.00837915 -20.58684288 18.56358487 -24 19 C-24 20.65 -24 22.3 -24 24 C-24.99 23.67 -25.98 23.34 -27 23 C-27 22.34 -27 21.68 -27 21 C-28.65 21 -30.3 21 -32 21 C-27.88126044 17.48005558 -23.49628544 14.85788414 -18.8125 12.1875 C-12.30664302 8.42694557 -6.04111824 4.48259879 0 0 Z " fill="#0E0506" transform="translate(408,462)"/>
<path d="M0 0 C2.02523759 1.01720078 3.99493228 2.145146 5.9375 3.3125 C11.99179752 6.89203629 18.14186014 10.24204722 24.375 13.5 C25.22570068 13.94512939 26.07640137 14.39025879 26.95288086 14.84887695 C28.96753056 15.90129974 30.98315823 16.9517858 33 18 C29.98968256 18.93423645 29.13349732 19.04449911 26 18 C26 17.34 26 16.68 26 16 C22.7 15.34 19.4 14.68 16 14 C16 14.66 16 15.32 16 16 C15.01 16 14.02 16 13 16 C13 13.69 13 11.38 13 9 C11.37509046 8.97301811 9.75005367 8.95361243 8.125 8.9375 C7.22007813 8.92589844 6.31515625 8.91429687 5.3828125 8.90234375 C2.9831415 8.83750743 2.9831415 8.83750743 1 10 C-1.29379749 6.55930376 -2 5.27709699 -2 1 C-1.34 0.67 -0.68 0.34 0 0 Z " fill="#1C0402" transform="translate(115,470)"/>
<path d="M0 0 C20.79 0 41.58 0 63 0 C63 0.33 63 0.66 63 1 C42.87 1.33 22.74 1.66 2 2 C1.98962027 10.27688886 1.98962027 10.27688886 4 18 C4.08426094 19.6674606 4.10725143 21.33825187 4.09765625 23.0078125 C4.09443359 23.99394531 4.09121094 24.98007812 4.08789062 25.99609375 C4.07951172 27.02863281 4.07113281 28.06117188 4.0625 29.125 C4.05798828 30.16527344 4.05347656 31.20554687 4.04882812 32.27734375 C4.03701952 34.85161962 4.02055075 37.42578146 4 40 C3.67 40 3.34 40 3 40 C2.56785354 35.58965421 2.14080122 31.17885222 1.71826172 26.76757812 C1.57411982 25.27005019 1.42863801 23.77265055 1.28173828 22.27539062 C1.06962889 20.11100907 0.86250077 17.94619679 0.65625 15.78125 C0.53056641 14.48251953 0.40488281 13.18378906 0.27539062 11.84570312 C-0.00672012 7.90615656 0 3.94963462 0 0 Z " fill="#D25834" transform="translate(193,244)"/>
<path d="M0 0 C0.33 0 0.66 0 1 0 C1.22572719 13.21024954 0.99539631 25.93091578 -1 39 C-1.96969221 46.09686829 -2.07139731 53.05024801 -1.87548828 60.20092773 C-1.81153308 64.03867795 -1.81501484 65.72252226 -4 69 C-4.39387788 71.32387947 -4.73486085 73.65793749 -5 76 C-5.33 76 -5.66 76 -6 76 C-5.41173315 62.10993597 -4.45239564 48.27457694 -3.27050781 34.42285156 C-2.99675211 31.21190472 -2.72847893 28.00053256 -2.4609375 24.7890625 C-2.28677329 22.71872348 -2.11230547 20.64840997 -1.9375 18.578125 C-1.81870483 17.15925995 -1.81870483 17.15925995 -1.69750977 15.71173096 C-1.24697463 10.45505434 -0.69149394 5.23057033 0 0 Z " fill="#FAD9CC" transform="translate(434,208)"/>
<path d="M0 0 C0 0.66 0 1.32 0 2 C-0.65226562 2.08636719 -1.30453125 2.17273438 -1.9765625 2.26171875 C-2.85054688 2.40222656 -3.72453125 2.54273438 -4.625 2.6875 C-5.48351562 2.81511719 -6.34203125 2.94273437 -7.2265625 3.07421875 C-10.2266998 3.8577814 -10.2266998 3.8577814 -12.65820312 6.52734375 C-16.23917216 9.58060655 -19.68459436 9.64838588 -24.2421875 9.48828125 C-25.01055939 9.48120651 -25.77893127 9.47413177 -26.57058716 9.46684265 C-29.00641417 9.43902296 -31.43987704 9.37631602 -33.875 9.3125 C-35.53382078 9.2874007 -37.19267788 9.26459039 -38.8515625 9.24414062 C-42.90194198 9.18923818 -46.95057127 9.10305907 -51 9 C-51 8.67 -51 8.34 -51 8 C-50.35788574 7.93530518 -49.71577148 7.87061035 -49.05419922 7.80395508 C-34.4384508 6.29202586 -20.31471357 4.06634092 -6.0769043 0.41137695 C-4 0 -4 0 0 0 Z " fill="#1A0403" transform="translate(326,503)"/>
<path d="M0 0 C4.95 0.99 4.95 0.99 10 2 C10 2.66 10 3.32 10 4 C10.66 4 11.32 4 12 4 C11.67 3.01 11.34 2.02 11 1 C13.31 1 15.62 1 18 1 C18 1.66 18 2.32 18 3 C22.31196609 3.94324258 26.62065881 4.48041715 31 5 C31 5.99 31 6.98 31 8 C27.04 8 23.08 8 19 8 C20.98 8.66 22.96 9.32 25 10 C25 10.66 25 11.32 25 12 C16.11759114 9.4621689 8.17381793 5.22230349 0 1 C0 0.67 0 0.34 0 0 Z " fill="#DF4E1A" transform="translate(135,481)"/>
<path d="M0 0 C3.47914941 -0.02887814 6.95826831 -0.04675687 10.4375 -0.0625 C11.92733398 -0.07506836 11.92733398 -0.07506836 13.44726562 -0.08789062 C14.39150391 -0.09111328 15.33574219 -0.09433594 16.30859375 -0.09765625 C17.62041626 -0.10551147 17.62041626 -0.10551147 18.95874023 -0.11352539 C21 0 21 0 22 1 C24.52596259 1.23653523 27.03107207 1.42173692 29.5625 1.5625 C30.27341797 1.60568359 30.98433594 1.64886719 31.71679688 1.69335938 C33.47761912 1.79971777 35.2387832 1.90038846 37 2 C37 2.33 37 2.66 37 3 C34.31275296 3.48062124 31.62521967 3.95953496 28.9375 4.4375 C28.18533203 4.57220703 27.43316406 4.70691406 26.65820312 4.84570312 C13.68140323 7.14894467 13.68140323 7.14894467 8.0625 7.0625 C7.29035156 7.05347656 6.51820313 7.04445313 5.72265625 7.03515625 C5.15417969 7.02355469 4.58570313 7.01195312 4 7 C4 6.67 4 6.34 4 6 C5.4540625 5.5359375 5.4540625 5.5359375 6.9375 5.0625 C9.84065792 4.30476658 9.84065792 4.30476658 11 3 C10.28972656 2.95101563 9.57945312 2.90203125 8.84765625 2.8515625 C7.92855469 2.77679688 7.00945312 2.70203125 6.0625 2.625 C5.14597656 2.55539062 4.22945313 2.48578125 3.28515625 2.4140625 C2.15400391 2.20910156 2.15400391 2.20910156 1 2 C0.67 1.34 0.34 0.68 0 0 Z " fill="#E24C20" transform="translate(272,504)"/>
<path d="M0 0 C1.32 0.33 2.64 0.66 4 1 C3.67 2.32 3.34 3.64 3 5 C2.34 5 1.68 5 1 5 C1.01160156 6.07378906 1.02320313 7.14757812 1.03515625 8.25390625 C1.04454315 9.69010241 1.05364238 11.12630048 1.0625 12.5625 C1.07087891 13.26697266 1.07925781 13.97144531 1.08789062 14.69726562 C1.10882025 19.23899449 0.65093506 23.49649375 0 28 C-0.29406178 32.56267152 -0.43865664 37.13237345 -0.60546875 41.70117188 C-0.64285156 42.61060547 -0.68023437 43.52003906 -0.71875 44.45703125 C-0.74904297 45.28178955 -0.77933594 46.10654785 -0.81054688 46.95629883 C-1 49 -1 49 -2 51 C-2.39227838 53.70872518 -2.74569498 56.40751693 -3.0625 59.125 C-3.15337891 59.87910156 -3.24425781 60.63320313 -3.33789062 61.41015625 C-3.56190852 63.27304188 -3.78138573 65.13647252 -4 67 C-4.33 67 -4.66 67 -5 67 C-4.38183101 52.29408512 -3.29070892 37.66089442 -2 23 C-1.80821659 20.78779308 -1.61681309 18.5755532 -1.42578125 16.36328125 C-0.95415952 10.9085332 -0.47862216 5.45413801 0 0 Z " fill="#DD7339" transform="translate(364,289)"/>
<path d="M0 0 C0.33 0 0.66 0 1 0 C1.13277344 0.84304688 1.26554687 1.68609375 1.40234375 2.5546875 C1.57894531 3.65039062 1.75554687 4.74609375 1.9375 5.875 C2.19853516 7.51082031 2.19853516 7.51082031 2.46484375 9.1796875 C2.85551159 11.93821546 2.85551159 11.93821546 4 14 C4.15123831 15.5195764 4.24881693 17.04472502 4.31640625 18.5703125 C4.35830078 19.46621094 4.40019531 20.36210937 4.44335938 21.28515625 C4.48267578 22.22230469 4.52199219 23.15945313 4.5625 24.125 C4.60568359 25.06988281 4.64886719 26.01476562 4.69335938 26.98828125 C4.79959072 29.32537092 4.90163176 31.6625683 5 34 C5.66 33.34 6.32 32.68 7 32 C7 44.21 7 56.42 7 69 C6.67 69 6.34 69 6 69 C3.54689918 46.03229052 1.28902608 23.06678257 0 0 Z " fill="#D55B37" transform="translate(93,376)"/>
<path d="M0 0 C0.66 0.66 1.32 1.32 2 2 C2.66 1.34 3.32 0.68 4 0 C3 21.53191489 3 21.53191489 2 32 C1.67 32 1.34 32 1 32 C0.67 28.7 0.34 25.4 0 22 C-0.33 22 -0.66 22 -1 22 C-1 20.02 -1 18.04 -1 16 C-1.66 15.67 -2.32 15.34 -3 15 C-2.67 14.67 -2.34 14.34 -2 14 C-2.33 14 -2.66 14 -3 14 C-3.08082094 12.04233719 -3.13910778 10.08373272 -3.1875 8.125 C-3.22230469 7.03445313 -3.25710938 5.94390625 -3.29296875 4.8203125 C-3.19628906 3.88960938 -3.09960938 2.95890625 -3 2 C-2.01 1.34 -1.02 0.68 0 0 Z " fill="#DB5120" transform="translate(423,288)"/>
<path d="M0 0 C0.33 0 0.66 0 1 0 C1.08302368 1.0041394 1.08302368 1.0041394 1.16772461 2.02856445 C1.42386021 5.12324758 1.68067699 8.21787384 1.9375 11.3125 C2.02451172 12.36501953 2.11152344 13.41753906 2.20117188 14.50195312 C2.28818359 15.54931641 2.37519531 16.59667969 2.46484375 17.67578125 C2.59620728 19.25709839 2.59620728 19.25709839 2.73022461 20.87036133 C2.98824648 23.86364858 3.27368077 26.85330488 3.5625 29.84375 C3.94152107 33.97115874 4.10710169 38.03954321 4.0625 42.1875 C4.05347656 43.29480469 4.04445313 44.40210938 4.03515625 45.54296875 C4.02355469 46.35378906 4.01195313 47.16460937 4 48 C3.34 47.67 2.68 47.34 2 47 C1.58935547 44.86694336 1.58935547 44.86694336 1.3671875 42.08984375 C1.28339844 41.10048828 1.19960937 40.11113281 1.11328125 39.09179688 C1.03464844 38.05087891 0.95601563 37.00996094 0.875 35.9375 C0.78863281 34.89271484 0.70226562 33.84792969 0.61328125 32.77148438 C0.40041023 30.18155359 0.19638621 27.5912245 0 25 C-0.33 27.31 -0.66 29.62 -1 32 C-1.66 32 -2.32 32 -3 32 C-3 27.05 -3 22.1 -3 17 C-2.01 17 -1.02 17 0 17 C0 11.39 0 5.78 0 0 Z " fill="#F7DDD0" transform="translate(73,144)"/>
<path d="M0 0 C0.89953036 3.00241726 1.04455001 5.40117663 0.765625 8.515625 C0.68747559 9.42248047 0.60932617 10.32933594 0.52880859 11.26367188 C0.43680176 12.24916016 0.34479492 13.23464844 0.25 14.25 C0.15928223 15.27673828 0.06856445 16.30347656 -0.02490234 17.36132812 C-0.34141647 20.90837895 -0.66979829 24.45419762 -1 28 C-1.13127689 29.41991337 -1.26245841 30.83983557 -1.39355469 32.25976562 C-2.24855719 41.50782998 -3.11887699 50.75438864 -4 60 C-4.33 60 -4.66 60 -5 60 C-5.33 52.08 -5.66 44.16 -6 36 C-5.34 36 -4.68 36 -4 36 C-3.98018066 35.43716309 -3.96036133 34.87432617 -3.93994141 34.29443359 C-2.77740161 2.77740161 -2.77740161 2.77740161 0 0 Z " fill="#D66744" transform="translate(418,388)"/>
<path d="M0 0 C0.33 0 0.66 0 1 0 C1.02888514 3.14581423 1.04675923 6.29159469 1.0625 9.4375 C1.07087891 10.33533203 1.07925781 11.23316406 1.08789062 12.15820312 C1.09111328 13.01220703 1.09433594 13.86621094 1.09765625 14.74609375 C1.10289307 15.53685303 1.10812988 16.3276123 1.11352539 17.14233398 C1 19 1 19 0 20 C-0.14481287 21.54815405 -0.22702845 23.10228354 -0.28125 24.65625 C-0.31863281 25.59597656 -0.35601562 26.53570312 -0.39453125 27.50390625 C-0.42933594 28.49261719 -0.46414063 29.48132813 -0.5 30.5 C-0.56857628 32.4480743 -0.64126787 34.39600959 -0.71875 36.34375 C-0.74904297 37.21193359 -0.77933594 38.08011719 -0.81054688 38.97460938 C-1 41 -1 41 -2 42 C-3.01923788 48.68167055 -2.99464314 55.11380542 -2.7421875 61.86328125 C-3.02909874 65.35403465 -3.83715729 66.37064088 -6 69 C-5.45294018 55.77518865 -4.53384258 42.62465187 -3.27050781 29.44921875 C-2.99555407 26.57858252 -2.72779615 23.70733657 -2.4609375 20.8359375 C-2.28686912 18.98694045 -2.11240522 17.13798058 -1.9375 15.2890625 C-1.85830322 14.44219879 -1.77910645 13.59533508 -1.69750977 12.72280884 C-1.28490023 8.44577326 -0.77191696 4.23102715 0 0 Z " fill="#FCDAD2" transform="translate(442,119)"/>
<path d="M0 0 C7.26 0 14.52 0 22 0 C22 15.18 22 30.36 22 46 C21.67 46 21.34 46 21 46 C20.67 32.8 20.34 19.6 20 6 C13.4 6 6.8 6 0 6 C0 5.34 0 4.68 0 4 C5.94 3.67 11.88 3.34 18 3 C18 2.67 18 2.34 18 2 C12.06 1.67 6.12 1.34 0 1 C0 0.67 0 0.34 0 0 Z " fill="#C4C4C4" transform="translate(183,41)"/>
<path d="M0 0 C0.33 0 0.66 0 1 0 C1.0289337 3.79165074 1.04677601 7.58327327 1.0625 11.375 C1.07087891 12.45523437 1.07925781 13.53546875 1.08789062 14.6484375 C1.09111328 15.6796875 1.09433594 16.7109375 1.09765625 17.7734375 C1.10289307 18.72653809 1.10812988 19.67963867 1.11352539 20.66162109 C1 23 1 23 0 25 C-0.50031206 28.41571853 -0.50031206 28.41571853 0 32 C2.35832772 34.47208796 2.35832772 34.47208796 5 36 C-0.75 41 -0.75 41 -3 41 C-2.47604406 27.26683911 -1.51127162 13.66013472 0 0 Z " fill="#F0DFDA" transform="translate(416,416)"/>
<path d="M0 0 C1.65 0 3.3 0 5 0 C3.03400294 3.93199412 -2.7478805 4.7914305 -6.6875 6.25 C-8.28984497 6.84735962 -8.28984497 6.84735962 -9.92456055 7.45678711 C-36.06499997 17 -36.06499997 17 -45 17 C-45 16.01 -45 15.02 -45 14 C-44.11957031 13.87882812 -43.23914063 13.75765625 -42.33203125 13.6328125 C-41.17058594 13.46523438 -40.00914062 13.29765625 -38.8125 13.125 C-37.66394531 12.96257812 -36.51539063 12.80015625 -35.33203125 12.6328125 C-32.2948926 12.05600539 -29.83416573 11.1895913 -27 10 C-25.61049368 9.69838174 -24.21408458 9.42679493 -22.8125 9.1875 C-19.15021719 8.43314274 -16.23145473 7.20103269 -12.9375 5.4375 C-8.50149619 3.07718498 -4.99845586 2.27769199 0 2 C0 1.34 0 0.68 0 0 Z " fill="#BF573F" transform="translate(356,489)"/>
<path d="M0 0 C0.33 0 0.66 0 1 0 C1.04971951 4.57151738 1.08586976 9.14287468 1.10986328 13.71459961 C1.11987381 15.26736191 1.13348634 16.82010558 1.15087891 18.37280273 C1.17534652 20.61446755 1.18653268 22.85588149 1.1953125 25.09765625 C1.20563507 25.78336197 1.21595764 26.46906769 1.22659302 27.17555237 C1.22764535 31.77436186 0.40095143 35.63518602 -1 40 C-1.25055521 41.47260276 -1.46862543 42.95194159 -1.625 44.4375 C-1.810625 46.2009375 -1.810625 46.2009375 -2 48 C-2.33 48 -2.66 48 -3 48 C-3.20180023 36.89351309 -2.63655734 26.04520155 -1.5 15 C-1.35475667 13.53132025 -1.21022279 12.06257016 -1.06640625 10.59375 C-0.71905729 7.06165668 -0.36230986 3.53059399 0 0 Z " fill="#E07941" transform="translate(358,360)"/>
<path d="M0 0 C0.33 0 0.66 0 1 0 C1.9327418 4.099361 2.28825262 8.12043288 2.5625 12.3125 C2.64628906 13.56675781 2.73007813 14.82101563 2.81640625 16.11328125 C2.87699219 17.06589844 2.93757813 18.01851562 3 19 C3.66 19 4.32 19 5 19 C4.67 27.91 4.34 36.82 4 46 C3.67 46 3.34 46 3 46 C1.28583263 30.68899051 -0.29423625 15.43105655 0 0 Z " fill="#D4582C" transform="translate(73,133)"/>
<path d="M0 0 C0 1.32 0 2.64 0 4 C-0.99 4.66 -1.98 5.32 -3 6 C-2.67 6.66 -2.34 7.32 -2 8 C-3.65 8.99 -5.3 9.98 -7 11 C-7.33 10.01 -7.66 9.02 -8 8 C-8.99 7.67 -9.98 7.34 -11 7 C-11.33 7.66 -11.66 8.32 -12 9 C-12 8.34 -12 7.68 -12 7 C-14.64 7 -17.28 7 -20 7 C-16.63595782 4.75730522 -13.24283077 3.61344256 -9.4375 2.375 C-8.75236328 2.14554688 -8.06722656 1.91609375 -7.36132812 1.6796875 C-2.26727586 0 -2.26727586 0 0 0 Z " fill="#E8E8E8" transform="translate(185,10)"/>
<path d="M0 0 C0.99 0.495 0.99 0.495 2 1 C2.6328125 3.50390625 2.6328125 3.50390625 3.125 6.5625 C3.29257813 7.57441406 3.46015625 8.58632812 3.6328125 9.62890625 C3.75398438 10.41136719 3.87515625 11.19382813 4 12 C4.33 12 4.66 12 5 12 C5.1598655 21.37877608 4.66433182 30.65190221 4 40 C3.67 40 3.34 40 3 40 C2.56785354 35.58965421 2.14080122 31.17885222 1.71826172 26.76757812 C1.57411982 25.27005019 1.42863801 23.77265055 1.28173828 22.27539062 C1.06962889 20.11100907 0.86250077 17.94619679 0.65625 15.78125 C0.53056641 14.48251953 0.40488281 13.18378906 0.27539062 11.84570312 C-0.00930908 7.87000298 -0.04650122 3.98360433 0 0 Z " fill="#D3582B" transform="translate(81,232)"/>
<path d="M0 0 C5.9395533 0.4140554 11.72486625 1.28225399 17.5625 2.4375 C25.99276057 4.09954703 34.45883564 5.10148642 43 6 C43 6.33 43 6.66 43 7 C28.63849357 7.62441332 13.329706 7.00242339 0 1 C0 0.67 0 0.34 0 0 Z " fill="#210302" transform="translate(193,505)"/>
<path d="M0 0 C0.33 0 0.66 0 1 0 C1.43313696 5.06747204 1.86012483 10.13541359 2.28173828 15.20385742 C2.42560984 16.92339615 2.57108015 18.64280197 2.71826172 20.36206055 C3.50667029 29.58429545 4.28219685 38.7332303 4 48 C1.77985286 43.99995995 1.60132699 40.30775279 1.4375 35.8125 C1.6677653 31.02319196 1.6677653 31.02319196 0 27 C-0.08758003 25.00035018 -0.10696576 22.9976389 -0.09765625 20.99609375 C-0.09443359 19.78115234 -0.09121094 18.56621094 -0.08789062 17.31445312 C-0.07951172 16.03505859 -0.07113281 14.75566406 -0.0625 13.4375 C-0.05798828 12.15423828 -0.05347656 10.87097656 -0.04882812 9.54882812 C-0.03699545 6.36583978 -0.02051068 3.18294238 0 0 Z " fill="#CF613B" transform="translate(155,368)"/>
<path d="M0 0 C0.33 0 0.66 0 1 0 C1.02469321 4.2358357 1.04285671 8.47163342 1.05493164 12.70751953 C1.05996474 14.1489332 1.06679173 15.59034176 1.07543945 17.03173828 C1.08754983 19.10190085 1.09323847 21.17199601 1.09765625 23.2421875 C1.10289307 24.4885498 1.10812988 25.73491211 1.11352539 27.01904297 C1 30 1 30 0 32 C-0.22858114 34.0374763 -0.41024278 36.08040303 -0.5625 38.125 C-0.64628906 39.22070312 -0.73007812 40.31640625 -0.81640625 41.4453125 C-0.87699219 42.28835938 -0.93757813 43.13140625 -1 44 C-1.66 44 -2.32 44 -3 44 C-2.38190674 29.29588663 -1.30379253 14.65865136 0 0 Z " fill="#F9D9CE" transform="translate(424,320)"/>
<path d="M0 0 C5.36714444 0.46670821 9.60407751 1.98887675 14.5546875 4.078125 C17.73674555 5.27775072 20.62321614 5.70636662 24 6 C24 6.66 24 7.32 24 8 C25.80597656 8.16435547 25.80597656 8.16435547 27.6484375 8.33203125 C29.22403147 8.49146635 30.79954861 8.65166212 32.375 8.8125 C33.1690625 8.88275391 33.963125 8.95300781 34.78125 9.02539062 C36.86779466 9.2464229 38.93739317 9.6150624 41 10 C41.66 10.99 42.32 11.98 43 13 C35.45224997 12.56701708 28.6891855 10.97061683 21.5 8.6875 C20.04787109 8.24374023 20.04787109 8.24374023 18.56640625 7.79101562 C12.24503735 5.82672448 6.10673983 3.55255705 0 1 C0 0.67 0 0.34 0 0 Z " fill="#BC563F" transform="translate(160,493)"/>
<path d="M0 0 C0.99 0.33 1.98 0.66 3 1 C2.98428955 1.95366455 2.9685791 2.9073291 2.95239258 3.88989258 C2.89808322 7.42886913 2.86364667 10.96780886 2.83520508 14.50708008 C2.82012064 16.03871861 2.79965022 17.57031398 2.77368164 19.10180664 C2.73728153 21.30365654 2.72027087 23.50493533 2.70703125 25.70703125 C2.69154739 26.39150833 2.67606354 27.07598541 2.66011047 27.78120422 C2.65911649 30.59058191 2.67440687 32.52429456 4.2878418 34.8815918 C6.97927856 36.63967989 9.90496322 37.24084003 13 38 C9 39 9 39 1 37 C0.67 24.79 0.34 12.58 0 0 Z " fill="#D16C4B" transform="translate(203,358)"/>
<path d="M0 0 C0.33 0 0.66 0 1 0 C1.43158872 4.98010526 1.85867415 9.96056956 2.28173828 14.94140625 C2.42603314 16.63291641 2.57152046 18.32432531 2.71826172 20.015625 C2.9299596 22.45807127 3.13725048 24.90085938 3.34375 27.34375 C3.40937134 28.08991577 3.47499268 28.83608154 3.54260254 29.6048584 C3.94426949 34.42082094 4.05730714 39.16709768 4 44 C3.67 44 3.34 44 3 44 C2.34 41.03 1.68 38.06 1 35 C0.67 35 0.34 35 0 35 C0 23.45 0 11.9 0 0 Z " fill="#F7D4C6" transform="translate(83,260)"/>
<path d="M0 0 C0.33 0 0.66 0 1 0 C1 1.65 1 3.3 1 5 C1.639375 5.268125 2.27875 5.53625 2.9375 5.8125 C5 7 5 7 6 10 C7.98 10 9.96 10 12 10 C12 10.99 12 11.98 12 13 C12.7425 13.04125 13.485 13.0825 14.25 13.125 C18.09551776 14.34857383 19.04305483 16.59346582 21 20 C16.94149751 18.54520591 13.58247767 16.57734161 10 14.1875 C8.989375 13.52105469 7.97875 12.85460937 6.9375 12.16796875 C3.96572591 9.97470463 1.43328912 7.77961678 -1 5 C-0.8125 2.1875 -0.8125 2.1875 0 0 Z " fill="#BF5435" transform="translate(100,453)"/>
<path d="M0 0 C0.33 0 0.66 0 1 0 C1 6.27 1 12.54 1 19 C3.64 19.33 6.28 19.66 9 20 C11.01728138 20.61238899 13.02604477 21.25976679 15 22 C11.97031651 22.91787677 9.57728581 23.04344865 6.4375 22.6875 C5.29087891 22.56955078 5.29087891 22.56955078 4.12109375 22.44921875 C2 22 2 22 -1 20 C-1.328125 17.4609375 -1.328125 17.4609375 -1.25 14.375 C-1.22421875 13.30507813 -1.1984375 12.23515625 -1.171875 11.1328125 C-0.96563887 7.37369039 -0.57233624 3.72018555 0 0 Z " fill="#FCF1E3" transform="translate(203,376)"/>
<path d="M0 0 C0.33 0 0.66 0 1 0 C1.23770605 9.33656548 0.49795768 18.48037965 -0.5 27.75 C-0.64509411 29.14056639 -0.7896286 30.53119128 -0.93359375 31.921875 C-1.2835926 35.28186397 -1.63916467 38.64116052 -2 42 C-2.33 42 -2.66 42 -3 42 C-3 30.78 -3 19.56 -3 8 C-2.67 8.66 -2.34 9.32 -2 10 C-1.34 10 -0.68 10 0 10 C0 6.7 0 3.4 0 0 Z " fill="#CE603D" transform="translate(423,324)"/>
<path d="M0 0 C1.9453125 0.99609375 1.9453125 0.99609375 4.125 2.4375 C5.21167969 3.14712891 5.21167969 3.14712891 6.3203125 3.87109375 C6.87460938 4.24363281 7.42890625 4.61617188 8 5 C7.67 6.32 7.34 7.64 7 9 C5.02 9.33 3.04 9.66 1 10 C-1.29379749 6.55930376 -2 5.27709699 -2 1 C-1.34 0.67 -0.68 0.34 0 0 Z " fill="#0F0506" transform="translate(115,470)"/>
<path d="M0 0 C1.32 0.33 2.64 0.66 4 1 C-5.29526547 8.1671389 -15.6848686 13.47307151 -26 19 C-26.33 18.34 -26.66 17.68 -27 17 C-25.21118264 15.99491199 -23.41885304 14.99607264 -21.625 14 C-20.62726563 13.443125 -19.62953125 12.88625 -18.6015625 12.3125 C-16 11 -16 11 -14 11 C-14 10.34 -14 9.68 -14 9 C-8.25 6 -8.25 6 -6 6 C-6 5.34 -6 4.68 -6 4 C-5.195625 3.71125 -4.39125 3.4225 -3.5625 3.125 C-0.8673532 2.26737432 -0.8673532 2.26737432 0 0 Z " fill="#BB583C" transform="translate(396,467)"/>
<path d="M0 0 C6.93 0 13.86 0 21 0 C21 0.33 21 0.66 21 1 C12.585 1.495 12.585 1.495 4 2 C4 2.33 4 2.66 4 3 C9.61 3.33 15.22 3.66 21 4 C21 4.33 21 4.66 21 5 C19.19402344 5.09087891 19.19402344 5.09087891 17.3515625 5.18359375 C15.77602923 5.26799732 14.20050904 5.35264541 12.625 5.4375 C11.8309375 5.47681641 11.036875 5.51613281 10.21875 5.55664062 C5.97398779 5.68893404 5.97398779 5.68893404 2 7 C1.34 6.67 0.68 6.34 0 6 C0 4.02 0 2.04 0 0 Z " fill="#E6E6E6" transform="translate(228,41)"/>
<path d="M0 0 C5.94015295 0.45417668 11.26493248 1.33161672 17 3 C19.29455652 3.28192503 21.58084214 3.49242218 23.88671875 3.65625 C26.23234586 4.03779378 27.93622961 4.84466127 30 6 C30 6.66 30 7.32 30 8 C23.2605493 7.36617071 17.00449379 5.77702547 10.5 3.9375 C9.48679688 3.65583984 8.47359375 3.37417969 7.4296875 3.08398438 C4.95167266 2.39434817 2.47522 1.69958811 0 1 C0 0.67 0 0.34 0 0 Z " fill="#D66444" transform="translate(218,398)"/>
<path d="M0 0 C7.59373482 -0.5197233 14.36261706 -0.08349279 21 4 C21.33 4.99 21.66 5.98 22 7 C19.45757096 6.37798054 16.91608125 5.75248241 14.375 5.125 C13.30572266 4.86396484 13.30572266 4.86396484 12.21484375 4.59765625 C8.07203784 3.57145662 4.03273322 2.41209271 0 1 C0 0.67 0 0.34 0 0 Z " fill="#FBE9DA" transform="translate(202,441)"/>
<path d="M0 0 C3.08129692 1.12585849 5.3651115 2.91445862 7.984375 4.87890625 C8.96921875 5.61238281 9.9540625 6.34585937 10.96875 7.1015625 C11.71640625 7.66746094 12.4640625 8.23335938 13.234375 8.81640625 C11.254375 9.80640625 11.254375 9.80640625 9.234375 10.81640625 C6.234375 8.81640625 6.234375 8.81640625 4.484375 6.19140625 C2.34642173 3.40639455 2.34642173 3.40639455 -1.515625 3.50390625 C-2.588125 3.60703125 -3.660625 3.71015625 -4.765625 3.81640625 C-4.435625 2.82640625 -4.105625 1.83640625 -3.765625 0.81640625 C-1.765625 -0.18359375 -1.765625 -0.18359375 0 0 Z " fill="#1B0605" transform="translate(100.765625,460.18359375)"/>
<path d="M0 0 C0.33 0 0.66 0 1 0 C1.53294568 3.91511815 2.04924855 7.83225534 2.5625 11.75 C2.71396484 12.86117188 2.86542969 13.97234375 3.02148438 15.1171875 C3.16005859 16.18710937 3.29863281 17.25703125 3.44140625 18.359375 C3.57232666 19.34389648 3.70324707 20.32841797 3.83813477 21.34277344 C3.99134946 23.85799021 3.77228356 25.62146534 3 28 C0.08209117 24.7556354 -0.36193787 22.68143994 -0.29296875 18.359375 C-0.28330078 17.28945313 -0.27363281 16.21953125 -0.26367188 15.1171875 C-0.23853516 14.00601562 -0.21339844 12.89484375 -0.1875 11.75 C-0.17396484 10.62335938 -0.16042969 9.49671875 -0.14648438 8.3359375 C-0.11115645 5.55680736 -0.0618252 2.77864637 0 0 Z " fill="#121212" transform="translate(0,274)"/>
<path d="M0 0 C1.46373047 0.01353516 1.46373047 0.01353516 2.95703125 0.02734375 C4.06111328 0.04474609 4.06111328 0.04474609 5.1875 0.0625 C5.1875 0.3925 5.1875 0.7225 5.1875 1.0625 C2.50025296 1.54312124 -0.18728033 2.02203496 -2.875 2.5 C-3.62716797 2.63470703 -4.37933594 2.76941406 -5.15429688 2.90820312 C-18.13109677 5.21144467 -18.13109677 5.21144467 -23.75 5.125 C-24.52214844 5.11597656 -25.29429687 5.10695313 -26.08984375 5.09765625 C-26.65832031 5.08605469 -27.22679687 5.07445312 -27.8125 5.0625 C-27.8125 4.7325 -27.8125 4.4025 -27.8125 4.0625 C-26.64332031 3.85753906 -25.47414063 3.65257812 -24.26953125 3.44140625 C-22.72134878 3.16930145 -21.173172 2.89716433 -19.625 2.625 C-18.85607422 2.49029297 -18.08714844 2.35558594 -17.29492188 2.21679688 C-16.54404297 2.08466797 -15.79316406 1.95253906 -15.01953125 1.81640625 C-14.28581299 1.68758057 -13.55209473 1.55875488 -12.79614258 1.42602539 C-11.23277092 1.1395195 -9.67698259 0.81162987 -8.125 0.46875 C-5.38026161 -0.01343377 -2.78475623 -0.03355128 0 0 Z " fill="#BF5939" transform="translate(303.8125,505.9375)"/>
<path d="M0 0 C5.46737191 1.74807129 10.75824848 3.65794081 16 6 C9.98900126 8.00366625 4.82758708 6.90288558 -1 5 C-0.67 3.35 -0.34 1.7 0 0 Z " fill="#190708" transform="translate(149,489)"/>
<path d="M0 0 C4.95 0.99 4.95 0.99 10 2 C10 2.66 10 3.32 10 4 C10.71542969 4.28617187 11.43085938 4.57234375 12.16796875 4.8671875 C16.4453125 6.578125 20.72265625 8.2890625 25 10 C25 10.66 25 11.32 25 12 C16.11759114 9.4621689 8.17381793 5.22230349 0 1 C0 0.67 0 0.34 0 0 Z " fill="#B8543A" transform="translate(135,481)"/>
<path d="M0 0 C-0.68707031 0.26554687 -1.37414062 0.53109375 -2.08203125 0.8046875 C-3.43361328 1.33449219 -3.43361328 1.33449219 -4.8125 1.875 C-5.70582031 2.22304688 -6.59914063 2.57109375 -7.51953125 2.9296875 C-10.17711591 3.98832155 -10.17711591 3.98832155 -13 6 C-15.38677076 6.29452584 -17.78626094 6.4928217 -20.1875 6.625 C-21.45980469 6.69976562 -22.73210937 6.77453125 -24.04296875 6.8515625 C-25.50669922 6.92503906 -25.50669922 6.92503906 -27 7 C-24.66072821 4.66072821 -23.29717415 4.37623163 -20.125 3.5625 C-18.66126953 3.18544922 -18.66126953 3.18544922 -17.16796875 2.80078125 C-16.12253906 2.53652344 -15.07710938 2.27226562 -14 2 C-12.90300781 1.70480469 -11.80601562 1.40960938 -10.67578125 1.10546875 C-9.60714844 0.82316406 -8.53851563 0.54085938 -7.4375 0.25 C-5.95056641 -0.14445312 -5.95056641 -0.14445312 -4.43359375 -0.546875 C-2 -1 -2 -1 0 0 Z " fill="#DA773E" transform="translate(343,434)"/>
<path d="M0 0 C6.6 0 13.2 0 20 0 C19.34 1.65 18.68 3.3 18 5 C11.80759538 4.31195504 5.98044406 2.71951285 0 1 C0 0.67 0 0.34 0 0 Z " fill="#FBE7DA" transform="translate(176,434)"/>
<path d="M0 0 C0.33 0.66 0.66 1.32 1 2 C-5.625 6 -5.625 6 -9 6 C-9 7.32 -9 8.64 -9 10 C-13.01804691 10.84098656 -16.01803543 11.05404945 -20 10 C-17.64467373 8.42978249 -15.53011783 7.2396038 -12.98828125 6.0546875 C-12.23095703 5.70019531 -11.47363281 5.34570312 -10.69335938 4.98046875 C-9.90767578 4.61566406 -9.12199219 4.25085938 -8.3125 3.875 C-7.51521484 3.50246094 -6.71792969 3.12992187 -5.89648438 2.74609375 C-3.93200481 1.8285524 -1.9661356 0.91398736 0 0 Z " fill="#1F0503" transform="translate(374,483)"/>
<path d="M0 0 C0.99 0.33 1.98 0.66 3 1 C2.67 1.66 2.34 2.32 2 3 C2.62648437 3.19335938 3.25296875 3.38671875 3.8984375 3.5859375 C5.12433594 3.97652344 5.12433594 3.97652344 6.375 4.375 C7.59316406 4.75785156 7.59316406 4.75785156 8.8359375 5.1484375 C11 6 11 6 13 8 C8.11899811 7.26861959 3.39975848 6.15925104 -1.375 4.9375 C-2.11105469 4.75123047 -2.84710938 4.56496094 -3.60546875 4.37304688 C-5.40419444 3.91752543 -7.20217529 3.4590645 -9 3 C-9 2.67 -9 2.34 -9 2 C-6.94921875 1.77213542 -4.8984375 1.54427083 -2.84765625 1.31640625 C-0.98859771 1.18113386 -0.98859771 1.18113386 0 0 Z " fill="#F9E4D0" transform="translate(241,448)"/>
<path d="M0 0 C1.77503906 0.03480469 1.77503906 0.03480469 3.5859375 0.0703125 C5.36871094 0.09738281 5.36871094 0.09738281 7.1875 0.125 C8.10273438 0.14820313 9.01796875 0.17140625 9.9609375 0.1953125 C9.9609375 0.8553125 9.9609375 1.5153125 9.9609375 2.1953125 C6.96685927 3.91793285 4.78344157 4.46837273 1.3359375 4.4453125 C0.55992187 4.45046875 -0.21609375 4.455625 -1.015625 4.4609375 C-3.0390625 4.1953125 -3.0390625 4.1953125 -5.0390625 2.1953125 C-3.0390625 0.1953125 -3.0390625 0.1953125 0 0 Z " fill="#F04619" transform="translate(349.0390625,481.8046875)"/>
<path d="M0 0 C0.33 0 0.66 0 1 0 C1.0582462 3.72910066 1.09367917 7.45808364 1.125 11.1875 C1.15013672 12.77014648 1.15013672 12.77014648 1.17578125 14.38476562 C1.18222656 15.40634766 1.18867188 16.42792969 1.1953125 17.48046875 C1.20578613 18.41785889 1.21625977 19.35524902 1.22705078 20.32104492 C0.98166713 23.21630812 0.20521619 25.37062697 -1 28 C-1.33 28 -1.66 28 -2 28 C-1.85929844 24.83308393 -1.71148731 21.66653622 -1.5625 18.5 C-1.52318359 17.613125 -1.48386719 16.72625 -1.44335938 15.8125 C-1.18915913 10.49384873 -0.73323663 5.2743744 0 0 Z " fill="#F7D2C6" transform="translate(416,416)"/>
<path d="M0 0 C0.33 0 0.66 0 1 0 C1.79681084 8.02502344 2.12867289 15.93649887 2 24 C1.34 24 0.68 24 0 24 C-0.33 25.32 -0.66 26.64 -1 28 C-1.1598655 18.62122392 -0.66433182 9.34809779 0 0 Z " fill="#F9DAD0" transform="translate(77,192)"/>
<path d="M0 0 C0.33 0 0.66 0 1 0 C0.8594438 3.33357738 0.71158198 6.66679389 0.5625 10 C0.52318359 10.93457031 0.48386719 11.86914062 0.44335938 12.83203125 C0.19609347 18.27188123 -0.24319168 23.60694577 -1 29 C-1.33 29 -1.66 29 -2 29 C-2.05837668 25.29173349 -2.09372277 21.5835863 -2.125 17.875 C-2.15013672 16.30492187 -2.15013672 16.30492187 -2.17578125 14.703125 C-2.20929909 9.40730664 -2.17213685 4.9428941 0 0 Z " fill="#CF5C37" transform="translate(439,139)"/>
<path d="M0 0 C0.33 0 0.66 0 1 0 C1.33 1.98 1.66 3.96 2 6 C0.04594482 7.50587739 -1.91281284 9.00478644 -3.875 10.5 C-4.43058594 10.92925781 -4.98617188 11.35851562 -5.55859375 11.80078125 C-9.7734375 15 -9.7734375 15 -12 15 C-12 13.68 -12 12.36 -12 11 C-10.35 11 -8.7 11 -7 11 C-6.71125 10.38125 -6.4225 9.7625 -6.125 9.125 C-5 7 -5 7 -3 5 C-2.01 5 -1.02 5 0 5 C0 3.35 0 1.7 0 0 Z " fill="#C05A40" transform="translate(412,452)"/>
<path d="M0 0 C0.33 0 0.66 0 1 0 C1.11157151 9.07448253 0.94242818 17.96278689 0 27 C-0.33 27 -0.66 27 -1 27 C-1.33 19.08 -1.66 11.16 -2 3 C-1.34 3 -0.68 3 0 3 C0 2.01 0 1.02 0 0 Z " fill="#D1582B" transform="translate(414,421)"/>
<path d="M0 0 C-3.46276803 2.30851202 -6.83596628 3.18886007 -10.8125 4.1875 C-11.86147461 4.47270508 -11.86147461 4.47270508 -12.93164062 4.76367188 C-17.29153071 5.86893868 -20.53557201 6.10033782 -25 5 C-25 4.67 -25 4.34 -25 4 C-21.92382812 3.70703125 -21.92382812 3.70703125 -18.84765625 3.4140625 C-18.23792969 3.27742188 -17.62820313 3.14078125 -17 3 C-16.67 2.34 -16.34 1.68 -16 1 C-13.671875 0.5859375 -13.671875 0.5859375 -10.75 0.375 C-9.79609375 0.30023438 -8.8421875 0.22546875 -7.859375 0.1484375 C-5.23259147 0.01207442 -2.62962569 -0.02879152 0 0 Z " fill="#DB703E" transform="translate(277,403)"/>
<path d="M0 0 C0.33 0 0.66 0 1 0 C1.13277344 0.84304688 1.26554687 1.68609375 1.40234375 2.5546875 C1.57894531 3.65039062 1.75554687 4.74609375 1.9375 5.875 C2.19853516 7.51082031 2.19853516 7.51082031 2.46484375 9.1796875 C2.85551159 11.93821546 2.85551159 11.93821546 4 14 C4.0716735 16.55157655 4.09308442 19.07472971 4.0625 21.625 C4.05798828 22.33140625 4.05347656 23.0378125 4.04882812 23.765625 C4.03703875 25.51045275 4.01910324 27.255237 4 29 C3.67 29 3.34 29 3 29 C2.49209841 25.48026001 1.99511477 21.95905958 1.5 18.4375 C1.35691406 17.44685547 1.21382813 16.45621094 1.06640625 15.43554688 C0.34079377 10.23532412 -0.17673411 5.25047582 0 0 Z " fill="#D36A42" transform="translate(93,376)"/>
<path d="M0 0 C0.33 0 0.66 0 1 0 C1 11.22 1 22.44 1 34 C0.67 34 0.34 34 0 34 C-0.33 24.76 -0.66 15.52 -1 6 C-1.99 6 -2.98 6 -4 6 C-2.69593116 3.98079663 -1.36176581 1.98075027 0 0 Z " fill="#D8D8D8" transform="translate(314,53)"/>
<path d="M0 0 C0.33 0 0.66 0 1 0 C1.33970765 2.49927769 1.67188032 4.99919595 2 7.5 C2.09539062 8.19609375 2.19078125 8.8921875 2.2890625 9.609375 C2.9161622 14.44700129 3.08789528 19.12181196 3 24 C2.34 24 1.68 24 1 24 C-0.29235715 19.08497242 -0.11135517 14.22709898 -0.0625 9.1875 C-0.05798828 8.30384766 -0.05347656 7.42019531 -0.04882812 6.50976562 C-0.03709866 4.33981441 -0.01916495 2.16989828 0 0 Z " fill="#FBDED5" transform="translate(95,408)"/>
<path d="M0 0 C0.33 0 0.66 0 1 0 C1 5.61 1 11.22 1 17 C0.67 16.34 0.34 15.68 0 15 C-0.66 15 -1.32 15 -2 15 C-2.05406122 13.06280622 -2.09282025 11.12518079 -2.125 9.1875 C-2.14820313 8.10855469 -2.17140625 7.02960938 -2.1953125 5.91796875 C-2 3 -2 3 0 0 Z " fill="#ECF5F2" transform="translate(439,183)"/>
<path d="M0 0 C0.33 0.66 0.66 1.32 1 2 C-2.19750865 7.00479615 -6.37229504 9.40392898 -12 11 C-12.99 10.67 -13.98 10.34 -15 10 C-10.05 6.7 -5.1 3.4 0 0 Z " fill="#250603" transform="translate(408,462)"/>
<path d="M0 0 C-3.65763696 2.43842464 -7.18636085 3.40803052 -11.375 4.625 C-12.13039063 4.85445313 -12.88578125 5.08390625 -13.6640625 5.3203125 C-17.53815042 6.4581565 -20.91648182 7.30911094 -25 7 C-20.52698911 4.01799274 -17.40550035 2.480221 -12.125 1.375 C-10.91070312 1.11460937 -9.69640625 0.85421875 -8.4453125 0.5859375 C-5.52909158 0.08998156 -2.94382903 -0.12312593 0 0 Z " fill="#D97C49" transform="translate(302,396)"/>
<path d="M0 0 C0.33 0 0.66 0 1 0 C0.67 6.6 0.34 13.2 0 20 C-0.66 20.33 -1.32 20.66 -2 21 C-2.98329211 16.94392005 -3.23600253 13.16937798 -3 9 C-2.34 8.34 -1.68 7.68 -1 7 C-0.59952556 4.67724823 -0.2602896 2.34260643 0 0 Z " fill="#D45227" transform="translate(419,368)"/>
<path d="M0 0 C0.33 0 0.66 0 1 0 C1.08714316 3.91652632 1.14043985 7.83280311 1.1875 11.75 C1.21263672 12.86117187 1.23777344 13.97234375 1.26367188 15.1171875 C1.27333984 16.18710938 1.28300781 17.25703125 1.29296875 18.359375 C1.3086792 19.34389648 1.32438965 20.32841797 1.34057617 21.34277344 C0.94965182 24.39282409 0.03157056 25.74113723 -2 28 C-1.85929844 24.83308393 -1.71148731 21.66653622 -1.5625 18.5 C-1.52318359 17.613125 -1.48386719 16.72625 -1.44335938 15.8125 C-1.18915913 10.49384873 -0.73323663 5.2743744 0 0 Z " fill="#F3CBBA" transform="translate(438,160)"/>
<path d="M0 0 C1.32 0.33 2.64 0.66 4 1 C4 1.66 4 2.32 4 3 C5.65 3 7.3 3 9 3 C9 2.34 9 1.68 9 1 C10.65 0.67 12.3 0.34 14 0 C13.360625 0.268125 12.72125 0.53625 12.0625 0.8125 C9.66868314 1.88667752 9.66868314 1.88667752 9 5 C7.125 6.25 7.125 6.25 5 7 C4.01 6.67 3.02 6.34 2 6 C2.33 5.34 2.66 4.68 3 4 C2.01 3.67 1.02 3.34 0 3 C0 2.01 0 1.02 0 0 Z " fill="#D2502A" transform="translate(359,482)"/>
<path d="M0 0 C-0.5 1.8125 -0.5 1.8125 -2 4 C-4.5863924 5.26152609 -7.25200829 6.15643045 -10 7 C-10.66 6.34 -11.32 5.68 -12 5 C-12 4.34 -12 3.68 -12 3 C-10.37604003 2.49663233 -8.75079459 1.99741024 -7.125 1.5 C-6.22007812 1.2215625 -5.31515625 0.943125 -4.3828125 0.65625 C-2 0 -2 0 0 0 Z " fill="#E46D2F" transform="translate(268,454)"/>
<path d="M0 0 C0 1.65 0 3.3 0 5 C-6.93 4.34 -13.86 3.68 -21 3 C-21 2.67 -21 2.34 -21 2 C-19.89140625 1.93941406 -18.7828125 1.87882812 -17.640625 1.81640625 C-16.1770718 1.73197049 -14.71353075 1.64732401 -13.25 1.5625 C-12.15558594 1.50352539 -12.15558594 1.50352539 -11.0390625 1.44335938 C-7.36880124 1.2264803 -3.58853554 0 0 0 Z " fill="#D65024" transform="translate(224,504)"/>
<path d="M0 0 C-3.00440021 2.00293347 -4.70993945 2.49271626 -8.1875 3.125 C-9.08855469 3.29257812 -9.98960937 3.46015625 -10.91796875 3.6328125 C-11.60503906 3.75398438 -12.29210937 3.87515625 -13 4 C-13 4.33 -13 4.66 -13 5 C-16.3 5 -19.6 5 -23 5 C-23 4.67 -23 4.34 -23 4 C-19.92090233 3.13003414 -16.83621369 2.28184148 -13.75 1.4375 C-12.87730469 1.19064453 -12.00460937 0.94378906 -11.10546875 0.68945312 C-9.83896484 0.34624023 -9.83896484 0.34624023 -8.546875 -0.00390625 C-7.77182617 -0.21861572 -6.99677734 -0.4333252 -6.19824219 -0.65454102 C-3.80975982 -1.0298967 -2.279036 -0.74681558 0 0 Z " fill="#FDE5D1" transform="translate(292,401)"/>
<path d="M0 0 C0 0.33 0 0.66 0 1 C-1.63957026 1.47820799 -3.28025063 1.95287898 -4.92578125 2.41015625 C-6.32669725 2.80853349 -7.72019537 3.23382967 -9.10546875 3.68359375 C-11.1875 4.3125 -11.1875 4.3125 -15 5 C-17.5 3.625 -17.5 3.625 -19 2 C-12.65176798 -0.30844801 -6.70518586 -0.19818283 0 0 Z " fill="#DC4F1C" transform="translate(335,498)"/>
<path d="M0 0 C4.29 0.33 8.58 0.66 13 1 C13 1.99 13 2.98 13 4 C8.07872966 4.16682272 4.49656104 4.24828052 0 2 C0 1.34 0 0.68 0 0 Z " fill="#F14519" transform="translate(153,482)"/>
<path d="M0 0 C3.3 0.99 6.6 1.98 10 3 C9.01 3.33 8.02 3.66 7 4 C7 4.66 7 5.32 7 6 C4.69 5.67 2.38 5.34 0 5 C-0.5625 3.0625 -0.5625 3.0625 -1 1 C-0.67 0.67 -0.34 0.34 0 0 Z " fill="#040509" transform="translate(169,499)"/>
<path d="M0 0 C0.33 0 0.66 0 1 0 C3.82635836 7.98030597 2.7431678 15.72472614 2 24 C1.67 24 1.34 24 1 24 C0.28586721 15.97875848 -0.14525497 8.05358138 0 0 Z " fill="#FCDEC5" transform="translate(145,240)"/>
<path d="M0 0 C0 0.66 0 1.32 0 2 C1.32 2.33 2.64 2.66 4 3 C2.35 3 0.7 3 -1 3 C-1.33 3.66 -1.66 4.32 -2 5 C-4.31 4.34 -6.62 3.68 -9 3 C-9 2.34 -9 1.68 -9 1 C-5.8035914 -0.06546953 -3.34252724 -0.07427838 0 0 Z " fill="#DA4F1F" transform="translate(193,498)"/>
<path d="M0 0 C4.21878192 -0.19622241 7.17010894 0.19769832 11 2 C10.67 2.66 10.34 3.32 10 4 C8.741875 4.04125 7.48375 4.0825 6.1875 4.125 C5.47980469 4.14820313 4.77210938 4.17140625 4.04296875 4.1953125 C2 4 2 4 -1 2 C-0.67 1.34 -0.34 0.68 0 0 Z " fill="#CE4D23" transform="translate(265,508)"/>
<path d="M0 0 C-3.31016094 1.84790538 -6.57173491 2.74541487 -10.25 3.625 C-11.86648438 4.01558594 -11.86648438 4.01558594 -13.515625 4.4140625 C-14.33546875 4.60742188 -15.1553125 4.80078125 -16 5 C-15.67 3.68 -15.34 2.36 -15 1 C-9.92928099 0.28832014 -5.11791642 -0.10662326 0 0 Z " fill="#FDEEDC" transform="translate(304,443)"/>
<path d="M0 0 C0 0.66 0 1.32 0 2 C-6.25948114 4.13391403 -12.42208127 4.58955515 -19 5 C-15.90131855 2.93421237 -13.65023694 2.25308642 -10.0625 1.375 C-9.02222656 1.11460937 -7.98195313 0.85421875 -6.91015625 0.5859375 C-4 0 -4 0 0 0 Z " fill="#E07541" transform="translate(288,449)"/>
<path d="M0 0 C1.61648438 0.04060547 1.61648438 0.04060547 3.265625 0.08203125 C4.08546875 0.11683594 4.9053125 0.15164063 5.75 0.1875 C3.12109503 1.57823768 0.62877953 2.62719204 -2.25 3.375 C-2.91 3.55417969 -3.57 3.73335938 -4.25 3.91796875 C-6.51540976 4.22326811 -8.085092 3.86886613 -10.25 3.1875 C-6.86416198 0.05642164 -4.53890538 -0.14800778 0 0 Z " fill="#FBE7D2" transform="translate(282.25,447.8125)"/>
<path d="M0 0 C0.33 0 0.66 0 1 0 C1 3.96 1 7.92 1 12 C0.01 12 -0.98 12 -2 12 C-2.33 9.69 -2.66 7.38 -3 5 C-2.34 5 -1.68 5 -1 5 C-0.67 3.35 -0.34 1.7 0 0 Z " fill="#DC743A" transform="translate(306,384)"/>
<path d="M0 0 C0.99 1.32 1.98 2.64 3 4 C1.35 6.64 -0.3 9.28 -2 12 C-2.66 11.67 -3.32 11.34 -4 11 C-3.67 9.35 -3.34 7.7 -3 6 C-2.34 6 -1.68 6 -1 6 C-0.67 4.02 -0.34 2.04 0 0 Z " fill="#E3E3E3" transform="translate(477,377)"/>
<path d="M0 0 C0 1.65 0 3.3 0 5 C-0.99 5 -1.98 5 -3 5 C-3 6.32 -3 7.64 -3 9 C-3.66 9 -4.32 9 -5 9 C-5 6.36 -5 3.72 -5 1 C-1.125 0 -1.125 0 0 0 Z " fill="#FCE8EC" transform="translate(71,119)"/>
<path d="M0 0 C4.64891954 -0.32434322 7.22406608 0.223578 11 3 C11 3.33 11 3.66 11 4 C7.7 3.67 4.4 3.34 1 3 C0.67 2.01 0.34 1.02 0 0 Z " fill="#E8491D" transform="translate(208,392)"/>
<path d="M0 0 C2.50037734 2.17424117 3.43628586 3.73045798 4 7 C2.02 7.99 2.02 7.99 0 9 C-0.66 7.35 -1.32 5.7 -2 4 C-1.34 3.34 -0.68 2.68 0 2 C0 1.34 0 0.68 0 0 Z " fill="#EBEBEB" transform="translate(26,360)"/>
<path d="M0 0 C1.79323253 0.28187936 3.58457126 0.5758281 5.375 0.875 C6.37273437 1.03742188 7.37046875 1.19984375 8.3984375 1.3671875 C11 2 11 2 13 4 C11.39667209 4.08121924 9.79215974 4.13929134 8.1875 4.1875 C7.29417969 4.22230469 6.40085938 4.25710938 5.48046875 4.29296875 C3 4 3 4 1.17578125 2.55078125 C0 1 0 1 0 0 Z " fill="#FCE7D1" transform="translate(205,395)"/>
<path d="M0 0 C3.465 1.98 3.465 1.98 7 4 C3.86501708 5.85776765 1.62528568 6.20140476 -2 6 C-1.34 4.02 -0.68 2.04 0 0 Z " fill="#EAEAEA" transform="translate(396,42)"/>
<path d="M0 0 C4.95 0.99 4.95 0.99 10 2 C10 2.66 10 3.32 10 4 C10.66 4.33 11.32 4.66 12 5 C7.25081338 4.53439347 3.89217595 3.83067342 0 1 C0 0.67 0 0.34 0 0 Z " fill="#C4552E" transform="translate(135,481)"/>
<path d="M0 0 C-4.65285818 3.10190545 -9.41532676 4.33846504 -15 4 C-9.52123488 0.34748992 -6.56703301 -0.2189011 0 0 Z " fill="#FDE0C2" transform="translate(269,453)"/>
<path d="M0 0 C4.96916636 0.51405169 9.29026351 1.23384882 14 3 C14 3.33 14 3.66 14 4 C11.03 4 8.06 4 5 4 C5 3.34 5 2.68 5 2 C3.35 1.67 1.7 1.34 0 1 C0 0.67 0 0.34 0 0 Z " fill="#FBDEC9" transform="translate(240,405)"/>
<path d="M0 0 C0.33 0 0.66 0 1 0 C1 3.96 1 7.92 1 12 C0.34 12 -0.32 12 -1 12 C-1 13.65 -1 15.3 -1 17 C-1.33 17 -1.66 17 -2 17 C-2.33 14.03 -2.66 11.06 -3 8 C-2.67 8.66 -2.34 9.32 -2 10 C-1.34 10 -0.68 10 0 10 C0 6.7 0 3.4 0 0 Z " fill="#DA6135" transform="translate(423,324)"/>
<path d="M0 0 C0.66 0.33 1.32 0.66 2 1 C2.625 4.0625 2.625 4.0625 3 7 C2.38125 7.144375 1.7625 7.28875 1.125 7.4375 C-1.03258322 7.93152225 -1.03258322 7.93152225 -3 9 C-2.01 6.03 -1.02 3.06 0 0 Z " fill="#E1E1E1" transform="translate(26,142)"/>
<path d="M0 0 C2.66735273 2.48952921 4.55746343 4.63408134 6 8 C4.68 8 3.36 8 2 8 C-0.25 5.5 -0.25 5.5 -2 3 C-1.34 3 -0.68 3 0 3 C0 2.01 0 1.02 0 0 Z " fill="#E2E2E2" transform="translate(458,99)"/>
<path d="M0 0 C0.66 0.99 1.32 1.98 2 3 C1.4375 5.625 1.4375 5.625 0 8 C-1.65 8.33 -3.3 8.66 -5 9 C-3.35 6.03 -1.7 3.06 0 0 Z " fill="#E0E0E0" transform="translate(308,62)"/>
<path d="M0 0 C-0.7115625 0.680625 -0.7115625 0.680625 -1.4375 1.375 C-3.09027808 2.93258204 -3.09027808 2.93258204 -4 5 C-4.66 4.34 -5.32 3.68 -6 3 C-9.58343976 2.83322718 -9.58343976 2.83322718 -13 3 C-8.83099908 0.22066605 -4.8978425 -1.63261417 0 0 Z " fill="#1F0504" transform="translate(339,500)"/>
<path d="M0 0 C4.29 1.32 8.58 2.64 13 4 C13 4.33 13 4.66 13 5 C4.87371744 5.46882399 4.87371744 5.46882399 1.4375 3.625 C0 2 0 2 0 0 Z " fill="#240401" transform="translate(167,496)"/>
<path d="M0 0 C2.31 0 4.62 0 7 0 C7 0.99 7 1.98 7 3 C5.02 3.33 3.04 3.66 1 4 C0.67 2.68 0.34 1.36 0 0 Z " fill="#FB6114" transform="translate(272,458)"/>
<path d="M0 0 C4.62 0.99 9.24 1.98 14 3 C14 3.33 14 3.66 14 4 C12.41705218 4.05437607 10.83355744 4.09296271 9.25 4.125 C8.36828125 4.14820313 7.4865625 4.17140625 6.578125 4.1953125 C3.8864142 3.99139502 2.30095026 3.36551721 0 2 C0 1.34 0 0.68 0 0 Z " fill="#CD643A" transform="translate(192,439)"/>
<path d="M0 0 C1.45742463 -0.08096803 2.91612807 -0.13917774 4.375 -0.1875 C5.18710938 -0.22230469 5.99921875 -0.25710938 6.8359375 -0.29296875 C7.55007812 -0.19628906 8.26421875 -0.09960938 9 0 C9.66 0.99 10.32 1.98 11 3 C9.35333797 2.8864371 7.70763918 2.75882619 6.0625 2.625 C5.14597656 2.55539062 4.22945312 2.48578125 3.28515625 2.4140625 C2.15400391 2.20910156 2.15400391 2.20910156 1 2 C0.67 1.34 0.34 0.68 0 0 Z " fill="#C55434" transform="translate(192,503)"/>
<path d="M0 0 C0.66 0.33 1.32 0.66 2 1 C-0.75264252 4.05849168 -3.00751252 5.87391379 -7 7 C-7.99 6.67 -8.98 6.34 -10 6 C-8.3811004 4.96951963 -6.75467511 3.95085322 -5.125 2.9375 C-4.22007812 2.36902344 -3.31515625 1.80054688 -2.3828125 1.21484375 C-1.20332031 0.61349609 -1.20332031 0.61349609 0 0 Z " fill="#290903" transform="translate(391,473)"/>
<path d="M0 0 C0.66 0.66 1.32 1.32 2 2 C0.9375 3.5 0.9375 3.5 -1 5 C-4.6875 5.1875 -4.6875 5.1875 -8 5 C-8 4.34 -8 3.68 -8 3 C-6.865625 2.690625 -5.73125 2.38125 -4.5625 2.0625 C-1.21224901 1.37075469 -1.21224901 1.37075469 0 0 Z " fill="#F04711" transform="translate(232,457)"/>
<path d="M0 0 C2.64 0 5.28 0 8 0 C7.67 0.99 7.34 1.98 7 3 C4.69 3 2.38 3 0 3 C0 2.01 0 1.02 0 0 Z " fill="#EA6727" transform="translate(336,439)"/>
<path d="M0 0 C0.66 0 1.32 0 2 0 C2 2.64 2 5.28 2 8 C1.01 8 0.02 8 -1 8 C-1.04241723 5.66705225 -1.04092937 3.33297433 -1 1 C-0.67 0.67 -0.34 0.34 0 0 Z " fill="#FCEAF0" transform="translate(89,352)"/>
<path d="M0 0 C0.33 0 0.66 0 1 0 C1.33 2.97 1.66 5.94 2 9 C4.31 9.33 6.62 9.66 9 10 C9 10.33 9 10.66 9 11 C5.7 11 2.4 11 -1 11 C-0.67 7.37 -0.34 3.74 0 0 Z " fill="#CD542C" transform="translate(151,328)"/>
<path d="M0 0 C0.58203125 1.859375 0.58203125 1.859375 1 4 C-0.3125 6.25 -0.3125 6.25 -2 8 C-2.66 8 -3.32 8 -4 8 C-4.33 8.66 -4.66 9.32 -5 10 C-5 6.60406522 -4.47834052 5.93380119 -2.5 3.3125 C-2.0359375 2.68988281 -1.571875 2.06726563 -1.09375 1.42578125 C-0.7328125 0.95527344 -0.371875 0.48476562 0 0 Z " fill="#DDDDDD" transform="translate(54,98)"/>
<path d="M0 0 C0 0.66 0 1.32 0 2 C0.99 2.66 1.98 3.32 3 4 C0.75 4.6875 0.75 4.6875 -2 5 C-4.3125 3.5625 -4.3125 3.5625 -6 2 C-2.25 0 -2.25 0 0 0 Z " fill="#F8F9F3" transform="translate(256,451)"/>
<path d="M0 0 C4 4.75 4 4.75 4 7 C3.34 7 2.68 7 2 7 C2 7.66 2 8.32 2 9 C1.34 9 0.68 9 0 9 C-0.87890625 2.84765625 -0.87890625 2.84765625 -1 1 C-0.67 0.67 -0.34 0.34 0 0 Z " fill="#E2E2E2" transform="translate(476,126)"/>
<path d="M0 0 C0.33 0 0.66 0 1 0 C1.33 2.31 1.66 4.62 2 7 C3.98 7 5.96 7 8 7 C4.91190305 8.76462683 3.76687864 9 0 9 C0 6.03 0 3.06 0 0 Z " fill="#ED5C1C" transform="translate(256,495)"/>
<path d="M0 0 C0.33 0.66 0.66 1.32 1 2 C-3.01804691 2.84098656 -6.01803543 3.05404945 -10 2 C-6.3558226 -0.4294516 -4.28758728 -0.16179575 0 0 Z " fill="#16060B" transform="translate(364,491)"/>
<path d="M0 0 C-0.99 0.495 -0.99 0.495 -2 1 C-2 1.66 -2 2.32 -2 3 C-5.3 3 -8.6 3 -12 3 C-12 2.67 -12 2.34 -12 2 C-7.82262526 0.40861915 -4.46839215 -0.21278058 0 0 Z " fill="#F9FBF0" transform="translate(274,450)"/>
<path d="M0 0 C0 1.32 0 2.64 0 4 C-3.3 3.34 -6.6 2.68 -10 2 C-10 1.67 -10 1.34 -10 1 C-6.59437148 0.22157062 -3.49234244 -0.09978121 0 0 Z " fill="#F7F9F6" transform="translate(288,403)"/>
<path d="M0 0 C3 1 3 1 4 3 C6.3140622 3.73075648 8.64828869 4.40138258 11 5 C6.99799622 6.60080151 3.95443764 5.29279692 0 4 C0 2.68 0 1.36 0 0 Z " fill="#CA5A39" transform="translate(205,391)"/>
<path d="M0 0 C0.99 0 1.98 0 3 0 C3.91058531 3.07322544 4.08886184 5.80097361 4 9 C1.74754119 6.31158141 0.11786042 4.35358125 -1 1 C-0.67 0.67 -0.34 0.34 0 0 Z " fill="#DDDDDD" transform="translate(33,379)"/>
<path d="M0 0 C1.15941038 3.47823115 0.70820884 5.45895578 0 9 C-0.99 9.33 -1.98 9.66 -3 10 C-2.25 3.375 -2.25 3.375 0 0 Z " fill="#E4E4E4" transform="translate(45,110)"/>
<path d="M0 0 C0.33 0.99 0.66 1.98 1 3 C-1.31 4.98 -3.62 6.96 -6 9 C-6.66 8.67 -7.32 8.34 -8 8 C-5.36 5.36 -2.72 2.72 0 0 Z " fill="#DEDEDE" transform="translate(70,80)"/>
<path d="M0 0 C1.9375 0.6875 1.9375 0.6875 4 2 C4.75 4.625 4.75 4.625 5 7 C2.5 5.75 2.5 5.75 0 4 C0 2.68 0 1.36 0 0 Z " fill="#E2E3E3" transform="translate(92,449)"/>
<path d="M0 0 C1.98 0 3.96 0 6 0 C6 0.99 6 1.98 6 3 C4.02 3.33 2.04 3.66 0 4 C0 2.68 0 1.36 0 0 Z " fill="#DC5111" transform="translate(168,438)"/>
<path d="M0 0 C0 0.66 0 1.32 0 2 C-3.82320557 3.42258812 -6.91281305 4.24042276 -11 4 C-4.625 -0.25 -4.625 -0.25 0 0 Z " fill="#DE7A3F" transform="translate(288,399)"/>
<path d="M0 0 C0.33 1.32 0.66 2.64 1 4 C-2 5 -2 5 -4.1875 4.0625 C-4.785625 3.711875 -5.38375 3.36125 -6 3 C-6 2.34 -6 1.68 -6 1 C-3 0 -3 0 0 0 Z " fill="#E4E4E4" transform="translate(495,163)"/>
<path d="M0 0 C2.51083114 1.25541557 2.87125446 2.50063488 4 5 C1.69 5.33 -0.62 5.66 -3 6 C-3 3 -3 3 -1.5 1.3125 C-0.7575 0.6628125 -0.7575 0.6628125 0 0 Z " fill="#F6F6F6" transform="translate(185,11)"/>
<path d="M0 0 C2.97 0 5.94 0 9 0 C6.23776722 2.76223278 3.79293383 2.57856291 0 3 C0 2.01 0 1.02 0 0 Z " fill="#C75534" transform="translate(311,503)"/>
<path d="M0 0 C0.33 0 0.66 0 1 0 C1 1.65 1 3.3 1 5 C1.9590625 5.433125 1.9590625 5.433125 2.9375 5.875 C5 7 5 7 6 9 C3.68001641 8.60000283 2.13676576 8.09432121 0.1875 6.75 C-1 5 -1 5 -0.6875 2.3125 C-0.460625 1.549375 -0.23375 0.78625 0 0 Z " fill="#BF6246" transform="translate(100,453)"/>
<path d="M0 0 C1.32 0 2.64 0 4 0 C3.67 1.65 3.34 3.3 3 5 C2.01 5 1.02 5 0 5 C0 3.35 0 1.7 0 0 Z " fill="#F5EDFC" transform="translate(434,113)"/>
<path d="M0 0 C2.375 0.3125 2.375 0.3125 5 1 C5.66 1.99 6.32 2.98 7 4 C6.01 4.66 5.02 5.32 4 6 C2.68 4.02 1.36 2.04 0 0 Z " fill="#0F0F0F" transform="translate(456,96)"/>
<path d="M0 0 C0 0.99 0 1.98 0 3 C-1 4 -1 4 -2.84765625 4.09765625 C-4.8984375 4.06510417 -6.94921875 4.03255208 -9 4 C-6.01353231 2.00902154 -3.40312738 1.05875074 0 0 Z " fill="#C8C8C8" transform="translate(174,13)"/>
<path d="M0 0 C0 0.66 0 1.32 0 2 C-1.98 2.33 -3.96 2.66 -6 3 C-6 2.01 -6 1.02 -6 0 C-3 -1 -3 -1 0 0 Z " fill="#E44C10" transform="translate(158,485)"/>
<path d="M0 0 C3.96 1.98 3.96 1.98 8 4 C4.71023192 5.09658936 3.28696233 4.79953138 0 4 C0 2.68 0 1.36 0 0 Z " fill="#280803" transform="translate(123,475)"/>
<path d="M0 0 C0.33 0.99 0.66 1.98 1 3 C-2.75 6 -2.75 6 -5 6 C-5 4.68 -5 3.36 -5 2 C-3.35 2 -1.7 2 0 2 C0 1.34 0 0.68 0 0 Z " fill="#C15633" transform="translate(405,461)"/>
<path d="M0 0 C7.75 0.75 7.75 0.75 10 3 C3.47692308 3.36923077 3.47692308 3.36923077 1.0625 1.5 C0.5365625 0.7575 0.5365625 0.7575 0 0 Z " fill="#EFFBF2" transform="translate(235,405)"/>
<path d="M0 0 C2.97 0.495 2.97 0.495 6 1 C6 1.66 6 2.32 6 3 C4.02 3.33 2.04 3.66 0 4 C0 2.68 0 1.36 0 0 Z " fill="#F95F0F" transform="translate(288,393)"/>
<path d="M0 0 C0.5625 1.9375 0.5625 1.9375 1 4 C0 5 0 5 -2.5625 5.0625 C-3.7690625 5.0315625 -3.7690625 5.0315625 -5 5 C-3.35 3.35 -1.7 1.7 0 0 Z " fill="#EA601F" transform="translate(378,466)"/>
<path d="M0 0 C2.97 0 5.94 0 9 0 C8.01 1.485 8.01 1.485 7 3 C4.69 2.34 2.38 1.68 0 1 C0 0.67 0 0.34 0 0 Z " fill="#F0FCFA" transform="translate(243,450)"/>
<path d="M0 0 C1.32 0 2.64 0 4 0 C3.67 0.99 3.34 1.98 3 3 C1.02 3.33 -0.96 3.66 -3 4 C-2.34 3.67 -1.68 3.34 -1 3 C-0.67 2.01 -0.34 1.02 0 0 Z " fill="#F0FCFB" transform="translate(303,439)"/>
<path d="M0 0 C1.65 0 3.3 0 5 0 C4.01 0.33 3.02 0.66 2 1 C2 1.66 2 2.32 2 3 C-0.70879335 4.35439668 -3.00933268 4.06501451 -6 4 C-6 3.67 -6 3.34 -6 3 C-4.35 3 -2.7 3 -1 3 C-0.67 2.01 -0.34 1.02 0 0 Z " fill="#FEF5E8" transform="translate(346,428)"/>
<path d="M0 0 C0 0.33 0 0.66 0 1 C-6.625 2.25 -6.625 2.25 -10 0 C-6.22996568 -2.61002376 -4.07631429 -1.66758312 0 0 Z " fill="#F5F0E2" transform="translate(180,432)"/>
<path d="M0 0 C1.10844919 3.32534757 0.84454356 5.62182575 0 9 C-0.66 8.67 -1.32 8.34 -2 8 C-1.125 1.125 -1.125 1.125 0 0 Z " fill="#FEF3E4" transform="translate(159,380)"/>
<path d="M0 0 C2.475 0.495 2.475 0.495 5 1 C4.67 2.65 4.34 4.3 4 6 C0 1.125 0 1.125 0 0 Z " fill="#151515" transform="translate(285,56)"/>
</svg>
