<?xml version="1.0" encoding="UTF-8"?>
<svg version="1.1" xmlns="http://www.w3.org/2000/svg" width="512" height="512">
<path d="M0 0 C168.96 0 337.92 0 512 0 C512 168.96 512 337.92 512 512 C343.04 512 174.08 512 0 512 C0 343.04 0 174.08 0 0 Z " fill="#000000" transform="translate(0,0)"/>
<path d="M0 0 C1.49986824 0.69689824 2.99987753 1.39349293 4.5 2.08984375 C12.86096021 5.99574945 21.13859336 10.04962625 29.37890625 14.203125 C33.53565435 16.2809206 37.73521013 18.26633191 41.9375 20.25 C42.72882324 20.62382813 43.52014648 20.99765625 44.33544922 21.3828125 C47.83036616 23.0330169 51.32576663 24.68219213 54.82177734 26.33007812 C64.81954979 31.0495235 74.80701173 35.78948567 84.625 40.875 C85.3051416 41.21982422 85.9852832 41.56464844 86.68603516 41.91992188 C92.34604735 44.90358367 96.41416032 48.6146839 99.75 54.0625 C100.36101562 55.03896484 100.36101562 55.03896484 100.984375 56.03515625 C102.90923926 59.75902827 103.12632656 63.18412019 103.13422108 67.33687782 C103.13867892 68.42549445 103.14313676 69.51411107 103.14772969 70.63571608 C103.14745315 72.42897104 103.14745315 72.42897104 103.14717102 74.25845337 C103.15084771 75.52888375 103.1545244 76.79931412 103.1583125 78.10824239 C103.16832352 81.63719147 103.17204785 85.16612354 103.17470181 88.69508481 C103.17860753 92.50029296 103.18818569 96.30548769 103.19691467 100.11068726 C103.21667155 109.30158066 103.22674432 118.49247515 103.23564246 127.68338448 C103.24002665 132.01256034 103.24539312 136.34173498 103.25063133 140.67090988 C103.26764286 155.06382048 103.28213676 169.45673032 103.28938007 183.84964943 C103.29128994 187.58417385 103.29321027 191.31869826 103.29516602 195.05322266 C103.29564976 195.98140935 103.2961335 196.90959605 103.2966319 197.86590962 C103.30493123 212.90007832 103.33026686 227.93416742 103.36274669 242.96830137 C103.39582775 258.40670731 103.41382978 273.84507281 103.41702431 289.28351438 C103.41918844 297.95033731 103.42792288 306.61704418 103.45348549 315.28383255 C103.47520679 322.66526497 103.48323589 330.04655312 103.47351871 337.42801388 C103.46897812 341.19233865 103.47084585 344.95636587 103.49028015 348.72064972 C103.51119544 352.80719002 103.50091343 356.89307226 103.48774719 360.97964478 C103.50420106 362.75282324 103.50420106 362.75282324 103.52098733 364.56182349 C103.44351929 374.53107716 101.19721552 382.86657073 94 390 C86.65668613 395.13552016 78.44354015 398.83138131 70.21452332 402.30688477 C65.6495901 404.24219477 61.19287661 406.34129699 56.7734375 408.58984375 C55.36866316 409.29803085 53.96353477 410.00551595 52.55810547 410.71240234 C51.45036774 411.26973053 51.45036774 411.26973053 50.32025146 411.83831787 C43.62104576 415.19241447 36.88576332 418.47419546 30.15478516 421.76391602 C28.38422112 422.62998463 26.61436374 423.49749938 24.84521484 424.36645508 C15.96619121 428.72731897 7.07742376 433.05306583 -1.96875 437.05859375 C-2.61106567 437.34589859 -3.25338135 437.63320343 -3.91516113 437.92921448 C-11.62927801 441.28797993 -18.94321794 442.34225466 -26.9375 439.4375 C-34.55375852 436.13321553 -40.20969153 430.81519519 -46 425 C-48.58687613 422.5231885 -51.19905366 420.073723 -53.8125 417.625 C-54.48603516 416.99078125 -55.15957031 416.3565625 -55.85351562 415.703125 C-59.93138702 411.87890111 -64.07376342 408.14804799 -68.3059082 404.49511719 C-70.64174179 402.43363212 -72.79726688 400.20273312 -75 398 C-79.07962084 394.26462006 -83.21528791 390.59136828 -87.34375 386.91015625 C-93.07155122 381.78377416 -98.70255391 376.56087181 -104.31542969 371.30957031 C-112.06828469 364.05867052 -119.84564097 356.84151916 -127.86328125 349.8828125 C-130.66735878 347.41194345 -133.42987708 344.89750282 -136.1875 342.375 C-136.68701172 341.91931641 -137.18652344 341.46363281 -137.70117188 340.99414062 C-140.03271204 338.85508447 -142.3090886 336.6866185 -144.53125 334.43359375 C-147.00897237 331.9911554 -149.58575362 329.8460098 -152.3125 327.6875 C-156.60145172 324.22624072 -160.54200958 320.61590097 -164.34375 316.62890625 C-166.106293 314.7933979 -166.106293 314.7933979 -169 313 C-169 312.34 -169 311.68 -169 311 C-169.556875 310.773125 -170.11375 310.54625 -170.6875 310.3125 C-172.99397634 309.00341883 -174.57008709 307.51631685 -176.39453125 305.61328125 C-180.64992842 301.33717655 -185.25030037 297.3692218 -189.8190918 293.43261719 C-193.350587 290.38251257 -196.78261216 287.27726197 -200.10546875 284 C-200.77900391 283.34128906 -201.45253906 282.68257813 -202.14648438 282.00390625 C-203.52878726 280.64673614 -204.90094667 279.27917053 -206.26367188 277.90234375 C-206.93333984 277.25394531 -207.60300781 276.60554688 -208.29296875 275.9375 C-208.8861792 275.34839844 -209.47938965 274.75929688 -210.09057617 274.15234375 C-212.00582292 272.73897792 -212.00582292 272.73897792 -214.62353516 273.24194336 C-217.07596324 274.02423114 -218.33130192 274.81578277 -220.1875 276.5625 C-223 279 -223 279 -225 279 C-225 279.66 -225 280.32 -225 281 C-226.61399614 282.31730567 -228.29413839 283.55404267 -230 284.75 C-231.01320313 285.46929687 -232.02640625 286.18859375 -233.0703125 286.9296875 C-234.03710938 287.61289062 -235.00390625 288.29609375 -236 289 C-240.6639204 292.42257277 -245.23856988 295.95852069 -249.8125 299.5 C-255.3709902 303.80023122 -261.01861703 307.97173089 -266.6875 312.125 C-272.55988943 316.42795948 -278.33995562 320.78923528 -283.98828125 325.3828125 C-289.66847126 329.9490235 -293.92927502 333.1453751 -301.4375 333.125 C-302.85869141 333.12886719 -302.85869141 333.12886719 -304.30859375 333.1328125 C-306.70140459 333.01473475 -308.71336153 332.68112635 -311 332 C-311 331.34 -311 330.68 -311 330 C-311.8353125 329.9071875 -311.8353125 329.9071875 -312.6875 329.8125 C-315.27222831 328.90435222 -316.53937853 327.62357842 -318.390625 325.65234375 C-323.72980715 320.17061063 -329.67152692 315.20967517 -335.52734375 310.2890625 C-340.25768641 306.14844426 -344.26539091 301.6676439 -345.53125 295.34765625 C-345.86747459 289.354453 -344.80520079 285.20342875 -341.19140625 280.4140625 C-336.49439795 275.23981806 -331.41317544 270.41876614 -326 266 C-325.34 266 -324.68 266 -324 266 C-324 265.34 -324 264.68 -324 264 C-322.48772933 262.6697891 -320.91330976 261.40972409 -319.3125 260.1875 C-315.61393194 257.30106507 -312.27847315 254.36043498 -309 251 C-307.40213044 249.55550361 -305.79715722 248.11884921 -304.1875 246.6875 C-301.03979042 243.8787031 -297.9995379 241.02768722 -295.0625 238 C-291.16273188 234.02903936 -286.90309039 230.60129785 -282.56640625 227.12109375 C-279.49416707 224.58193717 -276.7410238 221.88918725 -274 219 C-275.32030561 216.04459277 -276.70765193 214.08062468 -279.08984375 211.8984375 C-279.70400146 211.33068604 -280.31815918 210.76293457 -280.95092773 210.17797852 C-281.60649658 209.58299561 -282.26206543 208.9880127 -282.9375 208.375 C-283.94695679 207.44675415 -283.94695679 207.44675415 -284.97680664 206.49975586 C-286.97944859 204.66084744 -288.98911492 202.82988503 -291 201 C-292.05245446 200.03556109 -293.1045743 199.0707568 -294.15625 198.10546875 C-298.00367089 194.58767241 -301.869626 191.09800283 -305.8125 187.6875 C-310.26328576 183.82403443 -314.55086109 179.78723631 -318.85766602 175.76513672 C-321.94261721 172.88983434 -325.04518751 170.05482938 -328.25 167.3125 C-331.36126319 164.61114405 -334.35447118 161.80614953 -337.3125 158.9375 C-338.54419922 157.74447266 -338.54419922 157.74447266 -339.80078125 156.52734375 C-344.17467409 151.50086299 -345.62436012 147.06307039 -345.41796875 140.52734375 C-343.78636319 130.66146716 -334.09151434 124.13106806 -327 118 C-325.6658646 116.83425062 -324.33252215 115.66759308 -323 114.5 C-322.34257812 113.93023437 -321.68515625 113.36046875 -321.0078125 112.7734375 C-319.62633487 111.55322185 -318.2679002 110.30657717 -316.9296875 109.0390625 C-313.04099221 105.41651366 -310.53220076 103.11290206 -305 103 C-304.29875 102.94070312 -303.5975 102.88140625 -302.875 102.8203125 C-294.57948652 102.34388098 -289.38724357 106.51334278 -283.0625 111.5 C-281.93042789 112.38506242 -280.79757883 113.26913172 -279.6640625 114.15234375 C-279.07141602 114.61495605 -278.47876953 115.07756836 -277.86816406 115.55419922 C-274.58602683 118.09429549 -271.26122601 120.57722344 -267.9375 123.0625 C-267.25558594 123.57304932 -266.57367188 124.08359863 -265.87109375 124.60961914 C-262.88681068 126.84317745 -259.90064359 129.07420289 -256.9140625 131.3046875 C-252.58222571 134.54466405 -248.25982343 137.7948486 -243.97265625 141.09375 C-243.26157715 141.64063477 -242.55049805 142.18751953 -241.81787109 142.75097656 C-240.36338274 143.86961445 -238.90927703 144.98875005 -237.45556641 146.10839844 C-232.11336766 150.20219445 -226.67701172 154.14092756 -221.11376953 157.92944336 C-219.7081815 158.90528024 -218.34837271 159.94651704 -217 161 C-217 161.66 -217 162.32 -217 163 C-213.75546082 163.36934334 -212.43200811 163.34203874 -209.82421875 161.27734375 C-209.11910156 160.50519531 -208.41398438 159.73304688 -207.6875 158.9375 C-204.98017806 156.07483992 -202.31223706 153.30556999 -199.3125 150.75 C-196.62764932 148.45725733 -194.02470778 146.09800325 -191.45703125 143.67578125 C-190.82692139 143.08249023 -190.19681152 142.48919922 -189.54760742 141.87792969 C-188.27702856 140.67818056 -187.01018358 139.47446339 -185.74731445 138.26660156 C-181.2204477 134 -181.2204477 134 -179 134 C-178.67 133.01 -178.34 132.02 -178 131 C-176.46875 129.45703125 -176.46875 129.45703125 -174.5 127.8125 C-170.53968292 124.46696139 -166.70154669 121.00995663 -162.8828125 117.50390625 C-161 116 -161 116 -159 116 C-158.01 114.02 -158.01 114.02 -157 112 C-156.34 112 -155.68 112 -155 112 C-155 111.34 -155 110.68 -155 110 C-153.3203125 108.2734375 -153.3203125 108.2734375 -151.125 106.375 C-150.40570313 105.74335938 -149.68640625 105.11171875 -148.9453125 104.4609375 C-147 103 -147 103 -145 103 C-144.77570313 102.42765625 -144.55140625 101.8553125 -144.3203125 101.265625 C-142.61799476 98.34448805 -140.54478014 96.81740635 -137.875 94.75 C-133.59265994 91.3442276 -129.69667875 87.81268484 -125.88671875 83.89453125 C-123.41513608 81.41271428 -120.79479486 79.1386818 -118.140625 76.85546875 C-115.68733821 74.72898842 -113.281356 72.55440925 -110.875 70.375 C-100.45833333 61 -100.45833333 61 -98 61 C-97.73445312 60.40832031 -97.46890625 59.81664063 -97.1953125 59.20703125 C-93.30961694 52.03246265 -85.25799766 46.60563363 -79.11328125 41.40234375 C-76.39198494 39.09425946 -73.81095315 36.80655671 -71.3125 34.25 C-69.20343012 32.19793201 -67.57214414 31.28607207 -65 30 C-64.67 29.01 -64.34 28.02 -64 27 C-62.57421875 25.5625 -62.57421875 25.5625 -60.6875 24 C-57.62751845 21.40994419 -54.64068022 18.76532392 -51.70458984 16.03515625 C-35.26804182 0.75715474 -22.37179173 -10.57263403 0 0 Z " fill="#0072BF" transform="translate(377,38)"/>
<path d="M0 0 C1.49986824 0.69689824 2.99987753 1.39349293 4.5 2.08984375 C12.86096021 5.99574945 21.13859336 10.04962625 29.37890625 14.203125 C33.53565435 16.2809206 37.73521013 18.26633191 41.9375 20.25 C42.72882324 20.62382813 43.52014648 20.99765625 44.33544922 21.3828125 C47.83036616 23.0330169 51.32576663 24.68219213 54.82177734 26.33007812 C64.81954979 31.0495235 74.80701173 35.78948567 84.625 40.875 C85.6452124 41.39223633 85.6452124 41.39223633 86.68603516 41.91992188 C92.34604735 44.90358367 96.41416032 48.6146839 99.75 54.0625 C100.36101562 55.03896484 100.36101562 55.03896484 100.984375 56.03515625 C102.90923926 59.75902827 103.12632656 63.18412019 103.13422108 67.33687782 C103.13867892 68.42549445 103.14313676 69.51411107 103.14772969 70.63571608 C103.14754533 71.83121939 103.14736097 73.02672269 103.14717102 74.25845337 C103.15084771 75.52888375 103.1545244 76.79931412 103.1583125 78.10824239 C103.16832352 81.63719147 103.17204785 85.16612354 103.17470181 88.69508481 C103.17860753 92.50029296 103.18818569 96.30548769 103.19691467 100.11068726 C103.21667155 109.30158066 103.22674432 118.49247515 103.23564246 127.68338448 C103.24002665 132.01256034 103.24539312 136.34173498 103.25063133 140.67090988 C103.26764286 155.06382048 103.28213676 169.45673032 103.28938007 183.84964943 C103.29128994 187.58417385 103.29321027 191.31869826 103.29516602 195.05322266 C103.29564976 195.98140935 103.2961335 196.90959605 103.2966319 197.86590962 C103.30493123 212.90007832 103.33026686 227.93416742 103.36274669 242.96830137 C103.39582775 258.40670731 103.41382978 273.84507281 103.41702431 289.28351438 C103.41918844 297.95033731 103.42792288 306.61704418 103.45348549 315.28383255 C103.47520679 322.66526497 103.48323589 330.04655312 103.47351871 337.42801388 C103.46897812 341.19233865 103.47084585 344.95636587 103.49028015 348.72064972 C103.51119544 352.80719002 103.50091343 356.89307226 103.48774719 360.97964478 C103.49871644 362.16176375 103.50968568 363.34388273 103.52098733 364.56182349 C103.44351929 374.53107716 101.19721552 382.86657073 94 390 C86.65668613 395.13552016 78.44354015 398.83138131 70.21452332 402.30688477 C65.6495901 404.24219477 61.19287661 406.34129699 56.7734375 408.58984375 C55.36866316 409.29803085 53.96353477 410.00551595 52.55810547 410.71240234 C51.45036774 411.26973053 51.45036774 411.26973053 50.32025146 411.83831787 C43.62104576 415.19241447 36.88576332 418.47419546 30.15478516 421.76391602 C28.38422112 422.62998463 26.61436374 423.49749938 24.84521484 424.36645508 C15.96619121 428.72731897 7.07742376 433.05306583 -1.96875 437.05859375 C-2.61106567 437.34589859 -3.25338135 437.63320343 -3.91516113 437.92921448 C-10.2361758 440.68141619 -17.2942907 442.52713585 -24.0703125 440.328125 C-25.74029033 439.61145435 -27.37459106 438.81270447 -29 438 C-29 437.67 -29 437.34 -29 437 C-28.41992188 436.97421875 -27.83984375 436.9484375 -27.2421875 436.921875 C-21.80804046 436.52731647 -18.12929316 435.84120294 -14 432 C-8.68233306 424.28163261 -9.43949474 415.21792128 -9.49206543 406.27900696 C-9.48745296 404.57196766 -9.48109772 402.86493234 -9.47315645 401.15790528 C-9.45648806 396.48086442 -9.46469812 391.80415084 -9.47710133 387.12710893 C-9.48615947 382.07800308 -9.47217843 377.02895311 -9.46118164 371.9798584 C-9.44340118 362.09497021 -9.44723398 352.21020356 -9.4588322 342.32531063 C-9.46786656 334.29305265 -9.46909051 326.26082872 -9.46473694 318.22856712 C-9.46412401 317.08529468 -9.46351107 315.94202223 -9.46287957 314.76410517 C-9.46160067 312.44159235 -9.46030382 310.11907954 -9.4589892 307.79656675 C-9.44758519 286.02281515 -9.46069513 264.24913094 -9.48219067 242.4753904 C-9.50006866 223.78718944 -9.49695139 205.09908784 -9.47851562 186.41088867 C-9.45711817 164.71027862 -9.44867623 143.00972757 -9.46096468 121.30910844 C-9.46223889 118.99606749 -9.46349637 116.68302654 -9.46473694 114.36998558 C-9.46566259 112.66286801 -9.46566259 112.66286801 -9.46660694 110.92126322 C-9.47006268 102.89589746 -9.46422683 94.87056909 -9.45481873 86.84520912 C-9.4436102 77.06918023 -9.44661498 67.29327985 -9.4679417 57.51726571 C-9.47846641 52.52815642 -9.48254961 47.53926152 -9.46934509 42.55015373 C-9.45744528 37.98505517 -9.46394381 33.42037019 -9.4852553 28.85530927 C-9.48973152 27.2020546 -9.48743228 25.54876515 -9.47775215 23.89553276 C-9.46561506 21.65089647 -9.47803403 19.4076829 -9.49663544 17.16312122 C-9.49728485 15.91568223 -9.49793426 14.66824323 -9.49860334 13.38300306 C-10.10126957 9.31671812 -11.43788642 7.18170689 -14 4 C-19.05037785 0.40646192 -22.85693738 -0.56890789 -29 -1 C-28 -3 -28 -3 -25 -4.125 C-15.40384733 -6.51917197 -8.78000779 -4.14932386 0 0 Z " fill="#1F9BEF" transform="translate(377,38)"/>
<path d="M0 0 C0 66.33 0 132.66 0 201 C-5.55851064 199.88829787 -5.55851064 199.88829787 -8.4375 197.0625 C-11.96667444 193.81142185 -15.69745061 190.9947478 -19.625 188.25 C-25.27124424 184.29059417 -30.73371694 180.15181809 -36.11767578 175.84277344 C-38.98699009 173.55248417 -41.88204698 171.3785675 -44.91015625 169.30078125 C-45.92980469 168.54152344 -46.94945312 167.78226563 -48 167 C-48 166.34 -48 165.68 -48 165 C-48.57878906 164.89558594 -49.15757812 164.79117188 -49.75390625 164.68359375 C-52.36517636 163.88885937 -53.82507614 162.78568645 -55.9375 161.0625 C-56.72511719 160.43085938 -57.51273437 159.79921875 -58.32421875 159.1484375 C-59.64873047 158.08496094 -59.64873047 158.08496094 -61 157 C-63.0798485 155.39100983 -65.16245931 153.78642093 -67.25 152.1875 C-70.64333671 149.58426256 -74.03326105 146.97723068 -77.40625 144.34765625 C-78.5204471 143.4812739 -79.63502482 142.61538079 -80.75 141.75 C-81.28681396 141.33322998 -81.82362793 140.91645996 -82.37670898 140.48706055 C-86.28120805 137.48410761 -90.2987388 134.74368735 -94.48828125 132.15625 C-94.98714844 131.7746875 -95.48601562 131.393125 -96 131 C-96 130.34 -96 129.68 -96 129 C-96.67804688 128.78601563 -97.35609375 128.57203125 -98.0546875 128.3515625 C-101.92686325 126.57467549 -104.8644482 124.08622197 -108.125 121.375 C-113.52985075 116.95886567 -119.00130394 112.75102673 -124.6796875 108.69140625 C-127.57177591 106.58320039 -130.29393377 104.34038161 -133 102 C-131.47410875 97.88386125 -128.54514846 95.82202836 -125.125 93.3125 C-124.54854736 92.87969727 -123.97209473 92.44689453 -123.37817383 92.00097656 C-122.18029667 91.10285488 -120.97982344 90.20818591 -119.77685547 89.31689453 C-118.09671023 88.0716756 -116.42390543 86.81737422 -114.75390625 85.55859375 C-112.75208021 84.0514865 -110.7470076 82.54867918 -108.73828125 81.05078125 C-106.9977733 79.74726245 -105.26501623 78.4332796 -103.54296875 77.10546875 C-102.82753906 76.55503906 -102.11210937 76.00460938 -101.375 75.4375 C-100.76398438 74.96183594 -100.15296875 74.48617187 -99.5234375 73.99609375 C-98 73 -98 73 -96 73 C-96 72.34 -96 71.68 -96 71 C-94.62988281 69.83007813 -94.62988281 69.83007813 -92.703125 68.53125 C-91.99744385 68.04744873 -91.2917627 67.56364746 -90.56469727 67.06518555 C-89.80084717 66.54867432 -89.03699707 66.03216309 -88.25 65.5 C-81.76738879 61.03288297 -75.69672336 56.37029201 -69.71484375 51.25 C-66.34564326 48.4576842 -62.81189179 45.99146202 -59.19140625 43.5390625 C-57.20063044 42.14090623 -55.38722589 40.66754144 -53.5625 39.0625 C-51 37 -51 37 -48 37 C-47.67 36.01 -47.34 35.02 -47 34 C-44.8125 32.203125 -44.8125 32.203125 -42 30.25 C-38.50546469 27.80779635 -35.08606871 25.30811207 -31.73046875 22.6796875 C-26.19562655 18.34736602 -20.5213582 14.21378835 -14.84179688 10.07421875 C-11.3205257 7.49517939 -7.85087249 4.91998283 -4.54296875 2.0703125 C-2 0 -2 0 0 0 Z " fill="#000001" transform="translate(368,155)"/>
<path d="M0 0 C0.66 0 1.32 0 2 0 C2.0825 0.61875 2.165 1.2375 2.25 1.875 C2.81258459 4.18437567 2.81258459 4.18437567 5.0625 5.25 C5.701875 5.4975 6.34125 5.745 7 6 C7 6.99 7 7.98 7 9 C7.99 9.33 8.98 9.66 10 10 C10 10.66 10 11.32 10 12 C10.99 12 11.98 12 13 12 C13 12.66 13 13.32 13 14 C14.32 14.33 15.64 14.66 17 15 C17 15.66 17 16.32 17 17 C17.60585937 17.0928125 18.21171875 17.185625 18.8359375 17.28125 C21.51978246 18.17263533 22.12885135 19.14477245 23.625 21.5 C25.33468108 24.26274124 25.33468108 24.26274124 28 26 C28 26.66 28 27.32 28 28 C29.65 28.66 31.3 29.32 33 30 C33 30.99 33 31.98 33 33 C35.31 33.66 37.62 34.32 40 35 C40.495 36.98 40.495 36.98 41 39 C42.65 39.33 44.3 39.66 46 40 C46.33 40.99 46.66 41.98 47 43 C48.99665598 44.67067133 50.99651034 46.33752986 53 48 C53 48.66 53 49.32 53 50 C53.5775 50.2475 54.155 50.495 54.75 50.75 C57.3002997 52.16683317 59.01785701 53.87627537 61 56 C60.0925 56.598125 59.185 57.19625 58.25 57.8125 C56.37951098 59.071483 54.52976912 60.36573513 52.75 61.75 C51 63 51 63 49 63 C49 63.66 49 64.32 49 65 C47.38600386 66.31730567 45.70586161 67.55404267 44 68.75 C42.98679687 69.46929687 41.97359375 70.18859375 40.9296875 70.9296875 C39.96289062 71.61289062 38.99609375 72.29609375 38 73 C33.3360796 76.42257277 28.76143012 79.95852069 24.1875 83.5 C18.6290098 87.80023122 12.98138297 91.97173089 7.3125 96.125 C1.44011057 100.42795948 -4.33995562 104.78923528 -9.98828125 109.3828125 C-15.66847126 113.9490235 -19.92927502 117.1453751 -27.4375 117.125 C-28.85869141 117.12886719 -28.85869141 117.12886719 -30.30859375 117.1328125 C-32.70140459 117.01473475 -34.71336153 116.68112635 -37 116 C-37 115.34 -37 114.68 -37 114 C-37.556875 113.938125 -38.11375 113.87625 -38.6875 113.8125 C-41.27222831 112.90435222 -42.53937853 111.62357842 -44.390625 109.65234375 C-49.72980715 104.17061063 -55.67152692 99.20967517 -61.52734375 94.2890625 C-66.25768641 90.14844426 -70.26539091 85.6676439 -71.53125 79.34765625 C-71.86747459 73.354453 -70.80520079 69.20342875 -67.19140625 64.4140625 C-62.49439795 59.23981806 -57.41317544 54.41876614 -52 50 C-51.34 50 -50.68 50 -50 50 C-50 49.34 -50 48.68 -50 48 C-48.48772933 46.6697891 -46.91330976 45.40972409 -45.3125 44.1875 C-41.61393194 41.30106507 -38.27847315 38.36043498 -35 35 C-33.40213044 33.55550361 -31.79715722 32.11884921 -30.1875 30.6875 C-27.03979042 27.8787031 -23.9995379 25.02768722 -21.0625 22 C-17.16123071 18.02751079 -12.89572287 14.60173055 -8.56640625 11.109375 C-5.45880031 8.55517834 -2.65986475 6.01930593 0 3 C0 2.01 0 1.02 0 0 Z " fill="#0165A9" transform="translate(103,254)"/>
<path d="M0 0 C3.33306514 3.33306514 3.12556231 6.78210544 3.13422108 11.33687782 C3.13867892 12.42549445 3.14313676 13.51411107 3.14772969 14.63571608 C3.14754533 15.83121939 3.14736097 17.02672269 3.14717102 18.25845337 C3.15084771 19.52888375 3.1545244 20.79931412 3.1583125 22.10824239 C3.16832352 25.63719147 3.17204785 29.16612354 3.17470181 32.69508481 C3.17860753 36.50029296 3.18818569 40.30548769 3.19691467 44.11068726 C3.21667155 53.30158066 3.22674432 62.49247515 3.23564246 71.68338448 C3.24002665 76.01256034 3.24539312 80.34173498 3.25063133 84.67090988 C3.26764286 99.06382048 3.28213676 113.45673032 3.28938007 127.84964943 C3.29128994 131.58417385 3.29321027 135.31869826 3.29516602 139.05322266 C3.29564976 139.98140935 3.2961335 140.90959605 3.2966319 141.86590962 C3.30493123 156.90007832 3.33026686 171.93416742 3.36274669 186.96830137 C3.39582775 202.40670731 3.41382978 217.84507281 3.41702431 233.28351438 C3.41918844 241.95033731 3.42792288 250.61704418 3.45348549 259.28383255 C3.47520679 266.66526497 3.48323589 274.04655312 3.47351871 281.42801388 C3.46897812 285.19233865 3.47084585 288.95636587 3.49028015 292.72064972 C3.51119544 296.80719002 3.50091343 300.89307226 3.48774719 304.97964478 C3.49871644 306.16176375 3.50968568 307.34388273 3.52098733 308.56182349 C3.44351929 318.53107716 1.19721552 326.86657073 -6 334 C-16.69667444 341.48068082 -29.60270659 347.05888512 -42 351 C-41.34 350.01 -40.68 349.02 -40 348 C-39.01 348 -38.02 348 -37 348 C-37 347.34 -37 346.68 -37 346 C-37.66 346 -38.32 346 -39 346 C-39 345.34 -39 344.68 -39 344 C-36.03 344.33 -33.06 344.66 -30 345 C-30 344.01 -30 343.02 -30 342 C-29.28972656 341.80664062 -28.57945312 341.61328125 -27.84765625 341.4140625 C-26.92855469 341.15367187 -26.00945312 340.89328125 -25.0625 340.625 C-23.68771484 340.24214844 -23.68771484 340.24214844 -22.28515625 339.8515625 C-19.83254913 339.23339896 -19.83254913 339.23339896 -19 337 C-17.35 337 -15.7 337 -14 337 C-13.67 335.68 -13.34 334.36 -13 333 C-11.35 333 -9.7 333 -8 333 C-7.67 331.68 -7.34 330.36 -7 329 C-8.32 328.67 -9.64 328.34 -11 328 C-11 326.68 -11 325.36 -11 324 C-9.68 324 -8.36 324 -7 324 C-6.505 325.485 -6.505 325.485 -6 327 C-5.01 327 -4.02 327 -3 327 C-2.01 323.04 -1.02 319.08 0 315 C0.66 315 1.32 315 2 315 C1.89545159 276.16180669 1.78568807 237.32363136 1.66888306 198.48547289 C1.65511269 193.90527306 1.64138571 189.32507309 1.62768555 184.74487305 C1.62495724 183.83299785 1.62222894 182.92112266 1.61941796 181.98161488 C1.57528517 167.19658476 1.53467149 152.41154695 1.49534739 137.62650336 C1.45495039 122.46737036 1.41079706 107.30825169 1.36312145 92.14913982 C1.33379801 82.78736805 1.30744095 73.42559741 1.28482103 64.063807 C1.26905145 57.65309734 1.24964913 51.24240524 1.22733159 44.83171505 C1.21454479 41.1273796 1.20341566 37.42305776 1.19658089 33.71870613 C1.18914699 29.7121852 1.17409208 25.70573036 1.15821838 21.69923401 C1.15724028 20.51540762 1.15626217 19.33158123 1.15525442 18.11188132 C1.14977998 17.04745462 1.14430554 15.98302792 1.1386652 14.88634586 C1.13600716 13.96020798 1.13334911 13.03407009 1.13061053 12.07986742 C1.23082514 10.01035868 1.23082514 10.01035868 0 9 C-0.07179964 7.48071962 -0.08392007 5.95832518 -0.0625 4.4375 C-0.05347656 3.61121094 -0.04445313 2.78492187 -0.03515625 1.93359375 C-0.02355469 1.29550781 -0.01195312 0.65742187 0 0 Z " fill="#3693D2" transform="translate(477,94)"/>
<path d="M0 0 C2.79198611 0.17412353 2.79198611 0.17412353 6 1 C12.21442072 8.45344844 12.86188179 17.2798396 12.7484436 26.57562256 C12.75639242 27.89105144 12.76434123 29.20648032 12.77253091 30.56177068 C12.7935324 34.17946723 12.77756241 37.79616303 12.75502992 41.41381478 C12.73723928 45.32794537 12.75426313 49.24195244 12.76675415 53.15608215 C12.78567065 60.80944037 12.77258441 68.46241979 12.74822827 76.11574975 C12.72090837 85.03430057 12.72427083 93.95276244 12.72849493 102.87134448 C12.73486562 118.78491266 12.71158885 134.69830142 12.67236328 150.61181641 C12.63433312 166.04448913 12.62019597 181.47695173 12.63134766 196.90966797 C12.64346739 213.73173109 12.64310349 230.55370198 12.62037599 247.37575746 C12.61796149 249.16977834 12.61554952 250.96379923 12.61314011 252.75782013 C12.61132949 254.0817409 12.61132949 254.0817409 12.6094823 255.43240754 C12.60173055 261.64596614 12.60250857 267.85949035 12.6063118 274.07305145 C12.61055892 281.6443296 12.60008269 289.21542394 12.57108469 296.78665033 C12.5566139 300.64796452 12.54842782 304.50901122 12.55757141 308.37034798 C12.56724635 312.55793291 12.54586534 316.74478751 12.52139282 320.93231201 C12.52895147 322.14981825 12.53651012 323.36732448 12.54429781 324.62172484 C12.45026802 333.70434325 10.51339345 340.289231 4 347 C1.24077693 348.51757269 -0.19397722 349.1307064 -3.3125 348.625 C-4.1478125 348.315625 -4.1478125 348.315625 -5 348 C-3.96875 347.525625 -2.9375 347.05125 -1.875 346.5625 C3.60629503 343.43827301 6.53629975 338.26558691 9.06214333 332.63030624 C10.44970863 327.25924354 10.28181164 322.02693218 10.26742554 316.5010376 C10.27422221 314.59282876 10.27422221 314.59282876 10.28115618 312.64607024 C10.293375 309.12161526 10.29312704 305.59725527 10.29076743 302.07278395 C10.29035898 298.26896678 10.30140118 294.46517995 10.31088257 290.66137695 C10.32748771 283.21119543 10.33299191 275.76104556 10.33410732 268.31084707 C10.33505809 262.25367202 10.3391698 256.19650739 10.34550858 250.13933563 C10.36312013 232.960127 10.37234765 215.78094334 10.37084763 198.60172561 C10.37076772 197.67580264 10.3706878 196.74987968 10.37060547 195.79589844 C10.37048283 194.40531489 10.37048283 194.40531489 10.37035771 192.98663875 C10.36954497 177.96552527 10.38867982 162.94451209 10.4168822 147.92342761 C10.44562229 132.4939929 10.45942186 117.0646071 10.45769465 101.63514495 C10.45703111 92.97506585 10.46250764 84.31509189 10.48405075 75.65503693 C10.50227741 68.28096452 10.50659777 60.90704492 10.4930319 53.53295973 C10.48650953 49.7726774 10.48635826 46.01268809 10.5037384 42.25243378 C10.5224114 38.17036732 10.50989559 34.08897693 10.49447632 30.00689697 C10.50476344 28.82614224 10.51505057 27.6453875 10.52564943 26.42885232 C10.45710099 18.20811695 9.3882395 10.06172284 3.3125 4 C2.549375 3.34 1.78625 2.68 1 2 C0.67 1.34 0.34 0.68 0 0 Z " fill="#00061B" transform="translate(469,83)"/>
<path d="M0 0 C0.99 0.33 1.98 0.66 3 1 C5.3406065 0.72230092 7.67624308 0.39460023 10 0 C6.11173338 4.21147266 1.5588199 7.23155733 -3.13085938 10.46484375 C-6.60129611 12.73181083 -6.60129611 12.73181083 -9 16 C-10.6823265 16.94210284 -12.36564107 17.88249873 -14.0546875 18.8125 C-16.62943737 20.38423486 -18.7486842 22.30363828 -20.99609375 24.3046875 C-23.34912224 26.29535878 -25.80811935 28.07860881 -28.3125 29.875 C-31.95933537 32.49196508 -35.51346065 35.1730762 -39 38 C-53.85714286 50 -53.85714286 50 -57 50 C-57 50.66 -57 51.32 -57 52 C-58.73046875 53.375 -58.73046875 53.375 -61.1875 55 C-65.32878108 57.81723769 -69.35484587 60.74415263 -73.3125 63.8125 C-73.84987793 64.22870605 -74.38725586 64.64491211 -74.94091797 65.07373047 C-76.05089351 65.93449436 -77.16042521 66.79583087 -78.26953125 67.65771484 C-81.27627934 69.98998078 -84.29511361 72.30652566 -87.3125 74.625 C-88.41281249 75.47128646 -89.5130779 76.31763416 -90.61328125 77.1640625 C-91.40089844 77.76992187 -92.18851563 78.37578125 -93 79 C-91.64062915 81.8605891 -90.35479531 83.85927699 -88 86 C-89.98 85.34 -91.96 84.68 -94 84 C-94 83.34 -94 82.68 -94 82 C-94.66 82 -95.32 82 -96 82 C-96.495 79.525 -96.495 79.525 -97 77 C-92.92313583 73.82910564 -88.65170554 71.23971007 -84 69 C-84 68.34 -84 67.68 -84 67 C-77.375 63 -77.375 63 -74 63 C-74 62.01 -74 61.02 -74 60 C-73.01 59.505 -73.01 59.505 -72 59 C-71.7834375 57.824375 -71.7834375 57.824375 -71.5625 56.625 C-70.93078914 53.67701599 -70.15771919 52.97790925 -68 51 C-67.67 50.01 -67.34 49.02 -67 48 C-66.39671875 48.13019531 -65.7934375 48.26039063 -65.171875 48.39453125 C-62.71216861 48.81902897 -60.49619276 49.11721253 -58 49 C-55.75808599 46.67678298 -55.75808599 46.67678298 -54 44 C-50.75 43.1875 -50.75 43.1875 -48 43 C-47.67 41.68 -47.34 40.36 -47 39 C-44.525 38.505 -44.525 38.505 -42 38 C-41.67 37.01 -41.34 36.02 -41 35 C-40.01 35 -39.02 35 -38 35 C-37.34 33.68 -36.68 32.36 -36 31 C-35.01 31 -34.02 31 -33 31 C-32.93683594 30.39671875 -32.87367188 29.7934375 -32.80859375 29.171875 C-31.6571695 26.0791606 -30.00381816 25.61726985 -27.0625 24.25 C-26.16660156 23.82203125 -25.27070313 23.3940625 -24.34765625 22.953125 C-22 22 -22 22 -20 22 C-19.690625 21.38125 -19.38125 20.7625 -19.0625 20.125 C-18.375 18.75 -17.6875 17.375 -17 16 C-16.071875 15.731875 -15.14375 15.46375 -14.1875 15.1875 C-10.45362431 13.79644827 -9.31921714 12.14750898 -7 9 C-6.34 9 -5.68 9 -5 9 C-5.495 7.02 -5.495 7.02 -6 5 C-2.25 2 -2.25 2 0 2 C0 1.34 0 0.68 0 0 Z M1 2 C2 4 2 4 2 4 Z " fill="#105D94" transform="translate(329,176)"/>
<path d="M0 0 C0.495 1.98 0.495 1.98 1 4 C-5.51830986 9.65774648 -5.51830986 9.65774648 -8.375 11.6875 C-10.29991911 13.00088704 -10.29991911 13.00088704 -11 16 C-13.27344883 17.89095933 -15.6573502 19.56747534 -18.06640625 21.28125 C-19.02353516 22.13203125 -19.02353516 22.13203125 -20 23 C-20 23.99 -20 24.98 -20 26 C-20.556875 26.04125 -21.11375 26.0825 -21.6875 26.125 C-24.61184416 27.2315086 -25.82075778 29.08556996 -27.70703125 31.5 C-29.52912634 33.6138505 -31.49332965 34.81262983 -34 36 C-34.99 36 -35.98 36 -37 36 C-37.04125 36.556875 -37.0825 37.11375 -37.125 37.6875 C-38.45151274 41.19328368 -41.09126944 42.73119016 -44 45 C-45.02019573 45.9793879 -46.02149805 46.97895449 -47 48 C-49.37393526 50.43640724 -51.66863482 52.74711604 -54.375 54.8125 C-56.69678253 56.74731878 -58.25891892 58.53351255 -60.125 60.875 C-64.17683756 65.64239386 -69.19905006 68.70078435 -75 71 C-75.66 70.67 -76.32 70.34 -77 70 C-76.38125 69.7525 -75.7625 69.505 -75.125 69.25 C-72.64931313 67.79371361 -72.04874998 66.62187494 -71 64 C-70.34 64 -69.68 64 -69 64 C-69 63.34 -69 62.68 -69 62 C-67.3203125 60.2734375 -67.3203125 60.2734375 -65.125 58.375 C-64.40570313 57.74335938 -63.68640625 57.11171875 -62.9453125 56.4609375 C-61 55 -61 55 -59 55 C-58.77570313 54.42765625 -58.55140625 53.8553125 -58.3203125 53.265625 C-56.61799476 50.34448805 -54.54478014 48.81740635 -51.875 46.75 C-47.59265994 43.3442276 -43.69667875 39.81268484 -39.88671875 35.89453125 C-37.41513608 33.41271428 -34.79479486 31.1386818 -32.140625 28.85546875 C-29.68733821 26.72898842 -27.281356 24.55440925 -24.875 22.375 C-14.45833333 13 -14.45833333 13 -12 13 C-11.74089844 12.41476563 -11.48179687 11.82953125 -11.21484375 11.2265625 C-9.91381713 8.84204426 -8.50128994 7.26792609 -6.5625 5.375 C-5.66724609 4.48941406 -5.66724609 4.48941406 -4.75390625 3.5859375 C-3 2 -3 2 0 0 Z " fill="#0A619C" transform="translate(291,86)"/>
<path d="M0 0 C0.66 0 1.32 0 2 0 C2 66.33 2 132.66 2 201 C0.35 200.67 -1.3 200.34 -3 200 C-3.66 199.01 -4.32 198.02 -5 197 C-3.35 197.33 -1.7 197.66 0 198 C0.33 133.65 0.66 69.3 1 3 C0.01 2.67 -0.98 2.34 -2 2 C-1.34 1.34 -0.68 0.68 0 0 Z " fill="#00071B" transform="translate(366,155)"/>
<path d="M0 0 C0.66 0 1.32 0 2 0 C2 0.66 2 1.32 2 2 C-1.46153846 5 -1.46153846 5 -4 5 C-3.505 6.98 -3.505 6.98 -3 9 C-4.3921875 9.5878125 -4.3921875 9.5878125 -5.8125 10.1875 C-9.3858107 12.21938256 -9.98430816 13.53301003 -12 17 C-13.76620901 18.61191949 -15.59193568 20.09919029 -17.4765625 21.5703125 C-19.27420352 23.03032951 -19.27420352 23.03032951 -20 26 C-21.32 25.67 -22.64 25.34 -24 25 C-24.2475 25.763125 -24.495 26.52625 -24.75 27.3125 C-26.13503189 30.29031855 -27.34571165 31.17517676 -30 33 C-30.66 33.99 -31.32 34.98 -32 36 C-32.99 36 -33.98 36 -35 36 C-37.18777466 37.9375006 -37.18777466 37.9375006 -39 40 C-39.66 39.67 -40.32 39.34 -41 39 C-41 39.66 -41 40.32 -41 41 C-41.99 40.67 -42.98 40.34 -44 40 C-42.33333333 38.33333333 -40.66666667 36.66666667 -39 35 C-38.443125 34.401875 -37.88625 33.80375 -37.3125 33.1875 C-36 32 -36 32 -34 32 C-33.67 31.01 -33.34 30.02 -33 29 C-31.57421875 27.5625 -31.57421875 27.5625 -29.6875 26 C-26.10032501 22.9637126 -22.62861155 19.82455228 -19.1875 16.625 C-14.33728381 12.13698282 -9.33745294 7.91103112 -4.1796875 3.77734375 C-1.96611041 2.03354816 -1.96611041 2.03354816 0 0 Z " fill="#0565A7" transform="translate(346,36)"/>
<path d="M0 0 C0.495 1.98 0.495 1.98 1 4 C0.01 4 -0.98 4 -2 4 C-2.0928125 4.928125 -2.0928125 4.928125 -2.1875 5.875 C-2.455625 6.57625 -2.72375 7.2775 -3 8 C-4.65697379 8.69040574 -6.3255761 9.3530635 -8 10 C-9.68762851 11.6454378 -11.3540349 13.31288577 -13 15 C-14.64821244 16.03013277 -16.31503702 17.03114628 -18 18 C-18.845625 18.70125 -19.69125 19.4025 -20.5625 20.125 C-23 22 -23 22 -25.125 22.4375 C-27.26274693 22.84841523 -27.26274693 22.84841523 -28.375 25.3125 C-30.38946057 28.64410787 -32.7187369 29.97539085 -36 32 C-36.66 32.66 -37.32 33.32 -38 34 C-38.825 34.12375 -39.65 34.2475 -40.5 34.375 C-43.16470196 34.73647686 -43.16470196 34.73647686 -44.3125 37.0625 C-44.539375 37.701875 -44.76625 38.34125 -45 39 C-46.65 39 -48.3 39 -50 39 C-46.07168569 34.82616605 -41.83520017 31.10605574 -37 28 C-36.34 28 -35.68 28 -35 28 C-35 27.34 -35 26.68 -35 26 C-33.62988281 24.83007812 -33.62988281 24.83007812 -31.703125 23.53125 C-30.99712158 23.04720703 -30.29111816 22.56316406 -29.5637207 22.06445312 C-28.41842896 21.29004883 -28.41842896 21.29004883 -27.25 20.5 C-20.73744636 16.01374032 -14.5826712 11.3395119 -8.61328125 6.15625 C-5.84361334 3.87096347 -3.01600383 1.94296001 0 0 Z " fill="#010D1F" transform="translate(307,200)"/>
<path d="M0 0 C0.495 1.485 0.495 1.485 1 3 C-0.42459275 4.91874836 -2.05964058 6.49700745 -3.75 8.18359375 C-5.25648821 9.92285809 -5.25648821 9.92285809 -4.66015625 12.05078125 C-4.44230469 12.69402344 -4.22445312 13.33726562 -4 14 C-4.4375 16.75 -4.4375 16.75 -5 19 C-6.258125 19.04125 -7.51625 19.0825 -8.8125 19.125 C-9.52019531 19.14820313 -10.22789062 19.17140625 -10.95703125 19.1953125 C-13 19 -13 19 -16 17 C-16.33 17.99 -16.66 18.98 -17 20 C-17.99 20 -18.98 20 -20 20 C-20.33 20.99 -20.66 21.98 -21 23 C-21.66 23 -22.32 23 -23 23 C-23.33 23.99 -23.66 24.98 -24 26 C-24.66 26 -25.32 26 -26 26 C-26 26.66 -26 27.32 -26 28 C-28.375 29.6875 -28.375 29.6875 -31 31 C-31.66 30.67 -32.32 30.34 -33 30 C-20.04647676 16.68215892 -20.04647676 16.68215892 -15 15 C-14.67 14.01 -14.34 13.02 -14 12 C-12.36328125 10.3515625 -12.36328125 10.3515625 -10.3125 8.625 C-9.59707031 8.01785156 -8.88164062 7.41070312 -8.14453125 6.78515625 C-7.43683594 6.19605469 -6.72914063 5.60695312 -6 5 C-5.07767578 4.22462891 -5.07767578 4.22462891 -4.13671875 3.43359375 C-2.76301179 2.2828273 -1.38231603 1.14041072 0 0 Z " fill="#0566AD" transform="translate(213,157)"/>
<path d="M0 0 C0.99 0 1.98 0 3 0 C2.814375 1.216875 2.62875 2.43375 2.4375 3.6875 C2.085197 6.38214187 2.02198467 8.10992333 2.5625 10.8125 C2.7790625 11.8953125 2.7790625 11.8953125 3 13 C2.01 14.485 2.01 14.485 1 16 C3.475 16.99 3.475 16.99 6 18 C5.67 19.32 5.34 20.64 5 22 C3.02 21.01 1.04 20.02 -1 19 C-1 18.01 -1 17.02 -1 16 C-1.99 15.67 -2.98 15.34 -4 15 C-4.5625 13.125 -4.5625 13.125 -5 11 C-5.66 10.01 -6.32 9.02 -7 8 C-6.34 8 -5.68 8 -5 8 C-4.67 6.35 -4.34 4.7 -4 3 C-3.01 2.67 -2.02 2.34 -1 2 C-0.67 1.34 -0.34 0.68 0 0 Z " fill="#037BD0" transform="translate(285,400)"/>
<path d="M0 0 C0.66 0.33 1.32 0.66 2 1 C-0.27706567 6.07960803 -2.89661239 8.11607593 -7.9375 10.375 C-12.09138287 12.37367988 -14.30441305 14.20621096 -17 18 C-21.34482759 21 -21.34482759 21 -24 21 C-24 21.66 -24 22.32 -24 23 C-29.61 23 -35.22 23 -41 23 C-41.33 22.34 -41.66 21.68 -42 21 C-41.14277344 21.04640625 -40.28554687 21.0928125 -39.40234375 21.140625 C-32.53898545 21.35728118 -27.54346917 21.34393697 -22 17 C-21.09765625 16.34386719 -20.1953125 15.68773437 -19.265625 15.01171875 C-12.70141261 10.18852208 -6.3229458 5.13389626 0 0 Z " fill="#01172C" transform="translate(110,349)"/>
<path d="M0 0 C0 0.66 0 1.32 0 2 C0.61875 1.505 1.2375 1.01 1.875 0.5 C4 -1 4 -1 6 -1 C5.814375 -0.0925 5.62875 0.815 5.4375 1.75 C5.03393523 4.74790974 5.19760855 6.19162994 6 9 C5.67 9.66 5.34 10.32 5 11 C-0.18932894 10.746862 -2.85430061 8.8889114 -6.6796875 5.66796875 C-8 4 -8 4 -8 0 C-5.13822943 -1.43088528 -3.06624227 -0.59991697 0 0 Z " fill="#0977C4" transform="translate(170,305)"/>
<path d="M0 0 C-3 1 -3 1 -6 0.375 C-6.99 0.25125 -7.98 0.1275 -9 0 C-10.02019573 0.9793879 -11.02149805 1.97895449 -12 3 C-14.62896738 2.79777174 -16.50483908 2.27319223 -18.8125 1 C-22.12151067 -0.51269059 -25.38832248 -0.63883225 -29 -1 C-28 -3 -28 -3 -25 -4.125 C-15.468709 -6.50298944 -8.75955054 -4.15004087 0 0 Z " fill="#2A8CD0" transform="translate(377,38)"/>
<path d="M0 0 C2.475 0.495 2.475 0.495 5 1 C5.33 1.99 5.66 2.98 6 4 C6.99 4 7.98 4 9 4 C9.99 5.485 9.99 5.485 11 7 C12.99180409 8.01622658 14.99152635 9.01712992 17 10 C17.33 10.66 17.66 11.32 18 12 C18.99 12.33 19.98 12.66 21 13 C22.6875 14.4375 22.6875 14.4375 24 16 C24 16.66 24 17.32 24 18 C25.093125 18.268125 26.18625 18.53625 27.3125 18.8125 C30.84095487 19.94878208 31.61634483 20.50283744 34 23 C35.32 23 36.64 23 38 23 C37.505 22.01 37.505 22.01 37 21 C38.65 21 40.3 21 42 21 C40.35 22.98 38.7 24.96 37 27 C35.35 26.67 33.7 26.34 32 26 C32 25.34 32 24.68 32 24 C31.32195312 23.78601563 30.64390625 23.57203125 29.9453125 23.3515625 C26.0732516 21.57472819 23.13525971 19.08646184 19.875 16.375 C14.37279623 11.87270423 8.80517298 7.59830678 2.9765625 3.5234375 C1 2 1 2 0 0 Z " fill="#011630" transform="translate(128,175)"/>
<path d="M0 0 C2.6875 -0.3125 2.6875 -0.3125 5 0 C5.33 0.66 5.66 1.32 6 2 C2.85727547 4.37913537 -0.28974699 6.75252279 -3.4375 9.125 C-4.75524414 10.12273437 -4.75524414 10.12273437 -6.09960938 11.140625 C-11.61302916 15.29094838 -17.20930157 19.24573701 -23 23 C-23 21.68 -23 20.36 -23 19 C-22.01 19 -21.02 19 -20 19 C-20 18.34 -20 17.68 -20 17 C-19.01 17 -18.02 17 -17 17 C-16.34 15.02 -15.68 13.04 -15 11 C-13.68 11.33 -12.36 11.66 -11 12 C-11 11.01 -11 10.02 -11 9 C-11.66 9 -12.32 9 -13 9 C-13 8.34 -13 7.68 -13 7 C-11.02 7.66 -9.04 8.32 -7 9 C-7 8.34 -7 7.68 -7 7 C-6.401875 6.773125 -5.80375 6.54625 -5.1875 6.3125 C-2.77649533 5.1162851 -2.77649533 5.1162851 -1.5625 2.375 C-1.046875 1.59125 -0.53125 0.8075 0 0 Z " fill="#0D5E95" transform="translate(362,153)"/>
<path d="M0 0 C1.43791516 0.14168137 2.8753237 0.28851043 4.3125 0.4375 C5.11300781 0.51871094 5.91351563 0.59992187 6.73828125 0.68359375 C9 1 9 1 12 2 C14.14255793 1.61067144 14.14255793 1.61067144 16 1 C16 1.66 16 2.32 16 3 C16.99 3.33 17.98 3.66 19 4 C19.33 4.99 19.66 5.98 20 7 C22.71138905 8.1552144 22.71138905 8.1552144 26 9 C27.29177818 9.37461567 28.58344676 9.74960953 29.875 10.125 C31.421875 10.558125 31.421875 10.558125 33 11 C32.67 11.99 32.34 12.98 32 14 C32.598125 14.144375 33.19625 14.28875 33.8125 14.4375 C35.56150404 14.8872439 37.28677023 15.42892341 39 16 C39 16.66 39 17.32 39 18 C33.71954146 16.66282962 29.19315594 14.76635281 24.375 12.25 C18.174089 9.07372899 11.93070146 6.08179564 5.57421875 3.2265625 C3 2 3 2 0 0 Z " fill="#030F1E" transform="translate(365,33)"/>
<path d="M0 0 C0.66 0.33 1.32 0.66 2 1 C1.67 1.99 1.34 2.98 1 4 C-0.175625 4.12375 -0.175625 4.12375 -1.375 4.25 C-2.674375 4.62125 -2.674375 4.62125 -4 5 C-4.44859375 5.8971875 -4.44859375 5.8971875 -4.90625 6.8125 C-6.23657091 9.47314181 -7.85456306 10.84576256 -10.125 12.75 C-11.21167969 13.67039063 -11.21167969 13.67039063 -12.3203125 14.609375 C-12.87460938 15.06828125 -13.42890625 15.5271875 -14 16 C-11.19372222 20.74908547 -8.74908547 23.19372222 -4 26 C-4.33 26.66 -4.66 27.32 -5 28 C-7.17899914 26.43159952 -9.34217244 24.84706156 -11.5 23.25 C-12.12003906 22.8065625 -12.74007812 22.363125 -13.37890625 21.90625 C-15.15625 20.578125 -15.15625 20.578125 -18 18 C-18 16.68 -18 15.36 -18 14 C-15.78916816 11.96355196 -13.65786642 10.20756847 -11.25 8.4375 C-10.61578125 7.95603516 -9.9815625 7.47457031 -9.328125 6.97851562 C-7.56081054 5.64014311 -5.78261617 4.31788538 -4 3 C-3.19046875 2.39285156 -2.3809375 1.78570312 -1.546875 1.16015625 C-1.03640625 0.77730469 -0.5259375 0.39445313 0 0 Z " fill="#020613" transform="translate(254,240)"/>
<path d="M0 0 C0.33 1.32 0.66 2.64 1 4 C-5.51830986 9.65774648 -5.51830986 9.65774648 -8.375 11.6875 C-10.29991911 13.00088704 -10.29991911 13.00088704 -11 16 C-12.890625 17.7890625 -12.890625 17.7890625 -15.25 19.625 C-16.01828125 20.23601562 -16.7865625 20.84703125 -17.578125 21.4765625 C-20.11475301 23.07218335 -22.05093035 23.61306533 -25 24 C-21.64026633 19.88981036 -18.39717763 16.05359558 -14 13 C-13.34 13 -12.68 13 -12 13 C-11.74089844 12.41476563 -11.48179687 11.82953125 -11.21484375 11.2265625 C-9.91381713 8.84204426 -8.50128994 7.26792609 -6.5625 5.375 C-5.96566406 4.78460938 -5.36882812 4.19421875 -4.75390625 3.5859375 C-3 2 -3 2 0 0 Z " fill="#125A8F" transform="translate(291,86)"/>
<path d="M0 0 C3.3 0.33 6.6 0.66 10 1 C10 1.99 10 2.98 10 4 C7.98828125 5.7890625 7.98828125 5.7890625 5.3125 7.625 C4.44238281 8.23601562 3.57226562 8.84703125 2.67578125 9.4765625 C0.03433104 10.98045386 -2.00854563 11.60113942 -5 12 C-5.25 9.75 -5.25 9.75 -5 7 C-3.0625 4.875 -3.0625 4.875 -1 3 C-0.67 2.01 -0.34 1.02 0 0 Z " fill="#0564AA" transform="translate(262,224)"/>
<path d="M0 0 C0.66 0 1.32 0 2 0 C4.03435531 3.72965139 5 5.66905042 5 10 C3.68 10 2.36 10 1 10 C0.67 11.65 0.34 13.3 0 15 C-0.99 15 -1.98 15 -3 15 C-3.103125 14.360625 -3.20625 13.72125 -3.3125 13.0625 C-3.539375 12.381875 -3.76625 11.70125 -4 11 C-4.99 10.67 -5.98 10.34 -7 10 C-6.4946875 9.52949219 -5.989375 9.05898438 -5.46875 8.57421875 C-4.49421875 7.64029297 -4.49421875 7.64029297 -3.5 6.6875 C-2.8503125 6.07261719 -2.200625 5.45773437 -1.53125 4.82421875 C0.3214614 3.01398471 0.3214614 3.01398471 0 0 Z " fill="#0764A1" transform="translate(103,254)"/>
<path d="M0 0 C0.33 0.99 0.66 1.98 1 3 C-0.61886415 4.67262717 -2.2452729 6.33795537 -3.875 8 C-5.23238281 9.3921875 -5.23238281 9.3921875 -6.6171875 10.8125 C-9 13 -9 13 -11 13 C-11.34274406 14.66475686 -11.67364302 16.33195323 -12 18 C-12.226875 19.010625 -12.45375 20.02125 -12.6875 21.0625 C-13.03529198 24.33174461 -12.52879601 25.21219551 -11 28 C-10.875 30.75 -10.875 30.75 -11 33 C-14.42388474 29.72497981 -15.21720984 27.68375156 -15.4375 22.9375 C-15.35324813 16.48380709 -13.25986744 12.73318604 -9 8 C-6.10969312 5.18958778 -3.12367108 2.5475273 0 0 Z " fill="#11578B" transform="translate(47,308)"/>
<path d="M0 0 C2.5 0.3125 2.5 0.3125 5 1 C5.33 1.66 5.66 2.32 6 3 C5.67 3.66 5.34 4.32 5 5 C6.83284443 6.12516085 6.83284443 6.12516085 9 7 C9.99 6.67 10.98 6.34 12 6 C11.67 7.32 11.34 8.64 11 10 C10.34 10 9.68 10 9 10 C8.67 11.32 8.34 12.64 8 14 C7.34 14 6.68 14 6 14 C6 12.35 6 10.7 6 9 C4.02 9 2.04 9 0 9 C-0.87890625 2.84765625 -0.87890625 2.84765625 -1 1 C-0.67 0.67 -0.34 0.34 0 0 Z " fill="#047ACE" transform="translate(308,432)"/>
<path d="M0 0 C5.66340319 4.69941967 10.84191625 9.75514475 16 15 C17.01964976 16.02201554 18.0402197 17.04311568 19.0625 18.0625 C19.701875 18.701875 20.34125 19.34125 21 20 C19.35 19.67 17.7 19.34 16 19 C16 18.34 16 17.68 16 17 C11.87831311 15.37049588 9.29299643 14.73735399 5 16 C5 15.34 5 14.68 5 14 C5.66 13.67 6.32 13.34 7 13 C5.63016497 9.83884224 5.0109362 9.0072908 2 7 C2 6.34 2 5.68 2 5 C1.34 4.67 0.68 4.34 0 4 C0 2.68 0 1.36 0 0 Z " fill="#02040D" transform="translate(35,192)"/>
<path d="M0 0 C1.32 0.33 2.64 0.66 4 1 C-16.34490741 18 -16.34490741 18 -20 18 C-19.4375 15.625 -19.4375 15.625 -18 13 C-14.375 11.6875 -14.375 11.6875 -11 11 C-10.67 9.68 -10.34 8.36 -10 7 C-8.35 6.67 -6.7 6.34 -5 6 C-4.67 5.01 -4.34 4.02 -4 3 C-3.01 3 -2.02 3 -1 3 C-0.67 2.01 -0.34 1.02 0 0 Z " fill="#15598C" transform="translate(292,208)"/>
<path d="M0 0 C1.32 0 2.64 0 4 0 C4.33 0.66 4.66 1.32 5 2 C6.65 1.67 8.3 1.34 10 1 C10 4.3 10 7.6 10 11 C4.31719533 9.51752922 4.31719533 9.51752922 2.8125 7.0625 C2.544375 6.381875 2.27625 5.70125 2 5 C0.4587688 3.29078411 0.4587688 3.29078411 -1 2 C-0.67 1.34 -0.34 0.68 0 0 Z " fill="#067AC9" transform="translate(294,423)"/>
<path d="M0 0 C0.66 0.66 1.32 1.32 2 2 C3.9931567 2.02375926 3.9931567 2.02375926 6.125 1.625 C7.40375 1.41875 8.6825 1.2125 10 1 C9.33333333 3.66666667 8.66666667 6.33333333 8 9 C8.66 9 9.32 9 10 9 C10.33 8.01 10.66 7.02 11 6 C11 7.65 11 9.3 11 11 C10.01 11.33 9.02 11.66 8 12 C7.34 11.67 6.68 11.34 6 11 C6 10.34 6 9.68 6 9 C5.34 9 4.68 9 4 9 C2.4921875 7.46875 2.4921875 7.46875 0.875 5.5 C0.33617187 4.8503125 -0.20265625 4.200625 -0.7578125 3.53125 C-1.16773438 3.0259375 -1.57765625 2.520625 -2 2 C-1.34 1.34 -0.68 0.68 0 0 Z " fill="#0579D0" transform="translate(198,335)"/>
<path d="M0 0 C1.32 0.33 2.64 0.66 4 1 C2.06613122 2.48413185 0.12821927 3.96237428 -1.8125 5.4375 C-2.35970703 5.85837891 -2.90691406 6.27925781 -3.47070312 6.71289062 C-7.94421918 10.10191794 -10.87730826 11.14008872 -16.4375 11.125 C-17.85869141 11.12886719 -17.85869141 11.12886719 -19.30859375 11.1328125 C-21.70140459 11.01473475 -23.71336153 10.68112635 -26 10 C-26 9.34 -26 8.68 -26 8 C-24.60587891 8.06960938 -24.60587891 8.06960938 -23.18359375 8.140625 C-15.74035606 8.35794581 -11.08100739 8.36246183 -5 4 C-3.824375 3.7215625 -3.824375 3.7215625 -2.625 3.4375 C-2.08875 3.293125 -1.5525 3.14875 -1 3 C-0.67 2.01 -0.34 1.02 0 0 Z " fill="#145B8E" transform="translate(92,360)"/>
<path d="M0 0 C1.98 0.66 3.96 1.32 6 2 C6 2.66 6 3.32 6 4 C6.7425 4.0825 7.485 4.165 8.25 4.25 C11.57324776 5.1563403 12.70565635 6.48362309 15 9 C15.7425 9.53625 16.485 10.0725 17.25 10.625 C17.8275 11.07875 18.405 11.5325 19 12 C19 12.66 19 13.32 19 14 C19.7425 14.0825 20.485 14.165 21.25 14.25 C24.51221354 15.1396946 25.80954878 16.48503749 28 19 C27.67 19.66 27.34 20.32 27 21 C20.39628756 16.2430885 13.8400511 11.42325663 7.3125 6.5625 C6.59320313 6.03043945 5.87390625 5.49837891 5.1328125 4.95019531 C3.40324225 3.65803572 1.69888314 2.33224839 0 1 C0 0.67 0 0.34 0 0 Z " fill="#01162F" transform="translate(274,286)"/>
<path d="M0 0 C0 3.93169105 -1.39419615 5.16427228 -4 8 C-4.66 8 -5.32 8 -6 8 C-6.33 8.99 -6.66 9.98 -7 11 C-7.99 11 -8.98 11 -10 11 C-10.33 11.99 -10.66 12.98 -11 14 C-11.66 14 -12.32 14 -13 14 C-13.33 14.99 -13.66 15.98 -14 17 C-14.66 17 -15.32 17 -16 17 C-16 17.66 -16 18.32 -16 19 C-18.375 20.6875 -18.375 20.6875 -21 22 C-21.66 21.67 -22.32 21.34 -23 21 C-10.04647676 7.68215892 -10.04647676 7.68215892 -5 6 C-4.67 5.01 -4.34 4.02 -4 3 C-1.9375 1.3125 -1.9375 1.3125 0 0 Z " fill="#105687" transform="translate(203,166)"/>
<path d="M0 0 C0 0.99 0 1.98 0 3 C-1.4609375 4.359375 -1.4609375 4.359375 -3.375 5.75 C-7.23517612 8.85373756 -8.13307457 11.18374761 -9 16 C-11.97 15.505 -11.97 15.505 -15 15 C-15.2475 15.5775 -15.495 16.155 -15.75 16.75 C-17.16683317 19.3002997 -18.87627537 21.01785701 -21 23 C-21 19 -21 19 -19.0625 16.75 C-18.05314614 15.8207082 -17.03030932 14.90600286 -16 14 C-14.96552734 13.06607422 -14.96552734 13.06607422 -13.91015625 12.11328125 C-9.33302977 8.00560364 -4.68333251 3.9858149 0 0 Z " fill="#1267A7" transform="translate(57,150)"/>
<path d="M0 0 C1.57043101 0.01330874 3.14079971 0.03717648 4.7109375 0.0703125 C5.51273438 0.07933594 6.31453125 0.08835938 7.140625 0.09765625 C9.12252273 0.12125027 11.10426731 0.15712185 13.0859375 0.1953125 C13.4159375 1.5153125 13.7459375 2.8353125 14.0859375 4.1953125 C14.6428125 4.2571875 15.1996875 4.3190625 15.7734375 4.3828125 C20.10304074 5.90402445 22.60906018 9.47999652 25.0859375 13.1953125 C21.02522054 11.80535383 18.23319255 9.88971239 14.9609375 7.1328125 C9.91661183 2.89343242 6.98526901 2.06759635 0.3984375 2.1328125 C-0.78105469 2.14183594 -1.96054688 2.15085938 -3.17578125 2.16015625 C-4.53123047 2.17755859 -4.53123047 2.17755859 -5.9140625 2.1953125 C-3.9140625 0.1953125 -3.9140625 0.1953125 0 0 Z " fill="#042443" transform="translate(73.9140625,139.8046875)"/>
<path d="M0 0 C0.66 0.33 1.32 0.66 2 1 C0.68 3.31 -0.64 5.62 -2 8 C-3.32 8 -4.64 8 -6 8 C-6.66 9.65 -7.32 11.3 -8 13 C-8.66 13 -9.32 13 -10 13 C-10 13.66 -10 14.32 -10 15 C-11.96466413 16.06775224 -13.96855359 17.06553465 -16 18 C-16.66 17.67 -17.32 17.34 -18 17 C-12.19539034 11.08833812 -6.33480354 5.34388455 0 0 Z " fill="#105787" transform="translate(94,265)"/>
<path d="M0 0 C0 0.66 0 1.32 0 2 C-3.46153846 5 -3.46153846 5 -6 5 C-5.67 6.32 -5.34 7.64 -5 9 C-10.625 12 -10.625 12 -14 12 C-14 12.99 -14 13.98 -14 15 C-18.22857143 19 -18.22857143 19 -22 19 C-22 18.34 -22 17.68 -22 17 C-20.20703125 15.44921875 -20.20703125 15.44921875 -17.8125 13.6875 C-14.25106902 10.99973256 -11.11641937 8.20064692 -8 5 C-2.49035813 0 -2.49035813 0 0 0 Z " fill="#136096" transform="translate(348,36)"/>
<path d="M0 0 C4.34395569 0.39490506 7.51461189 1.33470321 11 4 C11 4.99 11 5.98 11 7 C7.37 7 3.74 7 0 7 C-0.38133299 5.0085944 -0.71325582 3.00720923 -1 1 C-0.67 0.67 -0.34 0.34 0 0 Z " fill="#0266AA" transform="translate(352,37)"/>
<path d="M0 0 C0.33 0 0.66 0 1 0 C1.68251775 6.82517746 -1.24848763 11.40098164 -4.9375 16.875 C-7.2350999 19.24222414 -8.80845621 20.20211405 -12 21 C-14.3125 20.625 -14.3125 20.625 -16 20 C-14.96875 19.525625 -13.9375 19.05125 -12.875 18.5625 C-6.0307651 14.65546712 -2.72103131 7.10491509 0 0 Z " fill="#02122B" transform="translate(480,411)"/>
<path d="M0 0 C0.66 0.33 1.32 0.66 2 1 C1.44014404 1.40839111 0.88028809 1.81678223 0.3034668 2.23754883 C-2.23717287 4.09316691 -4.7748584 5.95278431 -7.3125 7.8125 C-8.19357422 8.45509766 -9.07464844 9.09769531 -9.98242188 9.75976562 C-10.82998047 10.38173828 -11.67753906 11.00371094 -12.55078125 11.64453125 C-13.33106689 12.21534424 -14.11135254 12.78615723 -14.9152832 13.37426758 C-17.0062904 14.92698126 -17.0062904 14.92698126 -18.65307617 16.7097168 C-20 18 -20 18 -22 18 C-21.67 16.68 -21.34 15.36 -21 14 C-19.68 13.67 -18.36 13.34 -17 13 C-17 12.34 -17 11.68 -17 11 C-14 9 -14 9 -11 9 C-10.7834375 8.0409375 -10.7834375 8.0409375 -10.5625 7.0625 C-10 5 -10 5 -9 4 C-7.33382885 3.95936168 -5.66611905 3.957279 -4 4 C-3.67 3.01 -3.34 2.02 -3 1 C-2.01 0.67 -1.02 0.34 0 0 Z " fill="#14588D" transform="translate(118,342)"/>
<path d="M0 0 C1.32 0 2.64 0 4 0 C3.25 2.4375 3.25 2.4375 2 5 C-0.125 5.8125 -0.125 5.8125 -2 6 C-1.34 7.65 -0.68 9.3 0 11 C1.98 11 3.96 11 6 11 C6.33 13.31 6.66 15.62 7 18 C-4.44444444 9.66666667 -4.44444444 9.66666667 -6 5 C-5.195625 4.731875 -4.39125 4.46375 -3.5625 4.1875 C-2.716875 3.795625 -1.87125 3.40375 -1 3 C-0.67 2.01 -0.34 1.02 0 0 Z " fill="#096095" transform="translate(42,336)"/>
<path d="M0 0 C0.99 0.33 1.98 0.66 3 1 C5.3406065 0.72230092 7.67624308 0.39460023 10 0 C2.38662791 7.89534884 2.38662791 7.89534884 -2.3125 8.25 C-3.199375 8.1675 -4.08625 8.085 -5 8 C-5.33 7.01 -5.66 6.02 -6 5 C-2.25 2 -2.25 2 0 2 C0 1.34 0 0.68 0 0 Z M1 2 C2 4 2 4 2 4 Z " fill="#0266AD" transform="translate(329,176)"/>
<path d="M0 0 C2.69082872 0.17635452 5.32851446 0.61835921 8 1 C7.67 1.66 7.34 2.32 7 3 C6.34 3 5.68 3 5 3 C5 3.66 5 4.32 5 5 C3.28480923 6.4239869 1.5012088 7.7663216 -0.3125 9.0625 C-1.79169922 10.13177734 -1.79169922 10.13177734 -3.30078125 11.22265625 C-6 13 -6 13 -9 14 C-8.34 12.68 -7.68 11.36 -7 10 C-6.01 10 -5.02 10 -4 10 C-4 9.01 -4 8.02 -4 7 C-3.34 6.67 -2.68 6.34 -2 6 C-1.62690101 4.34178227 -1.29299023 2.67422986 -1 1 C-0.67 0.67 -0.34 0.34 0 0 Z " fill="#0B609B" transform="translate(147,314)"/>
<path d="M0 0 C0.33 0.99 0.66 1.98 1 3 C-0.6875 5.6875 -0.6875 5.6875 -3 8 C-4.32 8 -5.64 8 -7 8 C-7.0825 8.556875 -7.165 9.11375 -7.25 9.6875 C-8.22610013 12.69714206 -9.95188814 14.62154752 -12 17 C-13.98 16.34 -15.96 15.68 -18 15 C-17.67 14.34 -17.34 13.68 -17 13 C-16.40058594 12.87238281 -15.80117187 12.74476563 -15.18359375 12.61328125 C-12.29480665 11.80194033 -11.10170829 10.36400152 -9.0625 8.1875 C-6.19344644 5.20046667 -3.3224218 2.49181635 0 0 Z " fill="#0F598C" transform="translate(179,188)"/>
<path d="M0 0 C0.33 0.66 0.66 1.32 1 2 C-0.62339805 3.70884005 -2.29319053 5.37446717 -4 7 C-4.66 7 -5.32 7 -6 7 C-6 7.66 -6 8.32 -6 9 C-7.32267727 10.01405257 -8.65724831 11.01268258 -10 12 C-10.99 13.485 -10.99 13.485 -12 15 C-15.625 15.1875 -15.625 15.1875 -19 15 C-15.22180665 10.99063612 -11.20415407 7.82729557 -6.6875 4.6875 C-6.04232422 4.23310547 -5.39714844 3.77871094 -4.73242188 3.31054688 C-3.15802858 2.20264048 -1.57944354 1.10069475 0 0 Z " fill="#020918" transform="translate(363,158)"/>
<path d="M0 0 C1.32 0 2.64 0 4 0 C4.33 0.99 4.66 1.98 5 3 C5.99 3.33 6.98 3.66 8 4 C6.07538221 8.55830529 4.57055603 10.94324978 0 13 C-0.99 13 -1.98 13 -3 13 C-2.67 11.68 -2.34 10.36 -2 9 C-0.35 9 1.3 9 3 9 C3.33 7.68 3.66 6.36 4 5 C2.68 4.67 1.36 4.34 0 4 C0 2.68 0 1.36 0 0 Z " fill="#2994D4" transform="translate(466,418)"/>
<path d="M0 0 C0.33 1.32 0.66 2.64 1 4 C-0.0828125 4.556875 -0.0828125 4.556875 -1.1875 5.125 C-4.4926129 7.3284086 -6.50389534 9.92787119 -9 13 C-12.5 16 -12.5 16 -15 16 C-15 16.66 -15 17.32 -15 18 C-16.32 17.67 -17.64 17.34 -19 17 C-17.625 15.5 -17.625 15.5 -16 14 C-15.34 14 -14.68 14 -14 14 C-14 13.34 -14 12.68 -14 12 C-12.46729429 10.64864497 -10.87223227 9.36746113 -9.25 8.125 C-5.94152325 5.58076203 -2.89153346 3.01314001 0 0 Z " fill="#125687" transform="translate(67,290)"/>
<path d="M0 0 C-0.66 1.32 -1.32 2.64 -2 4 C-2.66 4 -3.32 4 -4 4 C-4.33 4.66 -4.66 5.32 -5 6 C-8.78706732 6 -12.26513121 5.5745952 -16 5 C-11.27123254 1.02783533 -6.18384947 -2.06128316 0 0 Z " fill="#070B19" transform="translate(420,456)"/>
<path d="M0 0 C-1 2 -2 4 -3 6 C-1.865625 6.268125 -0.73125 6.53625 0.4375 6.8125 C1.613125 7.204375 2.78875 7.59625 4 8 C4.33 8.99 4.66 9.98 5 11 C0.98696492 9.443154 -2.9092928 7.68861143 -6.8125 5.875 C-7.97394531 5.33617187 -9.13539063 4.79734375 -10.33203125 4.2421875 C-11.21246094 3.83226562 -12.09289062 3.42234375 -13 3 C-12.3915625 2.85691406 -11.783125 2.71382812 -11.15625 2.56640625 C-8.90408398 2.03031195 -8.90408398 2.03031195 -6.5 0.9375 C-4 0 -4 0 0 0 Z " fill="#040C1A" transform="translate(419,50)"/>
<path d="M0 0 C0.66 0.99 1.32 1.98 2 3 C2.66 3.33 3.32 3.66 4 4 C-1.75 9 -1.75 9 -4 9 C-4.33 9.99 -4.66 10.98 -5 12 C-7.5625 13.6875 -7.5625 13.6875 -10 15 C-9.58052718 10.1061504 -7.51423954 8.26906003 -4 5 C-2.64444707 3.35135455 -1.30368347 1.68996005 0 0 Z " fill="#040C19" transform="translate(340,35)"/>
<path d="M0 0 C0.66 0.33 1.32 0.66 2 1 C1.67 2.65 1.34 4.3 1 6 C-0.65 6.33 -2.3 6.66 -4 7 C-4.33 8.65 -4.66 10.3 -5 12 C-6.36125 11.690625 -6.36125 11.690625 -7.75 11.375 C-11.11027897 10.9872755 -12.24075815 11.19588033 -15 13 C-12.78071806 10.09197539 -11.07030857 8.04687238 -8 6 C-7.01 6 -6.02 6 -5 6 C-4.67 5.01 -4.34 4.02 -4 3 C-1.9375 1.3125 -1.9375 1.3125 0 0 Z " fill="#020C1C" transform="translate(325,186)"/>
<path d="M0 0 C2.73147807 1.30687097 4.07559226 3.44792315 5.8125 5.8671875 C3.8325 5.8671875 1.8525 5.8671875 -0.1875 5.8671875 C0.8125 3.8671875 0.8125 3.8671875 1.8125 2.8671875 C-1.12841587 3.05134182 -1.12841587 3.05134182 -4.1875 3.8671875 C-4.5175 4.5271875 -4.8475 5.1871875 -5.1875 5.8671875 C-5.5175 6.5271875 -5.8475 7.1871875 -6.1875 7.8671875 C-9.3125 8.6171875 -9.3125 8.6171875 -12.1875 8.8671875 C-12.1875 8.2071875 -12.1875 7.5471875 -12.1875 6.8671875 C-10.140625 5.10546875 -10.140625 5.10546875 -7.4375 3.1796875 C-6.55578125 2.53644531 -5.6740625 1.89320313 -4.765625 1.23046875 C-2.1875 -0.1328125 -2.1875 -0.1328125 0 0 Z " fill="#021831" transform="translate(164.1875,310.1328125)"/>
<path d="M0 0 C-0.185625 0.9075 -0.37125 1.815 -0.5625 2.75 C-0.96606477 5.74790974 -0.80239145 7.19162994 0 10 C-0.33 10.66 -0.66 11.32 -1 12 C-4.875 11.125 -4.875 11.125 -6 10 C-6.41386733 6.27519405 -6.48847952 4.61874073 -4.125 1.625 C-2 0 -2 0 0 0 Z " fill="#027AD2" transform="translate(176,304)"/>
<path d="M0 0 C0 3.29722859 -0.19002632 4.30003926 -2 7 C-4.18454001 8.69596679 -6.32158922 10.2390019 -8.625 11.75 C-9.54152344 12.36681641 -9.54152344 12.36681641 -10.4765625 12.99609375 C-11.97895328 14.00551256 -13.48876909 15.0038647 -15 16 C-15.66 15.67 -16.32 15.34 -17 15 C-16.01 14.67 -15.02 14.34 -14 14 C-13.72285156 13.41605469 -13.44570312 12.83210937 -13.16015625 12.23046875 C-11.52995348 9.09630788 -9.19700121 7.48916002 -6.4375 5.3125 C-5.44621094 4.52488281 -4.45492187 3.73726562 -3.43359375 2.92578125 C-2.22896484 1.97251953 -2.22896484 1.97251953 -1 1 C-0.67 0.67 -0.34 0.34 0 0 Z " fill="#125A8C" transform="translate(246,127)"/>
<path d="M0 0 C-1.01320313 0.90492187 -1.01320313 0.90492187 -2.046875 1.828125 C-3.38492187 3.02695313 -3.38492187 3.02695313 -4.75 4.25 C-5.63171875 5.03890625 -6.5134375 5.8278125 -7.421875 6.640625 C-9.06301208 8.14251408 -10.6631765 9.69139677 -12.203125 11.296875 C-14 13 -14 13 -16 13 C-16 12.01 -16 11.02 -16 10 C-15.34 10 -14.68 10 -14 10 C-14 9.34 -14 8.68 -14 8 C-13.34 8 -12.68 8 -12 8 C-11.91492188 7.39800781 -11.82984375 6.79601562 -11.7421875 6.17578125 C-10.78366191 3.36578782 -9.63559745 2.70949223 -7.125 1.1875 C-6.42632812 0.74792969 -5.72765625 0.30835937 -5.0078125 -0.14453125 C-3 -1 -3 -1 0 0 Z " fill="#011026" transform="translate(291,87)"/>
<path d="M0 0 C5.81266619 0.78549543 11.36877624 2.40682459 17 4 C16.67 4.99 16.34 5.98 16 7 C16.598125 7.144375 17.19625 7.28875 17.8125 7.4375 C19.56150404 7.8872439 21.28677023 8.42892341 23 9 C23 9.66 23 10.32 23 11 C17.43577218 9.61077098 12.64549027 7.50717977 7.5625 4.875 C6.83095703 4.50246094 6.09941406 4.12992188 5.34570312 3.74609375 C3.56098358 2.83623673 1.78008491 1.91889137 0 1 C0 0.67 0 0.34 0 0 Z " fill="#041A31" transform="translate(381,40)"/>
<path d="M0 0 C-0.30406442 3.24519666 -0.56280677 4.61900552 -3.06640625 6.80078125 C-3.89011719 7.29964844 -4.71382812 7.79851562 -5.5625 8.3125 C-6.38878906 8.82425781 -7.21507812 9.33601562 -8.06640625 9.86328125 C-8.70449219 10.23839844 -9.34257813 10.61351562 -10 11 C-10.66 10.67 -11.32 10.34 -12 10 C-11.06862408 8.70391053 -10.1296434 7.41328368 -9.1875 6.125 C-8.66542969 5.40570313 -8.14335938 4.68640625 -7.60546875 3.9453125 C-5.23474785 1.07276017 -3.765872 0 0 0 Z " fill="#057CD0" transform="translate(64,148)"/>
<path d="M0 0 C0 0.66 0 1.32 0 2 C-3.04575458 4.81146577 -6.10860204 5.72645158 -10 7 C-12.81950112 8.32995336 -15.62261659 9.68631497 -18.4140625 11.07421875 C-21.27122483 12.09710013 -22.19403642 11.85147766 -25 11 C-21.21135025 9.16038326 -17.41860225 7.32937928 -13.625 5.5 C-12.54476563 4.97535156 -11.46453125 4.45070313 -10.3515625 3.91015625 C-9.3203125 3.41386719 -8.2890625 2.91757812 -7.2265625 2.40625 C-6.27346191 1.94541016 -5.32036133 1.48457031 -4.33837891 1.00976562 C-2 0 -2 0 0 0 Z " fill="#021A34" transform="translate(400,463)"/>
<path d="M0 0 C0.66 0.33 1.32 0.66 2 1 C0.6875 3 0.6875 3 -1 5 C-1.99 5 -2.98 5 -4 5 C-4 6.32 -4 7.64 -4 9 C-3.01 9 -2.02 9 -1 9 C0.70993434 10.6222454 2.37347684 12.29413425 4 14 C5.31175986 15.02813611 6.6369893 16.04084432 8 17 C7.67 17.66 7.34 18.32 7 19 C4.82100086 17.43159952 2.65782756 15.84706156 0.5 14.25 C-0.12003906 13.8065625 -0.74007812 13.363125 -1.37890625 12.90625 C-3.15625 11.578125 -3.15625 11.578125 -6 9 C-6 5 -6 5 -4.6875 3.515625 C-3.125 2.34375 -1.5625 1.171875 0 0 Z " fill="#021D3A" transform="translate(242,249)"/>
<path d="M0 0 C5.26630019 3.40554079 10.2703193 6.87668862 15 11 C12.39417629 11.93065133 11.35801776 12.14917407 8.75 11.0625 C8.1725 10.711875 7.595 10.36125 7 10 C7 9.01 7 8.02 7 7 C5.35 6.67 3.7 6.34 2 6 C1.34 4.02 0.68 2.04 0 0 Z " fill="#1570B0" transform="translate(99,154)"/>
<path d="M0 0 C5.61 0 11.22 0 17 0 C15.68 1.65 14.36 3.3 13 5 C11.7625 4.5359375 11.7625 4.5359375 10.5 4.0625 C6.60873845 2.88122417 3.03833047 2.41775832 -1 2 C-0.67 1.34 -0.34 0.68 0 0 Z " fill="#2493E1" transform="translate(349,35)"/>
<path d="M0 0 C2.79811739 1.25696331 5.58717917 2.53288127 8.375 3.8125 C9.1690625 4.16892578 9.963125 4.52535156 10.78125 4.89257812 C11.92207031 5.41948242 11.92207031 5.41948242 13.0859375 5.95703125 C13.7876709 6.27647705 14.4894043 6.59592285 15.21240234 6.92504883 C17 8 17 8 19 11 C16.50907189 12.24546405 15.58919267 11.7767578 13 11 C12.67 9.68 12.34 8.36 12 7 C10.948125 6.8453125 10.948125 6.8453125 9.875 6.6875 C6.55790773 5.89428228 3.93461621 4.7340914 1 3 C0.67 2.01 0.34 1.02 0 0 Z " fill="#2E93D3" transform="translate(451,74)"/>
<path d="M0 0 C1.32 0.33 2.64 0.66 4 1 C3.55269531 1.37511719 3.10539062 1.75023437 2.64453125 2.13671875 C-0.25358585 4.58992235 -3.03032929 7.03103462 -5.6875 9.75 C-7.76304007 11.76944439 -9.34651371 12.91895003 -12 14 C-12 12.68 -12 11.36 -12 10 C-11.05125 9.938125 -10.1025 9.87625 -9.125 9.8125 C-8.09375 9.544375 -7.0625 9.27625 -6 9 C-4.54708727 6.53744315 -4.54708727 6.53744315 -4 4 C-3.01 4 -2.02 4 -1 4 C-0.67 2.68 -0.34 1.36 0 0 Z " fill="#011122" transform="translate(76,278)"/>
<path d="M0 0 C-3.09965403 1.5094588 -6.20541403 3.00590667 -9.3125 4.5 C-10.19357422 4.92925781 -11.07464844 5.35851562 -11.98242188 5.80078125 C-12.82998047 6.20683594 -13.67753906 6.61289062 -14.55078125 7.03125 C-15.33106689 7.40830078 -16.11135254 7.78535156 -16.9152832 8.17382812 C-19 9 -19 9 -22 9 C-22.33 7.68 -22.66 6.36 -23 5 C-22.0925 5.12375 -21.185 5.2475 -20.25 5.375 C-15.12422522 5.4483751 -11.11141012 2.67282652 -6.76953125 0.21484375 C-3.71458329 -1.12519689 -3.03296858 -0.95613696 0 0 Z " fill="#3189C4" transform="translate(432,448)"/>
<path d="M0 0 C0.33 0.66 0.66 1.32 1 2 C-0.2065625 3.0828125 -0.2065625 3.0828125 -1.4375 4.1875 C-4.02292072 7.02515689 -4.68042813 8.27166147 -5 12 C-6.32 11.67 -7.64 11.34 -9 11 C-8.49785005 6.60618791 -7.07786311 4.16580205 -4 1 C-1.75 0.1875 -1.75 0.1875 0 0 Z " fill="#047BD2" transform="translate(46,164)"/>
<path d="M0 0 C2.64 0 5.28 0 8 0 C8 0.66 8 1.32 8 2 C12.95 1.67 17.9 1.34 23 1 C18.12147569 4.25234954 12.79358119 4.65587712 7 4 C4.50919425 3.19166304 2.35335331 2.17667666 0 1 C0 0.67 0 0.34 0 0 Z " fill="#2F84C3" transform="translate(348,475)"/>
<path d="M0 0 C0.66 0 1.32 0 2 0 C0.54773858 3.82868919 -1.33318013 5.2538953 -5 7 C-6.32 7 -7.64 7 -9 7 C-9.5625 5.0625 -9.5625 5.0625 -10 3 C-9 2 -9 2 -6.93359375 1.90234375 C-5.69802734 1.91974609 -5.69802734 1.91974609 -4.4375 1.9375 C-3.61121094 1.94652344 -2.78492188 1.95554687 -1.93359375 1.96484375 C-1.29550781 1.97644531 -0.65742188 1.98804688 0 2 C0 1.34 0 0.68 0 0 Z " fill="#037CCF" transform="translate(362,468)"/>
<path d="M0 0 C-0.33 0.5775 -0.66 1.155 -1 1.75 C-2.27075898 4.19883862 -2.27075898 4.19883862 -2 8 C-0.08333079 10.25065102 -0.08333079 10.25065102 2 12 C0.02 11.34 -1.96 10.68 -4 10 C-4 9.34 -4 8.68 -4 8 C-4.66 8 -5.32 8 -6 8 C-6.33 6.35 -6.66 4.7 -7 3 C-3.375 0 -3.375 0 0 0 Z " fill="#12639B" transform="translate(239,250)"/>
<path d="M0 0 C2.6875 -0.3125 2.6875 -0.3125 6 0 C9.64584413 2.90010329 11.60551748 5.56301016 13 10 C9.74035658 8.51222697 7.06830707 6.64333184 4.25 4.4375 C3.45078125 3.81746094 2.6515625 3.19742187 1.828125 2.55859375 C1.22484375 2.04425781 0.6215625 1.52992188 0 1 C0 0.67 0 0.34 0 0 Z " fill="#02172E" transform="translate(335,332)"/>
<path d="M0 0 C3.53566354 1.61246413 6.54775323 3.71959647 9.6875 6 C10.66074219 6.70125 11.63398438 7.4025 12.63671875 8.125 C15 10 15 10 16 12 C15.236875 11.690625 14.47375 11.38125 13.6875 11.0625 C11.81210323 10.32106407 9.91315348 9.63771783 8 9 C8 8.34 8 7.68 8 7 C7.34 7 6.68 7 6 7 C6 6.34 6 5.68 6 5 C3.03 4.505 3.03 4.505 0 4 C0 2.68 0 1.36 0 0 Z " fill="#176BA4" transform="translate(275,288)"/>
<path d="M0 0 C0.99 0.33 1.98 0.66 3 1 C2.34 1.94875 1.68 2.8975 1 3.875 C-1.64050449 8.49120111 -1.59670288 12.80868493 -1 18 C-0.12899451 21.4614054 -0.12899451 21.4614054 1 24 C0.01 23.67 -0.98 23.34 -2 23 C-3.14330513 19.57008462 -3.20381651 16.8013584 -3.25 13.1875 C-3.27578125 11.98480469 -3.3015625 10.78210938 -3.328125 9.54296875 C-2.9731533 5.71011955 -1.92202587 3.30284973 0 0 Z " fill="#001227" transform="translate(34,168)"/>
<path d="M0 0 C4.39683488 1.19913678 7.09840934 2.4288115 10 6 C10 6.66 10 7.32 10 8 C10.99 8.33 11.98 8.66 13 9 C13.6875 11.0625 13.6875 11.0625 14 13 C12.34049923 11.57757077 10.68126579 10.15484775 9.0234375 8.73046875 C7.67961097 7.5812117 6.33066453 6.43791326 4.9765625 5.30078125 C4.34492188 4.76839844 3.71328125 4.23601562 3.0625 3.6875 C2.47597656 3.19636719 1.88945312 2.70523437 1.28515625 2.19921875 C0.86105469 1.80347656 0.43695313 1.40773438 0 1 C0 0.67 0 0.34 0 0 Z " fill="#1568A5" transform="translate(284,419)"/>
<path d="M0 0 C4.85967024 2.50346649 8.27856704 6.08552441 12 10 C11.01 10.495 11.01 10.495 10 11 C8 9.625 8 9.625 6 8 C6 7.34 6 6.68 6 6 C4.02 6.66 2.04 7.32 0 8 C0.185625 7.236875 0.37125 6.47375 0.5625 5.6875 C1.22819173 2.91032625 1.22819173 2.91032625 0 0 Z " fill="#010E22" transform="translate(208,351)"/>
<path d="M0 0 C0.66 0.33 1.32 0.66 2 1 C0.43416404 5.03721561 -2.44173865 7.47070582 -5.625 10.25 C-6.140625 10.70890625 -6.65625 11.1678125 -7.1875 11.640625 C-8.4534602 12.76592296 -9.72607942 13.88372177 -11 15 C-11.33 14.01 -11.66 13.02 -12 12 C-11.67 11.34 -11.34 10.68 -11 10 C-9.68 10 -8.36 10 -7 10 C-7 9.34 -7 8.68 -7 8 C-6.34 8 -5.68 8 -5 8 C-5 7.01 -5 6.02 -5 5 C-4.01 5 -3.02 5 -2 5 C-2 4.34 -2 3.68 -2 3 C-1.34 3 -0.68 3 0 3 C0 2.01 0 1.02 0 0 Z " fill="#00112A" transform="translate(102,254)"/>
<path d="M0 0 C3.56144099 -0.19785783 6.04454879 -0.11103658 9 2 C9.75 4.125 9.75 4.125 10 6 C8.375 6.8125 8.375 6.8125 6 7 C2.75 4.6875 2.75 4.6875 0 2 C0 1.34 0 0.68 0 0 Z " fill="#077BCE" transform="translate(90,240)"/>
<path d="M0 0 C4.52615993 3.67832017 8.39424999 7.41086363 12 12 C11.01 12 10.02 12 9 12 C9 11.34 9 10.68 9 10 C8.401875 9.87625 7.80375 9.7525 7.1875 9.625 C5 9 5 9 2 7 C2 6.34 2 5.68 2 5 C1.34 4.67 0.68 4.34 0 4 C0 2.68 0 1.36 0 0 Z " fill="#01182F" transform="translate(35,192)"/>
<path d="M0 0 C2 3 2 3 1.625 5.6875 C1.41875 6.450625 1.2125 7.21375 1 8 C-1.64 8 -4.28 8 -7 8 C-7.33 7.01 -7.66 6.02 -8 5 C-6.02 5 -4.04 5 -2 5 C-1.855625 4.360625 -1.71125 3.72125 -1.5625 3.0625 C-1 1 -1 1 0 0 Z " fill="#0364A5" transform="translate(207,168)"/>
<path d="M0 0 C0.33 0.99 0.66 1.98 1 3 C-9.14108911 13.43935644 -9.14108911 13.43935644 -14 14 C-13.67 13.34 -13.34 12.68 -13 12 C-12.34 12 -11.68 12 -11 12 C-10.67 11.01 -10.34 10.02 -10 9 C-8.22265625 7.24609375 -8.22265625 7.24609375 -6.0625 5.4375 C-3.96656037 3.66869432 -1.94005112 1.94005112 0 0 Z " fill="#11507F" transform="translate(323,56)"/>
<path d="M0 0 C5.25407822 0.54729982 10.32922528 1.40161857 15 4 C17 6.6875 17 6.6875 18 9 C13.64029169 7.65150163 9.68658562 5.95092154 5.625 3.875 C4.56539063 3.33617188 3.50578125 2.79734375 2.4140625 2.2421875 C1.61742187 1.83226562 0.82078125 1.42234375 0 1 C0 0.67 0 0.34 0 0 Z " fill="#04172D" transform="translate(425,61)"/>
<path d="M0 0 C0.66 0 1.32 0 2 0 C0.75821256 4.69119701 -1.74062708 6.72355929 -5.44140625 9.5703125 C-7.27692287 11.02185966 -7.27692287 11.02185966 -8 14 C-8.66 13.67 -9.32 13.34 -10 13 C-10 11.35 -10 9.7 -10 8 C-6.66666667 6.33333333 -3.33333333 4.66666667 0 3 C0 2.01 0 1.02 0 0 Z " fill="#0964A5" transform="translate(334,48)"/>
<path d="M0 0 C1.98 0 3.96 0 6 0 C2.70409309 2.70329311 -0.75613519 4.41900085 -4.625 6.1875 C-5.77226562 6.71730469 -6.91953125 7.24710937 -8.1015625 7.79296875 C-11 9 -11 9 -13 9 C-12.67 8.01 -12.34 7.02 -12 6 C-9.69342986 5.24592899 -7.354248 4.588562 -5 4 C-3.32367583 3.35800351 -1.65249487 2.70105843 0 2 C0 1.34 0 0.68 0 0 Z " fill="#3288C4" transform="translate(392,463)"/>
<path d="M0 0 C1.33897583 0.95043374 2.67105427 1.91059147 4 2.875 C5.11375 3.67550781 5.11375 3.67550781 6.25 4.4921875 C6.8275 4.98976563 7.405 5.48734375 8 6 C8 6.66 8 7.32 8 8 C8.99 8.33 9.98 8.66 11 9 C9.3125 9.75 9.3125 9.75 7 10 C4.25 8.25 4.25 8.25 2 6 C2 5.01 2 4.02 2 3 C1.34 3 0.68 3 0 3 C0 2.01 0 1.02 0 0 Z " fill="#011427" transform="translate(328,460)"/>
<path d="M0 0 C-0.33 0.66 -0.66 1.32 -1 2 C-1.99 2.33 -2.98 2.66 -4 3 C-4.99 4.485 -4.99 4.485 -6 6 C-6.99 6 -7.98 6 -9 6 C-9.33 4.35 -9.66 2.7 -10 1 C-6.21812119 -0.83691257 -4.05431692 -1.15837626 0 0 Z " fill="#047AD2" transform="translate(280,401)"/>
<path d="M0 0 C4.63720719 3.27530896 8.68542782 6.30435607 12 11 C9.08482708 9.92598892 7.22189824 9.22189824 5 7 C3.68 7 2.36 7 1 7 C1.33 6.01 1.66 5.02 2 4 C1.34 4 0.68 4 0 4 C0 2.68 0 1.36 0 0 Z " fill="#010F1B" transform="translate(192,336)"/>
<path d="M0 0 C-6.435 4.95 -6.435 4.95 -13 10 C-13.33 9.34 -13.66 8.68 -14 8 C-11.6875 5.5 -11.6875 5.5 -9 3 C-8.01 3 -7.02 3 -6 3 C-6 2.01 -6 1.02 -6 0 C-4 -1 -4 -1 0 0 Z " fill="#135C8E" transform="translate(134,332)"/>
<path d="M0 0 C0.37125 0.433125 0.7425 0.86625 1.125 1.3125 C3.02048243 3.19657815 3.02048243 3.19657815 6 4.3125 C9.63032106 6.3545556 10.47927933 8.19819833 12 12 C8.7173068 10.50923566 6.06922559 8.61379679 3.25 6.375 C2.45078125 5.74335938 1.6515625 5.11171875 0.828125 4.4609375 C0.22484375 3.97882813 -0.3784375 3.49671875 -1 3 C-0.67 2.01 -0.34 1.02 0 0 Z " fill="#011430" transform="translate(100,151)"/>
<path d="M0 0 C4.01303508 1.556846 7.9092928 3.31138857 11.8125 5.125 C12.97394531 5.66382813 14.13539063 6.20265625 15.33203125 6.7578125 C16.21246094 7.16773438 17.09289062 7.57765625 18 8 C14.01031666 9.32989445 12.3274453 8.29459089 8.4375 6.8125 C7.28121094 6.38582031 6.12492187 5.95914063 4.93359375 5.51953125 C1.88427758 3.94005856 1.04746853 3.19717518 0 0 Z " fill="#3090CD" transform="translate(392,46)"/>
<path d="M0 0 C0.99 0.33 1.98 0.66 3 1 C4 4 4 4 3 7 C-2.22222222 10 -2.22222222 10 -5 10 C-5 9.34 -5 8.68 -5 8 C-4.195625 7.71125 -3.39125 7.4225 -2.5625 7.125 C0.1326468 6.26737432 0.1326468 6.26737432 1 4 C0.01 4 -0.98 4 -2 4 C-2 3.01 -2 2.02 -2 1 C-1.34 0.67 -0.68 0.34 0 0 Z " fill="#2B93DC" transform="translate(376,466)"/>
<path d="M0 0 C5.26577087 3.30641427 9.50265396 6.75398094 13 12 C10.75 11.875 10.75 11.875 8 11 C6.63823419 9.01924973 5.30406884 7.01920337 4 5 C1.87880872 4.04768403 1.87880872 4.04768403 0 4 C0 2.68 0 1.36 0 0 Z " fill="#001329" transform="translate(306,440)"/>
<path d="M0 0 C1.65 0 3.3 0 5 0 C3.33333333 1.66666667 1.66666667 3.33333333 0 5 C-0.721875 5.763125 -1.44375 6.52625 -2.1875 7.3125 C-4 9 -4 9 -6 9 C-6 9.66 -6 10.32 -6 11 C-6.66 11 -7.32 11 -8 11 C-8 10.01 -8 9.02 -8 8 C-7.01 8 -6.02 8 -5 8 C-5 7.34 -5 6.68 -5 6 C-4.34 6 -3.68 6 -3 6 C-3 5.34 -3 4.68 -3 4 C-2.34 4 -1.68 4 -1 4 C-0.67 2.68 -0.34 1.36 0 0 Z " fill="#011127" transform="translate(59,293)"/>
<path d="M0 0 C0.99 0.33 1.98 0.66 3 1 C-1.61534219 5.06478107 -6.25585812 9.08608295 -11 13 C-11.33 12.01 -11.66 11.02 -12 10 C-11.34 10 -10.68 10 -10 10 C-10 9.34 -10 8.68 -10 8 C-8.68 7.67 -7.36 7.34 -6 7 C-5.67 5.68 -5.34 4.36 -5 3 C-4.01 3 -3.02 3 -2 3 C-2 2.34 -2 1.68 -2 1 C-1.34 0.67 -0.68 0.34 0 0 Z " fill="#010D1F" transform="translate(208,159)"/>
<path d="M0 0 C2.6875 -0.1875 2.6875 -0.1875 6 1 C9.22914316 5.99807946 11.37248954 10.99634512 11 17 C10.73058594 16.44441406 10.46117187 15.88882813 10.18359375 15.31640625 C8.89671812 12.79786747 7.50464923 10.37043877 6.0625 7.9375 C5.55847656 7.08027344 5.05445313 6.22304687 4.53515625 5.33984375 C3.17122265 3.26097295 1.8301591 1.66626426 0 0 Z " fill="#011432" transform="translate(469,83)"/>
<path d="M0 0 C6.09518311 3.34637504 11.14691629 6.96717245 16 12 C14.35 11.67 12.7 11.34 11 11 C11 10.34 11 9.68 11 9 C10.21625 8.690625 9.4325 8.38125 8.625 8.0625 C6 7 6 7 4 6 C4 5.34 4 4.68 4 4 C3.34 4 2.68 4 2 4 C2 3.34 2 2.68 2 2 C1.34 2 0.68 2 0 2 C0 1.34 0 0.68 0 0 Z " fill="#186CA9" transform="translate(295,303)"/>
<path d="M0 0 C2.31 0.33 4.62 0.66 7 1 C8 5.75 8 5.75 8 8 C6 7 4 6 2 5 C2 4.01 2 3.02 2 2 C1.34 2 0.68 2 0 2 C0 1.34 0 0.68 0 0 Z " fill="#040C19" transform="translate(248,264)"/>
<path d="M0 0 C-3.13334885 2.53078176 -6.24530187 4.51376532 -10 6 C-12.375 5.1875 -12.375 5.1875 -14 4 C-9.02495953 0.75099398 -6.11774896 -0.49940808 0 0 Z " fill="#2A93D7" transform="translate(410,457)"/>
<path d="M0 0 C2.97 0.495 2.97 0.495 6 1 C6 2.32 6 3.64 6 5 C7.98 5.66 9.96 6.32 12 7 C11.67 8.32 11.34 9.64 11 11 C9.16365304 9.35742342 7.3308593 7.71117305 5.5 6.0625 C4.97535156 5.59392578 4.45070313 5.12535156 3.91015625 4.64257812 C2.5878256 3.44904592 1.29166061 2.22665821 0 1 C0 0.67 0 0.34 0 0 Z " fill="#1466A5" transform="translate(318,450)"/>
<path d="M0 0 C5.09210286 3.56320845 9.22660027 7.04741286 13 12 C11.35 11.67 9.7 11.34 8 11 C8 10.01 8 9.02 8 8 C7.236875 7.7525 6.47375 7.505 5.6875 7.25 C2.73919055 5.87869328 1.64165468 4.7648921 0 2 C0 1.34 0 0.68 0 0 Z " fill="#00122B" transform="translate(89,242)"/>
<path d="M0 0 C3 2 3 2 3.51171875 3.9453125 C3.67447917 5.96354167 3.83723958 7.98177083 4 10 C2.68 10.33 1.36 10.66 0 11 C-0.19491452 9.54263913 -0.38069358 8.08405407 -0.5625 6.625 C-0.66691406 5.81289062 -0.77132813 5.00078125 -0.87890625 4.1640625 C-1 2 -1 2 0 0 Z " fill="#189DF9" transform="translate(472,92)"/>
<path d="M0 0 C4.39158329 1.4638611 4.87947433 3.97831338 7 8 C6.01 8.495 6.01 8.495 5 9 C4.731875 8.360625 4.46375 7.72125 4.1875 7.0625 C3.11332248 4.66868314 3.11332248 4.66868314 0 4 C0 2.68 0 1.36 0 0 Z M0 4 C0 5.65 0 7.3 0 9 C-0.99 8.67 -1.98 8.34 -3 8 C-3 7.01 -3 6.02 -3 5 C-1 4 -1 4 0 4 Z " fill="#308BCF" transform="translate(470,85)"/>
<path d="M0 0 C0.88751953 0.39832031 0.88751953 0.39832031 1.79296875 0.8046875 C5.8349177 2.61136615 9.8699437 4.40126853 14 6 C14 6.33 14 6.66 14 7 C10.73026158 6.55121237 7.48416647 6.09903405 4.25 5.4375 C1.89121566 4.90456517 1.89121566 4.90456517 -1 5 C-0.67 3.35 -0.34 1.7 0 0 Z " fill="#318DCD" transform="translate(378,39)"/>
<path d="M0 0 C0.33 0 0.66 0 1 0 C1 5.61 1 11.22 1 17 C-0.65 16.67 -2.3 16.34 -4 16 C-4.66 15.01 -5.32 14.02 -6 13 C-3.525 13.495 -3.525 13.495 -1 14 C-0.67 9.38 -0.34 4.76 0 0 Z " fill="#01132E" transform="translate(367,339)"/>
<path d="M0 0 C2.97 0.495 2.97 0.495 6 1 C6 2.32 6 3.64 6 5 C7.65 5.33 9.3 5.66 11 6 C11.33 7.65 11.66 9.3 12 11 C7.36279281 7.72469104 3.31457218 4.69564393 0 0 Z " fill="#1666A1" transform="translate(46,202)"/>
<path d="M0 0 C0.66 0.33 1.32 0.66 2 1 C1.67 1.99 1.34 2.98 1 4 C0.01 4 -0.98 4 -2 4 C-2 4.99 -2 5.98 -2 7 C-6.22857143 11 -6.22857143 11 -10 11 C-10 10.34 -10 9.68 -10 9 C-8.06640625 7.34375 -8.06640625 7.34375 -5.5625 5.5 C-2.25143208 3.20089737 -2.25143208 3.20089737 0 0 Z " fill="#13517F" transform="translate(336,44)"/>
<path d="M0 0 C2.4375 0.8125 2.4375 0.8125 5 2 C5.33 2.99 5.66 3.98 6 5 C7.32 5 8.64 5 10 5 C10.33 5.99 10.66 6.98 11 8 C11.66 8.33 12.32 8.66 13 9 C12.67 9.99 12.34 10.98 12 12 C9.99698881 10.19073245 7.99751914 8.377813 6 6.5625 C5.42765625 6.04623047 4.8553125 5.52996094 4.265625 4.99804688 C2.82480421 3.6858708 1.41014216 2.34509096 0 1 C0 0.67 0 0.34 0 0 Z " fill="#1968A6" transform="translate(271,407)"/>
<path d="M0 0 C-1.48985569 3.79235994 -3.58658047 5.80565887 -7 8 C-9.1640625 7.60546875 -9.1640625 7.60546875 -11 7 C-9.54634731 5.82750647 -8.08692581 4.66216184 -6.625 3.5 C-5.40683594 2.52546875 -5.40683594 2.52546875 -4.1640625 1.53125 C-2 0 -2 0 0 0 Z " fill="#001124" transform="translate(152,319)"/>
<path d="M0 0 C-1.45365269 1.17249353 -2.91307419 2.33783816 -4.375 3.5 C-5.18710937 4.1496875 -5.99921875 4.799375 -6.8359375 5.46875 C-9 7 -9 7 -11 7 C-9.79618552 4.50638429 -8.54571278 2.31856917 -7 0 C-3.86650268 -1.04449911 -3.01031744 -0.93423645 0 0 Z " fill="#12598A" transform="translate(339,177)"/>
<path d="M0 0 C5.41110091 1.31978071 9.26441506 3.93285427 13 8 C13 8.66 13 9.32 13 10 C12.34 10 11.68 10 11 10 C11 9.34 11 8.68 11 8 C10.29875 7.773125 9.5975 7.54625 8.875 7.3125 C5.28413464 5.6731919 2.92219514 3.65036303 0 1 C0 0.67 0 0.34 0 0 Z " fill="#021F44" transform="translate(261,276)"/>
<path d="M0 0 C0.66 0 1.32 0 2 0 C2 0.66 2 1.32 2 2 C2.78375 1.649375 3.5675 1.29875 4.375 0.9375 C5.24125 0.628125 6.1075 0.31875 7 0 C7.66 0.33 8.32 0.66 9 1 C9 1.66 9 2.32 9 3 C8.34 3 7.68 3 7 3 C7 3.66 7 4.32 7 5 C4.03 4.505 4.03 4.505 1 4 C0.67 2.68 0.34 1.36 0 0 Z " fill="#057ACC" transform="translate(45,198)"/>
<path d="M0 0 C0 3.6952982 -0.72136847 5.11373339 -3 8 C-6.1875 8.8125 -6.1875 8.8125 -9 9 C-8.06725891 7.87105124 -7.12859878 6.74699124 -6.1875 5.625 C-5.66542969 4.99851562 -5.14335937 4.37203125 -4.60546875 3.7265625 C-3 2 -3 2 0 0 Z " fill="#115688" transform="translate(301,77)"/>
<path d="M0 0 C2.475 0.495 2.475 0.495 5 1 C5 1.99 5 2.98 5 4 C5.804375 4.2475 6.60875 4.495 7.4375 4.75 C8.283125 5.1625 9.12875 5.575 10 6 C10.66015625 8.078125 10.66015625 8.078125 11 10 C9.72390677 9.09066991 8.45434447 8.17217147 7.1875 7.25 C6.47980469 6.73953125 5.77210938 6.2290625 5.04296875 5.703125 C2.97022309 3.97517642 1.52624146 2.21473524 0 0 Z " fill="#1767A2" transform="translate(239,378)"/>
<path d="M0 0 C1.32 0 2.64 0 4 0 C4.226875 0.598125 4.45375 1.19625 4.6875 1.8125 C6.33307014 4.5551169 8.27035797 5.41968093 11 7 C11 7.66 11 8.32 11 9 C11.66 9 12.32 9 13 9 C12.67 9.66 12.34 10.32 12 11 C10.37081993 9.73452987 8.74679358 8.46242272 7.125 7.1875 C6.22007813 6.47980469 5.31515625 5.77210938 4.3828125 5.04296875 C2 3 2 3 0 0 Z " fill="#125180" transform="translate(49,354)"/>
<path d="M0 0 C0 1.65 0 3.3 0 5 C-6.75 7.125 -6.75 7.125 -9 6 C-7.8803014 4.99406757 -6.7540588 3.9954151 -5.625 3 C-4.68527344 2.1646875 -4.68527344 2.1646875 -3.7265625 1.3125 C-2 0 -2 0 0 0 Z " fill="#030F21" transform="translate(128,337)"/>
<path d="M0 0 C3.24271506 0.5590888 4.93057424 1.4132178 7 4 C7 4.66 7 5.32 7 6 C5.125 6.625 5.125 6.625 3 7 C2.34 6.34 1.68 5.68 1 5 C1 4.34 1 3.68 1 3 C0.67 2.01 0.34 1.02 0 0 Z " fill="#0779CD" transform="translate(136,185)"/>
<path d="M0 0 C0.33 0.99 0.66 1.98 1 3 C-2.17320782 6.53586014 -4.16743695 8.58578031 -9 9 C-6.21000549 5.51250686 -3.74764169 2.49842779 0 0 Z " fill="#11578B" transform="translate(213,157)"/>
<path d="M0 0 C-3.16952847 3.26008643 -6.39937989 6.22237877 -10 9 C-8.17492291 2.68242545 -7.02653247 -0.56971885 0 0 Z " fill="#011122" transform="translate(64,144)"/>
<path d="M0 0 C-0.33 1.32 -0.66 2.64 -1 4 C0.32 4 1.64 4 3 4 C3.33 5.65 3.66 7.3 4 9 C2.68388323 8.04663979 1.37221039 7.08714226 0.0625 6.125 C-0.66839844 5.59132813 -1.39929688 5.05765625 -2.15234375 4.5078125 C-4 3 -4 3 -5 1 C-3 0 -3 0 0 0 Z " fill="#1267A2" transform="translate(224,359)"/>
<path d="M0 0 C1.98 0.66 3.96 1.32 6 2 C5.67 3.98 5.34 5.96 5 8 C2.5 6.8125 2.5 6.8125 0 5 C-0.3125 2.3125 -0.3125 2.3125 0 0 Z " fill="#047BCB" transform="translate(106,253)"/>
<path d="M0 0 C0.66 0 1.32 0 2 0 C3.4606285 2.64738916 4 3.89448334 4 7 C2.02 6.34 0.04 5.68 -2 5 C-2 4.01 -2 3.02 -2 2 C-1.34 2 -0.68 2 0 2 C0 1.34 0 0.68 0 0 Z " fill="#0876C6" transform="translate(60,209)"/>
<path d="M0 0 C0.33 0.66 0.66 1.32 1 2 C-3.08806189 5.84616474 -6.40717158 8.63589551 -12 10 C-8.29909479 6.0747975 -4.45040344 3.05419844 0 0 Z " fill="#001229" transform="translate(363,158)"/>
<path d="M0 0 C0.66 0.99 1.32 1.98 2 3 C-0.80804268 5.96404505 -3.18315774 8.44499019 -7 10 C-7.33 9.34 -7.66 8.68 -8 8 C-5.64722731 5.27573689 -3.37503669 4.1858237 0 3 C0 2.01 0 1.02 0 0 Z " fill="#010E1E" transform="translate(306,68)"/>
<path d="M0 0 C4.75 1.875 4.75 1.875 7 3 C7 3.66 7 4.32 7 5 C4.36 5 1.72 5 -1 5 C-0.67 3.35 -0.34 1.7 0 0 Z " fill="#067BC9" transform="translate(329,331)"/>
<path d="M0 0 C0.99 0.33 1.98 0.66 3 1 C0.03 3.64 -2.94 6.28 -6 9 C-6.33 8.01 -6.66 7.02 -7 6 C-5.6875 4.5 -5.6875 4.5 -4 3 C-3.01 3 -2.02 3 -1 3 C-0.67 2.01 -0.34 1.02 0 0 Z " fill="#000E20" transform="translate(45,307)"/>
<path d="M0 0 C2.125 0.375 2.125 0.375 4 1 C2.37615858 2.14747465 0.75088944 3.2929291 -0.875 4.4375 C-2.23238281 5.39462891 -2.23238281 5.39462891 -3.6171875 6.37109375 C-6 8 -6 8 -8 9 C-8 7.68 -8 6.36 -8 5 C-7.05125 4.54625 -6.1025 4.0925 -5.125 3.625 C-1.99686321 2.19761746 -1.99686321 2.19761746 0 0 Z " fill="#175787" transform="translate(268,227)"/>
<path d="M0 0 C0.99 0 1.98 0 3 0 C2.67 1.32 2.34 2.64 2 4 C3.32 4.33 4.64 4.66 6 5 C6.33 6.32 6.66 7.64 7 9 C6.01 9.495 6.01 9.495 5 10 C1.55783328 7.3401439 1.00495326 4.09711714 0 0 Z " fill="#087BCD" transform="translate(34,184)"/>
<path d="M0 0 C4.81033104 2.54664585 8.32442148 4.99027798 12 9 C10.02 8.34 8.04 7.68 6 7 C6 6.34 6 5.68 6 5 C5.071875 4.7834375 5.071875 4.7834375 4.125 4.5625 C2 4 2 4 0 3 C0 2.01 0 1.02 0 0 Z " fill="#166DAE" transform="translate(130,178)"/>
<path d="M0 0 C0 3 0 3 -2 6 C-2.66 6 -3.32 6 -4 6 C-4 6.66 -4 7.32 -4 8 C-5.65 8.33 -7.3 8.66 -9 9 C-8.06725891 7.87105124 -7.12859878 6.74699124 -6.1875 5.625 C-5.66542969 4.99851562 -5.14335937 4.37203125 -4.60546875 3.7265625 C-3 2 -3 2 0 0 Z " fill="#125C8B" transform="translate(265,110)"/>
<path d="M0 0 C1.9375 0.0625 1.9375 0.0625 4 1 C5.25 4.0625 5.25 4.0625 6 7 C2.63279613 5.60667426 1.0140476 4.0210714 -1 1 C-0.67 0.67 -0.34 0.34 0 0 Z " fill="#166EB0" transform="translate(258,393)"/>
<path d="M0 0 C2.475 0.99 2.475 0.99 5 2 C5 2.66 5 3.32 5 4 C5.639375 4.268125 6.27875 4.53625 6.9375 4.8125 C9 6 9 6 10 9 C10.66 9 11.32 9 12 9 C11.67 9.66 11.34 10.32 11 11 C9.72486237 9.92173635 8.45507431 8.83714481 7.1875 7.75 C6.47980469 7.14671875 5.77210938 6.5434375 5.04296875 5.921875 C3.08110329 4.07629602 1.54330375 2.20054668 0 0 Z " fill="#15639E" transform="translate(192,335)"/>
<path d="M0 0 C-1.45365269 1.17249353 -2.91307419 2.33783816 -4.375 3.5 C-5.18710938 4.1496875 -5.99921875 4.799375 -6.8359375 5.46875 C-9 7 -9 7 -11 7 C-10.34 5.68 -9.68 4.36 -9 3 C-8.01 3 -7.02 3 -6 3 C-6 2.01 -6 1.02 -6 0 C-3.50907189 -1.24546405 -2.58919267 -0.7767578 0 0 Z " fill="#12598C" transform="translate(149,321)"/>
<path d="M0 0 C0.6875 2.0625 0.6875 2.0625 1 4 C-1.31 3.67 -3.62 3.34 -6 3 C-6.33 2.01 -6.66 1.02 -7 0 C-3.98968256 -0.93423645 -3.13349732 -1.04449911 0 0 Z " fill="#037BCB" transform="translate(167,204)"/>
<path d="M0 0 C2.0625 0.4375 2.0625 0.4375 4 1 C2.68 2.65 1.36 4.3 0 6 C-1.98 5.34 -3.96 4.68 -6 4 C-5.67 3.34 -5.34 2.68 -5 2 C-3.67696283 1.6278958 -2.34262065 1.29369827 -1 1 C-0.67 0.67 -0.34 0.34 0 0 Z " fill="#0F6199" transform="translate(167,199)"/>
<path d="M0 0 C0.33 0 0.66 0 1 0 C1.1799928 5.21979128 0.97094808 9.07262981 -1 14 C-1.33 14 -1.66 14 -2 14 C-2.05437607 12.41705218 -2.09296271 10.83355744 -2.125 9.25 C-2.14820312 8.36828125 -2.17140625 7.4865625 -2.1953125 6.578125 C-1.99139502 3.8864142 -1.36551721 2.30095026 0 0 Z " fill="#1669A8" transform="translate(34,172)"/>
<path d="M0 0 C0.66 0 1.32 0 2 0 C2 6.27 2 12.54 2 19 C1.67 19 1.34 19 1 19 C1 13.72 1 8.44 1 3 C0.01 2.67 -0.98 2.34 -2 2 C-1.34 1.34 -0.68 0.68 0 0 Z " fill="#000D27" transform="translate(366,155)"/>
<path d="M0 0 C0.99 0.33 1.98 0.66 3 1 C0.42215154 3.64752004 -1.91648098 5.94432065 -5 8 C-4.66275164 4.88045262 -4.3790035 3.3790035 -2.125 1.125 C-1.42375 0.75375 -0.7225 0.3825 0 0 Z " fill="#001020" transform="translate(216,151)"/>
<path d="M0 0 C5.29500913 1.36157378 7.23745533 4.60343955 10 9 C4.98709528 7.56774151 3.01961382 5.05490999 0 1 C0 0.67 0 0.34 0 0 Z " fill="#02152F" transform="translate(89,144)"/>
<path d="M0 0 C3.13269705 3.13269705 3.05494397 5.97328423 3.0625 10.25 C3.041875 11.4875 3.02125 12.725 3 14 C2.690625 13.360625 2.38125 12.72125 2.0625 12.0625 C1.1654837 10.06389179 1.1654837 10.06389179 0 9 C-0.07179964 7.48071962 -0.08392007 5.95832518 -0.0625 4.4375 C-0.05347656 3.61121094 -0.04445313 2.78492187 -0.03515625 1.93359375 C-0.02355469 1.29550781 -0.01195312 0.65742187 0 0 Z " fill="#3488C7" transform="translate(477,94)"/>
<path d="M0 0 C1.98 0 3.96 0 6 0 C5.01 0.495 5.01 0.495 4 1 C3.9175 1.639375 3.835 2.27875 3.75 2.9375 C3.5025 3.618125 3.255 4.29875 3 5 C-0.0625 6.25 -0.0625 6.25 -3 7 C-2.34 6.01 -1.68 5.02 -1 4 C-0.01 4 0.98 4 2 4 C2 3.34 2 2.68 2 2 C1.34 2 0.68 2 0 2 C0 1.34 0 0.68 0 0 Z " fill="#2C93D9" transform="translate(438,438)"/>
<path d="M0 0 C0.99 0 1.98 0 3 0 C1.72278474 4.99275057 -0.17330957 7.57611908 -4 11 C-2.7874262 7.27566618 -1.49140021 3.62197194 0 0 Z " fill="#3789C5" transform="translate(476,414)"/>
<path d="M0 0 C4.2742558 1.5830577 6.26531794 4.50568404 9 8 C6.5625 7.625 6.5625 7.625 4 7 C3.67 6.34 3.34 5.68 3 5 C2.01 4.67 1.02 4.34 0 4 C0 2.68 0 1.36 0 0 Z " fill="#011837" transform="translate(227,368)"/>
<path d="M0 0 C7.48291572 6.15034169 7.48291572 6.15034169 10 10 C8.35 9.67 6.7 9.34 5 9 C5 8.01 5 7.02 5 6 C4.01 6 3.02 6 2 6 C1.34 4.02 0.68 2.04 0 0 Z " fill="#011931" transform="translate(70,224)"/>
<path d="M0 0 C0.99 0 1.98 0 3 0 C3 0.66 3 1.32 3 2 C1.25 3.7265625 1.25 3.7265625 -1 5.625 C-1.7425 6.25664062 -2.485 6.88828125 -3.25 7.5390625 C-3.8275 8.02117187 -4.405 8.50328125 -5 9 C-5.33 8.01 -5.66 7.02 -6 6 C-5.01 5.67 -4.02 5.34 -3 5 C-3 4.01 -3 3.02 -3 2 C-2.01 2 -1.02 2 0 2 C0 1.34 0 0.68 0 0 Z " fill="#001026" transform="translate(229,139)"/>
<path d="M0 0 C2.475 0.495 2.475 0.495 5 1 C5 1.66 5 2.32 5 3 C6.32 3.66 7.64 4.32 9 5 C8.67 5.99 8.34 6.98 8 8 C6 6.625 6 6.625 4 5 C4 4.34 4 3.68 4 3 C2.68 2.34 1.36 1.68 0 1 C0 0.67 0 0.34 0 0 Z " fill="#136BA7" transform="translate(204,346)"/>
<path d="M0 0 C2.64 0.33 5.28 0.66 8 1 C8.33 3.31 8.66 5.62 9 8 C7.68388323 7.04663979 6.37221039 6.08714226 5.0625 5.125 C4.33160156 4.59132813 3.60070313 4.05765625 2.84765625 3.5078125 C1 2 1 2 0 0 Z " fill="#0E5A8B" transform="translate(40,346)"/>
<path d="M0 0 C0.33 0.66 0.66 1.32 1 2 C-0.423125 2.8971875 -0.423125 2.8971875 -1.875 3.8125 C-5.13964197 5.81562526 -5.13964197 5.81562526 -7 9 C-8.32 8.67 -9.64 8.34 -11 8 C-9.5433323 6.85204994 -8.08461063 5.70670581 -6.625 4.5625 C-5.40683594 3.60537109 -5.40683594 3.60537109 -4.1640625 2.62890625 C-2 1 -2 1 0 0 Z " fill="#011936" transform="translate(140,327)"/>
<path d="M0 0 C0.33 0.66 0.66 1.32 1 2 C0.00390625 4.3828125 0.00390625 4.3828125 -1.4375 7.125 C-1.91058594 8.03507812 -2.38367187 8.94515625 -2.87109375 9.8828125 C-3.24363281 10.58148438 -3.61617187 11.28015625 -4 12 C-4.65234375 10.265625 -4.65234375 10.265625 -5 8 C-4.00390625 5.859375 -4.00390625 5.859375 -2.5625 3.75 C-2.08941406 3.04359375 -1.61632813 2.3371875 -1.12890625 1.609375 C-0.75636719 1.07828125 -0.38382813 0.5471875 0 0 Z " fill="#15507D" transform="translate(37,317)"/>
<path d="M0 0 C2.97 0.33 5.94 0.66 9 1 C8.67 2.65 8.34 4.3 8 6 C4.63408134 4.55746343 2.48952921 2.66735273 0 0 Z " fill="#01172E" transform="translate(311,314)"/>
<path d="M0 0 C0.66 0.33 1.32 0.66 2 1 C-0.10515339 4.72450216 -1.24267224 6.6795921 -5.25 8.375 C-6.61125 8.684375 -6.61125 8.684375 -8 9 C-7.34 8.01 -6.68 7.02 -6 6 C-5.34 6 -4.68 6 -4 6 C-3.34 4.68 -2.68 3.36 -2 2 C-1.34 2 -0.68 2 0 2 C0 1.34 0 0.68 0 0 Z " fill="#115180" transform="translate(222,148)"/>
<path d="M0 0 C0.33 0 0.66 0 1 0 C1 1.65 1 3.3 1 5 C0.01 5.495 0.01 5.495 -1 6 C-1.66 5.67 -2.32 5.34 -3 5 C-3 5.66 -3 6.32 -3 7 C-3.99 6.67 -4.98 6.34 -6 6 C-4 4 -2 2 0 0 Z " fill="#0C5685" transform="translate(308,70)"/>
<path d="M0 0 C-0.7109375 1.953125 -0.7109375 1.953125 -2 4 C-4.1640625 4.609375 -4.1640625 4.609375 -6.625 4.75 C-7.44226563 4.80671875 -8.25953125 4.8634375 -9.1015625 4.921875 C-9.72804688 4.94765625 -10.35453125 4.9734375 -11 5 C-7.72709962 2.33319229 -4.35126896 0 0 0 Z " fill="#031830" transform="translate(448,440)"/>
<path d="M0 0 C1.98 0 3.96 0 6 0 C6 1.65 6 3.3 6 5 C6.66 5 7.32 5 8 5 C7.67 5.66 7.34 6.32 7 7 C5.83040013 6.02433888 4.66438823 5.044375 3.5 4.0625 C2.8503125 3.51722656 2.200625 2.97195313 1.53125 2.41015625 C1.0259375 1.94480469 0.520625 1.47945313 0 1 C0 0.67 0 0.34 0 0 Z " fill="#1267AA" transform="translate(308,441)"/>
<path d="M0 0 C0.33 0 0.66 0 1 0 C1.02694851 1.95825873 1.04637218 3.91662226 1.0625 5.875 C1.07410156 6.96554687 1.08570313 8.05609375 1.09765625 9.1796875 C1 12 1 12 0 14 C-0.66 14 -1.32 14 -2 14 C-2 12.35 -2 10.7 -2 9 C-1.34 9 -0.68 9 0 9 C0 6.03 0 3.06 0 0 Z " fill="#318ECE" transform="translate(479,400)"/>
<path d="M0 0 C3.53372712 1.96318174 6.24479785 4.04070881 9 7 C4.25 6.125 4.25 6.125 2 5 C2 4.34 2 3.68 2 3 C1.34 3 0.68 3 0 3 C0 2.01 0 1.02 0 0 Z " fill="#196EAE" transform="translate(336,334)"/>
<path d="M0 0 C5.875 3.75 5.875 3.75 7 6 C4.69 5.67 2.38 5.34 0 5 C0 3.35 0 1.7 0 0 Z " fill="#010E1D" transform="translate(185,330)"/>
<path d="M0 0 C0.66 0.33 1.32 0.66 2 1 C0.3125 4 0.3125 4 -2 7 C-4.75 7.375 -4.75 7.375 -7 7 C-4.66666667 4.66666667 -2.33333333 2.33333333 0 0 Z " fill="#041529" transform="translate(264,232)"/>
<path d="M0 0 C0.66 0.33 1.32 0.66 2 1 C0.70700306 3.88437779 -0.65941363 5.87219421 -3 8 C-3.66 7.67 -4.32 7.34 -5 7 C-3.35 4.69 -1.7 2.38 0 0 Z " fill="#020D1E" transform="translate(110,349)"/>
<path d="M0 0 C2.97 0.495 2.97 0.495 6 1 C6 1.99 6 2.98 6 4 C6.99 4 7.98 4 9 4 C8.67 4.99 8.34 5.98 8 7 C6.66382648 6.02471263 5.3311249 5.04466681 4 4.0625 C3.2575 3.51722656 2.515 2.97195313 1.75 2.41015625 C1.1725 1.94480469 0.595 1.47945313 0 1 C0 0.67 0 0.34 0 0 Z " fill="#011732" transform="translate(302,307)"/>
<path d="M0 0 C0.99 0.33 1.98 0.66 3 1 C2.1875 3.4375 2.1875 3.4375 1 6 C0.01 6.33 -0.98 6.66 -2 7 C-1.125 2.25 -1.125 2.25 0 0 Z " fill="#037AD3" transform="translate(258,277)"/>
<path d="M0 0 C3.72114571 2.31537955 6.61229661 4.28579473 9 8 C7.35 7.67 5.7 7.34 4 7 C3.896875 6.360625 3.79375 5.72125 3.6875 5.0625 C3.460625 4.381875 3.23375 3.70125 3 3 C2.01 2.67 1.02 2.34 0 2 C0 1.34 0 0.68 0 0 Z " fill="#021A38" transform="translate(80,234)"/>
<path d="M0 0 C0.66 0.33 1.32 0.66 2 1 C2 1.99 2 2.98 2 4 C-3.625 6 -3.625 6 -7 6 C-4.69 4.02 -2.38 2.04 0 0 Z " fill="#021B34" transform="translate(317,192)"/>
<path d="M0 0 C3.43595166 1.52708963 6.11912454 3.59927045 9 6 C3.50847458 5.38983051 3.50847458 5.38983051 1.125 3.5625 C0 2 0 2 0 0 Z " fill="#186DAF" transform="translate(114,166)"/>
<path d="M0 0 C2.01920337 1.30406884 4.01924973 2.63823419 6 4 C6 4.33 6 4.66 6 5 C3.36 5.33 0.72 5.66 -2 6 C-2 4 -2 4 0 2 C0 1.34 0 0.68 0 0 Z " fill="#0E71BC" transform="translate(86,144)"/>
<path d="M0 0 C0.99 0.33 1.98 0.66 3 1 C1.12050295 4.57104439 -0.17053157 6.54744301 -4 8 C-3.67 6.35 -3.34 4.7 -3 3 C-2.34 3 -1.68 3 -1 3 C-0.67 2.01 -0.34 1.02 0 0 Z " fill="#0F619A" transform="translate(280,96)"/>
<path d="M0 0 C3.63 1.65 7.26 3.3 11 5 C7 6 7 6 3.8125 4.75 C1 3 1 3 0 0 Z " fill="#388CC9" transform="translate(451,74)"/>
<path d="M0 0 C-0.33 0.99 -0.66 1.98 -1 3 C-4.5625 4.6875 -4.5625 4.6875 -8 6 C-8.66 5.34 -9.32 4.68 -10 4 C-8.71086513 3.32845067 -7.41859796 2.66291141 -6.125 2 C-5.40570313 1.62875 -4.68640625 1.2575 -3.9453125 0.875 C-2 0 -2 0 0 0 Z " fill="#051830" transform="translate(464,432)"/>
<path d="M0 0 C1.65 0.33 3.3 0.66 5 1 C5 1.99 5 2.98 5 4 C3.02 4 1.04 4 -1 4 C-0.67 2.68 -0.34 1.36 0 0 Z " fill="#0266B9" transform="translate(149,311)"/>
<path d="M0 0 C0.33 0.66 0.66 1.32 1 2 C-0.28716647 3.00578589 -1.57988658 4.00446798 -2.875 5 C-3.95394531 5.8353125 -3.95394531 5.8353125 -5.0546875 6.6875 C-7 8 -7 8 -9 8 C-9 7.34 -9 6.68 -9 6 C-7.03125 4.4921875 -7.03125 4.4921875 -4.5 2.875 C-3.6646875 2.33617187 -2.829375 1.79734375 -1.96875 1.2421875 C-1.3190625 0.83226562 -0.669375 0.42234375 0 0 Z " fill="#021833" transform="translate(281,220)"/>
<path d="M0 0 C3.3 0.33 6.6 0.66 10 1 C10 1.66 10 2.32 10 3 C8.02 3.66 6.04 4.32 4 5 C4 4.01 4 3.02 4 2 C2.68 2 1.36 2 0 2 C0 1.34 0 0.68 0 0 Z " fill="#0764A2" transform="translate(262,224)"/>
<path d="M0 0 C-4.625 4.875 -4.625 4.875 -8 6 C-8 3 -8 3 -6.8125 1.3125 C-4.44258278 -0.40364695 -2.85974334 -0.23187108 0 0 Z " fill="#175784" transform="translate(360,160)"/>
<path d="M0 0 C2.64 0 5.28 0 8 0 C8 0.99 8 1.98 8 3 C5.6568787 2.74438677 3.32156597 2.40729228 1 2 C0.67 1.34 0.34 0.68 0 0 Z " fill="#2E92DB" transform="translate(348,475)"/>
<path d="M0 0 C0 0.66 0 1.32 0 2 C-2.95481492 4.74375671 -3.77471908 5 -8 5 C-8 4.34 -8 3.68 -8 3 C-2.25 0 -2.25 0 0 0 Z " fill="#00132C" transform="translate(400,463)"/>
<path d="M0 0 C2.31 0.33 4.62 0.66 7 1 C5.6875 2.5 5.6875 2.5 4 4 C3.01 4 2.02 4 1 4 C0.67 2.68 0.34 1.36 0 0 Z " fill="#308FD1" transform="translate(409,453)"/>
<path d="M0 0 C1.485 0.99 1.485 0.99 3 2 C3 3.32 3 4.64 3 6 C1.68 5.67 0.36 5.34 -1 5 C-0.67 3.35 -0.34 1.7 0 0 Z " fill="#0E76C1" transform="translate(317,444)"/>
<path d="M0 0 C1.32 0 2.64 0 4 0 C4 1.65 4 3.3 4 5 C2.68 4.67 1.36 4.34 0 4 C0 2.68 0 1.36 0 0 Z " fill="#2D96E6" transform="translate(466,418)"/>
<path d="M0 0 C3 0 3 0 4.6875 1.3125 C6 3 6 3 6 6 C5.01 6 4.02 6 3 6 C3 5.34 3 4.68 3 4 C2.34 4 1.68 4 1 4 C0.67 2.68 0.34 1.36 0 0 Z " fill="#067BD0" transform="translate(349,346)"/>
<path d="M0 0 C2.375 0.25 2.375 0.25 5 1 C6.7941758 3.56310828 7 4.83119306 7 8 C5.83035398 6.8572081 4.66435444 5.71068285 3.5 4.5625 C2.8503125 3.92441406 2.200625 3.28632813 1.53125 2.62890625 C0 1 0 1 0 0 Z " fill="#146AAA" transform="translate(176,320)"/>
<path d="M0 0 C0.66 0.33 1.32 0.66 2 1 C1.67 1.99 1.34 2.98 1 4 C-2.5625 5.1875 -2.5625 5.1875 -6 6 C-4 4 -2 2 0 0 Z " fill="#00172C" transform="translate(254,240)"/>
<path d="M0 0 C1.32 0 2.64 0 4 0 C4 1.32 4 2.64 4 4 C2.35 4 0.7 4 -1 4 C-0.67 2.68 -0.34 1.36 0 0 Z " fill="#0167B5" transform="translate(262,226)"/>
<path d="M0 0 C2.64 1.98 5.28 3.96 8 6 C7.01 6.495 7.01 6.495 6 7 C5.01 6.67 4.02 6.34 3 6 C3 5.34 3 4.68 3 4 C2.01 3.67 1.02 3.34 0 3 C0 2.01 0 1.02 0 0 Z " fill="#00132A" transform="translate(48,205)"/>
<path d="M0 0 C3.0004856 1.00016187 5.32521756 2.3372974 8 4 C5.13822943 5.43088528 3.06624227 4.59991697 0 4 C0 2.68 0 1.36 0 0 Z " fill="#050811" transform="translate(404,48)"/>
<path d="M0 0 C1.98 0.66 3.96 1.32 6 2 C5.67 3.32 5.34 4.64 5 6 C3.31237149 4.3545622 1.6459651 2.68711423 0 1 C0 0.67 0 0.34 0 0 Z " fill="#1263A2" transform="translate(302,435)"/>
<path d="M0 0 C1.32 0 2.64 0 4 0 C4.33 0.99 4.66 1.98 5 3 C3.35 3.33 1.7 3.66 0 4 C-0.33 3.01 -0.66 2.02 -1 1 C-0.67 0.67 -0.34 0.34 0 0 Z " fill="#017AD9" transform="translate(294,423)"/>
<path d="M0 0 C1.32 0 2.64 0 4 0 C3.67 1.65 3.34 3.3 3 5 C2.01 5 1.02 5 0 5 C0 3.35 0 1.7 0 0 Z " fill="#0565B8" transform="translate(36,336)"/>
<path d="M0 0 C2.8125 -0.25 2.8125 -0.25 6 0 C7.875 2 7.875 2 9 4 C7.02 4 5.04 4 3 4 C4 2 4 2 5 1 C3.35 1 1.7 1 0 1 C0 0.67 0 0.34 0 0 Z " fill="#021020" transform="translate(161,312)"/>
<path d="M0 0 C0.33 0.99 0.66 1.98 1 3 C-0.98 4.32 -2.96 5.64 -5 7 C-5.66 6.67 -6.32 6.34 -7 6 C-4.69 4.02 -2.38 2.04 0 0 Z " fill="#135686" transform="translate(75,283)"/>
<path d="M0 0 C0.99 0.33 1.98 0.66 3 1 C0.525 4.465 0.525 4.465 -2 8 C-2.33 7.01 -2.66 6.02 -3 5 C-1.5625 2.3125 -1.5625 2.3125 0 0 Z " fill="#031127" transform="translate(41,160)"/>
<path d="M0 0 C0.33 0.99 0.66 1.98 1 3 C-0.98 4.32 -2.96 5.64 -5 7 C-5.66 6.67 -6.32 6.34 -7 6 C-6.01 5.67 -5.02 5.34 -4 5 C-3.30062468 3.68352881 -2.63270867 2.34977849 -2 1 C-1.34 0.67 -0.68 0.34 0 0 Z " fill="#0F4F7C" transform="translate(236,136)"/>
<path d="M0 0 C2.31 1.65 4.62 3.3 7 5 C5.68 5.33 4.36 5.66 3 6 C1.25 4.75 1.25 4.75 0 3 C0 2.01 0 1.02 0 0 Z " fill="#00112B" transform="translate(249,388)"/>
<path d="M0 0 C1.32 0 2.64 0 4 0 C3.67 1.32 3.34 2.64 3 4 C1.68 4 0.36 4 -1 4 C-0.67 2.68 -0.34 1.36 0 0 Z " fill="#0268B6" transform="translate(85,360)"/>
<path d="M0 0 C-5.75 3.875 -5.75 3.875 -8 5 C-8 3.68 -8 2.36 -8 1 C-4.93251126 -0.86240388 -3.40254489 -1.2151946 0 0 Z " fill="#15578C" transform="translate(164,310)"/>
<path d="M0 0 C0.66 0 1.32 0 2 0 C2 1.98 2 3.96 2 6 C0.35 6.33 -1.3 6.66 -3 7 C-2.505 6.401875 -2.01 5.80375 -1.5 5.1875 C0.28276418 3.02970006 0.28276418 3.02970006 0 0 Z " fill="#11598F" transform="translate(103,254)"/>
<path d="M0 0 C1.65 0 3.3 0 5 0 C2.51047079 2.66735273 0.36591866 4.55746343 -3 6 C-3 5.01 -3 4.02 -3 3 C-2.01 3 -1.02 3 0 3 C0 2.01 0 1.02 0 0 Z " fill="#135989" transform="translate(255,236)"/>
<path d="M0 0 C0.99 0.33 1.98 0.66 3 1 C3.33 1.99 3.66 2.98 4 4 C2.02 4.99 2.02 4.99 0 6 C0 4.02 0 2.04 0 0 Z " fill="#047AD6" transform="translate(144,198)"/>
<path d="M0 0 C1.98 0.66 3.96 1.32 6 2 C6.33 3.65 6.66 5.3 7 7 C5.83040013 6.02433888 4.66438823 5.044375 3.5 4.0625 C2.8503125 3.51722656 2.200625 2.97195312 1.53125 2.41015625 C1.0259375 1.94480469 0.520625 1.47945312 0 1 C0 0.67 0 0.34 0 0 Z " fill="#166EAA" transform="translate(39,195)"/>
<path d="M0 0 C1.65 0 3.3 0 5 0 C5.33 0.99 5.66 1.98 6 3 C5.01 3.33 4.02 3.66 3 4 C2.01 3.34 1.02 2.68 0 2 C0 1.34 0 0.68 0 0 Z " fill="#0779D5" transform="translate(149,196)"/>
<path d="M0 0 C-1.28965176 1.37562854 -2.62689293 2.70766393 -4 4 C-4.66 4 -5.32 4 -6 4 C-6 2.68 -6 1.36 -6 0 C-3 -1 -3 -1 0 0 Z " fill="#01142E" transform="translate(268,108)"/>
<path d="M0 0 C5.4611399 0.35233161 5.4611399 0.35233161 8 1 C9.5 3.0625 9.5 3.0625 10 5 C5 3 5 3 0 1 C0 0.67 0 0.34 0 0 Z " fill="#041F3D" transform="translate(414,56)"/>
<path d="M0 0 C3.91211733 1.15585285 6.8745041 2.35534962 10 5 C6.44219804 4.39009109 3.3171411 3.4216319 0 2 C0 1.34 0 0.68 0 0 Z " fill="#3086BF" transform="translate(411,55)"/>
<path d="M0 0 C0.33 1.32 0.66 2.64 1 4 C-0.98 4 -2.96 4 -5 4 C-5 3.34 -5 2.68 -5 2 C-3.35 1.34 -1.7 0.68 0 0 Z " fill="#0267B3" transform="translate(347,44)"/>
</svg>
