<?xml version="1.0" encoding="UTF-8"?>
<svg version="1.1" xmlns="http://www.w3.org/2000/svg" width="666" height="374">
<path d="M0 0 C5.82991104 0.21023258 9.15123433 0.38763605 13.37890625 4.7265625 C14.80294281 5.86855687 16.24209591 6.99181893 17.69140625 8.1015625 C18.46742188 8.70355469 19.2434375 9.30554688 20.04296875 9.92578125 C26.81003966 15.16363488 26.81003966 15.16363488 33.87890625 19.9765625 C34.70390625 20.5540625 35.52890625 21.1315625 36.37890625 21.7265625 C36.37890625 22.3865625 36.37890625 23.0465625 36.37890625 23.7265625 C37.10078125 23.9740625 37.82265625 24.2215625 38.56640625 24.4765625 C42.24287978 26.11055073 45.53992334 28.04859669 47.37890625 31.7265625 C47.44841166 33.26680246 47.46342982 34.80991238 47.44140625 36.3515625 C47.43238281 37.16882813 47.42335938 37.98609375 47.4140625 38.828125 C47.39666016 39.76785156 47.39666016 39.76785156 47.37890625 40.7265625 C46.76015625 40.9740625 46.14140625 41.2215625 45.50390625 41.4765625 C43.25154847 42.53480193 43.25154847 42.53480193 42.46606445 44.63867188 C41.21635282 47.03874686 40.10048139 47.90388354 37.859375 49.3828125 C37.16650391 49.84816406 36.47363281 50.31351563 35.75976562 50.79296875 C35.03595703 51.26605469 34.31214844 51.73914063 33.56640625 52.2265625 C32.14204519 53.17269917 30.71884156 54.1205809 29.296875 55.0703125 C28.61939209 55.52277344 27.94190918 55.97523438 27.24389648 56.44140625 C24.85587021 58.08698425 22.61504857 59.88135415 20.37890625 61.7265625 C18.38654924 63.26209777 16.37956987 64.7721871 14.35546875 66.265625 C12.65785972 67.5203795 10.98455356 68.80789724 9.31640625 70.1015625 C5.64582169 72.13209864 3.51697643 72.32846362 -0.62109375 71.7265625 C-3.37438396 69.93093845 -5.14736836 68.67401328 -6.62109375 65.7265625 C-6.62109375 59.1265625 -6.62109375 52.5265625 -6.62109375 45.7265625 C-69.32109375 45.7265625 -132.02109375 45.7265625 -196.62109375 45.7265625 C-196.62109375 39.4565625 -196.62109375 33.1865625 -196.62109375 26.7265625 C-133.92109375 26.7265625 -71.22109375 26.7265625 -6.62109375 26.7265625 C-6.62109375 20.1265625 -6.62109375 13.5265625 -6.62109375 6.7265625 C-2.62109375 0.7265625 -2.62109375 0.7265625 0 0 Z " fill="#EDEDED" transform="translate(407.62109375,169.2734375)"/>
</svg>
